<svg class="icon" viewBox="0 0 1024 1024" xmlns="http://www.w3.org/2000/svg" data-spm-anchor-id="a313x.7781069.0.i7" width="200" height="200"><defs><style/></defs><path d="M398.905 719.275l-224.569-224.54a158.322 158.322 0 010-223.859L398.905 46.364a158.265 158.265 0 01223.83 0l224.568 224.54a158.265 158.265 0 010 223.83l-224.569 224.57a158.265 158.265 0 01-223.83 0" fill="#ff2882" data-spm-anchor-id="a313x.7781069.0.i1"/><path d="M398.905 957.07L174.336 732.501a158.293 158.293 0 010-223.8L398.905 284.16a158.265 158.265 0 01223.83 0L847.302 508.7a158.236 158.236 0 010 223.801l-224.569 224.57a158.265 158.265 0 01-223.83 0" fill="rgba(150, 60, 255, .8)" data-spm-anchor-id="a313x.7781069.0.i5" class="selected"/><path d="M622.734 719.303l217.543-217.6L622.734 284.16a158.265 158.265 0 00-223.83 0l-217.6 217.572 217.6 217.571a158.265 158.265 0 00223.859 0" fill="rgba(150, 60, 255, .8)" data-spm-anchor-id="a313x.7781069.0.i0" class="selected"/></svg>