<svg id="eb3a4a93-056e-488a-be53-b20ba157a3d0" data-name="Layer 1" xmlns="http://www.w3.org/2000/svg" width="969.794" height="852.859" viewBox="0 0 969.794 852.859"><path d="M892.556 528.268c-70.911 59.16-115.245 119.743-150.123 173.386-62.88 96.677-95.078 170.84-196.898 173.635-108.667 2.982-246.156-59.929-321.856-142.819-57.778-63.243-79.576-138.102-25.164-204.202 125.717-152.73 155.37-347.02 347.02-347.02s494.193 224.254 347.02 347.02z" transform="translate(-115.103 -23.57)" fill="#f2f2f2"/><circle cx="606.173" cy="293.692" r="56.433" fill="#ff6584"/><path d="M374.18 495.199c32.904 94.676-11.89 147.294-81.319 171.423s-137.2 10.634-170.105-84.042 50.949-258.808 50.949-258.808 167.57 76.751 200.475 171.427z" transform="translate(-115.103 -23.57)" fill="#973cff"/><path fill="#3f3d56" d="M168.145 630.161l-26.25-79.682 19.513-116.648-23.631 104.148-11.804-35.829 12.28-83.754-15.403 74.273-21.229-64.439 19.921-70.205-23.259 60.072-40.185-117.721 49.971 156.963-1.894-6.534-61.592-47.566 65.228 60.108 21.125 72.865-.771-1.861-68.856-48.652 71.047 55.412 2.642 9.112-.037.164.294.721 53.597 184.866 12.698-4.414-31.069-94.31 21.316-87.315-23.652 80.226zm253.836 24.967l1.362-83.884 56.726-103.777-56.512 90.618.613-37.718 39.095-75.081-38.933 65.1 1.102-67.837 41.864-59.774-41.691 49.107.689-124.389-4.327 164.668.355-6.793-42.563-65.15 41.881 78.19-3.966 75.763-.118-2.011-49.068-68.561 48.919 75.665-.496 9.474-.089.143.041.778-10.062 192.215h13.444l1.612-99.283 48.8-75.479-48.678 68.016z"/><path d="M742.433 702.693c-62.88 96.677-95.078 170.84-196.898 173.635-108.667 2.982-246.156-59.929-321.856-142.819 59.46-36.323 163.692-73.29 286.53-73.29 87.244 0 168.929 18.65 232.224 42.474z" transform="translate(-115.103 -23.57)" fill="#3f3d56"/><path d="M406.46 315.522s11.28 8.066 16.475-7.518 3.117-16.624 3.117-16.624h-12.468z" transform="translate(-115.103 -23.57)" fill="#973cff"/><path d="M406.46 315.522s11.28 8.066 16.475-7.518 3.117-16.624 3.117-16.624h-12.468z" transform="translate(-115.103 -23.57)" opacity=".1"/><circle cx="321.691" cy="80.809" r="56.893" fill="#2f2e41"/><path fill="#973cff" d="M273.105 250.734l-2.518 44.81 35.747 1.007-6.041-68.977-21.65-1.007-5.538 24.167z"/><path opacity=".1" d="M273.105 250.734l-2.518 44.81 35.747 1.007-6.041-68.977-21.65-1.007-5.538 24.167z"/><path d="M379.145 426.356l28.195 110.263s2.517 62.935 19.132 95.661 14.098 41.79 14.098 41.79l14.6-5.54s-6.041-71.494-6.041-80.053-6.042-35.747-6.042-35.747 5.539-32.726-4.028-63.942 4.028-58.908 4.028-58.908zm72.501 12.587s18.63 70.488 16.615 80.054 15.105 47.327 15.105 47.327 7.049 53.37 9.063 60.418 16.111 55.886 16.111 55.886l19.636-4.027s-4.532-121.34-14.601-151.549l-3.525-93.144z" transform="translate(-115.103 -23.57)" fill="#a0616a"/><path d="M440.57 657.454s-6.042-5.035-6.042-3.524 3.021 19.132 3.021 19.132-2.517 10.07-3.02 14.601c0 0-12.588 7.552-13.091 17.119s-2.014 16.615 0 17.118 34.236 4.028 34.74-1.007a57.816 57.816 0 000-10.07h2.014v1.007s5.035-1.51 5.538-3.02 0-19.133 0-19.133a63.75 63.75 0 00-2.517-16.111l-1.51-23.16s-14.602 4.027-14.602 6.041-4.531 1.007-4.531 1.007zm80.557 10.573s0-3.02-8.56 0-12.586 6.042-12.083 8.56 5.035 20.139 5.035 20.139-4.028 19.132-1.007 26.18 2.014 7.05 2.014 7.05 60.418-19.636 59.41-22.657-3.523-13.594-10.069-14.098-14.097 5.539-17.118-2.013-6.545-9.567-9.566-18.63c0 0-1.007-7.048-1.51-6.545s-5.539 3.021-6.546 2.014z" transform="translate(-115.103 -23.57)" fill="#2f2e41"/><path d="M423.955 146.42s17.622 27.691 5.035 33.733-13.594 3.525-13.594 3.525l8.056 59.41 25.174 17.119 35.243-34.237 1.007-1.51 3.525-40.782-4.532-8.56s-18.125 2.518-19.635-12.587-3.525-24.67-3.525-24.67z" transform="translate(-115.103 -23.57)" fill="#a0616a"/><path d="M423.955 146.42s17.622 27.691 5.035 33.733-13.594 3.525-13.594 3.525l8.056 59.41 25.174 17.119 35.243-34.237 1.007-1.51 3.525-40.782-4.532-8.56s-18.125 2.518-19.635-12.587-3.525-24.67-3.525-24.67z" transform="translate(-115.103 -23.57)" opacity=".1"/><circle cx="323.453" cy="95.158" r="34.237" fill="#a0616a"/><path d="M448.626 246.11s-26.263-63.823-28.78-63.823-15.586 9.35-15.586 9.35l-7.493 77.633s11.077 40.278 3.02 46.32S351.455 408.23 358 417.293s46.824 35.244 70.99 33.23 87.103-8.056 87.607-14.097-18.126-111.773-20.643-113.284 3.524-28.698 3.524-28.698l-4.028-103.718-6.041-14.097-18.126 52.865z" transform="translate(-115.103 -23.57)" fill="#2f2e41"/><path d="M426.697 183.132c10.346-9.5 6.804-9.936-2.779-4.16-9.065 5.464-37.517-.743-40.745 5.713-4.028 8.055-6.545 82.57-5.035 84.585s-6.545 77.536-3.524 78.543 8.559-6.042 11.076-11.58 24.67-108.752 24.67-108.752zm50.507-5.892c-13.251-6.42-7.816-6.777 4.228-2.997 9.527 2.99 33.087 9.14 36.674 9.938 4.531 1.007 10.573 9.566 10.07 10.573s-5.035 52.362-5.035 52.362 4.531 9.566 6.042 11.077 24.167 65.956 19.132 70.99-46.32 16.616-49.845 11.581-3.524-35.244-12.083-40.782-22.657-71.998-15.608-92.64c4.743-13.89 11.397-27.693 6.425-30.102z" transform="translate(-115.103 -23.57)" fill="#973cff"/><path d="M539.756 324.653l-23.15 15.551s-32.233 5.091-30.22-13.034 29.203-19.636 29.203-19.636l13.594 1.007zM352.46 308.038l23.15 15.551s32.234 5.091 30.22-13.034-29.202-19.636-29.202-19.636l-13.594 1.007z" transform="translate(-115.103 -23.57)" fill="#a0616a"/><path d="M389.718 184.181a109.775 109.775 0 00-24.67 44.306c-7.553 27.188-16.615 35.244-16.615 40.782s1.51 48.335 5.034 48.838 1.51-26.18 20.643-25.174c0 0-2.014-3.524 0-5.035s2.518-2.517 1.51-3.524-1.51-4.531 0-6.042 2.518-9.063 2.518-9.063l4.028-1.51z" transform="translate(-115.103 -23.57)" fill="#973cff"/><ellipse cx="325.718" cy="70.235" rx="41.789" ry="17.118" fill="#2f2e41"/><path d="M526.665 191.23s66.963 73.005 63.44 80.557-47.832 65.956-49.342 64.95-13.09-30.21-18.126-30.21c0 0 17.543-3.888 20.352-8.238s16.906-21.97 9.857-26.502-30.209-29.706-31.719-30.712 5.538-49.845 5.538-49.845z" transform="translate(-115.103 -23.57)" fill="#973cff"/><circle cx="321.546" cy="23.897" r="23.897" fill="#2f2e41"/><path fill="#3f3d56" d="M579.794 125h390v77h-390zm0 90h390v77h-390z"/><circle cx="620.794" cy="163" r="23" fill="#973cff"/><path fill="#973cff" d="M675.794 154h227v5h-227zm0 13h227v5h-227z"/><circle cx="620.794" cy="254" r="23" fill="#973cff" opacity=".3"/><path fill="#973cff" opacity=".3" d="M675.794 245h227v5h-227zm0 13h227v5h-227z"/><path d="M648.357 643.271c-.202-1.173-4.852-28.853 3.893-40.083a11.486 11.486 0 018.463-4.616 12.592 12.592 0 019.643 3.353c10.517 9.39 11.566 34.995 11.605 36.08l-1.46.053c-.01-.26-1.066-26.069-11.12-35.044a11.167 11.167 0 00-8.555-2.985 10.077 10.077 0 00-7.422 4.056c-8.35 10.72-3.656 38.656-3.607 38.938z" transform="translate(-115.103 -23.57)" fill="#2f2e41"/><path fill="#2f2e41" d="M485.743 612.999l-3.654-4.384 101.577-14.616v5.116l25.577-2.193-8.769 90.616-103.039-1.462-11.692-73.077z"/><path fill="#fff" opacity=".05" d="M485.743 612.999l-3.654-4.384 101.577-14.616v5.116l25.577-2.193-8.769 90.616-103.039-1.462-11.692-73.077z"/><path fill="#2f2e41" d="M612.897 692.653l-94.942 39.864-.789.329-37.269-19 1.827-105.597 31.423 2.193-3.654 4.384.789-.146 98.596-18.123 4.019 96.096z"/><path opacity=".1" d="M517.955 732.517l-38.058-18.671 1.827-105.597 31.423 2.193-3.654 4.384.789-.146-.424.512 8.097 117.325z"/><path d="M548.59 619.576s-7.309-42.384 11.691-43.846 20.462 38.73 20.462 38.73" fill="none" stroke="#2f2e41" stroke-miterlimit="10" stroke-width="2"/></svg>