<svg id="afa8f846-9f09-4e7c-bda3-49d724cd1542" data-name="Layer 1" xmlns="http://www.w3.org/2000/svg" width="886" height="792.695" viewBox="0 0 886 792.695"><ellipse cx="443" cy="738.195" rx="443" ry="54.5" fill="#3f3d56"/><path fill="#3f3d56" d="M411 457.695v254l-173 29-189-23v-255l189-17 173 12z"/><path opacity=".1" d="M238 471.695v269l-189-23v-255l189 9z"/><path fill="#fff" opacity=".1" d="M411 457.695l-173 14-189-9 189-17 173 12z"/><path fill="#d0cde1" d="M788 632.695v95l-121 27-243-20v-85l3.98-.67.37-.06L638 613.695l147.43 18.67 2.57.33z"/><path opacity=".1" d="M667 663.695v91l-243-20v-85l3.98-.67L667 663.695z"/><path fill="#fff" opacity=".1" d="M785.43 632.365L667 663.695l-238.65-14.73L638 613.695l147.43 18.67z"/><path d="M502 607.347v195a265.608 265.608 0 00132 0v-195z" transform="translate(-157 -53.653)" fill="#6c63ff"/><ellipse cx="411" cy="552.195" rx="66" ry="7.5" fill="#6c63ff"/><ellipse cx="411" cy="552.195" rx="66" ry="7.5" opacity=".1"/><path d="M633.873 338.028a206.2 206.2 0 002.812 6.258l-2.082.977a209.216 209.216 0 01-2.843-6.328zM1005.1 171.376a207.928 207.928 0 013.749 8.474l-2.123.883a206.056 206.056 0 00-5.757-12.619l2.06-1.024q1.056 2.124 2.07 4.286zm-8.739-16.624l-1.984 1.162a203.703 203.703 0 00-7.409-11.72l1.9-1.294a206.724 206.724 0 017.493 11.852zm17.433 38.22a205.424 205.424 0 014.036 13.429l-2.223.584a202.8 202.8 0 00-3.992-13.277zm-33.213-61.384l-1.808 1.422a201.172 201.172 0 00-8.946-10.593l1.704-1.544a203.763 203.763 0 019.05 10.715zm40.352 88.49a203.883 203.883 0 012.152 13.858l-2.282.275a202.456 202.456 0 00-2.13-13.703zm-59.17-109.269l-1.592 1.658a202.802 202.802 0 00-10.309-9.252l1.477-1.762a205.475 205.475 0 0110.425 9.356zm62.515 137.122c.235 4.662.31 9.385.223 14.04l-2.3-.043c.086-4.602.012-9.272-.22-13.881zM940.292 92.833l-1.352 1.86a203.552 203.552 0 00-11.485-7.755l1.221-1.95a206.218 206.218 0 0111.616 7.845zm83.465 183.155c-.407 4.647-.98 9.333-1.703 13.93l-2.271-.357a203.507 203.507 0 001.684-13.775zM916.55 77.957l-1.085 2.027a203.86 203.86 0 00-12.44-6.12l.944-2.098a205.687 205.687 0 0112.581 6.191zm102.853 225.74a207.042 207.042 0 01-3.584 13.564l-2.202-.663a205.125 205.125 0 003.544-13.412zm-128.41-237.25l-.8 2.156a205.012 205.012 0 00-13.162-4.376l.652-2.206a207.536 207.536 0 0113.31 4.426zm120.326 264.1a206.888 206.888 0 01-5.393 12.946l-2.091-.956a204.584 204.584 0 005.332-12.802zM864.097 58.513l-.5 2.244a204.21 204.21 0 00-13.638-2.545l.345-2.273c4.61.698 9.25 1.565 13.793 2.574zM999.664 356.04a205.74 205.74 0 01-7.101 12.087l-1.943-1.232a203.89 203.89 0 007.023-11.952zM836.363 54.317l-.188 2.29a202.425 202.425 0 00-13.865-.656l.03-2.298c4.66.06 9.376.282 14.023.664zm148.29 325.38a204.697 204.697 0 01-8.682 10.997l-1.754-1.486c2.97-3.509 5.86-7.167 8.584-10.874zM808.303 53.953l.13 2.296c-4.604.26-9.257.682-13.831 1.258l-.287-2.282c4.626-.582 9.333-1.01 13.988-1.272zm158.254 347.11a204.152 204.152 0 01-10.12 9.712l-1.533-1.714a202.276 202.276 0 0010.005-9.6zM780.467 57.46l.444 2.257c-4.519.89-9.062 1.948-13.504 3.145l-.598-2.22a205.421 205.421 0 0113.658-3.182zM945.67 419.763a204.395 204.395 0 01-11.36 8.224l-1.283-1.908c3.82-2.57 7.598-5.306 11.23-8.131zM753.403 64.753l.748 2.174a204.976 204.976 0 00-12.947 4.961l-.895-2.117a206.701 206.701 0 0113.094-5.018zm169.012 370.659a208.596 208.596 0 01-12.374 6.598l-1.012-2.065a205.44 205.44 0 0012.236-6.525zM728.62 77.718a205.233 205.233 0 00-12.162 6.66l-1.173-1.978a207.7 207.7 0 0112.3-6.736zm-23.842 14.133a203.105 203.105 0 00-11.138 8.26l-1.432-1.799a204.688 204.688 0 0111.265-8.354zm-21.68 17.268a202.247 202.247 0 00-9.884 9.701l-1.666-1.584c3.204-3.37 6.568-6.67 9.998-9.812zm-19.078 20.065a202.824 202.824 0 00-8.463 10.974l-1.868-1.34c2.71-3.777 5.59-7.51 8.56-11.1zm-16.155 22.505a204.485 204.485 0 00-6.887 12.032l-2.033-1.072a206.275 206.275 0 016.964-12.17zm-12.938 24.51a204.308 204.308 0 00-5.189 12.86l-2.16-.787a207.135 207.135 0 015.247-13.007zm-9.49 26.046a204.982 204.982 0 00-3.392 13.452l-2.247-.486a206.78 206.78 0 013.43-13.603zm-5.861 27.103a204.257 204.257 0 00-1.527 13.792l-2.293-.174c.354-4.64.873-9.332 1.545-13.95zm-2.104 27.659c-.033 4.61.094 9.278.379 13.875l-2.295.142c-.288-4.649-.416-9.37-.384-14.034zm1.715 27.693a201.88 201.88 0 002.284 13.677l-2.253.457a204.04 204.04 0 01-2.31-13.833zm5.507 27.165a203.586 203.586 0 004.142 13.233l-2.17.761a206.258 206.258 0 01-4.189-13.383zM896.066 445.76l.868 2.128a206.01 206.01 0 01-6.466 2.51l-.796-2.157c2.117-.78 4.268-1.615 6.394-2.482z" transform="translate(-157 -53.653)" fill="#e6e6e6"/><circle cx="411" cy="462.695" r="43" fill="#6c63ff"/><path d="M223.879 595.128h41.304a144.462 144.462 0 000-49.246h-41.304a88.612 88.612 0 010 49.246z" transform="translate(-157 -53.653)" fill="#6c63ff"/><path d="M322.121 647.15h-41.304a144.462 144.462 0 010-49.246h41.304a88.612 88.612 0 000 49.247z" transform="translate(-157 -53.653)" fill="#ff6584"/><path d="M300.879 727.128h41.304a144.462 144.462 0 000-49.246h-41.304a88.612 88.612 0 010 49.246zm108.922-291.83a118.141 118.141 0 10-54.815 44.012 38.215 38.215 0 1054.815-44.012z" transform="translate(-157 -53.653)" fill="#6c63ff"/><path fill="#fff" d="M84.387 292.074h140.535v11.095H84.387zm0 18.491h140.535v11.095H84.387zm0 18.492h140.535v11.095H84.387z"/><path d="M902.146 687.869c-.229-.375-5.64-9.41-7.516-28.172-1.72-17.213-.614-46.227 14.432-86.698 28.506-76.671-6.569-138.534-6.927-139.15l1.73-1.004c.091.157 9.142 15.93 14.489 41.044a179.061 179.061 0 01-7.416 99.807c-28.457 76.54-7.301 112.773-7.084 113.13z" transform="translate(-157 -53.653)" fill="#3f3d56"/><circle cx="734" cy="362.695" r="13" fill="#6c63ff"/><circle cx="775" cy="410.695" r="13" fill="#3f3d56"/><circle cx="747" cy="442.695" r="13" fill="#6c63ff"/><circle cx="781" cy="469.695" r="13" fill="#6c63ff"/><circle cx="737" cy="511.695" r="13" fill="#3f3d56"/><path d="M910 688.347s-13-32 26-56zm-15.988-.58s-5.916-34.03-51.709-33.738z" transform="translate(-157 -53.653)" fill="#3f3d56"/><circle cx="657.446" cy="177.791" r="43.655" fill="#2f2e41"/><path d="M752.625 325.295l-12.17 27.586-12.982-38.945s-1.623-34.077-12.982-32.454-1.623 34.077-1.623 34.077 7.302 72.21 23.53 68.154 26.774-27.586 26.774-27.586l2.84-24.878zm45.03-62.069s4.868 26.775-5.68 32.454 40.569 4.057 41.38-4.868c0 0-11.36-27.586-11.36-34.077zm-77.079 219.878s4.057 46.248 5.68 55.984 1.622 24.341 1.622 24.341-4.057 31.643-2.434 61.663l2.434 25.152h18.661l.713-3.348 7.401-34.785s8.114-28.398 4.868-49.493l8.925-68.155zm57.607 16.228s19.472 60.852 24.34 67.342 11.36 21.096 11.36 21.096 13.792 34.077 21.095 39.756l8.113 14.605 13.793-4.057-4.056-32.454s-1.623-26.775-19.473-50.305l-8.925-54.36z" transform="translate(-157 -53.653)" fill="#a0616a"/><path d="M827.675 290s-24.021 6.279-33.106 3.545c0 0-9.084-.299-12.33.513s-23.53 8.113-23.53 9.736 4.058 17.85 4.058 17.85-2.434 9.736-1.623 16.227-14.604 26.775-6.49 28.398 12.98-1.623 17.038 1.622 52.738 17.85 52.738 17.85l40.568-80.324s-6.49-13.793-12.17-13.793-20.821-4.151-20.821-4.151z" transform="translate(-157 -53.653)" fill="#3f3d56"/><path d="M762.767 304.605l-4.057-1.622s-14.605 22.718-9.736 25.152 17.038 8.113 17.038 8.113z" transform="translate(-157 -53.653)" fill="#3f3d56"/><path d="M761.144 363.023l-12.982 21.096s-20.284 3.245-21.906 30.831c0 0-13.794 4.868-17.039 30.02 0 0-20.284 12.982-9.736 27.587s67.343 43.813 127.383 34.077c0 0 11.36-22.718 3.246-38.134 0 0 8.702-16.368-6.197-27.657 0 0 12.687-16.156-.294-34.006l.811-25.964zm-12.17 284.787h-22.718s-.812 20.284-9.737 25.153-25.963 30.831-12.982 34.077 51.116-21.096 51.116-26.775-5.68-32.455-5.68-32.455zm109.533-12.981l-19.473 7.302s14.605 39.757 14.605 45.436 2.434 12.17 17.038 9.736 12.17-13.793 12.17-13.793z" transform="translate(-157 -53.653)" fill="#2f2e41"/><circle cx="648.769" cy="191.723" r="25.152" fill="#a0616a"/><path d="M861.753 333.003s-11.36 40.568-12.982 43.813l-26.775 68.966s3.245 34.888-8.925 29.209-.811-35.7-.811-35.7l18.66-73.834 10.549-32.454z" transform="translate(-157 -53.653)" fill="#a0616a"/><path d="M855.262 298.926l9.736 6.49s8.114 31.644 0 30.832-26.775 4.057-27.586 2.434 17.85-39.756 17.85-39.756z" transform="translate(-157 -53.653)" fill="#3f3d56"/><circle cx="671.005" cy="132.055" r="18.064" fill="#2f2e41"/><path d="M803.92 175.923a18.066 18.066 0 0116.182-17.967 18.264 18.264 0 00-1.882-.097 18.064 18.064 0 100 36.128 18.264 18.264 0 001.882-.098 18.066 18.066 0 01-16.183-17.966z" transform="translate(-157 -53.653)" fill="#2f2e41"/><ellipse cx="650.144" cy="163.551" rx="30.107" ry="18.064" fill="#2f2e41"/><ellipse cx="675.544" cy="190.506" rx="2.028" ry="4.868" fill="#a0616a"/><path fill="#3f3d56" d="M286.988 87.383h274v152.598h-274z"/><path fill="#fff" d="M337.328 145.781h172.661v5.061H337.328zm0 20.244h172.661v5.061H337.328zm0 20.245h172.661v5.061H337.328z"/><path fill="#6c63ff" d="M286.988 87.548h274v17h-274z"/><circle cx="298.181" cy="96.548" r="6.192" fill="#e6e6e6"/><circle cx="314.988" cy="96.548" r="6.192" fill="#e6e6e6"/><circle cx="331.796" cy="96.548" r="6.192" fill="#e6e6e6"/></svg>