<svg class="icon" viewBox="0 0 1024 1024" xmlns="http://www.w3.org/2000/svg" width="200" height="200"><defs><style/></defs><path d="M341.333 405.333a277.333 277.333 0 10554.667 0 277.333 277.333 0 10-554.667 0z" fill="#D87B00"/><path d="M128 618.667a277.333 277.333 0 10554.667 0 277.333 277.333 0 10-554.667 0z" fill="#FFB300"/><path d="M320 608a53.333 53.333 0 10106.667 0A53.333 53.333 0 10320 608zm64-149.333a32 32 0 1064 0 32 32 0 10-64 0zm64 266.666a42.667 42.667 0 1085.333 0 42.667 42.667 0 10-85.333 0zm-234.667-74.666a32 32 0 1064 0 32 32 0 10-64 0zm298.688-64.022a32 32 0 1064 0 32 32 0 10-64 0zM320 768a21.333 21.333 0 1042.667 0A21.333 21.333 0 10320 768z" fill="#683529"/><path d="M512 256a42.667 42.667 0 1085.333 0A42.667 42.667 0 10512 256zm127.979 95.979a32 32 0 1064 0 32 32 0 10-64 0zM661.312 224a32 32 0 1064 0 32 32 0 10-64 0zm85.355 224a21.333 21.333 0 1042.666 0 21.333 21.333 0 10-42.666 0z" fill="#4C2114"/></svg>