<svg class="icon" viewBox="0 0 1024 1024" xmlns="http://www.w3.org/2000/svg" width="200" height="200"><defs><style/></defs><path d="M241.911 518.185a272.838 272.838 0 10545.676 0 272.838 272.838 0 10-545.676 0z" fill="#fff" data-spm-anchor-id="a313x.7781069.0.i9"/><path d="M295.517 532.617c-5.498 0-10.309-4.81-10.309-10.308v-4.124c0-25.428 4.124-50.169 12.37-74.223 2.062-5.498 7.56-8.247 13.058-6.185 5.498 2.062 8.247 7.56 6.185 13.058-7.56 21.305-10.995 43.984-10.995 67.35v4.124c.687 5.498-4.124 10.308-10.31 10.308.688 0 .688 0 0 0zm43.296 126.454c-3.436 0-6.185-1.374-8.247-4.123-16.494-22.68-28.864-47.42-36.424-74.223-1.374-5.498 1.375-10.996 6.873-13.058 5.498-1.374 10.996 1.375 13.057 6.873 6.873 24.053 17.869 46.732 32.988 67.35 3.437 4.81 2.75 10.996-2.061 14.432-2.062 2.062-4.124 2.75-6.186 2.75zm43.297 43.297c-2.062 0-4.123-.687-6.185-2.062-4.81-3.436-9.622-7.56-14.432-11.683-4.124-4.124-4.811-10.309-.688-14.432 4.124-4.124 10.31-4.811 14.433-.688 4.123 4.124 8.934 7.56 13.057 10.996 4.811 3.437 5.498 9.622 2.062 14.433-2.062 2.061-5.498 3.436-8.247 3.436zm209.61 30.926c-4.123 0-8.246-2.749-9.62-6.873-2.062-5.498.687-10.995 6.185-13.057 52.23-19.243 94.84-59.79 117.519-111.334 2.062-5.498 8.247-7.56 13.745-5.498 5.498 2.061 7.56 8.247 5.498 13.745-24.741 56.354-72.161 100.338-129.203 122.33-2.061.687-3.436.687-4.123.687zM726.422 472.14c-4.81 0-8.934-2.75-9.621-7.56-18.556-70.1-73.536-126.454-142.948-147.071-5.498-1.375-8.934-7.56-6.872-13.058 1.374-5.498 7.56-8.934 13.058-6.872 76.971 21.991 136.762 83.844 157.38 161.503 1.374 5.498-2.062 10.996-7.56 12.37-2.062.688-2.75.688-3.437.688z" fill="#fff"/><path d="M574.54 512.687c15.806-8.934 28.864-21.992 28.864-46.733v-.687c0-15.12-4.81-26.803-15.12-37.111-8.934-8.935-21.991-15.12-38.485-17.869V377.3c0-9.621-7.56-17.18-17.182-17.18s-17.18 7.559-17.18 17.18v31.614H499.63V377.3c0-9.621-7.56-17.18-17.182-17.18s-17.18 7.559-17.18 17.18v31.614h-9.622c-13.058 0-24.054 10.308-24.054 24.053V602.03c0 13.057 10.309 24.053 24.054 24.053h9.621v31.614c0 9.621 7.56 17.18 17.181 17.18s17.182-7.559 17.182-17.18v-31.614h15.806v31.614c0 9.621 7.56 17.18 17.181 17.18s17.182-7.559 17.182-17.18v-32.988c39.86-4.124 65.288-23.367 65.288-58.416v-.688c0-28.864-15.12-43.296-40.547-52.918zm-97.59-61.852h47.42c19.93 0 31.614 8.247 31.614 21.992v.687c0 15.807-13.058 22.68-34.363 22.68h-43.983v-45.36h-.688zm90.717 109.272c0 15.807-13.058 23.367-33.675 23.367H476.95v-47.42h54.98c24.741 0 35.737 8.934 35.737 24.053z" fill="#fff" data-spm-anchor-id="a313x.7781069.0.i7"/><path d="M528.494 920.226v-84.532c0-9.622-7.56-17.181-17.181-17.181s-17.181 7.56-17.181 17.181v84.532c-20.618 6.872-35.05 26.802-35.05 49.481 0 28.865 23.366 52.231 52.23 52.231 28.865 0 52.232-23.366 52.232-52.23 0-23.367-15.12-42.61-35.05-49.482zM105.836 531.93h84.532c9.621 0 17.181-7.56 17.181-17.181s-7.56-17.181-17.181-17.181h-84.532c-6.872-20.618-26.802-35.05-49.482-35.05-28.864 0-52.23 23.367-52.23 52.231s23.366 52.23 52.23 52.23c22.68 0 41.923-15.119 49.482-35.049zm114.77 151.195H119.582c-9.621 0-17.181 7.56-17.181 17.181v122.33c-20.617 6.873-35.05 26.803-35.05 49.482 0 28.865 23.367 52.231 52.231 52.231 28.865 0 52.231-23.366 52.231-52.23 0-22.68-14.432-41.923-35.05-49.483V718.174h83.845c9.621 0 17.18-7.56 17.18-17.18s-7.559-17.87-17.18-17.87zM102.4 207.549v116.832c0 9.622 7.56 17.181 17.181 17.181h81.096c9.621 0 17.18-7.56 17.18-17.18s-7.559-17.182-17.18-17.182h-63.915v-99.651c20.618-6.872 35.05-26.803 35.05-49.482 0-28.864-23.366-52.23-52.23-52.23-28.865 0-52.232 23.366-52.232 52.23 0 22.68 14.433 42.61 35.05 49.482zm727.109 134.013h81.095c9.622 0 17.181-7.56 17.181-17.18V207.548c20.618-6.872 35.05-26.803 35.05-49.482 0-28.864-23.367-52.23-52.231-52.23s-52.23 23.366-52.23 52.23c0 22.68 14.431 41.922 35.049 49.482V307.2h-63.914c-9.622 0-17.181 7.56-17.181 17.181s7.56 17.181 17.18 17.181zm98.276 479.7V699.619c0-9.622-7.56-17.181-17.181-17.181H809.579c-9.622 0-17.182 7.56-17.182 17.18s7.56 17.182 17.182 17.182h83.844v104.462c-20.618 6.872-35.05 26.802-35.05 49.482 0 28.864 23.367 52.23 52.231 52.23s52.23-23.366 52.23-52.23c0-22.68-15.119-41.923-35.049-49.482zM494.132 107.898v81.095c0 9.622 7.56 17.181 17.18 17.181s17.182-7.56 17.182-17.18v-81.096c20.617-6.872 35.05-26.803 35.05-49.482 0-28.864-23.367-52.23-52.231-52.23-28.865 0-52.231 23.366-52.231 52.23 0 22.68 14.432 42.61 35.05 49.482zm473.514 355.995c-21.992 0-41.235 13.745-48.795 33.675h-82.47c-9.621 0-17.181 7.56-17.181 17.181s7.56 17.181 17.181 17.181h81.096c6.872 21.305 26.802 36.424 49.481 36.424 28.865 0 52.231-23.366 52.231-52.23.688-28.865-23.366-52.231-51.543-52.231z" fill="#fff"/></svg>