<svg class="icon" viewBox="0 0 1024 1024" xmlns="http://www.w3.org/2000/svg" width="200" height="200"><defs><style/></defs><path d="M426.667 213.333a85.333 85.333 0 10170.666 0 85.333 85.333 0 10-170.666 0z" fill="#F44336"/><path d="M874.667 554.667C874.667 460.395 712.299 384 512 384s-362.667 76.395-362.667 170.667c0 22.634 10.688 33.088 29.547 36.01 9.152 39.382 150.805 70.656 333.12 70.656 180.992 0 321.344-30.826 332.267-69.781 19.669-.939 30.4-10.923 30.4-36.885z" fill="#795548"/><path d="M746.667 874.667H277.333L170.667 576l42.666 42.667L256 576l42.667 42.667L341.333 576 384 618.667 426.667 576l42.666 42.667L512 576l42.667 42.667L597.333 576 640 618.667 682.667 576l42.666 42.667L768 576l42.667 42.667L853.333 576z" fill="#FF80AB"/><path d="M874.667 554.667a82.987 82.987 0 00-3.776-23.318l-18.454-14.89-41.77 41.877-12.502-12.501L768 515.669l-30.165 30.166-12.502 12.501-12.501-12.501-30.165-30.166-30.166 30.166L640 558.336l-12.501-12.501-30.166-30.166-30.165 30.166-12.501 12.501-12.502-12.501L512 515.669l-30.165 30.166-12.502 12.501-12.501-12.501-30.165-30.166-30.166 30.166L384 558.336l-12.501-12.501-30.166-30.166-30.165 30.166-12.501 12.501-12.502-12.501L256 515.669l-30.165 30.166-12.502 12.501-42.666-40.107-19.563 19.904a82.41 82.41 0 00-1.77 16.534c0 20.842 9.386 31.018 25.557 34.858L170.667 576l42.666 42.667L256 576l42.667 42.667L341.333 576 384 618.667 426.667 576l42.666 42.667L512 576l42.667 42.667L597.333 576 640 618.667 682.667 576l42.666 42.667L768 576l42.667 42.667L853.333 576l-4.714 15.04c16.832-2.197 26.048-12.459 26.048-36.373z" fill="#5D4037"/><path d="M426.667 576L384 618.667l45.355 256h27.541zm-85.334 0l-42.666 42.667 64 256h32.021zM256 576l-42.667 42.667 85.334 256h31.104zm341.077 0l-42.41 42.667-13.099 256h25.536zm85.334 0L640 618.667l-39.104 256h27.541zM768 576l-42.667 42.667-62.229 256 30.23.896zm-256 0l-42.667 42.667 16.022 256H512zm298.667 42.667L853.333 576 746.667 874.667h-25.771z" fill="#F8BBD0"/><path d="M744.81 377.43c0 96.426-104.213 36.757-232.81 36.757s-232.81 59.669-232.81-36.758c0-96.448 104.213-142.762 232.81-142.762s232.81 46.314 232.81 142.762z" fill="#FFE0B2"/></svg>