<svg class="icon" viewBox="0 0 1024 1024" xmlns="http://www.w3.org/2000/svg" width="200" height="200"><defs><style/></defs><path d="M343.56 558.006v233.739l62.33.742c9.646 0 15.582 11.13 9.646 19.293L273.81 1010.643c-7.42 10.389-23.745 10.389-31.166 0L103.142 811.038c-5.936-8.163 0-19.293 10.388-19.293h48.974V365.078" fill="#0e932e" data-spm-anchor-id="a313x.7781069.0.i6" class="selected"/><path d="M161.762 378.435a378.435 378.435 0 10756.87 0 378.435 378.435 0 10-756.87 0z" fill="#0e932e" data-spm-anchor-id="a313x.7781069.0.i4" class="selected"/><path d="M259.71 378.435a280.487 280.487 0 10560.974 0 280.487 280.487 0 10-560.974 0z" fill="#fff" data-spm-anchor-id="a313x.7781069.0.i3"/><path d="M532.035 577.299c-14.099 0-25.23-11.13-25.23-25.23v-21.518c-17.808-1.484-35.617-5.937-50.457-13.357-12.615-5.936-19.293-20.777-14.099-34.133 3.71-11.13 14.099-18.55 25.971-18.55 3.71 0 7.42.741 11.13 2.225 10.39 4.452 25.972 10.389 46.007 10.389 25.97 0 43.037-13.357 43.037-33.392 0-13.356-5.194-28.197-44.522-44.521-43.037-17.067-82.365-39.328-82.365-89.786 0-40.812 26.713-72.719 69.009-83.107v-23.003c0-14.099 11.13-25.229 25.229-25.229s25.229 11.13 25.229 25.229v20.035c14.098 1.484 26.713 4.452 38.585 9.646 13.357 5.194 20.035 20.777 14.841 34.875-3.71 10.389-14.099 17.81-25.229 17.81-3.71 0-7.42-.743-10.388-2.227-11.873-5.194-24.487-7.42-38.586-7.42-27.455 0-37.101 14.84-37.101 28.197 0 14.84 7.42 24.487 49.716 41.554 36.359 14.84 77.913 38.585 77.913 94.237 0 42.296-28.94 76.43-71.977 86.818v24.487c-.742 14.84-11.873 25.97-26.713 25.97z" fill="#0e932e" data-spm-anchor-id="a313x.7781069.0.i5"/></svg>