<svg xmlns="http://www.w3.org/2000/svg" viewBox="0 0 500 500"><defs><clipPath id="freepik--clip-path--inject-2"><path d="M280.64 238.66c-2.81 5.1-5.16 9.17-5.16 9.17s-12.75-21-17.21-24.54-21-6.69-21-6.69a66 66 0 00-20.43 0s-16.57 3.18-21 6.69-17.22 24.54-17.22 24.54-2.54-4.41-5.5-9.8l-8.77 5.34c2.56 8.79 5.23 17.22 6.62 19.44 3.19 5.1 6.7 11.48 15.3 7.65s19.45-16.25 19.45-16.25l18.19.28v0h2.52v0l22-.28s10.84 12.43 19.44 16.25 12.12-2.55 15.3-7.65c1.4-2.23 4.08-10.69 6.65-19.51z" fill="#fff" stroke="#263238" stroke-linecap="round" stroke-linejoin="round" stroke-width="1.232"/></clipPath><clipPath id="freepik--clip-path-2--inject-2"><path d="M199.62 238.91s-4.14 8.92-3.18 14.66a60.69 60.69 0 01.95 7s-6 16.58-7 22.63a13.69 13.69 0 005.42 13.39c3.51 2.55 51.32 3.19 58.65 1.28s6.69-8.93 6.37-15.3S258 262.5 258 262.5s1-19.45-3.18-24.23" fill="#fff" stroke="#263238" stroke-linecap="round" stroke-linejoin="round" stroke-width="1.232"/></clipPath></defs><g id="freepik--background-simple--inject-2"><path d="M123.64 412.55s48 24.93 102.79-1.35S299 334 327.48 295.7c14.9-20 39.28-31.2 57.87-48.06 59.46-53.88 38-144-16.39-168.69-47.09-21.4-101.49-13.73-168.9 22.5s-116 59.61-151.37 131.81S64 377.62 123.64 412.55z" fill="#963cff"/><path d="M123.64 412.55s48 24.93 102.79-1.35S299 334 327.48 295.7c14.9-20 39.28-31.2 57.87-48.06 59.46-53.88 38-144-16.39-168.69-47.09-21.4-101.49-13.73-168.9 22.5s-116 59.61-151.37 131.81S64 377.62 123.64 412.55z" fill="#fff" opacity=".7"/></g><g id="freepik--Plants--inject-2"><path d="M415.3 381.13s-3.3-14.13-.84-26.68 8.34-4.17 15-12.51 3.34-24.18 10.84-30.85 18.35-5.84 20.85-18.35 4.17-22.51 9.17-20.84-4.17 16.67-4.17 25.85 5 15 1.67 24.18-17.51 5.83-17.51 16.67 5.84 21.68.83 29.19-18.34 9.17-20 13.34-5.84 11.67-10 11.67-5.84-11.67-5.84-11.67zm-2.72.15c.84-2.5-.83-24.18-8.33-28.35s-15.85-2.5-20-10-4.17-10.84-8.33-11.67-24.19-4.17-21.68 0 17.51-2.5 17.51 5.83-1.67 21.68 3.33 25 18.35 2.5 17.51 10-3.33 10 .84 12.5 15.84 13.35 17.51 5z" fill="#bfbfbf"/><path d="M421.86 399.66s-3.88-12.13 6.8-34.47 18.45-39.33 23.31-48.07m-38.85 84.49s-1.45-5.83-6.31-21.85-10.68-20.4-18.94-25.74-8.74-14.08-10.19-16.51" fill="none" stroke="#263238" stroke-miterlimit="10" stroke-width="1.232"/><path d="M433.52 392.87s1-8.74 8.74-11.17 15.05-1.46 16.51-6.8 1.45-10.68 4.85-13.6 7.77-4.37 8.26-2.91-4.86 2.43-4.86 7.28 7.28 17-3.4 21.86-19.42.48-23.3 3.88-6.32 5.83-6.32 5.83z" fill="#bfbfbf"/><path d="M432.55 401.61S436 389 444.2 386.07s17.48 3.4 21.36-2.43 1-11.65.49-15.54" fill="none" stroke="#263238" stroke-miterlimit="10" stroke-width="1.232"/><path d="M438 399.66h-30.1a2.42 2.42 0 00-2.42 2.43 2.42 2.42 0 002.42 2.43h.25l2.34 6.15a2.52 2.52 0 002.35 1.62h20.23a2.52 2.52 0 002.35-1.62l2.35-6.15h.23a2.43 2.43 0 002.43-2.43 2.43 2.43 0 00-2.43-2.43z" fill="#263238"/></g><path d="M364 153.52v2.11h-5.14v7.48h6.31v2.13h-8.65v-21h8.65v2.13h-6.31v7.18zm8-9.31c3.3 0 4.69 1.68 4.69 4.81v1.71c0 2.31-.82 3.75-2.62 4.32 1.92.58 2.65 2.14 2.65 4.39v3.28a5.26 5.26 0 00.42 2.52h-2.38a5.5 5.5 0 01-.39-2.55v-3.31c0-2.37-1.11-3.12-3.06-3.12h-1.65v9h-2.35v-21zm-.6 9.91c1.86 0 3-.6 3-2.88v-2c0-1.9-.69-2.89-2.43-2.89h-2.28v7.78zm12.41-9.91c3.3 0 4.68 1.68 4.68 4.81v1.71c0 2.31-.81 3.75-2.61 4.32 1.92.58 2.64 2.14 2.64 4.39v3.28a5.26 5.26 0 00.42 2.52h-2.37a5.5 5.5 0 01-.39-2.55v-3.31c0-2.37-1.11-3.12-3.07-3.12h-1.65v9h-2.34v-21zm-.6 9.91c1.86 0 3-.6 3-2.88v-2c0-1.9-.69-2.89-2.43-2.89h-2.29v7.78zm7.56-4.83c0-3.22 1.6-5.29 4.81-5.29s4.84 2.07 4.84 5.29v10.87c0 3.19-1.59 5.29-4.84 5.29s-4.81-2.1-4.81-5.29zm2.32 11c0 1.92.81 3 2.49 3s2.5-1.12 2.5-3v-11.12c0-1.9-.79-3-2.5-3s-2.49 1.14-2.49 3zm14.24-16.08c3.3 0 4.68 1.68 4.68 4.81v1.71c0 2.31-.81 3.75-2.61 4.32 1.92.58 2.64 2.14 2.64 4.39v3.28a5.26 5.26 0 00.42 2.52h-2.37a5.5 5.5 0 01-.39-2.55v-3.31c0-2.37-1.11-3.12-3.06-3.12H405v9h-2.34v-21zm-.6 9.91c1.86 0 3-.6 3-2.88v-2c0-1.9-.69-2.89-2.43-2.89H405v7.78zm-89.12 75.41l20.24-47.87H350v47.87h5.27v10.12H350v12.85h-10.94v-12.85h-21.45zm21.45 0v-26.62l-11.23 26.62zm24.39-30.87c0-11.34 6-17.81 16.91-17.81s16.9 6.47 16.9 17.81v36.84c0 11.34-6 17.81-16.9 17.81s-16.91-6.47-16.91-17.81zm11.14 37.55c0 5.06 2.22 7 5.77 7s5.76-1.92 5.76-7V198c0-5.06-2.22-7-5.76-7s-5.77 1.92-5.77 7zm32.99-37.55c0-11.34 6-17.81 16.9-17.81s16.9 6.47 16.9 17.81v36.84c0 11.34-6 17.81-16.9 17.81s-16.9-6.47-16.9-17.81zm11.13 37.55c0 5.06 2.23 7 5.77 7s5.77-1.92 5.77-7V198c0-5.06-2.23-7-5.77-7s-5.77 1.92-5.77 7zm-88.65 33.38c3.28 0 4.57 1.57 4.57 4.66v1c0 2.23-.63 3.61-2.47 4.18 2 .57 2.83 2.19 2.83 4.51v1.77c0 3.15-1.53 4.93-4.81 4.93h-4.84v-21zm-.57 8.93c1.86 0 2.82-.6 2.82-2.8v-1.23c0-1.86-.63-2.76-2.31-2.76h-2.31v6.79zm.69 10c1.71 0 2.49-.9 2.49-2.85v-1.86c0-2.35-.93-3.13-2.94-3.13h-2v7.84zm9.31-2.13l-.81 4.24h-2.16l4-21h3.39l4 21h-2.35l-.81-4.24zm.3-2h4.69l-2.37-12.14zm14.94-14.8c3.27 0 4.77 2 4.77 5.23v10.61c0 3.21-1.5 5.2-4.77 5.2h-4.93v-21zm0 18.9c1.68 0 2.49-1.05 2.49-3V274.7c0-1.92-.81-3-2.52-3h-2.53v16.76zm16.27-18.9c3.3 0 4.68 1.69 4.68 4.81v1.71c0 2.32-.81 3.76-2.61 4.33 1.92.57 2.64 2.13 2.64 4.39v3.27a5.3 5.3 0 00.43 2.53h-2.34a5.55 5.55 0 01-.39-2.56v-3.3c0-2.38-1.11-3.13-3.06-3.13h-1.66v9h-2.34v-21zm-.6 9.92c1.86 0 3-.6 3-2.88v-2c0-1.89-.69-2.88-2.43-2.88h-2.29v7.78zm15.27-.6V281h-5.14v7.48h6.31v2.14h-8.65v-21h8.65v2.14h-6.31v7.18zm12.8-4.24v10.88a6 6 0 01-.82 3.27c.24.51.64.66 1.3.66h.3v2.08h-.39a2.79 2.79 0 01-2.68-1.35 5 5 0 01-2.55.63c-3.22 0-4.81-2.11-4.81-5.29v-10.88c0-3.21 1.59-5.29 4.81-5.29s4.84 2.08 4.84 5.29zm-7.34-.12v11.12c0 1.92.82 3 2.5 3s2.49-1.11 2.49-3v-11.12c0-1.89-.78-3-2.49-3s-2.5 1.11-2.5 3zm12.17 11.12c0 1.89.75 3 2.47 3s2.43-1.14 2.43-3v-16.08h2.19v16c0 3.18-1.47 5.32-4.71 5.32s-4.69-2.14-4.69-5.32v-16h2.31zm16.89-6.76V281h-5.14v7.48h6.31v2.14h-8.65v-21h8.65v2.14h-6.31v7.18zm12.43-4.27v.57h-2.22v-.69c0-1.89-.72-3-2.4-3s-2.41 1.11-2.41 3c0 4.72 7.06 5.17 7.06 11.09 0 3.18-1.53 5.26-4.74 5.26s-4.72-2.08-4.72-5.26v-1.2h2.19v1.32c0 1.89.78 3 2.47 3s2.46-1.11 2.46-3c0-4.69-7-5.14-7-11.06 0-3.24 1.5-5.26 4.66-5.26s4.65 2.05 4.65 5.23zm5.14 15.99v-18.9h-3.88v-2.14H444v2.14h-3.9v18.9z" id="freepik--Text--inject-2" fill="#263238"/><g id="freepik--Clock--inject-2" fill="none" stroke="#263238" stroke-linecap="round" stroke-linejoin="round" stroke-width="1.232"><circle cx="114.73" cy="163.35" r="31.91"/><circle cx="114.73" cy="163.35" r="26.44" transform="rotate(-8.96 114.66 163.274)"/><path d="M97.86 163.35h16.87v24.33"/></g><g id="freepik--Character--inject-2"><path d="M261.75 406.94a5.35 5.35 0 115.35 5.35 5.34 5.34 0 01-5.35-5.35z" fill="#263238" stroke="#263238" stroke-linecap="round" stroke-linejoin="round" stroke-width="1.232"/><path d="M264.42 406.94a2.68 2.68 0 112.68 2.67 2.68 2.68 0 01-2.68-2.67z" fill="#fff" stroke="#263238" stroke-linecap="round" stroke-linejoin="round" stroke-width="1.232"/><path d="M204.44 406.94a5.35 5.35 0 115.35 5.35 5.35 5.35 0 01-5.35-5.35z" fill="#263238" stroke="#263238" stroke-linecap="round" stroke-linejoin="round" stroke-width="1.232"/><path d="M207.12 406.94a2.68 2.68 0 112.67 2.67 2.68 2.68 0 01-2.67-2.67z" fill="#fff" stroke="#263238" stroke-linecap="round" stroke-linejoin="round" stroke-width="1.232"/><path d="M185.72 406.94a5.35 5.35 0 115.35 5.35 5.34 5.34 0 01-5.35-5.35z" fill="#263238" stroke="#263238" stroke-linecap="round" stroke-linejoin="round" stroke-width="1.232"/><path d="M188.39 406.94a2.68 2.68 0 112.68 2.67 2.68 2.68 0 01-2.68-2.67z" fill="#fff" stroke="#263238" stroke-linecap="round" stroke-linejoin="round" stroke-width="1.232"/><path d="M229.4 400.82h-11.31 0v-57.9h11.28v57.9h.03z" fill="#263238" stroke="#263238" stroke-linecap="round" stroke-linejoin="round" stroke-width="1.232"/><path fill="#263238" stroke="#263238" stroke-linecap="round" stroke-linejoin="round" stroke-width="1.232" d="M232.42 400.82h-17.34v-40.91h17.34zm17.4-67.61h-14.48 0v-31.14h14.51v31.09z"/><path d="M213.92 302h56.66a9.93 9.93 0 009.92-10.18l-1.36-55.31a9.93 9.93 0 00-9.93-9.68h-46.78a9.93 9.93 0 00-9.82 8.42l-8.5 55.31a9.93 9.93 0 009.81 11.44z" fill="#963cff" stroke="#263238" stroke-linecap="round" stroke-linejoin="round" stroke-width="1.232"/><path fill="none" stroke="#263238" stroke-linecap="round" stroke-linejoin="round" stroke-width="1.232" d="M232.44 344.91l24.85 16.37"/><path d="M258.23 358.8l4.24 2.85a2.79 2.79 0 01.39 4.29l-.3.28a2.77 2.77 0 01-3.7.16l-3.86-3.21a2.72 2.72 0 01-.23-4h0a2.72 2.72 0 013.46-.37z" fill="#263238" stroke="#263238" stroke-linecap="round" stroke-linejoin="round" stroke-width="1.232"/><path d="M177.67 347.74h92.15a8.89 8.89 0 008.89-8.89h0a8.89 8.89 0 00-8.89-8.89h-92.15a8.89 8.89 0 00-8.89 8.89h0a8.89 8.89 0 008.89 8.89z" fill="#963cff" stroke="#263238" stroke-linecap="round" stroke-linejoin="round" stroke-width="1.232"/><path d="M168.84 337.77A9.14 9.14 0 01178 330h47.8a9.14 9.14 0 019.2 7.81 8.9 8.9 0 01-8.83 10h-48.5a8.9 8.9 0 01-8.83-10.04z" fill="#963cff" stroke="#263238" stroke-linecap="round" stroke-linejoin="round" stroke-width="1.232"/><path d="M184 404.05h88.48a4.85 4.85 0 00-4.85-4.84h-78.79a4.84 4.84 0 00-4.84 4.84z" fill="#263238" stroke="#263238" stroke-linecap="round" stroke-linejoin="round" stroke-width="1.232"/><path d="M199.75 404.05h28.8v-4.84h-24a4.85 4.85 0 00-4.85 4.84zm-6.18-111.27l-6.38 10.51s-22.31 2.24-35.06 5.1-15.3 16.9-15.94 19.77c-.71 3.2-4.66 70.09-3.39 70.41s10.84 1.27 10.84 1.27 16.14-65 20.92-65.95 75.54.64 86.06-5.1 13.07-22.31 7-33.78-64.05-2.23-64.05-2.23z" fill="#263238" stroke="#263238" stroke-linecap="round" stroke-linejoin="round" stroke-width="1.232"/><path d="M236.92 305.53s-29.65 0-44 1.27-23.27 12.11-22.63 21.68 12.23 72.32 12.23 72.32l11.15-1 6-67.24s10 6.48 48.79-3.48" fill="#263238" stroke="#263238" stroke-linecap="round" stroke-linejoin="round" stroke-width="1.232"/><path d="M306.72 203.21c-1-.64-4.14 7.65-4.14 7.65a56.63 56.63 0 00-6.06 0c-3.5.32-6.37 5.1-6.37 8.29s-14.67 28.68-14.67 28.68-12.75-21-17.21-24.54-21-6.69-21-6.69a66 66 0 00-20.43 0s-16.57 3.18-21 6.69-17.22 24.54-17.22 24.54-14.66-25.5-14.66-28.68-2.87-8-6.37-8.29a56.59 56.59 0 00-6.06 0s-3.19-8.29-4.14-7.65.63 10.84 1.59 13.07 8.93 3.82 8.93 3.82 9.88 37.61 13.06 42.71 6.7 11.48 15.3 7.65 19.45-16.25 19.45-16.25l18.19.28v0h2.52v0l22-.28s10.84 12.43 19.44 16.25 12.12-2.55 15.3-7.65 13.03-42.71 13.03-42.71 8-1.59 8.93-3.82 2.55-12.43 1.59-13.07z" fill="#9c9c9c" stroke="#263238" stroke-linecap="round" stroke-linejoin="round" stroke-width="1.232"/><path d="M280.64 238.66c-2.81 5.1-5.16 9.17-5.16 9.17s-12.75-21-17.21-24.54-21-6.69-21-6.69a66 66 0 00-20.43 0s-16.57 3.18-21 6.69-17.22 24.54-17.22 24.54-2.54-4.41-5.5-9.8l-8.77 5.34c2.56 8.79 5.23 17.22 6.62 19.44 3.19 5.1 6.7 11.48 15.3 7.65s19.45-16.25 19.45-16.25l18.19.28h2.52l22-.28s10.84 12.43 19.44 16.25 12.12-2.55 15.3-7.65c1.4-2.23 4.08-10.69 6.65-19.51z" fill="#fff"/><g clip-path="url(#freepik--clip-path--inject-2)"><path d="M273 253.73c-.17-2.09-.33-4.07.52-5.34a16.5 16.5 0 011.3-1.7l-1.26-2a17.1 17.1 0 00-2 2.45c-1.29 1.94-1.1 4.41-.9 6.81.16 2.09.32 4.06-.53 5.34-.73 1.09-1.44 1-3.39.6a10.22 10.22 0 00-5.66 0 5.27 5.27 0 00-3.3 3.66c.63.55 1.28 1.1 1.94 1.63.27-1.43.87-2.7 2.09-3.1a8.15 8.15 0 014.47.05c1.94.4 4.15.86 5.77-1.58 1.31-1.95 1.11-4.42.95-6.82zm-24.61.48l.76.85a10.44 10.44 0 001.95-1.06 5 5 0 012.13 0 18.11 18.11 0 007.11-.47c3.87-1.11 4-5.31 4.14-9 .07-2.06.14-4.2.85-5.49a3.09 3.09 0 013.62-1.52c-.51-.79-1-1.58-1.57-2.37a5 5 0 00-4.08 2.78c-1 1.77-1.05 4.19-1.13 6.52-.13 3.87-.37 6.27-2.46 6.86a15.8 15.8 0 01-6.27.4c-1.51-.13-2.81-.25-3.79.53a26.67 26.67 0 01-4.73 2zm-54.82 5.67a10.22 10.22 0 00-5.66 0c-1.95.4-2.66.49-3.39-.6-.85-1.28-.69-3.25-.52-5.34.19-2.4.38-4.87-.91-6.81a15.93 15.93 0 00-2.33-2.83l-1.26 2a14.43 14.43 0 011.67 2.09c.85 1.27.69 3.25.52 5.34-.19 2.4-.39 4.87.91 6.81 1.62 2.44 3.83 2 5.77 1.58a8.15 8.15 0 014.47-.05 3.38 3.38 0 012 2.68c.65-.53 1.28-1.07 1.9-1.62a5.15 5.15 0 00-3.17-3.25zm7.66-8.2a15.85 15.85 0 01-6.28-.4c-2.09-.59-2.33-3-2.46-6.86-.08-2.33-.16-4.75-1.13-6.52a5.07 5.07 0 00-4.68-2.81c-.58.87-1.15 1.74-1.71 2.6 1.17-.4 3.25-.73 4.36 1.32.71 1.29.78 3.43.85 5.49.13 3.7.28 7.9 4.14 9a18.11 18.11 0 007.11.47 5 5 0 012.13 0 8.23 8.23 0 001.51.85l.59-.65 4.14.06a27.23 27.23 0 01-4.79-2.06c-1.01-.74-2.28-.62-3.78-.49z" fill="#963cff"/><path d="M273 253.73c-.17-2.09-.33-4.07.52-5.34a16.5 16.5 0 011.3-1.7l-1.26-2a17.1 17.1 0 00-2 2.45c-1.29 1.94-1.1 4.41-.9 6.81.16 2.09.32 4.06-.53 5.34-.73 1.09-1.44 1-3.39.6a10.22 10.22 0 00-5.66 0 5.27 5.27 0 00-3.3 3.66c.63.55 1.28 1.1 1.94 1.63.27-1.43.87-2.7 2.09-3.1a8.15 8.15 0 014.47.05c1.94.4 4.15.86 5.77-1.58 1.31-1.95 1.11-4.42.95-6.82zm-24.61.48l.76.85a10.44 10.44 0 001.95-1.06 5 5 0 012.13 0 18.11 18.11 0 007.11-.47c3.87-1.11 4-5.31 4.14-9 .07-2.06.14-4.2.85-5.49a3.09 3.09 0 013.62-1.52c-.51-.79-1-1.58-1.57-2.37a5 5 0 00-4.08 2.78c-1 1.77-1.05 4.19-1.13 6.52-.13 3.87-.37 6.27-2.46 6.86a15.8 15.8 0 01-6.27.4c-1.51-.13-2.81-.25-3.79.53a26.67 26.67 0 01-4.73 2zm-54.82 5.67a10.22 10.22 0 00-5.66 0c-1.95.4-2.66.49-3.39-.6-.85-1.28-.69-3.25-.52-5.34.19-2.4.38-4.87-.91-6.81a15.93 15.93 0 00-2.33-2.83l-1.26 2a14.43 14.43 0 011.67 2.09c.85 1.27.69 3.25.52 5.34-.19 2.4-.39 4.87.91 6.81 1.62 2.44 3.83 2 5.77 1.58a8.15 8.15 0 014.47-.05 3.38 3.38 0 012 2.68c.65-.53 1.28-1.07 1.9-1.62a5.15 5.15 0 00-3.17-3.25zm7.66-8.2a15.85 15.85 0 01-6.28-.4c-2.09-.59-2.33-3-2.46-6.86-.08-2.33-.16-4.75-1.13-6.52a5.07 5.07 0 00-4.68-2.81c-.58.87-1.15 1.74-1.71 2.6 1.17-.4 3.25-.73 4.36 1.32.71 1.29.78 3.43.85 5.49.13 3.7.28 7.9 4.14 9a18.11 18.11 0 007.11.47 5 5 0 012.13 0 8.23 8.23 0 001.51.85l.59-.65 4.14.06a27.23 27.23 0 01-4.79-2.06c-1.01-.74-2.28-.62-3.78-.49z" opacity=".5" fill="#fff"/></g><path d="M280.64 238.66c-2.81 5.1-5.16 9.17-5.16 9.17s-12.75-21-17.21-24.54-21-6.69-21-6.69a66 66 0 00-20.43 0s-16.57 3.18-21 6.69-17.22 24.54-17.22 24.54-2.54-4.41-5.5-9.8l-8.77 5.34c2.56 8.79 5.23 17.22 6.62 19.44 3.19 5.1 6.7 11.48 15.3 7.65s19.45-16.25 19.45-16.25l18.19.28v0h2.52v0l22-.28s10.84 12.43 19.44 16.25 12.12-2.55 15.3-7.65c1.4-2.23 4.08-10.69 6.65-19.51z" fill="none" stroke="#263238" stroke-linecap="round" stroke-linejoin="round" stroke-width="1.232"/><path d="M199.62 238.91s-4.14 8.92-3.18 14.66a60.69 60.69 0 01.95 7s-6 16.58-7 22.63a13.69 13.69 0 005.42 13.39c3.51 2.55 51.32 3.19 58.65 1.28s6.69-8.93 6.37-15.3S258 262.5 258 262.5s1-19.45-3.18-24.23" fill="#fff"/><g clip-path="url(#freepik--clip-path-2--inject-2)"><path d="M236.21 251.72a6.58 6.58 0 01-4.47-2.05c-4.35-4-7.25-4.66-10.33-2.42l-1.41 1.08c-3.19 2.44-6.21 4.74-10.93 1.83-1.08-.66-2.06-1.37-2.92-2-3.17-2.3-4.55-3.16-6.82-1.3-1.69 1.38-3 2.2-4.5 2-1.91-.23-3.25-2-5.91-5.56l-.18-.24a5 5 0 00-3.5-2.27 6 6 0 00-4.05 1.68 1.15 1.15 0 01-1.63 0 1.14 1.14 0 010-1.63 8.27 8.27 0 015.84-2.35 7.13 7.13 0 015.19 3.18l.17.24c2.06 2.74 3.41 4.55 4.35 4.66.53.06 1.37-.39 2.76-1.52 3.73-3.06 6.6-1 9.64 1.22.87.63 1.77 1.28 2.77 1.9 3.37 2.08 5.23.66 8.32-1.69.47-.37 1-.74 1.48-1.11 5.12-3.73 9.57-.79 13.25 2.58 2.75 2.52 4.49 1.41 8.14-1.34.7-.52 1.43-1.08 2.22-1.62l.36-.25c4.71-3.27 5.23-3 11.6.53l1.71.94c2.21 1.22 3.57 2 4.2 1.93s1.09-.69 2.3-2.06c.49-.57 1.08-1.23 1.8-2 5.16-5.53 6.85-5.16 11-3.27l.33.15a1.15 1.15 0 11-.95 2.1l-.33-.15c-3.44-1.57-4.06-1.85-8.36 2.75-.69.75-1.26 1.39-1.75 1.95-3.32 3.77-4 3.57-9.35.62l-1.7-.94c-5.64-3.1-5.64-3.1-9.17-.65l-.37.25c-.76.53-1.46 1.06-2.14 1.57-2.23 1.66-4.34 3.26-6.66 3.26zm6.62 7.84c.68-.51 1.38-1.05 2.14-1.57l.37-.25c3.53-2.46 3.53-2.45 9.17.65l1.7.94c5.33 2.95 6 3.15 9.35-.62.49-.56 1.06-1.21 1.75-1.95 4.3-4.61 4.92-4.32 8.36-2.75l.33.15a1.15 1.15 0 10.95-2.1l-.33-.15c-4.13-1.89-5.83-2.26-11 3.27-.72.77-1.31 1.43-1.8 2-1.21 1.37-1.81 2-2.3 2.06s-2-.71-4.2-1.93l-1.71-.94c-6.37-3.51-6.89-3.8-11.6-.53l-.36.25c-.79.54-1.52 1.09-2.22 1.62-3.65 2.75-5.39 3.86-8.14 1.34-3.68-3.37-8.13-6.32-13.25-2.59-.52.38-1 .75-1.48 1.12-3.09 2.35-4.95 3.77-8.32 1.69-1-.62-1.9-1.27-2.77-1.9-3-2.2-5.91-4.28-9.64-1.22-1.39 1.13-2.2 1.59-2.76 1.52-.94-.11-2.29-1.92-4.35-4.66l-.17-.24a7.13 7.13 0 00-5.19-3.18 8.27 8.27 0 00-5.84 2.35 1.14 1.14 0 000 1.63 1.15 1.15 0 001.63 0 6 6 0 014.05-1.68 4.92 4.92 0 013.5 2.27l.18.24c2.66 3.55 4 5.33 5.91 5.56 1.46.18 2.81-.64 4.5-2 2.27-1.85 3.65-1 6.82 1.31.86.63 1.84 1.34 2.92 2 4.72 2.91 7.74.61 10.93-1.83l1.44-1.08c3.08-2.24 6-1.56 10.33 2.42a6.56 6.56 0 004.47 2c2.33.01 4.44-1.58 6.63-3.22z" fill="#963cff"/><path d="M236.21 251.72a6.58 6.58 0 01-4.47-2.05c-4.35-4-7.25-4.66-10.33-2.42l-1.41 1.08c-3.19 2.44-6.21 4.74-10.93 1.83-1.08-.66-2.06-1.37-2.92-2-3.17-2.3-4.55-3.16-6.82-1.3-1.69 1.38-3 2.2-4.5 2-1.91-.23-3.25-2-5.91-5.56l-.18-.24a5 5 0 00-3.5-2.27 6 6 0 00-4.05 1.68 1.15 1.15 0 01-1.63 0 1.14 1.14 0 010-1.63 8.27 8.27 0 015.84-2.35 7.13 7.13 0 015.19 3.18l.17.24c2.06 2.74 3.41 4.55 4.35 4.66.53.06 1.37-.39 2.76-1.52 3.73-3.06 6.6-1 9.64 1.22.87.63 1.77 1.28 2.77 1.9 3.37 2.08 5.23.66 8.32-1.69.47-.37 1-.74 1.48-1.11 5.12-3.73 9.57-.79 13.25 2.58 2.75 2.52 4.49 1.41 8.14-1.34.7-.52 1.43-1.08 2.22-1.62l.36-.25c4.71-3.27 5.23-3 11.6.53l1.71.94c2.21 1.22 3.57 2 4.2 1.93s1.09-.69 2.3-2.06c.49-.57 1.08-1.23 1.8-2 5.16-5.53 6.85-5.16 11-3.27l.33.15a1.15 1.15 0 11-.95 2.1l-.33-.15c-3.44-1.57-4.06-1.85-8.36 2.75-.69.75-1.26 1.39-1.75 1.95-3.32 3.77-4 3.57-9.35.62l-1.7-.94c-5.64-3.1-5.64-3.1-9.17-.65l-.37.25c-.76.53-1.46 1.06-2.14 1.57-2.23 1.66-4.34 3.26-6.66 3.26zm6.62 7.84c.68-.51 1.38-1.05 2.14-1.57l.37-.25c3.53-2.46 3.53-2.45 9.17.65l1.7.94c5.33 2.95 6 3.15 9.35-.62.49-.56 1.06-1.21 1.75-1.95 4.3-4.61 4.92-4.32 8.36-2.75l.33.15a1.15 1.15 0 10.95-2.1l-.33-.15c-4.13-1.89-5.83-2.26-11 3.27-.72.77-1.31 1.43-1.8 2-1.21 1.37-1.81 2-2.3 2.06s-2-.71-4.2-1.93l-1.71-.94c-6.37-3.51-6.89-3.8-11.6-.53l-.36.25c-.79.54-1.52 1.09-2.22 1.62-3.65 2.75-5.39 3.86-8.14 1.34-3.68-3.37-8.13-6.32-13.25-2.59-.52.38-1 .75-1.48 1.12-3.09 2.35-4.95 3.77-8.32 1.69-1-.62-1.9-1.27-2.77-1.9-3-2.2-5.91-4.28-9.64-1.22-1.39 1.13-2.2 1.59-2.76 1.52-.94-.11-2.29-1.92-4.35-4.66l-.17-.24a7.13 7.13 0 00-5.19-3.18 8.27 8.27 0 00-5.84 2.35 1.14 1.14 0 000 1.63 1.15 1.15 0 001.63 0 6 6 0 014.05-1.68 4.92 4.92 0 013.5 2.27l.18.24c2.66 3.55 4 5.33 5.91 5.56 1.46.18 2.81-.64 4.5-2 2.27-1.85 3.65-1 6.82 1.31.86.63 1.84 1.34 2.92 2 4.72 2.91 7.74.61 10.93-1.83l1.44-1.08c3.08-2.24 6-1.56 10.33 2.42a6.56 6.56 0 004.47 2c2.33.01 4.44-1.58 6.63-3.22z" fill="#fff" opacity=".5"/></g><path d="M199.62 238.91s-4.14 8.92-3.18 14.66a60.69 60.69 0 01.95 7s-6 16.58-7 22.63a13.69 13.69 0 005.42 13.39c3.51 2.55 51.32 3.19 58.65 1.28s6.69-8.93 6.37-15.3S258 262.5 258 262.5s1-19.45-3.18-24.23" fill="none" stroke="#263238" stroke-linecap="round" stroke-linejoin="round" stroke-width="1.232"/><path d="M216.81 216.6l-1.36.27a9 9 0 00-.21 1.8c0 6.07 6.5 11 14.51 11s14.5-4.93 14.5-11v-.52c-3.87-1-7-1.55-7-1.55a66 66 0 00-20.44 0z" fill="#963cff" stroke="#263238" stroke-linecap="round" stroke-linejoin="round" stroke-width="1.232"/><path d="M220 210.54s-1 7.65 0 10.2 7 7.33 13.07 5.42a10 10 0 007-9.24V208l-19.76.64z" fill="#9c9c9c" stroke="#263238" stroke-linecap="round" stroke-linejoin="round" stroke-width="1.232"/><ellipse cx="230.22" cy="185.2" rx="22.63" ry="22.15" fill="#263238" stroke="#263238" stroke-linecap="round" stroke-linejoin="round" stroke-width="1.232"/><path d="M215.88 192.69s-1.91-4.46-3.19-.32 1.6 9.25 3.51 9.56-.32-9.24-.32-9.24zm27.55 0s1.91-4.46 3.19-.32-1.6 9.25-3.51 9.56.32-9.24.32-9.24z" fill="#9c9c9c" stroke="#263238" stroke-linecap="round" stroke-linejoin="round" stroke-width="1.232"/><path d="M239.64 177.8a7.78 7.78 0 00-6.07-1.47 24.26 24.26 0 01-5.9.42c-3.18-.31-5.73-1.59-8.28 1s-3.83 14.34-3.83 20.4 4.44 14.62 7.65 16.85 12.11 1.92 14.34 0 5.74-8.92 6.38-14.66-.64-16.89-1.91-19.76a7.8 7.8 0 00-2.38-2.78z" fill="#9c9c9c" stroke="#263238" stroke-linecap="round" stroke-linejoin="round" stroke-width="1.232"/><ellipse cx="225.46" cy="191.69" rx="1.19" ry="1.95" fill="#263238"/><path d="M236.05 191.69c0 1.08-.53 1.95-1.19 1.95s-1.19-.87-1.19-1.95.54-1.95 1.19-1.95 1.19.88 1.19 1.95zm-4.43 11.03c0 1.07-.53 1.94-1.19 1.94s-1.19-.87-1.19-1.94.53-1.95 1.19-1.95 1.19.87 1.19 1.95z" fill="#263238"/><path d="M228.05 194.07c-2 3.13 1.8 5.14 4.33 3.24 1.73-1.3 0-3.24 0-3.24" fill="#9c9c9c" stroke="#263238" stroke-linecap="round" stroke-linejoin="round" stroke-width="1.232"/><path d="M221.35 187.37s3.24-3 6.49-1.52m5.4.22s3-1.95 5.84 1.73" fill="none" stroke="#263238" stroke-linecap="round" stroke-linejoin="round" stroke-width="1.232"/><path d="M132.8 398.57s-19.15 3.75-19.15 5.7 24.4 7.49 27 7.81 3-12.24 3-12.24z" fill="#fff" stroke="#263238" stroke-linecap="round" stroke-linejoin="round" stroke-width="1.232"/><path d="M142.25 410.21l-27.32-7c-.8.37-1.28.73-1.28 1 0 2 24.4 7.49 27 7.81.67.14 1.19-.63 1.6-1.81z" fill="#963cff" stroke="#263238" stroke-linecap="round" stroke-linejoin="round" stroke-width="1.232"/><path d="M182.53 400.8s-19.43 8.35-18.13 10.31 26.68 1 29.28.65 0-11.92 0-11.92z" fill="#fff" stroke="#263238" stroke-linecap="round" stroke-linejoin="round" stroke-width="1.232"/><path d="M165 409.88c-.57.51-.83.94-.64 1.23 1.3 1.95 26.68 1 29.28.65.63-.08.95-.82 1.08-1.88z" fill="#963cff" stroke="#263238" stroke-linecap="round" stroke-linejoin="round" stroke-width="1.232"/></g><g id="freepik--Device--inject-2"><path fill="#fff" stroke="#263238" stroke-linecap="round" stroke-linejoin="round" stroke-width="1.232" d="M176.41 272.71h-73.33v-2.96h73.33z"/><path fill="#fff" stroke="#263238" stroke-linecap="round" stroke-linejoin="round" stroke-width="1.232" d="M155.73 272.71H82.4v-2.96h73.33zm-65.16-8.22h61.15l-6.59-46.68H83.98l6.59 46.68z"/><path fill="#263238" stroke="#263238" stroke-linecap="round" stroke-linejoin="round" stroke-width="1.232" d="M88.04 264.49h61.15l-6.59-46.68H81.45l6.59 46.68z"/><path d="M106.78 242.79l-6.14 29.92h15.78l6.14-29.92zm10.7 8.88a.56.56 0 01-.54.43L108 252a.56.56 0 01-.54-.69l.81-3.35a.56.56 0 01.55-.43l8.94.09a.55.55 0 01.53.68z" fill="#fff" stroke="#263238" stroke-linecap="round" stroke-linejoin="round" stroke-width="1.232"/><circle cx="82.85" cy="214.46" r="11.26" transform="rotate(-76.72 82.835 214.452)" fill="#963cff" stroke="#263238" stroke-linecap="round" stroke-linejoin="round" stroke-width="1.232"/><path d="M82.69 216.74l-3.32 3.78a2.18 2.18 0 01-.52.49 1.74 1.74 0 01-1.62.26 1.41 1.41 0 01-.92-.86 1.84 1.84 0 01.51-1.94l3.85-4.08-3.67-4.26a2 2 0 01-.46-1.2 1.32 1.32 0 01.34-1 2.16 2.16 0 01.86-.55 1.64 1.64 0 011.11 0 2.41 2.41 0 011.08.82l3.19 3.8 3-3.49a2.58 2.58 0 01.56-.58 1.62 1.62 0 011.71-.32 1.55 1.55 0 01.91.88 1.29 1.29 0 01-.23 1.42l-4 4.37 4 4.69a2.17 2.17 0 01.31.52 1.42 1.42 0 01-.25 1.46 1.7 1.7 0 01-1.28.65 2.14 2.14 0 01-1.85-1z" fill="#263238"/></g><g id="freepik--Table--inject-2" stroke="#263238" stroke-linecap="round" stroke-linejoin="round" stroke-width="1.232"><path d="M227 289.73l-3.18 119.71a2.92 2.92 0 01-2.92 2.85h0a2.93 2.93 0 01-2.9-2.89l-1.56-119.67zm-38.66 0l-3.17 119.71a2.92 2.92 0 01-2.93 2.85h0a2.92 2.92 0 01-2.92-2.89l-1.57-119.67zm-95.62 0l-3.17 119.71a2.92 2.92 0 01-2.93 2.85h0a2.92 2.92 0 01-2.92-2.89l-1.57-119.67zm-38.72 0l-3.13 119.71a2.92 2.92 0 01-2.87 2.85h0a2.93 2.93 0 01-3-2.89l-1.54-119.67z" fill="#fff"/><path fill="#fff" d="M230.78 290.99H39.93v-14.33h190.85z"/><path fill="#fff" d="M230.78 290.99h-53.31v-14.33h53.31z"/><path fill="#263238" d="M230.78 283.82H39.93v-7.16h190.85z"/><path fill="#963cff" d="M233.74 279.62H36.97v-7.89h196.77z"/><path fill="#963cff" d="M173.93 279.62H36.97v-7.89h136.96z"/></g><path d="M466.77 412.29H475m-456 0h434.38" id="freepik--Floor--inject-2" fill="none" stroke="#263238" stroke-linecap="round" stroke-linejoin="round" stroke-width="1.232"/></svg>