<svg class="icon" viewBox="0 0 1024 1024" xmlns="http://www.w3.org/2000/svg" width="200" height="200"><defs><style/></defs><path d="M874.667 414.827v33.194H149.333v-33.194c0-141.014 172.651-180.16 362.667-180.16s362.667 39.146 362.667 180.16zm0 194.346V575.98H149.333v33.194c0 141.014 172.651 180.16 362.667 180.16s362.667-39.146 362.667-180.16z" fill="#FF4081"/><path d="M874.667 512A42.667 42.667 0 01832 554.667H192a42.667 42.667 0 010-85.334h640A42.667 42.667 0 01874.667 512z" fill="#F48FB1"/><path d="M896 426.667a21.333 21.333 0 00-21.333-21.334H149.333A21.333 21.333 0 00128 426.667V448a21.333 21.333 0 0021.333 21.333h725.334A21.333 21.333 0 00896 448v-21.333zM896 576a21.333 21.333 0 00-21.333-21.333H149.333A21.333 21.333 0 00128 576v21.333a21.333 21.333 0 0021.333 21.334h725.334A21.333 21.333 0 00896 597.333V576z" fill="#D81B60"/></svg>