<svg class="icon" viewBox="0 0 1024 1024" xmlns="http://www.w3.org/2000/svg" width="200" height="200"><defs><style/></defs><path d="M392.533 113.067c6.4-4.267 19.2-6.4 36.267-6.4 125.867 2.133 512 132.266 512 213.333 0 91.733-256 362.667-341.333 362.667S345.6 155.733 392.533 113.067z" fill="#FFA000"/><path d="M682.667 433.067c0 61.866-21.334 151.466-53.334 241.066-12.8 4.267-21.333 8.534-32 8.534-8.533 0-21.333-6.4-32-19.2 29.867-85.334 53.334-170.667 51.2-228.267 0-34.133-4.266-57.6-21.333-64-12.8-4.267-29.867-8.533-51.2-8.533h-6.4c-29.867 0-68.267 4.266-106.667 10.666-6.4-21.333-12.8-42.666-19.2-61.866 44.8-6.4 87.467-12.8 125.867-12.8h6.4c32 0 55.467 4.266 74.667 12.8 61.866 25.6 64 96 64 121.6zm87.466-38.4c0 17.066 14.934 32 32 32s32-14.934 32-32-14.933-32-32-32-32 14.933-32 32zm-128-160c0 10.666 8.534 21.333 21.334 21.333 10.666 0 21.333-8.533 21.333-21.333s-8.533-21.334-21.333-21.334-21.334 10.667-21.334 21.334zM445.867 185.6c0 10.667 8.533 21.333 21.333 21.333 10.667 0 21.333-8.533 21.333-21.333S480 164.267 467.2 164.267s-21.333 10.666-21.333 21.333zm345.6 113.067C791.467 309.333 800 320 812.8 320s21.333-8.533 21.333-21.333-8.533-21.334-21.333-21.334-21.333 10.667-21.333 21.334zM704 512c0 10.667 8.533 21.333 21.333 21.333 10.667 0 21.334-8.533 21.334-21.333 0-10.667-8.534-21.333-21.334-21.333C714.667 490.667 704 501.333 704 512z" fill="#F57F17"/><path d="M85.333 469.333c19.2-49.066 322.134-130.133 460.8-128 21.334 0 38.4 2.134 51.2 8.534 17.067 6.4 21.334 29.866 21.334 64 2.133 151.466-130.134 503.466-192 503.466-74.667 0-364.8-390.4-341.334-448z" fill="#FFC107"/><path d="M512 426.667c12.8 0 21.333 8.533 21.333 21.333S524.8 469.333 512 469.333 490.667 460.8 490.667 448 499.2 426.667 512 426.667zm-192 0c0 12.8 8.533 21.333 21.333 21.333s21.334-8.533 21.334-21.333-8.534-21.334-21.334-21.334S320 413.867 320 426.667zm-85.333 128c0 12.8 8.533 21.333 21.333 21.333s21.333-8.533 21.333-21.333S268.8 533.333 256 533.333s-21.333 8.534-21.333 21.334zm234.666 10.666c0 17.067 14.934 32 32 32s32-14.933 32-32-14.933-32-32-32-32 14.934-32 32zM275.2 672c0 17.067 14.933 32 32 32s32-14.933 32-32-14.933-32-32-32-32 14.933-32 32zm151.467 10.667C426.667 693.333 435.2 704 448 704c10.667 0 21.333-8.533 21.333-21.333 0-10.667-8.533-21.334-21.333-21.334-10.667 0-21.333 10.667-21.333 21.334zm-21.334 128c0 10.666 8.534 21.333 21.334 21.333 10.666 0 21.333-8.533 21.333-21.333 0-10.667-8.533-21.334-21.333-21.334-10.667 0-21.334 10.667-21.334 21.334zM362.667 544c0 6.4 4.266 10.667 10.666 10.667S384 550.4 384 544s-4.267-10.667-10.667-10.667S362.667 537.6 362.667 544z" fill="#F9A825"/></svg>