<svg class="icon" viewBox="0 0 1024 1024" xmlns="http://www.w3.org/2000/svg" width="200" height="200"><defs><style/></defs><path d="M106.667 672a405.333 138.667 0 10810.666 0 405.333 138.667 0 10-810.666 0z" fill="#EF6C00"/><path d="M106.667 544a405.333 138.667 0 10810.666 0 405.333 138.667 0 10-810.666 0z" fill="#EF6C00"/><path d="M106.667 416a405.333 138.667 0 10810.666 0 405.333 138.667 0 10-810.666 0z" fill="#EF6C00"/><path d="M106.667 288a405.333 138.667 0 10810.666 0 405.333 138.667 0 10-810.666 0z" fill="#EF6C00"/><path d="M512 810.667c-213.333 0-387.797-56.427-403.755-128h-1.578c0 128 193.28 192 405.333 192s405.333-64 405.333-192h-1.578c-15.958 71.573-190.422 128-403.755 128z" fill="#FFCC80"/><path d="M512 682.667c-213.333 0-387.797-56.427-403.755-128h-1.578c0 128 193.28 192 405.333 192s405.333-64 405.333-192h-1.578c-15.958 71.573-190.422 128-403.755 128z" fill="#FFCC80"/><path d="M512 554.667c-213.333 0-387.797-56.427-403.755-128h-1.578c0 128 193.28 192 405.333 192s405.333-64 405.333-192h-1.578c-15.958 71.573-190.422 128-403.755 128z" fill="#FFCC80"/><path d="M512 426.667c-213.333 0-387.797-56.427-403.755-128h-1.578c0 128 193.28 192 405.333 192s405.333-64 405.333-192h-1.578c-15.958 71.573-190.422 128-403.755 128z" fill="#FFCC80"/><path d="M256 288a256 74.667 0 10512 0 256 74.667 0 10-512 0z" fill="#BF360C"/><path d="M661.333 693.333a53.333 53.333 0 11-106.666 0V346.667c0-29.462 106.666-29.462 106.666 0v346.666zm-192-199.232a53.333 53.333 0 11-106.666 0v-152c0-29.461 106.666-29.461 106.666 0v152zm85.334-216.768a42.667 42.667 0 01-85.334 0v128a42.667 42.667 0 0185.334 0v-128zM661.333 256v128c0-23.552 19.2-42.667 29.782-42.667 0 0-29.782-61.781-29.782-85.333zm-298.666 0v128c0-23.552-19.2-42.667-29.782-42.667 0 0 29.782-61.781 29.782-85.333z" fill="#BF360C"/></svg>