<svg class="icon" viewBox="0 0 1024 1024" xmlns="http://www.w3.org/2000/svg" width="200" height="200"><defs><style/></defs><path d="M829.013 450.987A63.787 63.787 0 00768 405.333c-.363 0-.704.107-1.067.107a74.453 74.453 0 00-73.6-64.107c-22.997 0-43.306 10.624-57.002 26.966A74.475 74.475 0 00608 362.667c-7.232 0-14.101 1.365-20.715 3.285C573.013 338.752 544.832 320 512 320c-31.957 0-59.499 17.792-74.112 43.797a64.747 64.747 0 00-11.221-1.13c-5.184 0-10.176.789-14.998 1.962a63.53 63.53 0 00-84.992-12.202A73.813 73.813 0 00288 341.333 74.667 74.667 0 00213.333 416c0 3.99.576 7.808 1.174 11.627a74.432 74.432 0 00-65.174 73.706A74.667 74.667 0 00224 576c3.648 0 7.147-.576 10.667-1.067V576h554.666v-3.925c6.699 2.389 13.803 3.925 21.334 3.925a64 64 0 0064-64 63.787 63.787 0 00-45.654-61.013z" fill="#FFD600"/><path d="M106.667 512h810.666S915.904 853.333 512 853.333 106.667 512 106.667 512z" fill="#5D4037"/><path d="M362.667 832h298.666v64H362.667z" fill="#3E2723"/><path d="M885.419 149.12l-22.784-16.363a25.344 25.344 0 00-35.435 5.888L660.373 384.704c11.094 11.157 18.859 25.621 21.227 41.963h26.667l183.018-242.219a25.387 25.387 0 00-5.866-35.328z" fill="#2196F3"/><path d="M320 426.667a21.333 21.333 0 11-42.667 0 21.333 21.333 0 0142.667 0zM448 384a21.333 21.333 0 100 42.667A21.333 21.333 0 00448 384zm-64 64a21.333 21.333 0 100 42.667A21.333 21.333 0 00384 448zm234.667-21.333a21.333 21.333 0 100 42.666 21.333 21.333 0 000-42.666zm64 42.666a21.333 21.333 0 100 42.667 21.333 21.333 0 000-42.667z" fill="#FFAB00"/></svg>