<svg id="a11d453a-83a5-491b-94b4-3bbd3d308a29" data-name="Layer 1" xmlns="http://www.w3.org/2000/svg" width="860.282" height="771.924" viewBox="0 0 860.282 771.924"><ellipse cx="449.783" cy="728.924" rx="283" ry="43" fill="#f2f2f2"/><path d="M797.698 640.497a20.813 20.813 0 102.771-39.915l.521 10.712-5.068-9.18a20.734 20.734 0 00-10.683 11.722 20.409 20.409 0 00-1.198 5.63 20.809 20.809 0 0013.657 21.031z" transform="translate(-170.109 -63.788)" fill="#57b894"/><path d="M822.775 764.74c-1.789-9.11 5.963-17.186 13.621-22.436s16.605-10.408 19.218-19.317c3.755-12.804-7.43-24.53-16.136-34.642a125.3 125.3 0 01-16.523-24.557c-1.812-3.533-3.476-7.225-3.953-11.166-.686-5.676 1.137-11.323 2.974-16.737q9.18-27.052 19.629-53.65" transform="translate(-170.109 -63.788)" fill="none" stroke="#3f3d56" stroke-miterlimit="10"/><path d="M798.555 637.74a20.813 20.813 0 102.772-39.916l.52 10.712-5.068-9.18a20.734 20.734 0 00-10.683 11.722 20.409 20.409 0 00-1.197 5.63 20.809 20.809 0 0013.656 21.031z" transform="translate(-170.109 -63.788)" fill="none" stroke="#3f3d56" stroke-miterlimit="10"/><path d="M820.231 578.536a20.788 20.788 0 0114.98-13.198l1.714 10.184 3.177-10.696a20.81 20.81 0 11-19.87 13.71z" transform="translate(-170.109 -63.788)" fill="#57b894"/><path d="M821.374 574.858a20.788 20.788 0 0114.98-13.197l1.714 10.183 3.177-10.695a20.81 20.81 0 11-19.87 13.71z" transform="translate(-170.109 -63.788)" fill="none" stroke="#3f3d56" stroke-miterlimit="10"/><path d="M835.825 688.552a20.81 20.81 0 0018.419-37.023l-2.441 8.22-1.732-10.305a.363.363 0 00-.053-.02 20.811 20.811 0 10-14.193 39.128z" transform="translate(-170.109 -63.788)" fill="#57b894"/><path d="M836.815 684.827a20.81 20.81 0 0018.419-37.023l-2.441 8.22-1.731-10.304a.363.363 0 00-.053-.02 20.811 20.811 0 10-14.194 39.127z" transform="translate(-170.109 -63.788)" fill="none" stroke="#3f3d56" stroke-miterlimit="10"/><path d="M814.158 723.114a20.801 20.801 0 104.01-16.297l9.273 13.957-12.67-7.408a20.616 20.616 0 00-.613 9.748z" transform="translate(-170.109 -63.788)" fill="#57b894"/><path d="M815.015 720.356a20.801 20.801 0 104.01-16.297l9.273 13.957-12.67-7.408a20.616 20.616 0 00-.613 9.748z" transform="translate(-170.109 -63.788)" fill="none" stroke="#3f3d56" stroke-miterlimit="10"/><path d="M756.867 177.626a58.487 58.487 0 0158.406-55.43c1.777 0 3.532.092 5.27.247a77.707 77.707 0 01134.326-.063 59.151 59.151 0 014.435-.185 58.487 58.487 0 0158.406 55.43" transform="translate(-170.109 -63.788)" fill="#f2f2f2"/><path d="M769.048 173.126a58.487 58.487 0 0158.406-55.43c1.778 0 3.533.093 5.27.248a77.707 77.707 0 01134.327-.063c1.465-.11 2.94-.185 4.435-.185a58.487 58.487 0 0158.405 55.43" transform="translate(-170.109 -63.788)" fill="none" stroke="#3f3d56" stroke-miterlimit="10"/><path d="M331.867 455.626a58.487 58.487 0 0158.406-55.43c1.777 0 3.532.092 5.27.247a77.707 77.707 0 01134.326-.063 59.151 59.151 0 014.435-.185 58.487 58.487 0 0158.406 55.43" transform="translate(-170.109 -63.788)" fill="#f2f2f2"/><path d="M344.048 451.126a58.487 58.487 0 0158.406-55.43c1.778 0 3.533.093 5.27.248a77.707 77.707 0 01134.327-.063c1.465-.11 2.94-.185 4.435-.185a58.487 58.487 0 0158.405 55.43" transform="translate(-170.109 -63.788)" fill="none" stroke="#3f3d56" stroke-miterlimit="10"/><path d="M207.867 162.626a58.487 58.487 0 0158.406-55.43c1.777 0 3.532.092 5.27.247a77.707 77.707 0 01134.326-.063 59.151 59.151 0 014.435-.185 58.487 58.487 0 0158.406 55.43" transform="translate(-170.109 -63.788)" fill="#f2f2f2"/><path d="M220.048 158.126a58.487 58.487 0 0158.406-55.43c1.778 0 3.533.093 5.27.248a77.707 77.707 0 01134.327-.063c1.465-.11 2.94-.185 4.435-.185a58.487 58.487 0 0158.405 55.43" transform="translate(-170.109 -63.788)" fill="none" stroke="#3f3d56" stroke-miterlimit="10"/><path d="M465.161 281.26s105.12 52.198 123.97 44.949 25.373-71.772 25.373-71.772l-77.571-14.5z" transform="translate(-170.109 -63.788)" fill="#6c63ff"/><path d="M465.161 281.26s105.12 52.198 123.97 44.949 25.373-71.772 25.373-71.772l-77.571-14.5z" transform="translate(-170.109 -63.788)" opacity=".1"/><path fill="#ff6584" d="M444.033 139.539h68.872v60.172h-68.872z"/><path opacity=".1" d="M444.033 139.539h68.872v60.172h-68.872z"/><path d="M551.432 459.602s-2.9 63.072 16.674 61.623 0-59.448 0-59.448zm80.471-247.212s4.35 27.548-3.625 31.173-13.05 6.524-13.05 6.524l18.125 12.325 33.348 2.175 8.7-6.525 7.975-7.25s-13.05-2.9-13.05-9.424-.725-26.099-.725-26.099z" transform="translate(-170.109 -63.788)" fill="#fbbebe"/><path d="M631.903 212.39s4.35 27.548-3.625 31.173-13.05 6.524-13.05 6.524l18.125 12.325 33.348 2.175 8.7-6.525 7.975-7.25s-13.05-2.9-13.05-9.424-.725-26.099-.725-26.099z" transform="translate(-170.109 -63.788)" opacity=".1"/><path d="M586.23 470.477s-21.024 67.422-21.024 116.72c0 0-34.798 78.296-33.348 116.719l-8.7 52.922 12.325 4.35 9.424-7.974s2.9-28.274 12.325-42.048 31.173-79.022 31.173-79.022 57.997-121.794 55.823-139.193-57.998-22.474-57.998-22.474zm128.32-15.224s13.774 6.524-5.8 122.519c0 0 10.874 76.846 1.45 118.894l-1.45 42.048h-15.225l-2.9-4.35s-.725-37.698-5.8-47.847-9.424-68.872-9.424-68.872-23.199-119.62-18.124-129.769 57.272-32.623 57.272-32.623z" transform="translate(-170.109 -63.788)" fill="#fbbebe"/><path d="M520.983 744.514s5.075 11.6 14.5 8.7 11.6-2.9 11.6-2.9-6.526 33.348-4.35 49.297-1.45 26.1-15.95 26.1-16.674-17.4-16.674-17.4l6.525-41.323zm166.742-18.124s5.075 10.15 13.05 7.974 10.874-5.8 10.874-5.8-.725 22.475 2.175 32.624 9.425 39.148-5.8 40.598a19.573 19.573 0 01-20.298-11.6V726.39z" transform="translate(-170.109 -63.788)" fill="#2f2e41"/><circle cx="481.369" cy="135.552" r="31.898" fill="#fbbebe"/><path d="M710.2 256.612s-25.268-9.921-34.383-8.585a37.26 37.26 0 01-28.69 8.585c-17.399-2.175-24.203-10.525-24.203-10.525s-46.843 10.525-43.943 14.875 15.949 75.396 15.949 75.396 8.7 61.622-1.45 82.646-15.224 55.823-10.875 58.723 52.923 15.949 58.723 19.574 7.974-8.7 11.6-6.525 11.599 5.8 16.673 2.9 54.373-28.999 52.923-34.074-20.3-66.696-26.824-79.02-1.45-38.424 2.175-43.499 10.874-10.874 12.324-25.374 0-55.097 0-55.097z" transform="translate(-170.109 -63.788)" fill="#2f2e41"/><path d="M580.578 258.721s-5.947 4.416-8.122 13.84-5.075 84.821-5.075 84.821-26.824 103.67-21.024 105.845 22.474 6.525 24.649 4.35 26.824-89.896 24.649-99.32 2.9-36.973 2.9-36.973z" transform="translate(-170.109 -63.788)" fill="#2f2e41"/><path d="M714.55 393.63s-39.149-19.573-43.499-6.524 41.323 26.824 41.323 26.824 15.95-5.8 15.95-9.425-13.775-10.874-13.775-10.874z" transform="translate(-170.109 -63.788)" fill="#fbbebe"/><path d="M702.225 259.512l7.974-2.9s4.35-2.9 9.425 7.975 60.172 74.671 50.023 94.97-43.498 61.622-44.948 58.722-18.124-24.648-15.225-26.823 36.249-31.899 31.899-36.249-22.474-41.323-32.624-42.773-6.524-52.922-6.524-52.922z" transform="translate(-170.109 -63.788)" fill="#2f2e41"/><path d="M616.316 198.252s-110.548-44.45-206.244-87.223c0 0-50.022-12.324-76.121 10.875 0 0 21.749-2.9 21.749 9.424 0 0 18.849 24.65-39.873 29-40.896 3.028-57.179 27.506-63.296 42.089a59.245 59.245 0 01-23.958 28.17c-14.134 8.448-34.62 14.663-58.464 3.687 0 0 1.355 2.084 3.927 5.556 46.038 62.172 217.48 116.28 278.022 68.118 37.415-29.765 96.728-67.385 139.247-48.436 66.697 29.723 79.021 16.674 79.021 16.674l2.9-7.975s-64.522-17.399-65.972-39.873 9.062-30.086 9.062-30.086zm64.522 5.8s15.587 6.162 18.487 26.461c0 0 16.674 32.624-2.175 40.598s-22.474 5.8-22.474 5.8v-3.625s20.3-12.324 15.95-21.749-9.788-47.485-9.788-47.485z" transform="translate(-170.109 -63.788)" fill="#6c63ff"/><path d="M652.927 296.485s5.075-13.05 3.625-13.05 5.898-8.025 8.749-5.1 7.925 11.626 2.125 13.8-14.499 4.35-14.499 4.35zm35.729-7.745s-13.252-4.52-13.19-3.07-8.27-5.554-5.467-8.526 11.28-8.41 13.698-2.707 4.959 14.303 4.959 14.303z" transform="translate(-170.109 -63.788)" fill="#6c63ff"/><path d="M667.426 268.937s6.62-3.716 10.56 2.13-4.76 15.994-10.56 15.994-5.8-12.325-5.8-12.325z" transform="translate(-170.109 -63.788)" fill="#6c63ff"/><path d="M667.426 268.937s6.62-3.716 10.56 2.13-4.76 15.994-10.56 15.994-5.8-12.325-5.8-12.325z" transform="translate(-170.109 -63.788)" opacity=".1"/><path d="M623.821 147.286c-3.822 3.15-7.447 6.682-9.824 11.028a49.479 49.479 0 00-3.115 7.584c-2.932 8.437-10.22 16.982-7.135 25.365.88 2.392 2.252 4.914 1.463 7.337-.7 2.153-2.863 3.409-4.427 5.045-3.358 3.511-3.922 8.78-4.127 13.634-.376 8.889 4.512 19.364 10.418 26.018a36.356 36.356 0 013.554 4.024 9.432 9.432 0 011.113 7.759l8.604-1.796a71.363 71.363 0 01.29 9.56 8.924 8.924 0 009.463-6.116 25.551 25.551 0 002.363 6.53 33.71 33.71 0 005.714-10.582 30.256 30.256 0 001.027-15.278 64.784 64.784 0 00-3.705-10.86c-3.04-7.683-5.522-15.572-8.002-23.453-1.288-4.094-2.591-8.32-2.2-12.594l3.056-.332a14.596 14.596 0 01.965-4.934 18.101 18.101 0 015.113 1.924l3.524-8.942c2.326 2.412 5.664 3.504 8.86 4.51l12.148 3.825.074-2.404a62.353 62.353 0 0017.287 10.844 3.933 3.933 0 01-.853-3.13c2.993 5.364 1.796 12.045-.052 17.903s-4.298 11.82-3.554 17.918c.556 4.56 2.892 8.92 2.459 13.494-.213 2.252-1.094 4.395-1.368 6.64-.653 5.356 2.163 10.456 4.88 15.116l5.286-7.258c1.934-2.657 3.928-5.371 6.667-7.187 2.812-1.864 6.297-2.7 8.747-5.02 4.374-4.138 3.818-11.19 2.396-17.041-.756-3.11-1.671-6.266-1.393-9.455.471-5.406 4.228-9.879 6.344-14.876a25.826 25.826 0 00-1.448-22.703c-2.625-4.504-6.592-8.13-9.066-12.718-2.463-4.567-3.402-10.002-6.777-13.943a23.522 23.522 0 00-5.68-4.526 74.057 74.057 0 00-31.507-10.28c-10.568-1.104-19.484 2.694-27.582 9.37z" transform="translate(-170.109 -63.788)" fill="#ff6584"/></svg>