<svg class="icon" viewBox="0 0 1024 1024" xmlns="http://www.w3.org/2000/svg" width="200" height="200"><defs><style/></defs><path d="M937.728 612.544C928.149 417.174 760.512 256 554.667 256 348.8 256 181.184 417.173 171.605 612.544h-.938v35.072c0 19.37 16.384 35.05 36.565 35.05l667.435 64c20.202 0 64-79.68 64-99.071v-35.072h-.939z" fill="#FFA000"/><path d="M117.483 644.864c5.909-24.768-21.739-28.97-35.243-43.84-9.45-10.347-16.533-28.48-17.984-42.09-4.8-45.12 62.379.02 69.739-36.886 3.669-18.453-18.859-31.787-31.04-41.664-13.867-11.2-25.046-24.981-27.584-42.816-2.987-20.928 6.229-42.09 31.104-38.357 14.613 2.218 31.701 22.421 42.624 8.832 5.141-6.336-.278-17.899-.512-24.448-.555-13.654.213-26.646 6.933-38.656 16.235-28.886 32.597-6.016 55.019-18.816 21.184-12.011 7.957-44.715 38.464-33.494 22.549 8.256 33.173 15.467 47.786-12.65 12.31-23.723 10.048-51.52 42.304-57.899 30.208-5.93 31.403 9.899 39.147 32.832 4.95 14.677 11.392 44.01 32.341 44.501 22.934.512 33.814-30.57 40.448-45.568 10.176-23.061 27.435-42.005 56.043-40.448 23.915 1.344 16.235 24.875 37.504 35.499 21.077 10.539 33.067-16.107 54.528-7.616 23.04 9.173 3.03 32.363 2.197 48.81-3.37 68.651 78.272-20.714 93.483-25.6 26.816-8.618 35.584 5.74 31.147 26.305-6.72 31.082-1.387 34.688 29.781 29.098 20.416-3.626 54.208-11.968 56.085 16.576 1.28 18.731-26.368 33.366-23.488 50.496 6.934 41.558 125.547-10.261 152.32 17.472 9.259 9.6 7.467 37.654-.17 47.424-9.088 11.563-32.406 16.747-31.254 35.094 1.259 20.416 29.056 10.624 42.304 22.357 19.328 17.13 1.878 27.541-12.949 33.707-10.219 4.266-21.27 9.856-21.568 22.848-.341 13.866 14.55 18.986 22.08 29.802 6.997 10.134 27.99 62.699 14.272 71.68-12.97 8.512-20.16-13.269-27.563-17.322-15.338-8.406-16.128 1.365-23.808 11.925-11.328 15.488-27.157 26.219-45.013 34.688-48.427 23.019-71.616-14.315-116.31-29.035l-623.167-22.741z" fill="#8BC34A"/><path d="M896 576a42.667 42.667 0 01-42.667 42.667h-42.666A42.667 42.667 0 01768 576v-42.667a42.667 42.667 0 0142.667-42.666h42.666A42.667 42.667 0 01896 533.333V576zM597.333 362.667a42.667 42.667 0 01-42.666 42.666H512a42.667 42.667 0 01-42.667-42.666V320A42.667 42.667 0 01512 277.333h42.667A42.667 42.667 0 01597.333 320v42.667zM234.667 520.832a42.667 42.667 0 01-60.331 0l-30.165-30.165a42.667 42.667 0 010-60.331l30.165-30.165a42.667 42.667 0 0160.33 0l30.166 30.165a42.667 42.667 0 010 60.33l-30.165 30.166z" fill="#795548"/><path d="M764.33 478.165a42.667 42.667 0 01-60.33 0L673.835 448a42.667 42.667 0 010-60.33L704 357.503a42.667 42.667 0 0160.33 0l30.166 30.165a42.667 42.667 0 010 60.331l-30.165 30.165zm-384-64a42.667 42.667 0 01-60.33 0L289.835 384a42.667 42.667 0 010-60.33L320 293.503a42.667 42.667 0 0160.33 0l30.166 30.165a42.667 42.667 0 010 60.331l-30.165 30.165z" fill="#FF3D00"/><path d="M936.256 662.101c-1.664-2.005-3.221-4.096-4.757-6.058C873.088 782.315 853.333 704 853.333 704l-.981-6.507c-9.77-195.178-177.259-356.16-383.04-356.16-205.845 0-373.483 161.174-383.061 356.502h-.918v35.072c0 19.37 16.363 35.093 36.566 35.093h694.848c1.941 0 3.818-.277 5.674-.533 84.459-5.59 107.584-70.336 113.835-105.366z" fill="#FFC107"/><path d="M213.333 618.667a21.355 21.355 0 1042.71 0 21.355 21.355 0 10-42.71 0zm42.667-64a21.333 21.333 0 1042.667 0 21.333 21.333 0 10-42.667 0zm42.667 64a21.355 21.355 0 1042.709 0 21.355 21.355 0 10-42.71 0z" fill="#F57C00"/></svg>