<svg id="af8e4536-3e0b-4cf9-a0b4-bd60479f2728" data-name="Layer 1" xmlns="http://www.w3.org/2000/svg" width="949.72" height="767.834" viewBox="0 0 949.72 767.834"><ellipse cx="738.317" cy="538.006" rx="48.503" ry="98.965" fill="#3f3d56"/><path d="M858.978 766.079c19.426-116.552.195-232.682-.001-233.84l-3.779.64c.196 1.152 19.316 116.673 0 232.57z" transform="translate(-125.14 -66.083)" fill="#6c63ff"/><path transform="rotate(-61.858 724.066 667.612)" fill="#6c63ff" d="M839.864 571.358h3.833v49.74h-3.833z"/><path transform="rotate(-28.158 693.755 824.433)" fill="#6c63ff" d="M863.202 606.069h49.741v3.833h-49.741z"/><ellipse cx="854.855" cy="381.379" rx="94.866" ry="193.564" fill="#e6e6e6"/><path d="M969.428 763.995c37.944-227.66.383-454.492-.001-456.756l-3.779.64c.383 2.259 37.834 228.48 0 455.487z" transform="translate(-125.14 -66.083)" fill="#6c63ff"/><path transform="rotate(-61.858 819.884 503.471)" fill="#6c63ff" d="M935.682 383.443h3.833v97.287h-3.833z"/><path transform="rotate(-28.157 833.82 671.537)" fill="#6c63ff" d="M979.497 453.168h97.287v3.833h-97.287z"/><ellipse cx="630.173" cy="264.877" rx="129.816" ry="264.877" fill="#e6e6e6"/><path d="M740.156 763.995c51.904-311.42.524-621.703 0-624.8l-3.78.64c.524 3.091 51.794 312.764 0 623.531z" transform="translate(-125.14 -66.083)" fill="#6c63ff"/><path transform="rotate(-61.858 579.582 381.305)" fill="#6c63ff" d="M695.38 243.356h3.833v133.129h-3.833z"/><path transform="rotate(-28.157 626.873 557.85)" fill="#6c63ff" d="M754.632 339.474h133.129v3.833H754.632z"/><path fill="#3f3d56" d="M910.513 700.231H0v-2.181h910.908l-.395 2.181z"/><path d="M281.14 742h-22c-11.508 0-21.788.814-28.574 5.175A36.987 36.987 0 00198.14 728h-22a37 37 0 00-37 37h179c0-20.435-16.566-23-37-23zm600.014 24.083h93.972c-.474-17.532-13.605-21-35.986-21h-22c-22.381 0-35.512 3.468-35.986 21z" transform="translate(-125.14 -66.083)" fill="#3f3d56"/><path d="M318.357 505.92h14v21a7 7 0 01-7 7 7 7 0 01-7-7v-21z" transform="rotate(24.836 412.843 202.72)" fill="#ffb9b9"/><path d="M324.217 171.829a51 51 0 0151 51v57h-102v-57a51 51 0 0151-51z" fill="#2f2e41"/><path fill="#ffb9b9" d="M286.217 708.837l-11-2-8-44 22.5.492-3.5 45.508zm121.5 25.492l-11.28 5.213-18-52 19.28-3.213 10 50z"/><path d="M527.857 753.412l-29.5 1.508-80.5-194.508-2.195 175.167-28.305-3.66c-19.956-109.01-36.468-205.847-10.5-266.507l88 7zm-134.184 52.16l-11.447-.618a2.96 2.96 0 01-2.418-4.408l17.423-30.913 15.3 1.275 2.363 11.021a11.173 11.173 0 01-4.035 11.137l-7.503 5.878a9.64 9.64 0 01-9.683 6.628zM549.645 830.3l-9.888 3.4a4.016 4.016 0 01-3.903-.736l-17.21-14.59a10.658 10.658 0 01-3.294-11.264l2.161-7.025 16.386-3.171 17.81 27.4a4.016 4.016 0 01-2.062 5.986z" transform="translate(-125.14 -66.083)" fill="#2f2e41"/><circle cx="317.217" cy="217.829" r="34" fill="#ffb9b9"/><path fill="#ffb9b9" d="M351.717 268.329l-40 7-4-32 31-4 13 29z"/><path d="M476.857 483.412l-103-10c5.05-54.954 21.977-103.42 57-142l50-4z" transform="translate(-125.14 -66.083)" fill="#3f3d56"/><path fill="#3f3d56" d="M214.217 447.837l-21-7 36.24-73.267 54.26-88.241 22-14-48.676 109.083-42.824 73.425z"/><path fill="#2f2e41" d="M340.217 206.829l-62 12 10-31 36-8 28 10-12 17z"/><circle cx="212.083" cy="364.863" r="93.691" fill="#6c63ff"/><path fill="#6c63ff" d="M320.426 471.91l-56.683-14.823-56.684-14.824 41.179-41.677 41.18-41.678 15.504 56.501 15.504 56.501z"/><circle cx="212.198" cy="363.914" r="33.615" fill="#fff"/><path d="M430.357 528.92h14v21a7 7 0 01-7 7 7 7 0 01-7-7v-21z" transform="rotate(24.836 524.843 225.72)" fill="#ffb9b9"/><path d="M450.357 539.92l-18-11 9.438-64.247 39.062-132.261 7.418 2.836a31.913 31.913 0 0119.517 37.731l-25.315 98.777z" transform="translate(-125.14 -66.083)" fill="#3f3d56"/></svg>