<svg id="a07b0c17-3700-4c07-9cd3-d5e614437a2a" data-name="Layer 1" xmlns="http://www.w3.org/2000/svg" width="938.747" height="806.925" viewBox="0 0 938.747 806.925"><circle cx="33.247" cy="54.425" r="33" fill="#ff6584"/><path fill="#e6e6e6" d="M200.747 204.425v-13h-50v13h-10v-183h-107v307h195v-124h-28z"/><path d="M702.265 217.542l-.186.18.001-.18-.005.183c-2.529 2.46-30.692 30.25-41.618 58.436-3.627-4.036-6.192-6.498-6.192-6.498l-.122.118.001-.118-.003.12c-2.061 2.005-30.097 29.67-30.097 51.594 0 21.166 11.703 29.52 26.767 30.586l-1.093 20.878h3.052l.338-20.772c.384.008.77.014 1.157.014 11.13 0 20.849-3.542 26.093-12.647a53.912 53.912 0 0016.637 3.672l-1.668 31.854h4.657l.515-31.692a78.39 78.39 0 001.766.022c25.465 0 46.108-12.125 46.108-46.85s-46.108-78.9-46.108-78.9zm-109.892 21.691v-18.27h-56v18.27h-26v-72.27h-25v-28h-56v28h-26v113.455a154.532 154.532 0 00-12.108-13.456l-.122.118.001-.118-.003.12c-2.061 2.005-30.097 29.67-30.097 51.594 0 21.166 11.703 29.52 26.767 30.585l-1.093 20.879h3.052l.338-20.772c.384.008.77.014 1.157.014a40.127 40.127 0 0012.108-1.71v27.29h214V239.233zm430.892-20.393l-.186.18.001-.18-.005.184c-2.618 2.546-32.698 32.228-42.702 61.399v-14.46l-96-145-96 145v109h192v-56.358c6.136 17.156 20.445 24.586 37.622 25.802l-1.668 31.854h4.658l.514-31.692a78.39 78.39 0 001.766.022c25.465 0 46.108-12.125 46.108-46.85s-46.108-78.9-46.108-78.9z" transform="translate(-130.627 -46.538)" fill="#f2f2f2"/><ellipse cx="152.747" cy="356.085" rx="126.5" ry="11.66" fill="#f2f2f2"/><ellipse cx="854.248" cy="503.795" rx="56.417" ry="5.2" fill="#f2f2f2"/><ellipse cx="250.248" cy="412.795" rx="56.417" ry="5.2" fill="#f2f2f2"/><path d="M1008.873 529.433c0 14.581-8.667 19.672-19.36 19.672q-.372 0-.742-.008a30.79 30.79 0 01-1.471-.067c-9.65-.683-17.148-6.036-17.148-19.597 0-14.033 17.933-31.741 19.28-33.052l.003-.002.078-.076s19.36 18.55 19.36 33.13z" transform="translate(-130.627 -46.538)" fill="#6c63ff"/><path d="M988.807 546.875l7.081-9.895-7.098 10.981-.02 1.136c-.495-.01-.985-.034-1.47-.067l.763-14.588-.006-.113.013-.022.072-1.377-7.116-11.008 7.138 9.974.017.293.577-11.022-6.093-11.375 6.167 9.44.6-22.85.003-.079v.076l-.1 18.02 6.065-7.144-6.09 8.696-.16 9.868 5.663-9.47-5.687 10.922-.09 5.486 8.222-13.182-8.252 15.097z" transform="translate(-130.627 -46.538)" fill="#3f3d56"/><ellipse cx="105.248" cy="683.927" rx="105.248" ry="9.702" fill="#f2f2f2"/><path d="M280.645 691.476c0 27.201-16.17 36.699-36.118 36.699q-.693 0-1.384-.015a58.94 58.94 0 01-2.744-.126c-18.003-1.274-31.99-11.26-31.99-36.558 0-26.18 33.455-59.216 35.968-61.66l.005-.005.145-.14s36.118 34.603 36.118 61.805z" transform="translate(-130.627 -46.538)" fill="#6c63ff"/><path d="M243.211 724.014l13.21-18.459-13.243 20.485-.035 2.12a58.94 58.94 0 01-2.744-.126l1.423-27.215-.01-.21.024-.04.134-2.57-13.276-20.537 13.318 18.609.03.545 1.077-20.562-11.366-21.22 11.504 17.611 1.12-42.63.005-.145v.141l-.187 33.616L255.51 650.1l-11.362 16.223-.299 18.41 10.565-17.668-10.609 20.377-.167 10.235 15.338-24.591-15.395 28.163z" transform="translate(-130.627 -46.538)" fill="#3f3d56"/><path d="M426.873 272.866c0 57.424-34.138 77.475-76.25 77.475s-76.25-20.05-76.25-77.475 76.25-130.479 76.25-130.479 76.25 73.054 76.25 130.479z" transform="translate(-130.627 -46.538)" fill="#6c63ff"/><path fill="#3f3d56" d="M217.219 295.019L218 246.96l32.5-59.457-32.378 51.918.351-21.61 22.399-43.016-22.306 37.297v.001l.632-38.866 23.985-34.246-23.886 28.134.395-71.266-2.48 94.344.204-3.892-24.386-37.327 23.995 44.798-2.272 43.406-.068-1.152-28.112-39.28 28.027 43.35-.284 5.428-.051.082.023.446-5.764 110.125h7.702l.924-56.882 27.958-43.244-27.889 38.968z"/><path d="M293.156 272.866c0 57.424-34.138 77.475-76.25 77.475s-76.25-20.05-76.25-77.475 76.25-130.479 76.25-130.479 76.25 73.054 76.25 130.479z" transform="translate(-130.627 -46.538)" fill="#6c63ff"/><path fill="#3f3d56" d="M83.502 295.019l.781-48.059 32.499-59.457-32.377 51.918.351-21.61 22.399-43.016-22.306 37.297v.001l.632-38.866 23.984-34.246-23.885 28.134.394-71.266-2.479 94.344.204-3.892-24.386-37.327 23.995 44.798-2.272 43.406-.068-1.152-28.112-39.28 28.027 43.35-.284 5.428-.051.082.023.446-5.764 110.125h7.702l.924-56.882 27.958-43.244-27.889 38.968z"/><path d="M395.873 222.976c0 77.653-46.163 104.766-103.108 104.766S189.657 300.63 189.657 222.976 292.765 46.538 292.765 46.538s103.108 98.786 103.108 176.438z" transform="translate(-130.627 -46.538)" fill="#f2f2f2"/><path fill="#3f3d56" d="M158.382 269.326l1.056-64.988 43.947-80.4-43.781 70.205.474-29.221 30.289-58.168-30.163 50.435.854-52.556 32.433-46.309-32.299 38.045L161.725 0l-3.352 127.575.275-5.263-32.975-50.474 32.447 60.577-3.073 58.696-.091-1.558-38.015-53.117 37.9 58.621-.385 7.34-.069.11.032.603-7.795 148.916h10.415l1.249-76.918 37.807-58.476-37.713 52.694z"/><path d="M393.873 447.962a12.939 12.939 0 01-.744 4.355 13.106 13.106 0 01-3.522 5.283 12.966 12.966 0 01-5.91 3.05 12.732 12.732 0 01-2.824.312 13.137 13.137 0 01-6.724-1.867 13.108 13.108 0 01-4.544-4.645 13.001 13.001 0 1124.268-6.488z" transform="translate(-130.627 -46.538)" fill="#3f3d56"/><path fill="#f2f2f2" d="M240.449 392.88l1.164-.148 2.216 2.913-1.412 3.375-3.628.46-1.093-1.441 2.753-5.159zm7.285 13.821l-3.63.462-2.215-2.913 1.416-3.375 3.629-.461 2.215 2.912-1.415 3.375z"/><path d="M375.047 456.956l-.898 2.139a13.108 13.108 0 01-4.544-4.645l3.226-.407z" transform="translate(-130.627 -46.538)" fill="#f2f2f2"/><path fill="#f2f2f2" d="M251.87 396.655l-3.629.462-2.215-2.913 1.415-3.374 3.63-.462 2.214 2.913-1.415 3.374zm5.319 7.682l-3.63.462-2.215-2.913 1.415-3.374 3.63-.462 2.215 2.913-1.415 3.374z"/><path d="M384.501 458.729l-.803 1.92a12.732 12.732 0 01-2.825.313 12.864 12.864 0 01-2.877-.325l-.75-.987 1.411-3.374 3.629-.46zm7.936-16.705l-3.521.449-2.216-2.913 1.093-2.606a13.008 13.008 0 014.644 5.07zm.692 10.293a13.106 13.106 0 01-3.522 5.283l-1.135-1.495 1.413-3.374z" transform="translate(-130.627 -46.538)" fill="#f2f2f2"/><ellipse cx="546.747" cy="792.675" rx="243" ry="14.25" fill="#f2f2f2"/><path d="M557.987 798.313L506.72 844.31c-22.987-10.08-38.25-27.233-45.997-51.267l51.267-45.997c.323 30.223 15.973 47.034 45.997 51.267z" transform="translate(-130.627 -46.538)" fill="#e6e6e6"/><path transform="rotate(-40.499 360.947 936.701)" fill="#3f3d56" d="M466.564 782.427h45.541v.999h-45.541z"/><path transform="rotate(-42.059 367.609 935.993)" fill="#3f3d56" d="M470.975 788.876h44.944v.999h-44.944z"/><path d="M583.226 631.301l-68.494 7.248c-12.726-21.635-15.048-44.477-7.248-68.494l68.494-7.248c-17.442 24.684-14.606 47.476 7.248 68.494z" transform="translate(-130.627 -46.538)" fill="#f2f2f2"/><path transform="rotate(-4.641 -102.9 2167.03)" fill="#3f3d56" d="M513.828 578.116h45.541v.999h-45.541z"/><path transform="rotate(-6.201 41.263 1768.762)" fill="#3f3d56" d="M513.681 585.752h44.944v.999h-44.944z"/><path d="M520.585 486.124l-45.789-51.452c10.173-22.946 27.388-38.14 51.453-45.79l45.789 51.453c-30.224.201-47.098 15.783-51.453 45.79z" transform="translate(-130.627 -46.538)" fill="#e6e6e6"/><path transform="rotate(-40.268 407.467 572.417)" fill="#3f3d56" d="M535.749 394.764h.999v45.541h-.999z"/><path transform="rotate(-41.827 403.579 569.268)" fill="#3f3d56" d="M529.284 399.149h.999v44.944h-.999z"/><path transform="rotate(-30 429.72 533.946)" fill="#3f3d56" d="M554.873 246.962h54v133h-54z"/><path transform="rotate(-30.925 412.482 494.67)" fill="#6c63ff" d="M540.222 281.329h43.382v1h-43.382z"/><path transform="rotate(-30.925 418.403 502.936)" fill="#6c63ff" d="M546.143 289.596h43.382v1h-43.382z"/><path transform="rotate(-30.925 422.403 509.936)" fill="#6c63ff" d="M550.143 296.596h43.382v1h-43.382z"/><path transform="rotate(-30.925 428.403 518.936)" fill="#6c63ff" d="M556.143 305.596h43.382v1h-43.382z"/><path transform="rotate(-30.925 437.403 531.936)" fill="#6c63ff" d="M565.143 318.596h43.382v1h-43.382z"/><path d="M741.62 388.304s25.741-12.38 44.059-7.766L741.62 261.714v-12.202l62.362 148.379c15.592 29.39 35.304 96.374 1.696 101.752-38.13 6.1-106.763 28.978-106.763 28.978L683.663 395.93z" transform="translate(-130.627 -46.538)" fill="#2f2e41"/><path d="M591.39 348.65s-41.181-51.857-51.857-33.555 47.947 49.088 47.947 49.088z" transform="translate(-130.627 -46.538)" fill="#ffb9b9"/><path d="M605.116 350.174l-16.777-9.15s-10.677 27.453-10.677 32.028 16.777 6.1 16.777 6.1z" transform="translate(-130.627 -46.538)" fill="#d0cde1"/><circle cx="538.547" cy="148.068" r="39.655" fill="#ffb9b9"/><path d="M699.677 190.03s16.777 50.33 28.979 53.381-47.28 25.928-47.28 25.928-18.303-42.705-27.454-53.381 45.755-25.928 45.755-25.928z" transform="translate(-130.627 -46.538)" fill="#ffb9b9"/><path d="M795.002 484.39c32.875-5.26 14.73-69.472-.671-99.779a20.195 20.195 0 013.72 3.693c15.253 19.828 45.757 105.238 7.627 111.339S698.915 528.62 698.915 528.62l-2.075-18.052c19.611-6.296 68.262-21.394 98.162-26.178z" transform="translate(-130.627 -46.538)" opacity=".1"/><path d="M847.62 746.723s38.13 30.504 35.08 33.554-35.08 51.856-62.533 56.432-39.655 4.576-39.655 0 7.626-15.252 21.353-19.827 15.252-35.08 13.727-41.18 32.029-28.979 32.029-28.979z" transform="translate(-130.627 -46.538)" fill="#2f2e41"/><path d="M733.231 519.47l24.403 114.39s100.663 112.863 97.612 114.388-33.554 32.03-39.654 32.03-111.34-118.966-111.34-118.966l-38.129-99.137z" transform="translate(-130.627 -46.538)" fill="#2f2e41"/><path d="M733.231 519.47l24.403 114.39s100.663 112.863 97.612 114.388-33.554 32.03-39.654 32.03-111.34-118.966-111.34-118.966l-38.129-99.137z" transform="translate(-130.627 -46.538)" opacity=".1"/><path d="M757.634 482.866s-12.201 51.856-45.755 86.935-48.806 106.763-48.806 106.763l-33.554 143.368s-59.483-7.626-56.432-22.878l32.029-126.59s36.604-175.397 56.432-187.598 96.086 0 96.086 0z" transform="translate(-130.627 -46.538)" fill="#2f2e41"/><path d="M626.468 807.73s9.151 28.98 3.05 32.03-114.388 9.15-120.489-12.202c0 0-3.05-10.676 21.353-10.676s50.33-22.878 50.33-22.878z" transform="translate(-130.627 -46.538)" fill="#2f2e41"/><path d="M672.224 263.239s39.655-39.655 50.331-36.605 10.676 18.302 10.676 18.302 33.555 4.576 30.504 114.39S791.19 481.34 780.512 487.44s-132.691 33.554-137.267 6.101-3.05-132.691 9.152-166.245 27.453-54.907 19.827-64.058z" transform="translate(-130.627 -46.538)" fill="#575a89"/><path d="M722.555 272.39s45.756 21.352 19.828 62.533-45.756 85.41-73.21 83.885-70.158-27.454-82.36-27.454 4.576-44.23 13.727-45.755 51.857 24.403 51.857 24.403 15.251-103.713 70.158-97.612z" transform="translate(-130.627 -46.538)" fill="#575a89"/><path d="M692.05 198.987c-3.383-.202-6.686.942-10.045 1.388-12.019 1.595-24.522-7.126-27.176-18.956a14.545 14.545 0 00-1.39-4.53c-1.85-3.02-6.062-3.595-9.535-2.9s-6.764 2.32-10.301 2.505c-5.46.286-10.703-3.075-13.613-7.705s-3.735-10.326-3.342-15.78l2.618 2.748a13.297 13.297 0 001.185-7.227 8.386 8.386 0 017.943 2.033c2.309.245.567-4.282 2.281-5.846.719-.655 1.82-.532 2.791-.522 4.911.047 8.883-3.709 12.753-6.733a54.19 54.19 0 0122.888-10.44c5.545-1.081 11.441-1.255 16.7.81 4.318 1.696 7.933 4.784 11.278 8 8.233 7.916 15.523 17.218 18.948 28.114a47.328 47.328 0 01.227 27.444c-1.38 4.658-5.54 20.61-11.629 20.982-7.651.467-3.057-12.816-12.58-13.385z" transform="translate(-130.627 -46.538)" fill="#2f2e41"/></svg>