<svg id="bc77e115-7117-4bed-98bf-a47b9af09f3f" data-name="Layer 1" xmlns="http://www.w3.org/2000/svg" xmlns:xlink="http://www.w3.org/1999/xlink" width="626.12" height="698.31" viewBox="0 0 626.12 698.31"><defs><linearGradient id="beca6d11-2f4f-45ad-9761-8d9626b3dfe8" x1="445.06" y1="472.29" x2="445.06" y2="295.16" gradientUnits="userSpaceOnUse"><stop offset="0" stop-color="gray" stop-opacity=".25"/><stop offset=".54" stop-color="gray" stop-opacity=".12"/><stop offset="1" stop-color="gray" stop-opacity=".1"/></linearGradient><linearGradient id="abf2ce7a-3a8e-4e71-af9a-7167f778c8de" x1="139.14" y1="646.22" x2="166.86" y2="646.22" xlink:href="#beca6d11-2f4f-45ad-9761-8d9626b3dfe8"/><linearGradient id="e793dc18-03c6-4270-9f95-3ece0dc1f9d4" x1="207.95" y1="646.22" x2="235.66" y2="646.22" xlink:href="#beca6d11-2f4f-45ad-9761-8d9626b3dfe8"/><linearGradient id="a662d8a7-500e-4cdb-b63c-023f30f9864f" x1="413.73" y1="586.32" x2="538.68" y2="586.32" xlink:href="#beca6d11-2f4f-45ad-9761-8d9626b3dfe8"/><linearGradient id="ee67e446-4a27-4e27-8ef6-3f3f8b2a8e7b" x1="410.06" y1="781.74" x2="453.79" y2="781.74" xlink:href="#beca6d11-2f4f-45ad-9761-8d9626b3dfe8"/><linearGradient id="e1a476c7-9793-4904-ae4a-9b4aa50cf60d" x1="495.33" y1="781.74" x2="539.06" y2="781.74" xlink:href="#beca6d11-2f4f-45ad-9761-8d9626b3dfe8"/><linearGradient id="af1e1d5f-433d-40a4-b4c3-067781993a8b" x1="188.06" y1="206.65" x2="188.06" y2="0" xlink:href="#beca6d11-2f4f-45ad-9761-8d9626b3dfe8"/></defs><path d="M591.52 412q.18-.64.3-1.29c0-.16 0-.32.07-.47s.09-.6.11-.9 0-.42 0-.63v-1.4c0-.2 0-.56-.06-.84s-.05-.35-.07-.52c0-.32-.1-.64-.16-1v-.15l-22.3-100.52c-14.46 2-6.77.24-14.46 2s0 0-13.48 4.38l5.61 25.28L527 305.79a14.2 14.2 0 00-10.2-6.35 93.35 93.35 0 01-14.75-2.79 37.77 37.77 0 00-10.52-1.49h-34a37.72 37.72 0 00-10.53 1.49 93.35 93.35 0 01-14.75 2.79 14.2 14.2 0 00-10.2 6.35l-51.57 77.5-49.8-65.8c-11.91 7.81-5.69 2.88-11.91 7.81s0 0-10.72 10.09L359.84 417a14.18 14.18 0 0010 5.56h2.45c.38 0 .77-.08 1.16-.14h.05a14.22 14.22 0 009.7-6.28l34.86-51 5.25 84.1c0 12.67 11.16 23 23.57 23h55.31c12.41 0 22.57-10.36 22.57-23l4.3-84.1 36.81 51c0 .06.09.12.13.19s.23.31.35.47.37.5.58.74c0 .06.1.11.14.17a14.31 14.31 0 005.46 3.88 1 1 0 01.16.06c.36.13.72.26 1.09.37a5.73 5.73 0 00.56.14l.75.18c.24.05.49.08.74.12l.62.08h1.97c.31 0 .61 0 .92-.06l.34-.05c.38 0 .77-.12 1.15-.2h.11a11.66 11.66 0 001.28-.37h.05a14.26 14.26 0 003.41-1.69 14.5 14.5 0 005.79-8.18z" transform="translate(-286.94 -100.84)" fill="url(#beca6d11-2f4f-45ad-9761-8d9626b3dfe8)"/><path fill="url(#abf2ce7a-3a8e-4e71-af9a-7167f778c8de)" d="M139.14 628.95h27.71v34.53h-27.71z"/><path fill="url(#e793dc18-03c6-4270-9f95-3ece0dc1f9d4)" d="M207.95 628.95h27.71v34.53h-27.71z"/><path d="M498.11 431.17h-45.37c-29.16 0-39 23.61-39 51.49l8.8 258.8h39.83V538a12.91 12.91 0 0111.47-12.74c7.89-.9 14.66 5 14.66 12.4v203.8h39.82l10.37-258.8c-.01-27.88-11.43-51.49-40.58-51.49z" transform="translate(-286.94 -100.84)" fill="url(#a662d8a7-500e-4cdb-b63c-023f30f9864f)"/><path d="M453.79 764.33v34.83H414.4a4.12 4.12 0 01-3-7.13c7.91-7.28 18-18.75 14.68-27.7" transform="translate(-286.94 -100.84)" fill="url(#ee67e446-4a27-4e27-8ef6-3f3f8b2a8e7b)"/><path d="M495.33 764.33v34.83h39.4a4.12 4.12 0 003-7.13c-7.9-7.28-18-18.75-14.68-27.7" transform="translate(-286.94 -100.84)" fill="url(#e1a476c7-9793-4904-ae4a-9b4aa50cf60d)"/><path fill="#ffd9cb" d="M141.08 625.82h26.22v34.17h-26.22zm65.11 0h26.22v34.17h-26.22z"/><path d="M496.17 431.17h-42.93c-27.59 0-36.91 23.36-36.91 50.95l8.33 256.09h37.69v-201.3a12.58 12.58 0 0110.85-12.59 12.39 12.39 0 0113.87 12.27v201.62h37.69l9.8-256.09c0-27.59-10.8-50.95-38.39-50.95zm-41.93 329.66v34.47H417a4.1 4.1 0 01-2.83-7.06c7.48-7.2 17-18.55 13.89-27.41m65.49 0v34.47h37.28a4.1 4.1 0 002.83-7.06c-7.48-7.2-17-18.55-13.89-27.41" transform="translate(-286.94 -100.84)" fill="#212121"/><ellipse cx="188.06" cy="103.32" rx="98.06" ry="103.32" fill="url(#af1e1d5f-433d-40a4-b4c3-067781993a8b)"/><ellipse cx="188.06" cy="103.32" rx="93.17" ry="98.17" fill="#6c63ff"/><ellipse cx="186.69" cy="110.54" rx="76.85" ry="78.64" fill="#6c63ff"/><ellipse cx="187.69" cy="107.54" rx="76.85" ry="78.64" opacity=".3"/><rect x="522.41" y="265.86" width="55.2" height="27.31" rx="4.47" transform="rotate(-74.09 339.772 419.168)" fill="#bdbdbd"/><rect x="305.17" y="288.14" width="5.69" height="24.46" rx="1.99" transform="rotate(-26.97 -45.65 848.258)" fill="#ffcfbe"/><rect x="295.21" y="292.8" width="5.69" height="24.08" rx="1.99" transform="rotate(-60 67.262 502.92)" fill="#ffcfbe"/><path d="M299.73 310.82c-2.24 1.27-13.93 8.9 1.1 22.86a5.39 5.39 0 006.86.37l10.6-7.85a5.39 5.39 0 001.89-6.08l-3-8.84a8.42 8.42 0 00-13.36-3.74l-3.29 2.75a4.57 4.57 0 01-.8.53z" transform="translate(-286.94 -100.84)" fill="#ffcfbe"/><rect x="274.41" y="176.06" width="5.69" height="15.73" rx="1.99" fill="#ffcfbe"/><path d="M551.45 289.15s-19.78.34-7.19 25.29l21-4.28 2.23-21a3 3 0 00-3.8-3.26z" transform="translate(-286.94 -100.84)" fill="#ffcfbe"/><rect x="551.66" y="267.37" width="5.69" height="25.22" rx="1.99" transform="rotate(-25.19 185.344 871.657)" fill="#ffcfbe"/><rect x="547.24" y="270.63" width="5.69" height="21.81" rx="1.99" transform="rotate(-25.19 180.91 873.204)" fill="#ffcfbe"/><rect x="543.13" y="275.79" width="5.69" height="20.68" rx="1.99" transform="rotate(-25.19 176.804 877.808)" fill="#ffcfbe"/><rect x="539.43" y="282.44" width="5.69" height="18.18" rx="1.99" transform="rotate(-25.19 173.107 883.208)" fill="#ffcfbe"/><path d="M589.58 409.75c.11-.41.21-.83.29-1.25 0-.15 0-.3.07-.45s.09-.58.11-.87 0-.41 0-.62v-1.35c0-.2 0-.55-.05-.82s0-.33-.07-.5-.1-.62-.16-.93v-.14l-22.06-97.52c-14.3 1.94-6.7.24-14.3 1.94s0 0-13.34 4.25l5.55 24.51-19.85-29.23a14.09 14.09 0 00-10.09-6.16 93.7 93.7 0 01-14.59-2.7 37.92 37.92 0 00-10.4-1.45h-33.64a38 38 0 00-10.4 1.45 93.7 93.7 0 01-14.59 2.7 14.09 14.09 0 00-10.06 6.16l-51 75.13-49.25-63.79c-11.78 7.57-5.63 2.8-11.78 7.57s0 0-10.6 9.79l61.1 79.13a14 14 0 009.89 5.39h2.42c.38 0 .76-.07 1.15-.13h.07a14.13 14.13 0 009.6-6.08l36.4-53.73 4.17 85.81a22.39 22.39 0 0022.33 22.32h54.69a22.39 22.39 0 0022.33-22.32l4.16-85.81 36.52 53.75.14.18.34.45c.18.25.37.5.57.73l.15.16a14.2 14.2 0 005.39 3.76 1 1 0 01.16.06c.36.13.72.26 1.08.36l.55.14.74.17c.24.05.49.08.73.11l.62.08h1.95c.3 0 .61 0 .91-.06l.33-.05c.38-.05.76-.11 1.14-.19h.11c.42-.1.85-.22 1.27-.35a13.81 13.81 0 003.37-1.64 14 14 0 005.73-7.92z" transform="translate(-286.94 -100.84)" fill="#6c63ff"/><circle cx="186.94" cy="109.75" r="67.43" fill="#e53935"/><rect x="174.3" y="160.81" width="27.51" height="50.99" rx="13.76" fill="#ffe0b2"/><circle cx="186.94" cy="121.44" r="52.15" fill="#ffe0b2"/><circle cx="169.55" cy="107.05" r="3.15" fill="#db7657"/><circle cx="204.32" cy="107.05" r="3.15" fill="#db7657"/><path d="M486.76 239.83c0 4.21-5.77 7.63-12.89 7.63S461 244 461 239.83s25.76-4.21 25.76 0z" transform="translate(-286.94 -100.84)" fill="#fff"/><path d="M448.1 165.64s-8.39 42 81.52 33.57l-22.18-36.56z" transform="translate(-286.94 -100.84)" fill="#e53935"/><ellipse cx="421.73" cy="219.14" rx="5.39" ry="9.29" transform="rotate(-19.62 -13.315 998.47)" fill="#ffcfbe"/><path fill="#6c63ff" d="M181.54 103.91h13.04v6.29h-13.04z"/><circle cx="267.29" cy="163.25" r="2.81" fill="#fff"/><path d="M471.68 366.68a20.23 20.23 0 00-28.54 28.68l28.68 28.53 28.53-28.67a20.23 20.23 0 10-28.67-28.54z" transform="translate(-286.94 -100.84)" fill="#fff"/><ellipse cx="526.02" cy="219.14" rx="9.29" ry="5.39" transform="rotate(-70.1 312.873 372.847)" fill="#ffcfbe"/><circle cx="167.46" cy="191.79" r="3.82" fill="#fff"/><rect x="165.66" y="191.79" width="3.3" height="39.11" rx="1.15" fill="#fff"/><circle cx="210.56" cy="191.79" r="3.82" fill="#fff"/><rect x="208.91" y="191.79" width="3.3" height="32.59" rx="1.15" fill="#fff"/><circle cx="158.53" cy="107.05" r="25.39" fill="#6c63ff"/><circle cx="158.53" cy="107.05" r="17.79" opacity=".3"/><circle cx="217.29" cy="107.05" r="25.39" fill="#6c63ff"/><circle cx="217.29" cy="107.05" r="17.79" opacity=".3"/><path d="M909.43 608.78c-.33 23.45-20.12 42-43.58 42h-3.26a11 11 0 00-7.73 3.12 10.78 10.78 0 00-3.14 5.48 10.1 10.1 0 00-.33 2.59v41.41a41.52 41.52 0 01-6.56 22.46 59.35 59.35 0 00-9.76 31.95 20 20 0 01-20.33 20c-11-.2-19.57-9.63-19.57-20.6v-10.41l-5.44.64v10.37a20 20 0 01-20.34 20c-11-.2-19.57-9.63-19.57-20.6v-5.29c-5.44 2.26-36.27 2.26-44.83.07l-2.32-.18v6a20 20 0 01-20.34 20c-11-.2-19.57-9.63-19.57-20.6v-8.62l-1.81-.16v9.43a19.94 19.94 0 01-20.33 20c-10-.18-18.07-8.07-19.39-17.81a23.35 23.35 0 01-.18-2.79v-43.43a66.36 66.36 0 0114.15-41 12.3 12.3 0 00.34-14.53c-10.16-14.87-25.17-40-24.69-57.76.13-5.15 1.55-9.67 4.76-13.17.2-.22.4-.44.6-.64 14.61-15.3 40.35-3.26 38.12 17.78a59 59 0 001.54 21 64.68 64.68 0 004.13 11.27 19.11 19.11 0 0019.57 10.88 69.1 69.1 0 018.18-.49h83.89a23.56 23.56 0 0022.31-16 23 23 0 001.27-7.6v-65.27a12.7 12.7 0 0113.09-12.7 12.35 12.35 0 018.76 4.08 13.65 13.65 0 013.54 9.15 6.72 6.72 0 006.73 6.72h39.52a42.6 42.6 0 0142.62 43.25z" transform="translate(-286.94 -100.84)" fill="#f3ad55"/><path d="M660.33 762.74a20 20 0 01-19.71 15c-10-.18-18.07-8.07-19.39-17.81 12.08-3.26 28.82-5.51 39.1 2.81zm41.72 0a20 20 0 01-19.72 15c-10-.18-18.06-8.07-19.38-17.81 12.05-3.26 28.82-5.51 39.1 2.81zm87.06 0a20 20 0 01-19.72 15c-10-.18-18.06-8.07-19.38-17.81 12.08-3.26 28.82-5.51 39.1 2.81zm45.34 0a20 20 0 01-19.71 15c-10-.18-18.07-8.07-19.39-17.81 12.08-3.26 28.82-5.51 39.1 2.81zM655.87 625.48c-14.09-5.66-31.29-16-45-25 .13-5.15 1.55-9.67 4.76-13.17.2-.22.4-.44.6-.64 14.61-15.3 40.35-3.26 38.12 17.78a59 59 0 001.52 21.03zm17.06 21.79s38.81 48.85 102.29-.12m19.95-90.68s23.58 30.83 0 68.92m56.22 36.27s-20.76 25.81-.26 46.31" transform="translate(-286.94 -100.84)" fill="#fbdca3"/><path d="M853.21 656.22c-1.54 1.45-1 2.85-1.49 5l-67.43-17.66c3.62-2.8 8.12-6.12 9.61-10.54 8.1 6.24 24.1 16.76 59.31 23.2z" transform="translate(-286.94 -100.84)" opacity=".1"/><path d="M854.86 653.9a10.78 10.78 0 00-3.14 5.48L786 642.24a23.45 23.45 0 007.91-11.07c8.09 6.28 25.71 16.29 60.95 22.73z" transform="translate(-286.94 -100.84)" fill="#383f4d"/><path d="M796.37 634.8s20.56 15.47 55 20.26" transform="translate(-286.94 -100.84)" opacity=".1"/><path d="M796.37 633s20.56 15.46 55 20.25" transform="translate(-286.94 -100.84)" fill="#f3ad55"/><path d="M847.77 634.46s34.46 10.88 43.53-23.58z" transform="translate(-286.94 -100.84)" opacity=".1"/><path d="M847.77 632.64s34.46 10.89 43.53-23.58z" transform="translate(-286.94 -100.84)" fill="#fbdca3"/><ellipse cx="622.5" cy="503.69" rx="3.63" ry="6.35" fill="#383f4d"/><path d="M634.65 735.12l7.26-58s-21.77 34.46-7.26 58" transform="translate(-286.94 -100.84)" opacity=".1"/><path d="M643.72 677.08s-21.76 34.46-7.25 58z" transform="translate(-286.94 -100.84)" fill="#fbdca3"/></svg>