<svg id="b3df86d2-2022-47c6-a781-bb5144daf06b" data-name="Layer 1" xmlns="http://www.w3.org/2000/svg" width="802.027" height="590.916" viewBox="0 0 802.027 590.916"><path fill="#e6e6e6" d="M464.906 218.808h337.121v9.889H464.906z"/><path fill="#e6e6e6" d="M492.774 136.101h85.404v85.404h-85.404z"/><path fill="#ccc" d="M509.855 153.182h51.242v51.242h-51.242z"/><path fill="#e6e6e6" d="M684.259 136.101h21.576v85.404h-21.576z"/><path fill="#ccc" d="M684.259 149.586h21.576v9.889h-21.576zm0 43.151h21.576v9.889h-21.576z"/><path fill="#e6e6e6" d="M650.997 136.101h21.576v85.404h-21.576z"/><path fill="#ccc" d="M650.997 149.586h21.576v9.889h-21.576zm0 43.151h21.576v9.889h-21.576z"/><path transform="rotate(-26.34 502.968 681.273)" fill="#e6e6e6" d="M921.902 290.643h21.576v85.404h-21.576z"/><path transform="rotate(-26.34 492.198 659.52)" fill="#ccc" d="M911.133 306.647h21.576v9.889h-21.576z"/><path transform="rotate(-26.34 511.344 698.192)" fill="#ccc" d="M930.279 345.319h21.576v9.889h-21.576z"/><path fill="#e6e6e6" d="M524.688 170.382l10.866 18.819 10.865 18.819h-43.461l10.865-18.819 10.865-18.819z"/><path fill="#e6e6e6" d="M543.567 173.978l10.865 18.819 10.866 18.819h-43.461l10.865-18.819 10.865-18.819z"/><circle cx="551.209" cy="162.171" r="6.293" fill="#e6e6e6"/><path transform="rotate(-180 732.96 165.276)" fill="#e6e6e6" d="M663.892 237.602h337.121v9.889H663.892z"/><path transform="rotate(-180 830.95 120.326)" fill="#e6e6e6" d="M887.741 154.895h85.404v85.404h-85.404z"/><path transform="rotate(-180 830.95 120.326)" fill="#ccc" d="M904.821 171.976h51.242v51.242h-51.242z"/><path transform="rotate(-180 671.379 120.326)" fill="#e6e6e6" d="M760.084 154.895h21.576v85.404h-21.576z"/><path transform="rotate(-180 671.379 96.053)" fill="#ccc" d="M760.084 168.38h21.576v9.889h-21.576z"/><path transform="rotate(-180 671.379 139.205)" fill="#ccc" d="M760.084 211.531h21.576v9.889h-21.576z"/><path transform="rotate(-180 704.641 120.326)" fill="#e6e6e6" d="M793.347 154.895h21.576v85.404h-21.576z"/><path transform="rotate(-180 704.641 96.053)" fill="#ccc" d="M793.347 168.38h21.576v9.889h-21.576z"/><path transform="rotate(-180 704.641 139.205)" fill="#ccc" d="M793.347 211.531h21.576v9.889h-21.576z"/><path transform="rotate(-153.66 614.641 143.607)" fill="#e6e6e6" d="M721.427 154.895h21.576v85.404h-21.576z"/><path transform="rotate(-153.66 625.41 121.854)" fill="#ccc" d="M732.197 170.9h21.576v9.889h-21.576z"/><path transform="rotate(-153.66 606.265 160.526)" fill="#ccc" d="M713.051 209.571h21.576v9.889h-21.576z"/><path fill="#e6e6e6" d="M742.244 34.634l-10.865 18.819-10.865 18.819h43.461l-10.866-18.819-10.865-18.819z"/><path fill="#e6e6e6" d="M723.365 38.23L712.5 57.049l-10.865 18.819h43.461l-10.865-18.819-10.866-18.819z"/><circle cx="715.724" cy="26.424" r="6.293" fill="#e6e6e6"/><path transform="rotate(-180 732.96 436.77)" fill="#e6e6e6" d="M663.892 509.097h337.121v9.889H663.892z"/><path transform="rotate(-180 830.95 391.821)" fill="#e6e6e6" d="M887.741 426.39h85.404v85.404h-85.404z"/><path transform="rotate(-180 830.95 391.821)" fill="#ccc" d="M904.821 443.471h51.242v51.242h-51.242z"/><path transform="rotate(-180 671.379 391.821)" fill="#e6e6e6" d="M760.084 426.39h21.576v85.404h-21.576z"/><path transform="rotate(-180 671.379 367.549)" fill="#ccc" d="M760.084 439.875h21.576v9.889h-21.576z"/><path transform="rotate(-180 671.379 410.7)" fill="#ccc" d="M760.084 483.027h21.576v9.889h-21.576z"/><path transform="rotate(-180 704.641 391.821)" fill="#e6e6e6" d="M793.347 426.39h21.576v85.404h-21.576z"/><path transform="rotate(-180 704.641 367.549)" fill="#ccc" d="M793.347 439.875h21.576v9.889h-21.576z"/><path transform="rotate(-180 704.641 410.7)" fill="#ccc" d="M793.347 483.027h21.576v9.889h-21.576z"/><path transform="rotate(-153.66 614.641 415.102)" fill="#e6e6e6" d="M721.427 426.39h21.576v85.404h-21.576z"/><path transform="rotate(-153.66 625.41 393.35)" fill="#ccc" d="M732.197 442.395h21.576v9.889h-21.576z"/><path transform="rotate(-153.66 606.265 432.02)" fill="#ccc" d="M713.051 481.067h21.576v9.889h-21.576z"/><path fill="#e6e6e6" d="M742.244 306.129l-10.865 18.819-10.865 18.82h43.461l-10.866-18.82-10.865-18.819z"/><path fill="#e6e6e6" d="M723.365 309.725L712.5 328.544l-10.865 18.82h43.461l-10.865-18.82-10.866-18.819z"/><circle cx="715.724" cy="297.919" r="6.293" fill="#e6e6e6"/><ellipse cx="397.129" cy="562.711" rx="397.129" ry="28.205" fill="#e6e6e6"/><path d="M906.373 733.048c-64.755-11.526-135.567-9.61-209.846 0 33.855-28.581 63.074-57.163 29.219-85.744 66.039 13.624 75.289 12.245 148.752 0-17.04 28.581 14.836 57.163 31.875 85.744z" transform="translate(-198.987 -154.542)" fill="#6c63ff"/><path d="M906.373 733.048c-64.755-11.526-135.567-9.61-209.846 0 33.855-28.581 63.074-57.163 29.219-85.744 66.039 13.624 75.289 12.245 148.752 0-17.04 28.581 14.836 57.163 31.875 85.744z" transform="translate(-198.987 -154.542)" opacity=".2"/><path d="M890.578 720.854c-55.007-9.2-115.159-7.67-178.257 0 28.76-22.814 53.58-45.628 24.821-68.442 56.098 10.875 63.955 9.774 126.36 0-14.475 22.814 12.602 45.628 27.076 68.442z" transform="translate(-198.987 -154.542)" fill="#6c63ff"/><circle cx="670.64" cy="500.244" r="29.309" fill="#2f2e41"/><path fill="#a0616a" d="M537.591 466.249l20.308 3.385 10.154 29.333-29.333 18.052-33.847-50.77h32.718z"/><circle cx="595.13" cy="463.993" r="47.385" fill="#a0616a"/><path d="M532.372 445.919s-115.077 12.41-135.385 10.154-29.333-4.513-29.333-4.513-13.539 18.051-6.77 25.949a48.822 48.822 0 0013.539 11.282s12.41-3.385 21.436 0 100.41 18.051 116.205 4.513 20.308-47.385 20.308-47.385z" transform="translate(-198.987 -154.542)" fill="#2f2e41"/><path d="M540.27 697.51s-75.59-21.437-89.129-116.206v-9.026s-14.956 26.238-20.308 31.59c-6.205 6.205-28.205 62.051-27.077 67.693s0 7.897 0 7.897l-32.718-3.385V665.92s17.488-52.461 18.616-64.872 43.436-98.718 43.436-98.718 15.795-32.718 42.872 0 29.333 55.282 29.333 55.282l34.975 67.693zM371.038 448.175l-36.102-12.41s-33.847-24.82-25.95 0 44.001 78.974 54.155 73.333 22.365-19.643 19.644-21.667-20.772-16.692-11.747-39.256z" transform="translate(-198.987 -154.542)" fill="#2f2e41"/><path d="M375.402 659.259l-29.144 14.233s-35.243 5.422-15.588 15.588 73.876 21.01 76.587 11.522 1.635-25.236-1.216-24.818-22.506 2.452-30.639-16.525z" transform="translate(-198.987 -154.542)" fill="#2f2e41"/><path d="M525.603 623.048s-14.667 63.18 10.154 76.718 198.565 15.795 212.103-9.026 6.77-24.82 6.77-24.82l-36.103-40.616 29.333-2.256s0-9.026-10.154-10.154-41.744-12.41-68.82-4.513-42.873-15.795-42.873-15.795z" transform="translate(-198.987 -154.542)" fill="#575a89"/><path fill="#3f3d56" d="M307.437 271.069l-19.18 104.924 132.001-15.795 23.692-94.77-136.513 5.641z"/><path fill="#fff" d="M311.386 275.018l-15.795 93.641 120.154-14.102 23.128-85.18-127.487 5.641z"/><path fill="#b3b3b3" d="M292.77 377.121l-4.513-1.128-2.256 4.512 36.103 100.411 3.395-1.298 1.117-6.599-33.846-95.898z"/><path fill="#d0cde1" d="M288.257 374.864l36.103 104.924 136.513-20.308-40.615-99.282-132.001 14.666z"/><path fill="#3f3d56" d="M306.309 371.48v5.641l100.41-11.282-1.128-5.641-99.282 11.282zm2.256 11.282l15.795 44 102.667-12.41-18.051-41.744-100.411 10.154z"/><path d="M636.167 599.355l-3.384-9.026s-25.95-45.128-39.488-36.102 28.206 53.026 28.206 53.026h13.538zm-85.744 6.769l-3.384-13.538s-9.026-41.744 6.77-39.487 20.307 41.743 20.307 41.743l-1.128 9.026z" transform="translate(-198.987 -154.542)" fill="#a0616a"/><path d="M577.5 600.483s-29.333-4.512-30.461 2.257-6.77 108.308 21.436 111.692 168.103 18.052 153.436-16.923-37.23-30.461-37.23-30.461l-95.898 10.154z" transform="translate(-198.987 -154.542)" fill="#575a89"/><path fill="#575a89" d="M467.078 458.916l-29.897-20.872-19.744 15.231 24.821 27.077 24.82-21.436z"/><path opacity=".2" d="M386.976 479.224l4.512 42.872 77.847-4.513-67.693-1.128-14.666-37.231z"/><circle cx="618.521" cy="472.603" r="56.41" fill="#2f2e41"/><path fill="#6c63ff" d="M328.309 307.736l69.949-2.435 6.769-25.77-72.205 2.179-4.513 26.026z"/><path fill="#e6e6e6" d="M310.258 322.403l106.051-3.385 1.128-4.513-106.051 3.734-1.128 4.164zm-2.257 11.282l106.052-3.385 1.128-4.513-106.052 3.734-1.128 4.164zm-1.128 9.025l106.051-3.384 1.129-4.513-106.052 3.733-1.128 4.164z"/></svg>