<svg id="bc52c4b0-5495-47d6-8fbf-e718e11a33f1" data-name="Layer 1" xmlns="http://www.w3.org/2000/svg" width="803" height="617" viewBox="0 0 803 617"><path fill="#f0f0f0" d="M184.898 427l62.171-97.769-139.234-88.537-71.904 113.075L151.095 427h33.803z"/><path d="M471.5 599h-154v-31h154zm-152-2h150v-27h-150z" transform="translate(-198.5 -141.5)" fill="#3f3d56"/><circle cx="254" cy="442" r="10" fill="#6c63ff"/><circle cx="226" cy="442" r="10" fill="#6c63ff"/><circle cx="198" cy="442" r="10" fill="#6c63ff"/><circle cx="170" cy="442" r="10" fill="#6c63ff"/><circle cx="142" cy="442" r="10" fill="#6c63ff"/><path d="M654.5 254.5v-76h38v-37h-186v186h159v-18.186a25.814 25.814 0 0125.814-25.814h1.186v-29z" transform="translate(-198.5 -141.5)" fill="#f0f0f0"/><path fill="#6c63ff" d="M538 480h124v26H538z"/><path fill="#f0f0f0" d="M507 352h182v24H507z"/><path fill="#3f3d56" d="M0 615h778v2H0z"/><path d="M918.686 758.5H691.314a26.845 26.845 0 01-26.814-26.814V309.314a26.845 26.845 0 0126.814-26.814h227.372a26.845 26.845 0 0126.814 26.814v422.372a26.845 26.845 0 01-26.814 26.814zm-227.372-474a24.843 24.843 0 00-24.814 24.814v422.372a24.843 24.843 0 0024.814 24.814h227.372a24.843 24.843 0 0024.814-24.814V309.314a24.843 24.843 0 00-24.814-24.814z" transform="translate(-198.5 -141.5)" fill="#3f3d56"/><path d="M778 302.5a6 6 0 116-6 6.007 6.007 0 01-6 6zm0-10a4 4 0 104 4 4.004 4.004 0 00-4-4z" transform="translate(-198.5 -141.5)" fill="#3f3d56"/><path fill="#3f3d56" d="M594.5 154h44v2h-44z"/><path d="M927.5 311.5v80a80.004 80.004 0 01-80-80z" transform="translate(-198.5 -141.5)" fill="#6c63ff"/><path d="M928.5 731.5h-247v-421h247zm-245-2h243v-417h-243z" transform="translate(-198.5 -141.5)" fill="#3f3d56"/><circle cx="671" cy="218" r="27" opacity=".1"/><circle cx="667" cy="221" r="27" fill="#6c63ff"/><path fill="#3f3d56" d="M494 186h38v14h-38zm21 133h38v14h-38z"/><path d="M897.5 512.5h-184v-26h184zm-182-2h180v-22h-180z" transform="translate(-198.5 -141.5)" fill="#3f3d56"/><path fill="#f0f0f0" d="M507 428h182v24H507z"/><path fill="#3f3d56" d="M515 395h38v14h-38z"/><path d="M897.5 588.5h-184v-26h184zm-182-2h180v-22h-180zm153 55h-126v-28h126zm-124-2h122v-24h-122z" transform="translate(-198.5 -141.5)" fill="#3f3d56"/><path d="M892.5 502.5a10 10 0 01-17.71 6.37l-.01-.01a10 10 0 1117.43-8.73.01.01 0 00.01.01 10.227 10.227 0 01.28 2.36z" transform="translate(-198.5 -141.5)" fill="#6c63ff"/><path d="M892.5 502.5a10 10 0 01-17.71 6.37l-.01-.01a10.228 10.228 0 01-.28-2.36 10 10 0 0117.71-6.37.01.01 0 00.01.01 10.227 10.227 0 01.28 2.36z" transform="translate(-198.5 -141.5)" opacity=".1"/><circle cx="688" cy="367" r="10" fill="#6c63ff"/><path d="M892.5 578.5a10 10 0 01-17.71 6.37l-.01-.01a10 10 0 1117.43-8.73.01.01 0 00.01.01 10.227 10.227 0 01.28 2.36z" transform="translate(-198.5 -141.5)" fill="#6c63ff"/><path d="M892.5 578.5a10 10 0 01-17.71 6.37l-.01-.01a10.228 10.228 0 01-.28-2.36 10 10 0 0117.71-6.37.01.01 0 00.01.01 10.227 10.227 0 01.28 2.36z" transform="translate(-198.5 -141.5)" opacity=".1"/><circle cx="688" cy="443" r="10" fill="#6c63ff"/><path fill="#f0f0f0" d="M468 48h52v52h-52z"/><path d="M869.5 227.5a12 12 0 1112-12 12.013 12.013 0 01-12 12zm0-22a10 10 0 1010 10 10.011 10.011 0 00-10-10zm-264 189h-26v-26h26zm-24-2h22v-22h-22zm420 196h-26v-26h26zm-24-2h22v-22h-22z" transform="translate(-198.5 -141.5)" fill="#3f3d56"/><path d="M488.503 414.166l4.461 2.404 15.183 8.182 24.51 13.206 14.284-26.502a21.525 21.525 0 00-8.744-29.189 28.59 28.59 0 00-33.382 4.53l-.007.007a28.623 28.623 0 00-5.375 7.075z" transform="translate(-198.5 -141.5)" fill="#2f2e41"/><path fill="#ffb8b8" d="M356.9 542.937l-2.994 32.939-11.23 1.497-7.486-37.431 21.71 2.995z"/><path d="M538.182 718.873s14.224-7.486 17.218-1.497c0 0-2.246 17.967 6.738 20.213s12.726 17.967 0 19.465-20.962-2.995-25.454-2.995 0-15.721 0-15.721z" transform="translate(-198.5 -141.5)" fill="#2f2e41"/><path fill="#ffb8b8" d="M266.316 542.937l2.995 32.939 11.229 1.497 7.486-37.431-21.71 2.995z"/><path d="M482.034 718.873s-14.224-7.486-17.218-1.497c0 0 2.246 17.967-6.738 20.213s-12.726 17.967 0 19.465 20.962-2.995 25.454-2.995 0-15.721 0-15.721z" transform="translate(-198.5 -141.5)" fill="#2f2e41"/><circle cx="327.704" cy="259.206" r="19.464" fill="#ffb8b8"/><path d="M464.067 438.886l15.722 24.705 18.715-1.497 30.694 2.246s2.897-5.795 5.263-11.432a44.285 44.285 0 002.972-8.781c.749-5.24-9.732-10.481-9.732-10.481s-.412-.075-1.1-.24a43.05 43.05 0 01-3.864-1.1c-3.48-1.183-7.666-3.19-8.512-6.146-1.497-5.24 9.733-12.727 9.733-12.727l-13.476-12.727s-11.97 16.627-26.509 20.415a23.155 23.155 0 01-2.56.524l-.127.023c-15.721 2.246-17.219 17.218-17.219 17.218z" transform="translate(-198.5 -141.5)" fill="#ffb8b8"/><path d="M472.302 432.149l-8.235 6.737s-6.737 32.191-4.491 41.175-.749 17.218-.749 18.716-6.738 57.644-6.738 57.644-13.475 29.945.749 26.95 8.983-32.939 8.983-32.939l17.219-52.404v-44.17zm59.142 5.989l5.989 4.491 2.995 62.885 22.458 53.901s16.47 26.202 5.99 26.951-17.219-26.95-17.219-26.95l-20.213-51.656-2.995-50.158z" transform="translate(-198.5 -141.5)" fill="#ffb8b8"/><path d="M494.013 442.63s14.972 10.48 38.928 6.737c0 0 6.738 13.475 2.995 20.962s4.492 25.453 5.989 27.699 18.715 48.66 24.705 98.819 22.458 84.595 8.234 89.087-43.42 9.732-46.415 5.24-7.486-116.037-7.486-116.037l-8.235 42.672s11.23 72.617 2.995 74.114-59.89-2.995-58.393-11.978 16.47-56.147 16.47-56.147-.75-94.328 14.223-112.295c0 0 5.99-9.732-2.245-22.459s-7.487-32.94-7.487-32.94 5.99 0 15.722-13.475z" transform="translate(-198.5 -141.5)" fill="#2f2e41"/><path fill="#2f2e41" d="M282.913 280.145l12.6 27.722 2.994-1.497-13.034-26.749-2.56.524z"/><path d="M522.737 432.306l9.456 20.804 2.268-.202-.771-3.541-7.09-15.96a43.05 43.05 0 01-3.863-1.101zm-29.773-15.736a12.323 12.323 0 0022.61 2.2c-9.471-12.382-1.348-20.16 14.036-26.044a12.312 12.312 0 00-1.325-13.655 28.687 28.687 0 00-23.47 7.726l-.007.007-10.93 20.273a12.264 12.264 0 00-.914 9.493z" transform="translate(-198.5 -141.5)" fill="#2f2e41"/><ellipse cx="316.1" cy="261.452" rx="2.62" ry="4.492" fill="#ffb8b8"/><path d="M522.408 395.623l22.504 10.196 4.125-9.103a21.563 21.563 0 00-4.342-9.081l-15.49-7.015z" transform="translate(-198.5 -141.5)" fill="#2f2e41"/><circle cx="378" cy="445" r="10" fill="#6c63ff"/><circle cx="56.957" cy="507.911" r="6.535" fill="#ff6584"/><path fill="#3f3d56" d="M87.975 541.973h2v74.411h-2z"/><circle cx="88.975" cy="541.972" r="10.523" fill="#3f3d56"/><path d="M287.475 729.334s-1.503-32.332-32.32-28.574" transform="translate(-198.5 -141.5)" fill="#3f3d56"/></svg>