<svg id="f59de507-4dfd-44a7-922a-fd168bcfd2c2" data-name="Layer 1" xmlns="http://www.w3.org/2000/svg" width="637.5" height="686.772" viewBox="0 0 637.5 686.772"><path fill="#f2f2f2" d="M164.5 402l470-402-.055 686L164.5 402z"/><circle cx="110.627" cy="577.08" r="6.535" fill="#ff6584"/><path fill="#3f3d56" stroke="#3f3d56" stroke-miterlimit="10" stroke-width="2" d="M142.645 685.553v-74.412"/><circle cx="142.645" cy="611.141" r="10.523" fill="#3f3d56"/><path d="M423.895 763.616s-1.503-32.331-32.32-28.573" transform="translate(-281.25 -106.614)" fill="#3f3d56"/><path fill="#3f3d56" d="M0 56.386h246v326H0z"/><path opacity=".1" d="M0 56.386h246v326H0z"/><path fill="#6c63ff" opacity=".3" d="M38 118.386h170v6H38zm0 28h170v6H38zm0 28h170v6H38zm0 28h170v6H38zm0 28h170v6H38zm0 28h170v6H38zm0 28h170v6H38zm0 28h170v6H38z"/><path fill="#3f3d56" d="M54.5 95h246v326h-246z"/><path fill="#6c63ff" d="M92.5 157h170v6h-170zm0 28h170v6h-170zm0 28h170v6h-170zm0 28h170v6h-170zm0 28h170v6h-170zm0 28h170v6h-170zm0 28h170v6h-170zm0 28h170v6h-170z"/><path d="M315.271 77.212q-24.28-34.61-67.621-40.918" fill="none" stroke="#3f3d56" stroke-miterlimit="10" stroke-width="2"/><path fill="#3f3d56" d="M317.934 67.074l-1.988-.24-1.173 9.791-9.681-1.886-.381 1.965 11.791 2.295 1.432-11.925zM255.49 29.331l1.113 1.664-8.204 5.472 6.058 7.783-1.581 1.228-7.376-9.48 9.99-6.667z"/><path fill="none" stroke="#3f3d56" stroke-miterlimit="10" stroke-width="2" d="M74.5 685h563"/><path d="M838.103 290.455l2.598-16.044 2.681 16.207 7.815.243c-5.35-19.422-5.643-38.327-.529-56.586 3.73-13.317.338-28.057-9.304-36.424a27.327 27.327 0 00-17.14-6.874l-21.88-.678c-12.904-.4-24.198 8.625-28.86 21.642a38.765 38.765 0 00-1.899 16.079 250.902 250.902 0 01-2.349 60.3z" transform="translate(-281.25 -106.614)" fill="#2f2e41"/><path d="M793.312 243.836s13.478 34.256-24.709 38.748 33.133 43.24 33.133 43.24l48.856-25.831s-39.31-28.079-26.955-53.349z" transform="translate(-281.25 -106.614)" fill="#9f616a"/><path d="M793.312 243.836s13.478 34.256-24.709 38.748 33.133 43.24 33.133 43.24l48.856-25.831s-39.31-28.079-26.955-53.349z" transform="translate(-281.25 -106.614)" opacity=".1"/><path fill="#9f616a" d="M424.458 616.799l-11.231 33.132h28.64l5.054-25.832-22.463-7.3zm107.821 0v24.709h17.408l2.246-30.325-19.654 5.616z"/><path d="M707.393 744.752s-14.6-10.108-15.724-5.054-11.793 34.256-28.64 36.502-34.255 11.793-14.6 15.162 49.417-1.123 53.91-4.492 5.054 1.123 5.054 1.123 23.024-1.685 23.024-2.808-1.123-8.985 0-11.231-2.246-14.04-2.246-14.04l2.246-20.216s-10.108 1.685-10.108 2.808-12.916 2.246-12.916 2.246zm112.313-6.739s-10.108-3.369-10.108 0-8.985 50.799-5.054 53.045 27.516 4.797 30.886-2.504-2.247-23.024-2.247-23.024-3.369-13.477 0-15.162 5.055-14.6-13.477-12.355z" transform="translate(-281.25 -106.614)" fill="#2f2e41"/><path d="M750.633 443.192l-27.516 178.016S684.93 726.22 702.9 730.713s17.97 12.355 28.64 6.177 28.64-108.382 28.64-108.382l40.433-116.244 11.793 119.052s-11.793 99.397-2.247 99.397 32.571 3.37 34.817-1.685 10.67-117.367 10.67-117.367 22.308-153.167-3.727-165.03-101.286-3.44-101.286-3.44z" transform="translate(-281.25 -106.614)" fill="#2f2e41"/><circle cx="530.032" cy="124.868" r="30.886" fill="#9f616a"/><path d="M774.549 291.535a25.01 25.01 0 014.313 2.743c4.849 3.97 16.708 11.906 32.42 10.207 20.778-2.246 33.61-9.06 33.61-9.06s23.108 6.252 25.916 15.237-20.216 55.595-20.216 55.595-8.423 17.97-2.246 29.763 12.354 42.68 15.724 48.857 6.738 26.955-2.808 19.093-29.202-26.955-60.088-19.094-64.58 11.232-62.333 8.424 8.423-80.304 8.423-80.304l-12.354-74.688s12.875-22.42 38.728-16.545c0 0-3.59 7.42.91 9.772z" transform="translate(-281.25 -106.614)" fill="#6c63ff"/><path d="M729.294 442.63l18.532 26.394s15.162-1.123 14.6-7.862c0 0 7.862 6.177 10.108 2.808s-9.546-16.847-13.477-18.532-11.793-3.37-13.478-5.054-7.3-7.862-7.3-7.862zm115.121-12.354s-16.2 6.187-21.858 13.202-13.52 13.191-9.59 13.191 12.916-3.93 12.916-3.93 9.547 18.531 22.463 7.3l8.985-13.478s-2.246-18.531-12.916-16.285z" transform="translate(-281.25 -106.614)" fill="#9f616a"/><path d="M742.771 297.185h-7.861s-28.079 63.457-20.778 95.466 13.477 52.787 16.285 53.91 5.616-11.691 12.354-9.776c0 0-5.615-36.834-2.807-39.08s2.246-6.739 2.807-12.354 7.862-22.463 7.862-22.463zm115.121 11.793l12.916 1.684s6.74 19.655 7.3 34.256 1.685 20.216 3.37 25.27-5.054 23.586-3.93 30.886-23.025 52.788-23.025 50.541-7.3-21.9-12.355-19.655c0 0 3.931-11.23 8.424-14.039s0-24.708 0-24.708l-3.931-35.94z" transform="translate(-281.25 -106.614)" fill="#6c63ff"/><path fill="#2f2e41" d="M503.5 92h57v26h-57z"/><ellipse cx="780.75" cy="236.614" rx="2" ry="5" transform="rotate(-14.173 211.337 1314.46)" fill="#9f616a"/><circle cx="597.5" cy="31" r="17" fill="none" stroke="#3f3d56" stroke-miterlimit="10" stroke-width="2"/></svg>