<svg id="ad6b5295-7ebf-4dc3-a7a8-a4a4b8d35fca" data-name="Layer 1" xmlns="http://www.w3.org/2000/svg" width="790" height="512.208" viewBox="0 0 790 512.208"><path d="M925.563 704.59L903 636.497s24.818 24.818 24.818 45.182l-4.454-47.09s12.727 17.18 11.454 43.272-9.255 26.727-9.255 26.727zm-484.543-62L419 576.134s24.222 24.222 24.222 44.096l-4.348-45.96s12.421 16.77 11.18 42.233-9.033 26.085-9.033 26.085z" transform="translate(-205 -193.896)" fill="#e6e6e6"/><path d="M784.726 673.255c.037 43.715-86.665 30.268-192.81 30.36S400.381 717.3 400.343 673.587s86.633-53.298 192.777-53.39 191.568 9.343 191.606 53.058z" transform="translate(-205 -193.896)" fill="#e6e6e6"/><path fill="#3f3d56" d="M0 509.693h790v2H0z"/><path fill="#a0616a" d="M505.336 420.322h-13.877l-6.604-53.525h20.481v53.525z"/><path d="M480.006 416.357h28.304v16.851h-43.613v-1.541a15.31 15.31 0 0115.309-15.31z" fill="#2f2e41"/><path fill="#a0616a" d="M607.336 499.322h-13.877l-6.604-53.525h20.481v53.525z"/><path d="M582.006 495.357h28.304v16.851h-43.613v-1.541a15.31 15.31 0 0115.309-15.31z" fill="#2f2e41"/><path d="M876.345 534.205a10.316 10.316 0 00-2.896-15.551l-32.23-131.293-20.608 8.867 38.336 126.949a10.372 10.372 0 0017.398 11.028zM851.208 268.86a11.382 11.382 0 00-17.416 1.152l-49.885 5.727 7.589 19.242 45.367-8.491a11.444 11.444 0 0014.345-17.63z" transform="translate(-205 -193.896)" fill="#a0616a"/><path d="M769 520.59l21.768 163.373 27.093-5.578s-3.984-118.981 9.563-133.325S810 505.59 810 505.59z" transform="translate(-205 -193.896)" fill="#2f2e41"/><path d="M778 475.59l-10 15s-77-32-77 19-4.406 85.609-6 88 18.438 8.593 28 7c0 0 11.797-82.22 11-87 0 0 75.534 37.032 89.877 33.845S831.61 536.964 834 530.589s-1-57-1-57L785.19 459z" transform="translate(-205 -193.896)" fill="#2f2e41"/><path d="M779.35 385.529l-2.851-3.42s-31.924-71.829-19.382-91.211 67.267-22.233 68.977-21.093-4.084 15.943-.094 22.784c0 0-42.394 9.191-45.244 10.331s21.966 43.274 21.966 43.274l-2.85 25.653z" transform="translate(-205 -193.896)" fill="#ccc"/><path d="M835.215 350.185s-29.643 3.42-30.783 3.42-1.71-7.41-1.71-7.41l-26.223 35.913S763.579 486.3 767 484.59s66.505 8.112 67.075 3.551-.57-27.363 1.14-28.503 29.644-71.828 29.644-71.828-2.85-14.822-12.542-19.952-17.102-17.672-17.102-17.672z" transform="translate(-205 -193.896)" fill="#ccc"/><path d="M855.738 378.118l9.12 9.69S878.412 499.169 871 502.59s-22 3-22 3l-14.355-52.793z" transform="translate(-205 -193.896)" fill="#ccc"/><circle cx="601.73" cy="122.998" r="26.239" fill="#a0616a"/><path d="M800.573 320.988c-.355-5.445-7.223-5.631-12.68-5.683s-11.977.144-15.065-4.355c-2.04-2.973-1.65-7.1.035-10.288s4.458-5.639 7.186-7.997c7.041-6.09 14.298-12.13 22.752-16.027s18.36-5.472 27.128-2.343c10.77 3.843 25.329 23.625 26.586 34.991s-3.285 22.953-10.942 31.446-25.182 5.067-36.21 8.088c6.704-9.49 2.285-26.732-8.456-31.164z" transform="translate(-205 -193.896)" fill="#2f2e41"/><circle cx="361.722" cy="403.505" r="62.989" fill="#6c63ff"/><path d="M524.656 529.936a45.16 45.16 0 01-41.255-26.787l-99.952-225.091a59.83 59.83 0 11111.87-41.865l72.377 235.412a45.08 45.08 0 01-43.04 58.33z" transform="translate(-205 -193.896)" fill="#6c63ff"/></svg>