<svg class="icon" viewBox="0 0 1024 1024" xmlns="http://www.w3.org/2000/svg" data-spm-anchor-id="a313x.7781069.0.i3" width="200" height="200"><defs><style/></defs><path d="M678.214 460.8V227.06l-62.33-.741c-9.646 0-15.583-11.13-9.646-19.293L747.965 8.162c7.42-10.388 23.745-10.388 31.165 0l139.502 199.606c5.936 8.162 0 19.293-10.389 19.293H859.27v426.667" fill="#0e932e" data-spm-anchor-id="a313x.7781069.0.i0"/><path d="M103.884 640.371a378.435 378.435 0 10756.87 0 378.435 378.435 0 10-756.87 0z" fill="#0e932e" data-spm-anchor-id="a313x.7781069.0.i4"/><path d="M201.832 640.371a280.487 280.487 0 10560.974 0 280.487 280.487 0 10-560.974 0z" fill="#fff" data-spm-anchor-id="a313x.7781069.0.i1"/><path d="M477.125 837.75c-14.099 0-25.23-11.13-25.23-25.228v-21.52c-17.808-1.483-35.617-5.935-50.457-13.356-12.615-5.936-19.293-20.776-14.099-34.133 3.71-11.13 14.099-18.55 25.971-18.55 3.71 0 7.42.741 11.13 2.225 10.389 4.453 25.972 10.389 46.006 10.389 25.971 0 43.038-13.357 43.038-33.391 0-13.357-5.194-28.198-44.522-44.522-43.037-17.067-82.365-39.328-82.365-89.786 0-40.811 26.713-72.719 69.009-83.107v-23.003c0-14.098 11.13-25.229 25.229-25.229s25.229 11.13 25.229 25.23v20.034c14.098 1.484 26.713 4.452 38.585 9.646 13.357 5.194 20.035 20.777 14.84 34.876-3.71 10.388-14.098 17.808-25.228 17.808-3.71 0-7.42-.742-10.389-2.226-11.872-5.194-24.486-7.42-38.585-7.42-27.455 0-37.101 14.84-37.101 28.197 0 14.84 7.42 24.487 49.715 41.554 36.36 14.84 77.913 38.585 77.913 94.237 0 42.296-28.939 76.43-71.976 86.818v24.487c-.742 14.84-11.873 25.97-26.713 25.97z" fill="#0e932e" data-spm-anchor-id="a313x.7781069.0.i5" class="selected"/></svg>