<svg class="icon" width="200" height="200" viewBox="0 0 1024 1024" xmlns="http://www.w3.org/2000/svg"><path fill="#8a8a8a" d="M722.1 106.7c12.2 0 23.7 4.8 32.4 13.5s13.5 20.2 13.5 32.4v718.9c0 12.2-4.8 23.7-13.5 32.4s-20.2 13.5-32.4 13.5H301.9c-12.2 0-23.7-4.8-32.4-13.5S256 883.7 256 871.5V152.6c0-12.2 4.8-23.7 13.5-32.4s20.2-13.5 32.4-13.5h420.2m0-42.7H301.9c-48.7 0-88.6 39.8-88.6 88.6v718.9c0 48.7 39.8 88.6 88.6 88.6h420.2c48.7 0 88.6-39.8 88.6-88.6V152.6c0-48.8-39.9-88.6-88.6-88.6z"/><path fill="#8a8a8a" d="M512 234.7c58.8 0 106.7 47.9 106.7 106.7S570.8 448 512 448s-106.7-47.9-106.7-106.7S453.2 234.7 512 234.7m0-42.7c-82.5 0-149.3 66.9-149.3 149.3 0 82.5 66.9 149.3 149.3 149.3s149.3-66.9 149.3-149.3S594.5 192 512 192z"/><path fill="#8a8a8a" d="M512 328c7.4 0 13.3 6 13.3 13.3s-6 13.3-13.3 13.3-13.3-6-13.3-13.3S504.6 328 512 328m0-42.7c-30.9 0-56 25.1-56 56s25.1 56 56 56 56-25.1 56-56-25.1-56-56-56zm0 312c58.8 0 106.7 47.9 106.7 106.7S570.8 810.7 512 810.7 405.3 762.8 405.3 704 453.2 597.3 512 597.3m0-42.6c-82.5 0-149.3 66.9-149.3 149.3S429.5 853.3 512 853.3 661.3 786.5 661.3 704 594.5 554.7 512 554.7z"/><path fill="#8a8a8a" d="M512 690.7c7.4 0 13.3 6 13.3 13.3s-6 13.3-13.3 13.3-13.3-6-13.3-13.3 5.9-13.3 13.3-13.3m0-42.7c-30.9 0-56 25.1-56 56s25.1 56 56 56 56-25.1 56-56-25.1-56-56-56zm181.3-498.7c-17.7 0-32 14.3-32 32s14.3 32 32 32 32-14.3 32-32-14.3-32-32-32z"/></svg>