<svg class="icon" width="200" height="200" viewBox="0 0 1024 1024" xmlns="http://www.w3.org/2000/svg"><path fill="#8a8a8a" d="M405.3 341.3c-11.8 0-21.3-9.6-21.3-21.3v-64c0-11.8 9.6-21.3 21.3-21.3s21.3 9.6 21.3 21.3v64c.1 11.8-9.5 21.3-21.3 21.3zm501.4 342.1c5.8 0 10.7 4.9 10.7 10.7 0 5.8-4.9 10.7-10.7 10.7h-192c-5.8 0-10.7-4.9-10.7-10.7 0-5.8 4.9-10.7 10.7-10.7h192m0-42.6h-192c-29.3 0-53.3 24-53.3 53.3 0 29.3 24 53.3 53.3 53.3h192c29.3 0 53.3-24 53.3-53.3 0-29.3-24-53.3-53.3-53.3z"/><path fill="#8a8a8a" d="M522.7 192c5.8 0 10.7 4.9 10.7 10.7s-4.9 10.7-10.7 10.7H288c-5.8 0-10.7-4.9-10.7-10.7S282.2 192 288 192h234.7m0-42.7H288c-29.3 0-53.3 24-53.3 53.3s24 53.3 53.3 53.3h234.7c29.3 0 53.3-24 53.3-53.3s-24-53.3-53.3-53.3zM256 405.3V576H106.7l-.1-.1V405.4s0-.1.1-.1H256m48.9-42.6H106.7c-23.5 0-42.7 19.2-42.7 42.7V576c0 23.5 19.2 42.7 42.7 42.7h198.2c-4.1-10.5-6.2-21.8-6.2-33.7V396.4c0-12 2.1-23.3 6.2-33.7zm459.8 42.6c32.1 0 62.3 12.6 85.2 35.5 22.9 22.9 35.5 53.1 35.5 85.2v114h-128v-3.6c0-33.3-27.1-60.4-60.4-60.4H554.7V405.3h210m0-42.6H505.8c4.1 10.5 6.2 21.8 6.2 33.7V585c0 11.9-2.1 23.3-6.2 33.7h191.1c9.8 0 17.8 8 17.8 17.8v23.6c0 12.4 10.2 22.6 22.6 22.6h165.3c14 0 25.4-11.4 25.4-25.4V526c0-89.8-73.5-163.3-163.3-163.3z"/><path fill="#8a8a8a" d="M457 341.3c22.9 0 43.6 14.5 51.4 36l.1.4.1.4c2.2 5.6 3.3 11.8 3.3 18.3V585c0 6.5-1.1 12.6-3.3 18.3l-.1.4-.1.4c-7.9 21.5-28.5 36-51.4 36H353.7c-22.9 0-43.6-14.5-51.4-36l-.1-.4-.1-.4c-2.2-5.6-3.3-11.8-3.3-18.3V396.4c0-6.5 1.1-12.6 3.3-18.3l.1-.4.1-.4c7.9-21.5 28.5-36 51.4-36H457m0-42.6H353.7c-41.8 0-77.9 26.7-91.5 64-4.1 10.5-6.2 21.8-6.2 33.7V585c0 11.9 2.1 23.3 6.2 33.7 13.7 37.3 49.7 64 91.5 64H457c41.8 0 77.9-26.7 91.5-64 4.1-10.5 6.2-21.8 6.2-33.7V396.4c0-11.9-2.1-23.3-6.2-33.7-13.7-37.4-49.7-64-91.5-64zm311 576c-11.8 0-21.3-9.6-21.3-21.3v-64c0-11.8 9.6-21.3 21.3-21.3s21.3 9.6 21.3 21.3v64c0 11.7-9.5 21.3-21.3 21.3zm64 42.6c-11.8 0-21.3-9.6-21.3-21.3v-42.7c0-11.8 9.6-21.3 21.3-21.3s21.3 9.6 21.3 21.3V896c0 11.8-9.5 21.3-21.3 21.3zm64-42.6c-11.8 0-21.3-9.6-21.3-21.3v-42.7c0-11.8 9.6-21.3 21.3-21.3s21.3 9.6 21.3 21.3v42.7c0 11.7-9.5 21.3-21.3 21.3z"/></svg>