<?xml version="1.0" standalone="no"?>
<!DOCTYPE svg PUBLIC "-//W3C//DTD SVG 1.1//EN" "http://www.w3.org/Graphics/SVG/1.1/DTD/svg11.dtd" >
<!--
2013-9-30: Created.
-->
<svg>
<metadata>
Created by iconfont
</metadata>
<defs>

<font id="iconfont" horiz-adv-x="1024" >
  <font-face
    font-family="iconfont"
    font-weight="500"
    font-stretch="normal"
    units-per-em="1024"
    ascent="896"
    descent="-128"
  />
    <missing-glyph />
    
    <glyph glyph-name="zu49" unicode="&#59289;" d="M673.662778 463.141684a272.013124 272.013124 0 0 0 272.013124-272.013123 272.013124 272.013124 0 0 0-272.013124-272.013124 272.013124 272.013124 0 0 0-272.013123 272.013124 272.013124 272.013124 0 0 0 272.013123 272.013123zM673.662778-128a319.128561 319.128561 0 1 0 319.128561 319.128561 319.756767 319.756767 0 0 0-319.128561-319.128561z m0 544.026247a224.897686 224.897686 0 1 1 224.897687-224.897686 225.525892 225.525892 0 0 1-224.897687 224.897686zM122.726267 204.32088299999998a95.487286 95.487286 0 0 0-28.897468 3.769235 91.089845 91.089845 0 0 0-62.820583 82.923169A581.718597 581.718597 0 0 0 252.136668 769.706129C547.393407 1006.539726 889.765583 838.80877 904.214317 832.526711a46.487231 46.487231 0 0 0 20.730793-62.820582 47.743643 47.743643 0 0 0-62.820583-21.358999C847.675793 753.372777 558.701112 895.347294 310.55981 693.693223a489.37234 489.37234 0 0 1-184.692514-399.538906l62.820583 72.871876a45.859025 45.859025 0 0 0 62.820583 0 46.487231 46.487231 0 0 0 0-66.589818l-62.820583-69.102641a89.833433 89.833433 0 0 0-65.961612-27.012851z"  horiz-adv-x="1024" />

    
    <glyph glyph-name="ziyuan2" unicode="&#59290;" d="M784.225352-125.59624399999996H240.375587a240.375587 240.375587 0 0 0-240.375587 240.375587V655.624413a240.375587 240.375587 0 0 0 240.375587 240.375587h544.450704a240.375587 240.375587 0 0 0 240.375587-240.375587v-545.051643A240.375587 240.375587 0 0 0 784.225352-125.59624399999996zM240.375587 805.859155A150.234742 150.234742 0 0 1 90.140845 655.624413v-545.051643A149.633803 149.633803 0 0 1 240.375587-37.85915499999999h544.450704a149.032864 149.032864 0 0 1 149.633803 149.032864V655.624413a149.633803 149.633803 0 0 1-150.234742 150.234742zM612.356808 484.957746H411.643192A173.070423 173.070423 0 0 0 240.375587 655.624413V850.929577A45.671362 45.671362 0 0 0 283.643192 896h456.713616a45.671362 45.671362 0 0 0 45.070422-45.070423V655.624413a173.070423 173.070423 0 0 0-173.070422-170.666667zM328.713615 805.859155V655.624413a82.929577 82.929577 0 0 1 82.929577-80.525821h200.713616A82.929577 82.929577 0 0 1 695.286385 655.624413V805.859155zM764.394366 164.05633799999998h-504.788732a45.070423 45.070423 0 0 0 0 90.140845h504.788732a45.070423 45.070423 0 0 0 0-90.140845z"  horiz-adv-x="1025" />

    
    <glyph glyph-name="ziyuan55" unicode="&#59291;" d="M832.807826-127.99038499999995H200.145222a134.128318 134.128318 0 0 0-133.166825 118.263678L5.442824 500.345499A137.493545 137.493545 0 0 0 39.095091 607.552004a135.089811 135.089811 0 0 0 100.476051 44.70944H885.209212a134.609065 134.609065 0 0 0 133.647571-147.589225L966.936144-7.803719999999998a133.166825 133.166825 0 0 0-134.128318-120.186665zM139.571142 578.226458a62.016319 62.016319 0 0 1-61.535572-69.227519l60.574079-510.072206a62.016319 62.016319 0 0 1 61.535573-54.805119h632.662604a61.535572 61.535572 0 0 1 61.535572 55.766612L947.225531 511.402672a62.977812 62.977812 0 0 1-15.86464 48.074666 62.016319 62.016319 0 0 1-48.074666 20.19136zM712.621161 578.226458a36.055999 36.055999 0 0 0-10.576427 70.669759l37.017493 10.09568c62.497066 16.826133 104.322025 30.767786 114.898452 70.669759A68.746772 68.746772 0 0 1 830.884839 799.850668a87.495892 87.495892 0 0 1-119.225172 0L539.071617 600.821551 486.189484 647.934724 658.777535 847.925334a158.165651 158.165651 0 0 0 218.258983 4.807467 140.378025 140.378025 0 0 0 48.074666-144.223998c-23.556586-80.765439-106.725758-100.956799-167.780584-119.225172-11.53792-2.88448-23.07584-5.76896-33.652266-9.134186a29.806293 29.806293 0 0 0-11.057173-1.922987zM310.716953 578.226458a29.806293 29.806293 0 0 0-11.057173 0c-10.576427 3.365227-22.114346 6.249707-33.652266 9.134187C204.952688 607.552004 121.302769 627.7433639999999 101.592156 710.912536a144.223998 144.223998 0 0 0 48.074666 144.223998A159.607891 159.607891 0 0 0 366.483566 847.925334l173.068797-199.99061a35.575253 35.575253 0 0 0-3.845973-48.074666A36.536746 36.536746 0 0 0 486.189484 600.821551L311.678447 799.850668a87.976639 87.976639 0 0 1-119.705919 0 68.746772 68.746772 0 0 1-23.075839-70.189012c10.576427-39.901973 52.882133-53.843626 115.379198-70.669759l37.017493-10.09568a36.055999 36.055999 0 0 0-10.576427-70.669759zM438.114818-107.31827899999996a36.536746 36.536746 0 0 0-36.055999 36.056v673.045323a36.055999 36.055999 0 0 0 72.111999 0v-673.045323a36.055999 36.055999 0 0 0-36.056-36.056zM578.973589-103.95305199999996a36.055999 36.055999 0 0 0-36.055999 36.055999V614.282457a36.055999 36.055999 0 1 0 72.111999 0v-682.17951a36.536746 36.536746 0 0 0-36.056-36.055999z"  horiz-adv-x="1024" />

    
    <glyph glyph-name="ziyuan46" unicode="&#59292;" d="M814.872883-127.84788700000001H151.661433a106.478903 106.478903 0 0 0-112.056369 101.408478V794.462226a106.985945 106.985945 0 0 0 112.056369 101.408478h663.21145a106.985945 106.985945 0 0 0 112.056369-101.408478v-177.464838a38.028179 38.028179 0 0 0-76.056359 0V794.462226c0 11.661975-15.211272 24.338035-36.00001 24.338034H151.661433c-21.295781 0-36.00001-12.67606-36.00001-24.338034v-822.422762c0-11.154933 14.704229-23.830992 36.00001-23.830992h663.21145c20.788738 0 36.00001 12.67606 36.00001 23.830992v176.957795a38.028179 38.028179 0 0 0 76.056359 0v-176.957795a106.985945 106.985945 0 0 0-112.056369-99.887351zM945.68982 338.12407199999996H367.15445a38.028179 38.028179 0 1 0 0 76.056359h501.971969l-87.718334 113.070453a38.028179 38.028179 0 0 0 60.845087 46.140858l133.859192-175.94371a38.028179 38.028179 0 0 0-30.422544-60.845087zM809.295416 176.37754900000004a38.028179 38.028179 0 0 0-28.901416 60.338044l136.394404 162.760608a38.028179 38.028179 0 1 0 57.802833-50.704239l-136.394404-160.225396a37.014095 37.014095 0 0 0-28.901417-12.169017z"  horiz-adv-x="1024" />

    
    <glyph glyph-name="ziyuan155" unicode="&#59293;" d="M511.360594-126.18142599999999a510.182107 510.182107 0 0 0-211.250828 45.430286 34.072714 34.072714 0 0 0 28.166777 62.239491 436.585044 436.585044 0 0 1 181.721142-39.524348 443.399587 443.399587 0 1 1-367.076707 195.350228 34.072714 34.072714 0 0 0-56.787857-38.16144 511.090713 511.090713 0 1 0 423.864564-227.151428zM650.377268 209.54838500000005a34.98132 34.98132 0 0 0-24.078052 9.994663L347.811566 502.119424a34.072714 34.072714 0 0 0 48.610405 48.156103l278.487651-282.576377a34.072714 34.072714 0 0 0 0-48.156102 33.618411 33.618411 0 0 0-24.532354-9.994663zM370.072406 211.81989899999996a33.164108 33.164108 0 0 0-24.078052 9.994663 34.072714 34.072714 0 0 0 0 48.156103l282.576377 278.48765a34.072714 34.072714 0 0 0 48.156102-48.610405l-282.576376-278.487651a34.98132 34.98132 0 0 0-24.078051-9.54036z"  horiz-adv-x="1024" />

    
    <glyph glyph-name="ziyuan157" unicode="&#59294;" d="M512-128A512 512 0 1 0 1024 384 512.910222 512.910222 0 0 0 512-128z m0 955.733333A443.733333 443.733333 0 1 1 955.733333 384a444.188444 444.188444 0 0 1-443.733333 443.733333zM651.264 208.32711099999995a35.043556 35.043556 0 0 0-24.120889 10.012445L348.16 501.418667a34.133333 34.133333 0 0 0 48.696889 48.241777l278.983111-283.079111a34.133333 34.133333 0 0 0 0-48.241777 33.678222 33.678222 0 0 0-24.576-10.012445zM370.460444 210.602667a33.223111 33.223111 0 0 0-24.120888 10.012444 34.133333 34.133333 0 0 0 0 48.241778l283.079111 278.983111a34.133333 34.133333 0 0 0 48.241777-48.696889l-283.079111-278.983111a35.043556 35.043556 0 0 0-24.120889-9.557333z"  horiz-adv-x="1024" />

    
    <glyph glyph-name="ziyuan174" unicode="&#59295;" d="M549.010001-127.99566700000003a87.136112 87.136112 0 0 0-48.141499 13.961034C398.808526-46.63653499999998 58.448132 193.10812699999997 7.899559 445.369579a392.834627 392.834627 0 0 0 192.565993 420.756696c115.539596 57.769798 240.707492 30.810559 347.100204-72.693663C655.884127 895.974004 781.533438 923.896073 897.073034 866.126275a391.871797 391.871797 0 0 0 192.565993-420.756696c-48.141498-252.261452-390.427552-492.006114-493.450358-559.404212a88.098942 88.098942 0 0 0-47.178668-13.961034zM324.189203 823.761756a200.750048 200.750048 0 0 1-90.506017-24.070749 323.992284 323.992284 0 0 1-155.015625-340.360394c45.253008-224.339383 365.393973-449.16018 462.6398-512.706958a12.998205 12.998205 0 0 1 15.405279 0c96.282997 63.546778 417.868206 288.84899 462.158385 512.706958A322.066624 322.066624 0 0 1 867.225305 799.691007c-96.282997 48.141498-198.342973 17.330939-288.84899-84.247622a36.106124 36.106124 0 0 0-26.95924-12.035375 35.143294 35.143294 0 0 0-26.959239 12.035375A271.999466 271.999466 0 0 1 324.189203 823.761756zM850.857195 207.55057699999998a38.031784 38.031784 0 0 0-25.514994 10.591129l-129.50063 129.982046-65.472438-65.472438a36.106124 36.106124 0 0 0-51.029988 0L364.146647 497.843812A36.106124 36.106124 0 0 0 415.176635 549.355215l189.677504-192.565993 65.472437 65.472437a36.106124 36.106124 0 0 0 51.029989 0L876.37219 270.13452400000006a37.068954 37.068954 0 0 0 0-51.511403 38.031784 38.031784 0 0 0-25.514995-11.072544z"  horiz-adv-x="1097" />

    
    <glyph glyph-name="ziyuan175" unicode="&#59296;" d="M548.646764-127.98892799999999a88.098362 88.098362 0 0 0-48.141182 13.960943C475.472168-97.17857100000003 433.58934-69.25668599999995 385.448158-33.150800000000004a36.105886 36.105886 0 1 0 43.327064 57.769418c48.141182-35.143063 85.209891-61.620712 110.243306-77.988714a12.998119 12.998119 0 0 1 15.405178 0c96.282363 63.54636 417.384044 288.847089 462.636754 512.703583A323.990152 323.990152 0 0 1 863.971503 799.691641c-96.282363 48.141182-197.860256 17.330825-288.847089-84.247068a35.143063 35.143063 0 0 0-26.959062-12.035295 36.105886 36.105886 0 0 0-26.959062 12.035295C433.58934 819.429525 328.641564 847.832822 232.840613 799.691641a322.064504 322.064504 0 0 1-154.051781-342.283801A574.805708 574.805708 0 0 1 241.024614 194.07557699999995a36.105886 36.105886 0 1 0-52.473888-48.141182A639.796303 639.796303 0 0 0 8.021295 445.372545a391.869218 391.869218 0 0 0 192.564726 420.753926c116.020248 57.769418 240.705908 30.810356 348.060743-72.693184C655.520187 895.974004 780.205847 923.895889 895.744683 866.126471a392.832041 392.832041 0 0 0 192.564726-420.753926C1039.205404 193.112753 698.84725-46.630330999999956 595.825122-114.99080900000001a87.135539 87.135539 0 0 0-47.178358-12.998119z"  horiz-adv-x="1096" />

    
    <glyph glyph-name="zu50" unicode="&#59297;" d="M533.606578 574.570919m-296.019668 0a296.019667 296.019667 0 1 1 592.039335 0 296.019667 296.019667 0 1 1-592.039335 0ZM533.606578 253.141838a321.429081 321.429081 0 1 0 322.064316 321.429081 322.064316 322.064316 0 0 0-322.064316-321.429081z m0 592.039335a270.610254 270.610254 0 1 1 270.610254-270.610254A270.610254 270.610254 0 0 1 533.606578 845.181173zM533.606578 295.06737a279.503549 279.503549 0 1 0 279.503548 279.503549 279.503549 279.503549 0 0 0-279.503548-279.503549z m0 508.188271A228.684722 228.684722 0 1 1 762.926535 574.570919a228.049486 228.049486 0 0 1-229.319957 228.049486zM322.07321 193.42971599999998m-296.019667 0a296.019667 296.019667 0 1 1 592.039335 0 296.019667 296.019667 0 1 1-592.039335 0ZM322.07321-127.99936500000001a322.064316 322.064316 0 1 0 322.064316 321.429081 322.064316 322.064316 0 0 0-322.064316-321.429081z m0 592.674571a271.245489 271.245489 0 1 1 270.610254-271.24549 271.245489 271.245489 0 0 1-270.610254 271.24549zM322.07321-85.43859699999996a279.503549 279.503549 0 1 0 279.503549 278.868313 279.503549 279.503549 0 0 0-279.503549-278.868313z m0 508.18827a228.684722 228.684722 0 1 1 228.684722-228.684721 228.684722 228.684722 0 0 1-228.684722 228.049486zM745.139945 193.42971599999998m-296.019667 0a296.019667 296.019667 0 1 1 592.039335 0 296.019667 296.019667 0 1 1-592.039335 0ZM745.139945-127.99936500000001a322.064316 322.064316 0 1 0 321.429081 321.429081 322.064316 322.064316 0 0 0-321.429081-321.429081z m0 592.674571A271.245489 271.245489 0 1 1 1017.02067 193.42971599999998a271.245489 271.245489 0 0 1-271.880725 271.24549zM745.139945-85.43859699999996a279.503549 279.503549 0 1 0 279.503549 278.868313 279.503549 279.503549 0 0 0-279.503549-278.868313z m0 508.18827a228.684722 228.684722 0 1 1 228.684722-228.684721 228.684722 228.684722 0 0 1-228.684722 228.049486z"  horiz-adv-x="1066" />

    
    <glyph glyph-name="ziyuan61" unicode="&#59298;" d="M59.854348-111.44942600000002a57.126173 57.126173 0 0 0-45.380605 20.821689 59.261731 59.261731 0 0 0-11.211678 58.193952l79.54953 207.683003a44.312826 44.312826 0 0 0 9.076121 13.881126l640.667362 640.667362A160.16684 160.16684 0 0 0 902.331929 864.500521 153.226277 153.226277 0 0 0 1004.304818 735.83316 156.429614 156.429614 0 0 0 961.059771 613.572471L299.570719-40.44212700000003a37.372263 37.372263 0 0 0-17.084462-10.1439l-208.216893-59.261731a69.93952 69.93952 0 0 0-14.415016-1.601668z m94.498436 249.860271l-60.863399-160.166841 156.963503 44.846715L903.933597 670.164755a74.210636 74.210636 0 0 1 20.2878 57.126173A72.075078 72.075078 0 0 1 874.569677 789.2221059999999a80.08342 80.08342 0 0 1-85.422315-16.016684zM870.83245 540.429614a38.973931 38.973931 0 0 0-36.304483 23.491137 272.817518 272.817518 0 0 1-134.540146 138.811262 41.109489 41.109489 0 0 0-23.491137 53.388946 40.04171 40.04171 0 0 0 53.388947 22.957247A350.231491 350.231491 0 0 0 907.670824 597.021898a40.04171 40.04171 0 0 0-19.753911-53.388947 37.372263 37.372263 0 0 0-17.084463-3.203337zM352.959666 353.5683a39.507821 39.507821 0 0 0-28.296141 11.745569L39.032659 650.944734a82.218978 82.218978 0 0 0 0 114.786236l106.777894 106.777893a82.752868 82.752868 0 0 0 114.786235 0l285.630866-285.096976a40.04171 40.04171 0 0 0 0-56.592283l-165.505735-165.505735a38.973931 38.973931 0 0 0-27.762253-11.745569zM204.004505 816.450469l-106.777894-106.777893 255.733055-259.470282 106.777894 106.777894zM851.07854-128a78.481752 78.481752 0 0 0-56.592283 24.025026L488.033702 201.94369099999994a42.177268 42.177268 0 0 0-11.745569 28.830032 40.04171 40.04171 0 0 0 11.745569 28.296141l166.573514 164.437957a39.507821 39.507821 0 0 0 56.058394 0L1014.448717 118.12304500000005a82.218978 82.218978 0 0 0 0-114.786236l-106.777893-106.777893a80.61731 80.61731 0 0 0-56.592284-24.558916z m-278.156413 357.705944l278.156413-277.088634 106.777894 106.777893-277.088634 276.554745z m414.832117-198.606882zM234.436204 675.50365a40.04171 40.04171 0 0 0-28.296141 11.745568 39.507821 39.507821 0 0 0 0 56.592284l48.050052 48.583941a40.04171 40.04171 0 0 0 56.592283 0 39.507821 39.507821 0 0 0 0-56.592283l-48.050052-48.583942a42.177268 42.177268 0 0 0-28.296142-11.745568zM330.002419 615.1741400000001A37.906152 37.906152 0 0 0 301.706277 629.0552660000001a39.507821 39.507821 0 0 0 0 53.388947l30.96559 30.965589a40.04171 40.04171 0 0 0 56.592283-55.524505L358.298561 629.0552660000001a39.507821 39.507821 0 0 0-28.296142-13.881126zM390.331929 519.607925a39.507821 39.507821 0 0 0-28.296142 11.745568 40.04171 40.04171 0 0 0 0 56.592284l48.583942 48.583941a40.04171 40.04171 0 0 0 56.592284-56.592283l-48.583942-48.583942a39.507821 39.507821 0 0 0-28.296142-11.745568zM702.657268 207.28258600000004a39.507821 39.507821 0 0 0-28.296142 11.745568 40.04171 40.04171 0 0 0 0 56.592284l48.583942 48.583942a40.04171 40.04171 0 1 0 56.592283-56.592284l-48.583941-48.583942a39.507821 39.507821 0 0 0-28.296142-11.745568zM800.89293 148.55474500000003a41.109489 41.109489 0 0 0-28.296142 11.745568 40.04171 40.04171 0 0 0 0 56.592283l30.965589 31.499479a40.04171 40.04171 0 1 0 56.592284-56.592284l-30.965589-31.499478A42.177268 42.177268 0 0 0 800.89293 148.55474500000003zM858.552993 51.38686099999995a39.507821 39.507821 0 0 0-28.296142 11.745569 40.04171 40.04171 0 0 0 0 56.592283l48.583941 48.050052a39.507821 39.507821 0 0 0 56.592284 0 40.04171 40.04171 0 0 0 0-56.592283l-48.583941-48.050052a37.906152 37.906152 0 0 0-28.296142-11.745569z"  horiz-adv-x="1040" />

    
    <glyph glyph-name="ziyuan3" unicode="&#59299;" d="M626.82458398 228.59084589999998a83.00970878 83.00970878 0 0 0-34.32732362 7.48959785 79.26490987 79.26490987 0 0 0-48.68238516 73.02357862V753.4868235399999A79.26490987 79.26490987 0 0 0 593.12139365 827.13453545a84.25797539 84.25797539 0 0 0 91.74757325-16.85159472L918.91889756 584.34674033a76.14424424 76.14424424 0 0 0 24.34119257-58.04438291 80.51317646 80.51317646 0 0 0-25.58945917-58.04438203L684.24483359 251.05963944999996a87.37864102 87.37864102 0 0 0-57.42024961-22.46879355z m10.61026348 499.30651845V334.69348154l205.96393916 191.60887588zM127.51806552-66a46.80998614 46.80998614 0 0 0-46.80998612 46.80998614c0 232.80166406 62.41331513 401.31761484 177.25381347 499.30651845a416.92094297 416.92094297 0 0 0 312.06657481 92.99583897 46.80998614 46.80998614 0 0 0-14.3550624-92.99583897A321.42857168 321.42857168 0 0 1 317.87867568 410.83772578c-95.49237128-82.38557549-143.55062403-226.56033281-143.55062402-430.02773964a46.80998614 46.80998614 0 0 0-46.80998613-46.80998614z"  horiz-adv-x="1024" />

    
    <glyph glyph-name="ziyuan161" unicode="&#59300;" d="M512-128A512 512 0 1 0 1024 384 512.910222 512.910222 0 0 0 512-128z m0 955.733333A443.733333 443.733333 0 1 1 955.733333 384a444.188444 444.188444 0 0 1-443.733333 443.733333zM512 196.03911100000005a34.588444 34.588444 0 0 0-34.133333 34.133333v62.805334a38.684444 38.684444 0 0 0 10.012444 25.941333 36.408889 36.408889 0 0 0 24.120889 12.288 120.604444 120.604444 0 0 1 58.709333 14.563556 125.155556 125.155556 0 1 1-182.044444 110.136889 34.133333 34.133333 0 0 0-34.133333-33.678223 33.678222 33.678222 0 0 0-35.953778 34.133334 193.422222 193.422222 0 1 0 227.555555-190.691556v-35.498667a34.588444 34.588444 0 0 0-34.133333-34.133333zM512 120.03555600000004a32.768 32.768 0 0 0-34.133333 32.312888v3.185778a34.133333 34.133333 0 0 0 68.266666 0 35.498667 35.498667 0 0 0-34.133333-35.498666z"  horiz-adv-x="1024" />

    
    <glyph glyph-name="ziyuan168" unicode="&#59301;" d="M410.27579656 259.84582875L943.55427594 793.12430813M410.27579656 223.18598906a38.61503156 38.61503156 0 0 0-25.90628718 10.7535525 36.65984063 36.65984063 0 0 0 0 51.81257438L917.64798875 819.03059531A36.65984063 36.65984063 0 0 0 970.92695656 766.240425L436.18208375 233.93954155999995a37.63743656 37.63743656 0 0 0-25.90628719-10.7535525zM828.68677531-95.99902219H193.73833812A151.52734031 151.52734031 0 0 0 42.21099781 56.01711562000003V712.47265969A151.52734031 151.52734031 0 0 0 193.73833812 864h281.54757563a36.65984063 36.65984063 0 0 0 0-73.31968125H193.73833812a78.20766 78.20766 0 0 1-78.20765906-78.20765906v-656.45554406a78.6964575 78.6964575 0 0 1 78.20765907-78.6964575h635.43723562a78.6964575 78.6964575 0 0 1 78.20765906 78.6964575v313.31943656a36.65984063 36.65984063 0 0 0 73.31968125 0v-313.31943656a151.52734031 151.52734031 0 0 0-152.01613875-152.01613782z"  horiz-adv-x="1024" />

    
    <glyph glyph-name="ziyuan167" unicode="&#59302;" d="M849.075356-128H174.924644A163.193483 163.193483 0 0 0 11.731161 35.193483000000015V732.806517A163.193483 163.193483 0 0 0 174.924644 896h298.753564a39.10387 39.10387 0 0 0 0-78.207739H174.924644A84.985743 84.985743 0 0 1 89.9389 732.806517v-697.613034a84.985743 84.985743 0 0 1 84.985744-84.985744h674.150712a84.985743 84.985743 0 0 1 84.985744 84.985744v333.164969a39.10387 39.10387 0 0 0 78.207739 0v-333.164969a163.714868 163.714868 0 0 0-163.193483-163.193483zM512.260692 49.270876000000044a38.582485 38.582485 0 0 0-39.103869 39.103869v417.107943a133.474542 133.474542 0 0 0 133.474542 133.474542h297.710794l-156.415479 156.415479a39.10387 39.10387 0 0 0 0 55.266802 38.582485 38.582485 0 0 0 55.266803 0l184.04888-184.04888A58.916497 58.916497 0 0 0 1002.362525 599.8533600000001a60.480652 60.480652 0 0 0-56.309572-38.061099h-338.900204a54.745418 54.745418 0 0 1-55.266802-55.266803v-417.107943a39.10387 39.10387 0 0 0-39.625255-40.146639z"  horiz-adv-x="1024" />

    
    <glyph glyph-name="ziyuan24" unicode="&#59303;" d="M512.555299-128a78.036776 78.036776 0 0 0-17.605858 2.37917 71.850934 71.850934 0 0 0-16.65419 6.661676 142.7502 142.7502 0 0 0-31.880878 25.695036L106.193064 246.95719099999997a57.575914 57.575914 0 0 0-12.847518 13.323352 70.899266 70.899266 0 0 0-11.89585 75.181772 72.326768 72.326768 0 0 0 67.568427 45.20423H213.731547a63.761756 63.761756 0 0 1 63.761756 63.761756V811.2963139999999A84.698452 84.698452 0 0 0 361.240087 895.994766h299.299585a85.174286 85.174286 0 0 0 86.125954-84.698452v-366.868013a63.761756 63.761756 0 0 1 63.761756-63.761756h64.713424a73.278436 73.278436 0 0 0 51.865906-124.668508l-159.880224-159.880223a35.68755 35.68755 0 0 0-50.438404 0 35.68755 35.68755 0 0 0 0 50.438403l159.880224 159.40439-66.140926 2.855004a135.136856 135.136856 0 0 0-135.136856 135.61269V811.2963139999999a13.799186 13.799186 0 0 1-13.799186 13.323352H361.240087a13.799186 13.799186 0 0 1-13.323352-13.323352v-366.868013a135.136856 135.136856 0 0 0-134.185188-135.136856H149.018123a38.06672 38.06672 0 0 0 6.185842-10.468348l340.697144-340.697143a86.125954 86.125954 0 0 1 14.750854-12.847518 74.230104 74.230104 0 0 1 19.985028 18.081692c3.330838 3.330838 6.185842 6.661676 9.51668 9.51668l60.906751 61.382586a35.68755 35.68755 0 0 0 50.438404 0 35.211716 35.211716 0 0 0 0-50.438404l-68.520095-68.99593a101.352642 101.352642 0 0 0-70.423432-42.82506z"  horiz-adv-x="1024" />

    
    <glyph glyph-name="ziyuan166" unicode="&#59304;" d="M444.182786 201.50075300000003a34.133318 34.133318 0 0 0-24.120878 11.832884l-125.1555 123.335056a34.133318 34.133318 0 0 0 48.241756 48.241756l100.579511-100.57951L683.116013 528.725497a34.133318 34.133318 0 0 0 48.241756 0 34.133318 34.133318 0 0 0 0-48.241757L468.758775 213.33363699999995a32.767985 32.767985 0 0 0-24.120878-10.467551zM512.449422-127.99954500000001a511.544662 511.544662 0 1 0 424.618478 227.555455 34.133318 34.133318 0 0 0-56.888863 38.229316A443.733136 443.733136 0 1 1 512.449422-59.73290899999995a437.361583 437.361583 0 0 1 182.044364 39.59465 34.133318 34.133318 0 0 0 28.216876-62.350195 511.089551 511.089551 0 0 0-210.26124-45.511091z"  horiz-adv-x="1024" />

    
    <glyph glyph-name="ziyuan169" unicode="&#59305;" d="M652.301475-127.56999099999996H369.891331a90.051537 90.051537 0 0 0-97.511427 82.058797v458.250423a53.284933 53.284933 0 0 1-23.97822 39.43085l-43.693645 31.97096A231.256609 231.256609 0 0 0 103.466667 667.974057V804.916334A100.175674 100.175674 0 0 0 212.700779 895.50072h597.856947a99.642824 99.642824 0 0 0 109.234112-90.584386v-136.942277a231.789458 231.789458 0 0 0-102.83992-183.833018l-43.160796-31.97096a53.284933 53.284933 0 0 1-24.511069-39.43085v-203.548444a39.9637 39.9637 0 0 0-79.927399 0V412.739229a130.548085 130.548085 0 0 0 57.014878 103.905619l43.693645 31.970959a152.927757 152.927757 0 0 1 69.803262 119.35825V804.916334a40.496549 40.496549 0 0 1-29.306713 10.124138H212.700779a34.635206 34.635206 0 0 1-29.306713-11.189836v-135.876579a152.927757 152.927757 0 0 1 69.803262-119.35825l43.160796-31.970959a130.548085 130.548085 0 0 0 57.014878-106.569866v-457.717573h298.928473a25.043918 25.043918 0 0 1 18.116877 5.861342v64.474769a39.9637 39.9637 0 1 0 79.927399 0v-67.671865a89.518687 89.518687 0 0 0-98.044276-82.591646zM511.629252 248.62163499999997a39.9637 39.9637 0 0 0-39.963699 39.9637V444.710188a39.9637 39.9637 0 0 0 79.927399 0v-156.124853a40.496549 40.496549 0 0 0-39.9637-39.9637z"  horiz-adv-x="1024" />

    
    <glyph glyph-name="ziyuan164" unicode="&#59306;" d="M443.733333 213.33333300000004a34.133333 34.133333 0 0 0-24.120889 10.012445L294.456889 349.866667a34.133333 34.133333 0 0 0 48.241778 48.241777l100.579555-100.579555L682.666667 542.378667a34.133333 34.133333 0 0 0 48.241777 0 34.133333 34.133333 0 0 0 0-48.241778l-261.688888-269.425778a32.768 32.768 0 0 0-24.120889-10.467555zM512-128A512 512 0 1 0 1024 384 512.910222 512.910222 0 0 0 512-128z m0 955.733333A443.733333 443.733333 0 1 1 955.733333 384a444.188444 444.188444 0 0 1-443.733333 443.733333z"  horiz-adv-x="1024" />

    
    <glyph glyph-name="zu51" unicode="&#59307;" d="M5.072446 890.927554m211.140557 0l590.939938 0q211.140557 0 211.140557-211.140557l0-590.939938q0-211.140557-211.140557-211.140557l-590.939938 0q-211.140557 0-211.140557 211.140557l0 590.939938q0 211.140557 211.140557 211.140557ZM807.786997-128H216.213003A216.213003 216.213003 0 0 0 0 88.21300299999996V679.786997A216.213003 216.213003 0 0 0 216.213003 896h591.573994a216.213003 216.213003 0 0 0 216.213003-216.213003v-591.573994a216.213003 216.213003 0 0 0-216.213003-216.213003zM216.213003 800.891641A121.7387 121.7387 0 0 1 95.108359 679.786997v-591.573994a121.7387 121.7387 0 0 1 121.104644-121.104644h591.573994a121.7387 121.7387 0 0 1 121.104644 121.104644V679.786997a121.7387 121.7387 0 0 1-121.104644 121.104644zM131.883591 426.164706m84.329412 0l253.622291 0q84.329412 0 84.329412-84.329412l0-253.622291q0-84.329412-84.329412-84.329412l-253.622291 0q-84.329412 0-84.329412 84.329412l0 253.622291q0 84.329412 84.329412 84.329412ZM469.835294-1.188853999999992h-253.622291A89.401858 89.401858 0 0 0 126.811146 88.21300299999996v253.622291a89.401858 89.401858 0 0 0 89.401857 89.401858h253.622291a90.035913 90.035913 0 0 0 90.035913-89.401858v-253.622291a90.035913 90.035913 0 0 0-90.035913-89.401857z m-247.915789 95.108359h242.843343V336.128793H221.919505zM469.835294 764.116409m84.329412 0l253.622291 0q84.329412 0 84.329412-84.329412l0-253.622291q0-84.329412-84.329412-84.329412l-253.622291 0q-84.329412 0-84.329412 84.329412l0 253.622291q0 84.329412 84.329412 84.329412ZM807.786997 336.128793h-253.622291a90.035913 90.035913 0 0 0-89.401858 90.035913v253.622291A89.401858 89.401858 0 0 0 554.164706 769.188854h253.622291a89.401858 89.401858 0 0 0 89.401857-89.401857v-253.622291a90.035913 90.035913 0 0 0-89.401857-90.035913z m-247.91579 95.108359h242.209288V674.080495H559.871207z"  horiz-adv-x="1024" />

    
    <glyph glyph-name="ziyuan7" unicode="&#59308;" d="M524.57785719-95.96189531000005a309.67956562 309.67956562 0 0 0-250.40496094 120.96858093 388.91398594 388.91398594 0 0 0-35.68573125 338.71202438 1907.67451125 1907.67451125 0 0 0 245.56621781 483.87432187A48.99227531 48.99227531 0 0 0 523.36817094 863.92378969a45.3632175 45.3632175 0 0 0 36.8954175-22.37918719 2806.47106313 2806.47106313 0 0 0 221.37250219-475.40652094c42.33900281-137.29933875 35.08088813-253.42917562-21.16950188-338.10718125a302.42145094 302.42145094 0 0 0-231.65483156-120.96858093zM518.52942781 732.06803719a1681.46326594 1681.46326594 0 0 1-192.94488562-393.75272906A306.05050781 306.05050781 0 0 1 346.14920094 77.62801780999996a220.76765906 220.76765906 0 0 1 177.21897-83.46832031A209.27564437 209.27564437 0 0 1 684.86122625 77.62801780999996a309.67956562 309.67956562 0 0 1 10.88717156 260.08244813A2803.44684844 2803.44684844 0 0 1 518.52942781 732.06803719z"  horiz-adv-x="1024" />

    
    <glyph glyph-name="ziyuan26" unicode="&#59309;" d="M510.883315-128a85.42639 85.42639 0 0 0-60.300981 25.125409l-402.564886 402.006543a107.760087 107.760087 0 0 0-45.225736 104.968375 79.284624 79.284624 0 0 0 7.816794 19.541985 158.010905 158.010905 0 0 0 29.592148 36.8506L439.973828 860.266085a76.492912 76.492912 0 0 0 15.075245 15.075245 85.984733 85.984733 0 0 0 141.818975-65.326063V734.080698A74.817884 74.817884 0 0 1 670.010905 659.2628139999999h430.482007A99.943293 99.943293 0 0 0 1201.55289 560.994547v-351.197382a99.943293 99.943293 0 0 0-99.943293-99.943294h-72.026173a41.875682 41.875682 0 0 0 0 83.751363h72.026173a16.19193 16.19193 0 0 1 16.19193 16.191931V560.994547a16.19193 16.19193 0 0 1-16.19193 15.633588H670.010905A158.569248 158.569248 0 0 0 513.116685 734.080698V810.015267a44.667394 44.667394 0 0 0-10.608506-7.258451L99.384951 401.308615a122.27699 122.27699 0 0 1-15.075245-16.750273 86.543075 86.543075 0 0 1 20.658669-24.008724c3.908397-3.908397 8.375136-7.258451 11.725191-11.166848l390.839695-390.839695 3.350054 77.609597A158.569248 158.569248 0 0 0 670.010905 192.48855000000003h198.21156a41.875682 41.875682 0 0 0 0-83.751364H670.010905a74.817884 74.817884 0 0 1-74.259542-74.817884v-75.934569a86.543075 86.543075 0 0 0-53.04253-79.284624 84.868048 84.868048 0 0 0-31.825518-6.700109z"  horiz-adv-x="1201" />

    
    <glyph glyph-name="ziyuan160" unicode="&#59310;" d="M512.449422-127.99954500000001a511.544662 511.544662 0 1 0 424.618478 227.555455 34.133318 34.133318 0 0 0-56.888863 38.229316A443.733136 443.733136 0 1 1 512.449422-59.73290899999995a437.361583 437.361583 0 0 1 182.044364 39.59465 34.133318 34.133318 0 0 0 28.216876-62.350195 511.089551 511.089551 0 0 0-210.26124-45.511091zM290.81041 114.57457a45.511091 45.511091 0 0 0-30.947542 12.743105 45.511091 45.511091 0 0 0-10.467551 45.511091l91.022182 267.605214A182.044364 182.044364 0 0 0 452.829893 554.6668179999999l265.784771 96.028402a45.511091 45.511091 0 0 0 45.511091-9.557329 45.511091 45.511091 0 0 0 11.377773-45.511091l-91.022182-268.060325a184.319918 184.319918 0 0 0-114.232838-116.053282l-264.419438-94.663069a57.343975 57.343975 0 0 0-15.01866-2.275554z m-9.102219 45.51109z m413.695817 409.599818l-219.363458-79.189298a116.053282 116.053282 0 0 1-70.997302-71.907523l-75.0933-220.728791 219.818569 77.368854A115.14306 115.14306 0 0 1 621.67604 349.86690899999996z"  horiz-adv-x="1024" />

    
    <glyph glyph-name="ziyuan23" unicode="&#59311;" d="M661.412639-128H361.159851a85.174721 85.174721 0 0 0-84.698884 85.174721V324.99628299999995a63.762082 63.762082 0 0 1-62.810409 62.334572H148.936803a73.27881 73.27881 0 0 0-67.568773 45.204461 72.327138 72.327138 0 0 0 15.702602 79.464684L256.475836 671.881041a35.687732 35.687732 0 0 0 50.438662 0 35.211896 35.211896 0 0 0 0-50.438662L147.509294 461.561338l66.141264-2.855018A135.137546 135.137546 0 0 0 348.788104 324.99628299999995v-366.394053A13.799257 13.799257 0 0 1 361.159851-55.67286200000001h299.301116a13.799257 13.799257 0 0 1 13.799256 13.799256V324.99628299999995a135.137546 135.137546 0 0 0 135.137547 135.137546h65.665427a29.026022 29.026022 0 0 0-6.185874 7.613383L526.750929 811.301115a82.795539 82.795539 0 0 1-14.750929 12.847584c-4.758364 0-14.750929-11.895911-19.98513-17.605948l-9.516729-9.992565-61.382899-60.907063a35.211896 35.211896 0 0 0-50.438662 0 35.687732 35.687732 0 0 0 0 50.438661L439.197026 854.60223A91.836431 91.836431 0 0 0 529.130112 893.620818a80.892193 80.892193 0 0 0 16.654275-6.66171 134.66171 134.66171 0 0 0 31.405204-25.219331l340.698885-340.698885a65.189591 65.189591 0 0 0 12.847583-12.847583 73.27881 73.27881 0 0 0-55.672862-120.862454h-64.713755A63.762082 63.762082 0 0 1 746.587361 324.99628299999995v-366.394053a85.174721 85.174721 0 0 0-85.174722-86.60223z"  horiz-adv-x="1024" />

    
    <glyph glyph-name="ziyuan165" unicode="&#59312;" d="M443.724459 201.49522000000002a34.132651 34.132651 0 0 0-24.120407 11.832652l-125.153052 123.332645a34.132651 34.132651 0 0 0 48.240813 48.240813l100.577544-100.577544L682.653014 528.713564a34.132651 34.132651 0 0 0 48.240813 0 34.132651 34.132651 0 0 0 0-48.240813L468.299967 213.32787199999996a32.767345 32.767345 0 0 0-24.120406-10.467346zM511.98976-127.99863500000004a511.079556 511.079556 0 0 0-211.622434 45.510201 34.132651 34.132651 0 0 0 28.216325 62.348975 437.353031 437.353031 0 0 1 182.040803-39.593874 443.269357 443.269357 0 1 1-368.177525 195.693864 33.677549 33.677549 0 0 0-9.10204-45.510201 34.132651 34.132651 0 0 0-45.510201 9.10204 511.98976 511.98976 0 1 0 424.610174-227.551005z"  horiz-adv-x="1025" />

    
    <glyph glyph-name="ziyuan158" unicode="&#59313;" d="M512-128A512 512 0 1 0 1024 384 512.910222 512.910222 0 0 0 512-128z m0 955.733333A443.733333 443.733333 0 1 1 955.733333 384a444.188444 444.188444 0 0 1-443.733333 443.733333zM290.360889 114.57422199999996a45.511111 45.511111 0 0 0-41.415111 58.709334l91.022222 267.150222A182.044444 182.044444 0 0 0 452.380444 554.666667l265.784889 96.028444a45.511111 45.511111 0 0 0 45.511111-9.557333 45.511111 45.511111 0 0 0 11.377778-45.511111l-91.022222-268.060445a186.140444 186.140444 0 0 0-114.232889-116.508444l-264.419555-94.208a57.344 57.344 0 0 0-15.018667-2.275556z m23.210667 36.408889z m-32.312889 10.922667z m413.696 409.6l-219.363556-81.009778a116.053333 116.053333 0 0 1-70.997333-71.907556l-75.093334-220.728888 219.818667 77.368888A114.232889 114.232889 0 0 1 621.226667 349.866667z"  horiz-adv-x="1024" />

    
    <glyph glyph-name="ziyuan172" unicode="&#59314;" d="M549.011289-127.99807399999997a88.099149 88.099149 0 0 0-48.141611 13.961067C398.809461-46.63875099999996 58.448268 193.10647500000005 7.899576 445.368519a392.83555 392.83555 0 0 0 192.566446 420.757685c115.539868 57.769934 240.708058 30.810631 347.101019-72.693833C655.885667 895.974004 781.535273 923.896138 897.075141 866.126204a391.872718 391.872718 0 0 0 192.566446-420.757685 639.802018 639.802018 0 0 0-178.605379-300.885072 36.106209 36.106209 0 1 0-52.474356 48.141612 574.810842 574.810842 0 0 1 160.311566 265.260279A322.067381 322.067381 0 0 1 867.227342 799.69078c-96.283223 48.141612-198.34344 17.33098-288.849669-84.24782a36.106209 36.106209 0 0 0-26.959303-12.035403 35.143376 35.143376 0 0 0-26.959302 12.035403C433.952838 818.947425 329.485541 847.832392 233.683734 799.69078a323.993046 323.993046 0 0 1-155.015989-340.361193c45.253115-224.33991 365.394832-449.161236 462.640887-512.708163a12.998235 12.998235 0 0 1 15.405315 0c25.033638 16.368148 64.028343 42.846034 110.244291 77.507994a35.624793 35.624793 0 0 0 50.548692-6.739825 36.106209 36.106209 0 0 0-7.221242-50.548693c-48.141612-36.106209-88.099149-64.028343-114.095619-80.877907a88.099149 88.099149 0 0 0-47.17878-13.961067zM877.33708 194.55072299999995a36.106209 36.106209 0 0 0-25.515054 10.591155l-155.978821 155.978821-65.472592-65.472592a36.106209 36.106209 0 0 0-51.030108 0L364.147501 510.841111a35.624793 35.624793 0 0 0 0 51.030108 36.106209 36.106209 0 0 0 51.030108 0l189.67795-192.566446 65.472592 65.472592a37.069041 37.069041 0 0 0 51.030108 0l181.493875-181.493876a36.106209 36.106209 0 0 0 0-51.030108 38.031873 38.031873 0 0 0-25.515054-7.702658z"  horiz-adv-x="1097" />

    
    <glyph glyph-name="ziyuan30" unicode="&#59315;" d="M617.851425-49.31192599999997H404.206709a87.919636 87.919636 0 0 0-87.919636 87.919636v70.335709a418.057869 418.057869 0 1 0 393.000773 0v-68.577316a87.919636 87.919636 0 0 0-91.436421-89.678029z m-106.822358 879.19636a351.678544 351.678544 0 0 1-149.463381-670.826823 32.969863 32.969863 0 0 0 18.902722-29.892676v-87.919636a23.738302 23.738302 0 0 1 23.738301-23.738301h213.644716a23.738302 23.738302 0 0 1 23.738301 23.738301v87.919636a32.969863 32.969863 0 0 0 18.902722 29.892676A351.678544 351.678544 0 0 1 511.029067 829.884434zM607.740666-128H419.592646a32.969863 32.969863 0 0 0 0 65.939727h188.14802a32.969863 32.969863 0 0 0 0-65.939727zM512.78746 298.849833a31.651069 31.651069 0 0 0-21.100713 7.473169l-97.590796 81.325663a32.969863 32.969863 0 0 0-3.956384 46.597407 32.530265 32.530265 0 0 0 43.959818 3.956384l76.490084-63.302138 73.852494 63.302138a32.969863 32.969863 0 0 0 43.959818-50.114193L532.569378 306.7626a32.530265 32.530265 0 0 0-19.781918-7.912767zM511.029067 56.191637000000014a32.969863 32.969863 0 0 0-32.530265 33.409462v242.218597a33.409462 33.409462 0 0 0 32.969863 32.969864 33.409462 33.409462 0 0 0 32.530265-33.409462v-242.658195a32.969863 32.969863 0 0 0-32.969863-32.530266z"  horiz-adv-x="1024" />

    
    <glyph glyph-name="ziyuan170" unicode="&#59316;" d="M652.351173-127.66267600000003H369.915456a90.059691 90.059691 0 0 0-97.520257 82.066227v458.291918a53.289758 53.289758 0 0 1-23.980391 39.434421l-43.697601 31.973854A231.277549 231.277549 0 0 0 103.466667 667.953409V804.908087A100.184745 100.184745 0 0 0 212.71067 895.500675h597.911083a99.651847 99.651847 0 0 0 109.244004-90.592588v-136.954678a231.810447 231.810447 0 0 0-102.849233-183.849665l-43.164704-31.973854a53.289758 53.289758 0 0 1-24.513288-39.434421v-457.75902a89.526793 89.526793 0 0 0-96.987359-82.599125z m-297.889747 83.132022a84.730715 84.730715 0 0 1 16.519825-2.664487h281.369922a25.046186 25.046186 0 0 1 18.118517 5.861873V413.228366a130.559907 130.559907 0 0 0 57.020041 103.915028l43.697602 31.973855a152.941605 152.941605 0 0 1 69.809582 119.369058V804.375189a36.769933 36.769933 0 0 1-29.309366 10.657952H212.71067a34.638343 34.638343 0 0 1-29.309367-11.19085v-135.888882a152.941605 152.941605 0 0 1 69.809583-119.369058l43.164704-31.973854a130.559907 130.559907 0 0 0 57.020041-106.579516v-457.75902zM511.666212 249.095912a39.434421 39.434421 0 0 0-39.967319 39.967319V444.669324a39.967318 39.967318 0 0 0 79.934637 0v-155.606093a39.967318 39.967318 0 0 0-39.967318-39.967319z"  horiz-adv-x="1024" />

    
    <glyph glyph-name="ziyuan163" unicode="&#59317;" d="M512.449422-127.99954500000001a511.544662 511.544662 0 1 0 424.618478 227.555455 34.133318 34.133318 0 0 0-56.888863 38.229316A443.733136 443.733136 0 1 1 512.449422-59.73290899999995a437.361583 437.361583 0 0 1 182.044364 39.59465 34.133318 34.133318 0 0 0 28.216876-62.350195 511.089551 511.089551 0 0 0-210.26124-45.511091zM512.449422 182.38609499999995a34.133318 34.133318 0 0 0-34.133318 34.133318v62.350195a39.594649 39.594649 0 0 0 10.01244 26.396432 35.953762 35.953762 0 0 0 24.120878 11.832884 125.1555 125.1555 0 0 1 110.591951 182.044363A125.1555 125.1555 0 0 1 455.560559 552.8463750000001 124.700389 124.700389 0 0 1 387.293922 440.889091a34.588429 34.588429 0 0 0-34.133318-34.133318A34.133318 34.133318 0 0 0 319.027286 440.889091a193.422136 193.422136 0 1 0 227.555454-190.23636v-35.498651a34.133318 34.133318 0 0 0-34.133318-32.767985zM512.449422 105.92746199999999a33.223096 33.223096 0 0 0-34.133318 32.767986v3.185776a34.133318 34.133318 0 0 0 68.266636 0 35.498651 35.498651 0 0 0-34.133318-35.953762z"  horiz-adv-x="1024" />

    
    <glyph glyph-name="ziyuan28" unicode="&#59318;" d="M199.68-128a77.608421 77.608421 0 0 0-26.947368 5.389474A68.446316 68.446316 0 0 0 131.233684-59.553683999999976V742.4A154.138947 154.138947 0 0 0 284.833684 896h453.793684a154.138947 154.138947 0 0 0 154.138948-153.6v-800.875789a68.985263 68.985263 0 0 0-116.951579-48.505264l-238.753684 239.292632a31.258947 31.258947 0 0 1-43.654737 0l-246.298948-240.909474a68.985263 68.985263 0 0 0-47.427368-19.402105zM284.833684 815.157895A73.296842 73.296842 0 0 1 212.075789 742.4v-771.772632l224.741053 219.351579a112.64 112.64 0 0 0 157.372632 0l215.578947-215.578947V742.4a73.296842 73.296842 0 0 1-71.141053 72.757895z"  horiz-adv-x="1024" />

    
    <glyph glyph-name="ziyuan173" unicode="&#59319;" d="M548.648826-127.99277900000004a88.098694 88.098694 0 0 0-48.141362 13.960995C475.473955-97.18230700000004 433.59097-69.26031599999999 385.449607-33.15429400000005a36.106022 36.106022 0 0 0-7.221204 50.54843 35.624608 35.624608 0 0 0 48.141362 6.739791c48.141363-34.661781 85.210212-61.13953 110.243721-77.507594a12.998168 12.998168 0 0 1 15.405236 0c96.282725 63.546599 417.385614 288.848176 462.638494 512.705512A323.509957 323.509957 0 0 1 863.974751 799.691278c-96.282725 48.141363-197.861 17.330891-288.848175-84.247384a35.143195 35.143195 0 0 0-26.959163-12.035341 36.106022 36.106022 0 0 0-26.959164 12.035341C433.59097 818.947824 328.642799 847.832641 232.841488 799.691278a322.065716 322.065716 0 0 1-154.052361-342.285088A574.807869 574.807869 0 0 1 241.025519 194.07293700000002a36.106022 36.106022 0 1 0-52.474085-48.141363A639.798709 639.798709 0 0 0 8.021324 445.37085a391.870692 391.870692 0 0 0 192.565451 420.755509c116.020684 57.769635 240.706813 30.810472 348.062051-72.693458C655.522651 895.974004 780.20878 923.895994 895.74805 866.126359a392.833519 392.833519 0 0 0 192.565451-420.755509C1039.209311 193.11010999999996 698.849877-46.63387599999999 595.827361-114.99461099999996a88.098694 88.098694 0 0 0-47.178535-12.998168zM850.49517 207.55251899999996a38.031676 38.031676 0 0 0-25.514923 10.591099l-129.500265 129.981679-65.472253-65.472253a36.106022 36.106022 0 0 0-51.029844 0L363.785994 497.844935A36.106022 36.106022 0 0 0 414.815838 549.3561930000001l189.676969-192.56545 65.472253 65.472253a37.068849 37.068849 0 0 0 51.029844 0L876.010092 270.13629000000003a36.106022 36.106022 0 0 0 0-51.029844 38.031676 38.031676 0 0 0-25.514922-11.553927z"  horiz-adv-x="1096" />

    
    <glyph glyph-name="ziyuan25" unicode="&#59320;" d="M690.669575-128a86.543075 86.543075 0 0 0-85.984733 85.984733v75.934569a74.817884 74.817884 0 0 1-74.817885 74.817884H335.005453a41.875682 41.875682 0 0 0 0 83.751364h194.861504a158.569248 158.569248 0 0 0 158.569248-158.569248v-75.934569l80.959651 75.934569 315.463468 315.463468 11.166848 11.166848a102.176663 102.176663 0 0 1 20.65867 23.450382 136.235551 136.235551 0 0 1-15.633588 17.308615L702.394766 801.081788l-4.46674 5.025082-6.141766 5.583424-3.350055-77.609596a158.569248 158.569248 0 0 0-158.569248-158.569248h-429.923664A16.19193 16.19193 0 0 1 83.751363 560.994547v-351.197382a16.19193 16.19193 0 0 1 16.19193-16.191931h71.46783a41.875682 41.875682 0 0 0 0-83.751363H99.943293A99.943293 99.943293 0 0 0 0 208.68048V560.994547a99.943293 99.943293 0 0 0 99.943293 98.268267h429.923664a74.817884 74.817884 0 0 1 74.817885 74.817884V810.015267A85.984733 85.984733 0 0 0 746.503817 875.34133a102.735005 102.735005 0 0 0 15.633588-15.633587l398.656488-398.656489a160.802617 160.802617 0 0 0 30.150491-37.408942 99.384951 99.384951 0 0 0 7.816794-20.100327 106.643402 106.643402 0 0 0-45.784079-104.410033l-8.933478-8.933479-390.839695-390.839694a85.42639 85.42639 0 0 0-62.534351-27.358779z"  horiz-adv-x="1201" />

    
    <glyph glyph-name="ziyuan171" unicode="&#59321;" d="M770.428648-127.98605099999997H166.854672A164.708631 164.708631 0 0 0 0 36.72258099999999V407.451129a128.225938 128.225938 0 0 0 129.298958 126.616407h70.282836A139.492652 139.492652 0 0 1 333.709345 626.883801l37.019203 136.810101A186.70555 186.70555 0 0 0 530.608588 895.138901a160.95306 160.95306 0 0 0 137.346611-53.65102A140.029162 140.029162 0 0 0 697.46326 713.798453l-27.89853-186.169039h277.375773a119.105264 119.105264 0 0 0 98.717877-53.65102 114.276673 114.276673 0 0 0 12.876245-107.30204L929.235667-16.928439000000026a166.854672 166.854672 0 0 0-158.807019-111.057612zM129.298958 453.591006a47.749408 47.749408 0 0 1-48.822428-46.139877v-375.55714a84.232101 84.232101 0 0 1 86.378142-82.086061h603.573976a86.378142 86.378142 0 0 1 82.62257 56.870082l131.98151 391.652446a34.873163 34.873163 0 0 1-3.219062 32.727122 39.701755 39.701755 0 0 1-32.727122 16.095306h-281.667855a76.720959 76.720959 0 0 0-60.625653 29.508061 75.111428 75.111428 0 0 0-13.949265 63.308204l27.898531 186.169039A62.771693 62.771693 0 0 1 608.939077 787.836861 82.622571 82.622571 0 0 1 536.5102 814.125861a107.30204 107.30204 0 0 1-89.060693-72.965387l-37.019204-137.346612a220.505692 220.505692 0 0 0-210.848509-150.222856z"  horiz-adv-x="1068" />

    
    <glyph glyph-name="ziyuan22" unicode="&#59322;" d="M906.04365137 415.62409629H152.48667412a213.07808672 213.07808672 0 0 0-65.67475254 10.21607227 36.48597363 36.48597363 0 0 0-24.81046171 34.54005498A35.99949375 35.99949375 0 0 0 86.81192158 493.46083974a142.53853711 142.53853711 0 0 1 54.48572051 33.5670961 136.70078115 136.70078115 0 0 1 39.89133106 97.29592999A136.70078115 136.70078115 0 0 1 86.81192158 754.21393213 36.48597363 36.48597363 0 0 0 62.00145987 788.75398711 35.99949375 35.99949375 0 0 0 86.81192158 823.29404209 199.94313604 199.94313604 0 0 0 152.48667412 833.99659424h753.55697725a209.18624941 209.18624941 0 1 0 0-418.37249795zM203.56703721 488.59604356h702.47661416a137.18726104 137.18726104 0 0 1 97.29592998 39.89133105 134.7548625 134.7548625 0 0 1 39.89133105 97.29592998 136.70078115 136.70078115 0 0 1-137.18726103 135.24134239H203.0805582A208.21328964 208.21328964 0 0 0 256.59331894 624.32386582 207.72681065 207.72681065 0 0 0 203.56703721 488.59604356zM1025.23116553-65.99075654H271.67418828a210.1592083 210.1592083 0 0 0-145.94389453 60.80995547 209.6727293 209.6727293 0 0 0 145.94389453 357.56254248H1025.23116553a213.07808672 213.07808672 0 0 0 65.67475254-10.21607227 36.97245352 36.97245352 0 0 0 0-69.56658984 136.21430215 136.21430215 0 0 1-94.37705156-129.40358731 138.1602208 138.1602208 0 0 1 40.37781093-97.2959291 135.24134239 135.24134239 0 0 1 53.99924063-32.59413721 36.48597363 36.48597363 0 0 0 24.81046172-34.54005498 37.45893339 37.45893339 0 0 0-24.81046172-35.02653486 213.07808672 213.07808672 0 0 0-65.67475254-9.72959238zM271.67418828 279.40979414000003a136.21430215 136.21430215 0 1 1 0-272.42860341h702.47661416a207.72681065 207.72681065 0 0 0 0 272.42860341z"  horiz-adv-x="1198" />

    
    <glyph glyph-name="ziyuan31" unicode="&#59323;" d="M458.988819 249.478521h-11.252747a192.831169 192.831169 0 0 0-117.642358 335.536464L622.665143 844.851149a193.342657 193.342657 0 0 0 272.111888-14.833167 193.342657 193.342657 0 0 0-15.344655-272.111888l-126.849151-111.504496a38.361638 38.361638 0 1 0-51.148851 57.286714l126.84915 113.550449a115.596404 115.596404 0 0 1-70.585414 202.037962 119.688312 119.688312 0 0 1-83.884116-29.154845L381.242565 527.7282720000001a115.596404 115.596404 0 0 1 71.096904-201.526474 114.061938 114.061938 0 0 1 83.372627 29.154845 38.361638 38.361638 0 1 0 51.148851-57.286713 189.762238 189.762238 0 0 0-127.872128-48.591409zM273.31849-126.97702300000003h-11.252748A191.808192 191.808192 0 0 0 131.636172-64.06393600000001a192.831169 192.831169 0 0 0 14.833167 271.6004l127.360639 114.061938a38.361638 38.361638 0 0 0 51.148851-57.286714l-129.406593-113.550449a117.642358 117.642358 0 0 1-38.361639-80.303697A116.107892 116.107892 0 0 1 350.041766-24.67932099999996L643.124683 239.76023999999995a114.061938 114.061938 0 0 1 38.361639 79.792208A116.107892 116.107892 0 0 1 489.67813 412.643357a38.361638 38.361638 0 1 0-51.148851 56.775224 192.31968 192.31968 0 0 0 320.703296-153.446553A192.831169 192.831169 0 0 0 694.273534 179.91608399999996l-293.082917-259.324675a189.762238 189.762238 0 0 0-127.872127-47.568432z"  horiz-adv-x="1024" />

    
    <glyph glyph-name="ziyuan29" unicode="&#59324;" d="M393.179283 393.179283H145.338645A127.49004 127.49004 0 0 0 17.848606 520.6693230000001V768.50996A127.49004 127.49004 0 0 0 145.338645 896h247.840638a127.49004 127.49004 0 0 0 127.49004-127.49004v-247.840637a127.49004 127.49004 0 0 0-127.49004-127.49004zM145.338645 819.505976a50.996016 50.996016 0 0 1-50.996016-50.996016v-247.840637a50.996016 50.996016 0 0 1 50.996016-50.996016h247.840638a50.996016 50.996016 0 0 1 50.996016 50.996016V768.50996a50.996016 50.996016 0 0 1-50.996016 50.996016zM393.179283-128H145.338645a127.49004 127.49004 0 0 0-127.490039 127.49004v247.840637a128 128 0 0 0 127.490039 127.49004h247.840638a128 128 0 0 0 127.49004-127.49004v-247.840637a127.49004 127.49004 0 0 0-127.49004-127.49004zM145.338645 298.326693a50.996016 50.996016 0 0 1-50.996016-50.996016v-247.840637a50.996016 50.996016 0 0 1 50.996016-50.996016h247.840638a50.996016 50.996016 0 0 1 50.996016 50.996016v247.840637a50.996016 50.996016 0 0 1-50.996016 50.996016zM967.904382 770.039841H578.804781A38.247012 38.247012 0 1 0 578.804781 845.003984h389.099601a38.247012 38.247012 0 0 0 0-76.494024zM967.904382 457.434263H578.804781a38.247012 38.247012 0 0 0 0 76.494024h389.099601a38.247012 38.247012 0 0 0 0-76.494024zM967.904382 241.21115499999996H578.804781a38.247012 38.247012 0 0 0 0 76.494024h389.099601a38.247012 38.247012 0 0 0 0-76.494024zM967.904382-72.92430300000001H578.804781a38.247012 38.247012 0 0 0 0 76.494024h389.099601a38.247012 38.247012 0 0 0 0-76.494024z"  horiz-adv-x="1024" />

    
    <glyph glyph-name="ziyuan27" unicode="&#59325;" d="M512.555299-128a78.036776 78.036776 0 0 0-17.605858 2.37917 71.850934 71.850934 0 0 0-16.65419 6.661676 142.7502 142.7502 0 0 0-31.880878 25.695036L106.193064 246.95719099999997a57.575914 57.575914 0 0 0-12.847518 13.323352 70.899266 70.899266 0 0 0-11.89585 75.181772 72.326768 72.326768 0 0 0 67.568427 45.20423H213.731547a63.761756 63.761756 0 0 1 63.761756 63.761756V811.2963139999999A84.698452 84.698452 0 0 0 361.240087 895.994766h299.299585a85.174286 85.174286 0 0 0 86.125954-84.698452v-366.868013a63.761756 63.761756 0 0 1 63.761756-63.761756h64.713424a73.278436 73.278436 0 0 0 51.865906-124.668508l-342.600479-342.600479a101.352642 101.352642 0 0 0-71.850934-41.397558z m0 71.850934a111.82099 111.82099 0 0 1 19.03336 18.557526c3.330838 3.330838 6.185842 6.661676 9.51668 9.51668l333.083799 333.083799-66.140926 2.855004a135.136856 135.136856 0 0 0-132.757686 136.564358V811.2963139999999a13.799186 13.799186 0 0 1-13.799186 13.323352H361.240087a13.799186 13.799186 0 0 1-13.323352-13.323352v-366.868013a135.136856 135.136856 0 0 0-134.185188-135.136856H149.018123a38.06672 38.06672 0 0 0 6.185842-10.468348l340.697144-340.697143a108.014318 108.014318 0 0 1 15.702522-13.799186z"  horiz-adv-x="1024" />

    
    <glyph glyph-name="ziyuan32" unicode="&#59326;" d="M1005.102285-128H144.941336A144.941336 144.941336 0 0 0 0 16.94133599999998V557.177226a144.941336 144.941336 0 0 0 144.941336 144.941337h860.160949a144.941336 144.941336 0 0 0 144.941336-144.941337v-540.23589a144.941336 144.941336 0 0 0-144.941336-144.941336zM144.941336 623.059652A65.882426 65.882426 0 0 1 79.058911 557.177226v-540.23589a65.882426 65.882426 0 0 1 65.882425-65.882425h860.160949a65.882426 65.882426 0 0 1 65.882426 65.882425V557.177226a65.882426 65.882426 0 0 1-65.882426 65.882426zM904.960998 623.059652a38.475337 38.475337 0 0 0-18.447079 4.743535l-326.776831 171.821366a143.887218 143.887218 0 0 1-176.564901-33.731802L273.016772 636.763196A39.529455 39.529455 0 1 0 210.823762 688.415018l112.263653 129.129554a221.892009 221.892009 0 0 0 273.016772 52.705941l327.30389-172.348426a38.475337 38.475337 0 0 0 16.338842-52.70594 39.529455 39.529455 0 0 0-34.785921-22.136495zM574.494751 52.25431600000002a67.463604 67.463604 0 0 0-63.774188 42.691812L380.009831 414.871187a39.529455 39.529455 0 1 0 73.788317 29.515327l120.696603-297.788564 115.42601 297.261504a39.529455 39.529455 0 1 0 73.261257-28.461208l-124.913079-321.506237a66.936544 66.936544 0 0 0-63.247128-43.74593z"  horiz-adv-x="1150" />

    
    <glyph glyph-name="ziyuan35" unicode="&#59327;" d="M650.463878 11.680608000000007a36.501901 36.501901 0 0 0 0 73.003803h281.307985a37.961977 37.961977 0 0 0 36.988593-36.015209 36.988593 36.988593 0 0 0-36.015209-36.988594h-281.794677zM792.577947-126.05323199999998a36.501901 36.501901 0 0 0-36.501901 36.015209v281.794677a36.988593 36.988593 0 0 0 36.015209 36.988593 36.988593 36.988593 0 0 0 36.988593-36.501901v-281.307985a36.501901 36.501901 0 0 0-36.501901-36.988593zM583.30038-120.21292800000003H267.437262A212.197719 212.197719 0 0 0 55.239544 91.98479099999997V683.802281A212.684411 212.684411 0 0 0 267.437262 896h417.095057a212.684411 212.684411 0 0 0 212.197719-212.197719v-399.574144a36.501901 36.501901 0 0 0-73.003802 0V683.802281a139.680608 139.680608 0 0 1-139.193917 139.193917H267.437262A139.193916 139.193916 0 0 1 128.243346 683.802281v-591.81749a139.193916 139.193916 0 0 1 139.193916-139.193916h315.863118a36.501901 36.501901 0 0 0 0-73.003803zM697.673004 522.707224H238.235741a36.501901 36.501901 0 0 0 0 73.003803h459.437263a36.501901 36.501901 0 0 0 0-73.003803zM467.954373 351.39163499999995H238.235741a36.501901 36.501901 0 0 0 0 73.003802h229.718632a36.501901 36.501901 0 0 0 0-73.003802z"  horiz-adv-x="1024" />

    
    <glyph glyph-name="ziyuan33" unicode="&#59328;" d="M583.846743-128H265.563218A213.823755 213.823755 0 0 0 51.739464 85.823755V682.176245A214.314176 214.314176 0 0 0 265.563218 896h420.291188a214.314176 214.314176 0 0 0 213.823755-213.823755v-402.636015a36.781609 36.781609 0 0 0-73.563218 0V682.176245a140.750958 140.750958 0 0 1-140.260537 140.260537H265.563218A140.260536 140.260536 0 0 1 125.302682 682.176245v-596.35249a140.260536 140.260536 0 0 1 140.260536-140.260537h318.283525a36.781609 36.781609 0 0 0 0-73.563218zM699.095785 519.8467430000001H236.137931a36.781609 36.781609 0 0 0 0 73.563219h462.957854a36.781609 36.781609 0 0 0 0-73.563219zM467.616858 347.218391H236.137931a36.781609 36.781609 0 0 0 0 73.563218h231.478927a36.781609 36.781609 0 0 0 0-73.563218zM723.126437-102.49808399999995a36.781609 36.781609 0 0 0-26.97318 11.279693l-101.517242 107.892721a36.781609 36.781609 0 0 0 0 51.984674 36.291188 36.291188 0 0 0 51.984675 0l74.544061-78.957855 185.869732 203.034483a36.781609 36.781609 0 0 0 51.984674 0 37.272031 37.272031 0 0 0 0-51.984674l-212.35249-232.45977a37.272031 37.272031 0 0 0-26.97318-11.770115z"  horiz-adv-x="1024" />

    
    <glyph glyph-name="ziyuan39" unicode="&#59329;" d="M512.227657-128a511.772343 511.772343 0 0 0-449.394398 266.358382 511.772343 511.772343 0 1 0 449.394398-266.358382z m-389.748333 299.140952a443.930636 443.930636 0 1 1-54.182303 212.631391 444.385949 444.385949 0 0 1 54.182303-212.631391zM989.85149 349.623833H512.227657a34.14851 34.14851 0 0 0-34.148511 34.14851V861.85149a34.14851 34.14851 0 0 0 68.297021 0v-443.930636h443.475323a34.14851 34.14851 0 0 0 0-68.297021zM930.205425 118.77990199999999a35.059137 35.059137 0 0 0-16.391285 4.097821l-418.433082 231.299245a34.14851 34.14851 0 0 0 33.237884 59.646064l417.977768-231.299244a33.693197 33.693197 0 0 0 13.659404-45.531347 34.14851 34.14851 0 0 0-30.050689-18.212539z"  horiz-adv-x="1024" />

    
    <glyph glyph-name="ziyuan34" unicode="&#59330;" d="M583.063446-116.836005H268.249956A211.492576 211.492576 0 0 0 56.75738 94.65656999999999V684.507424A211.977651 211.977651 0 0 0 268.249956 896h415.709031a211.977651 211.977651 0 0 0 211.492575-211.492576v-398.246341a36.380604 36.380604 0 0 0-72.761207 0V684.507424a139.216443 139.216443 0 0 1-138.731368 138.731369H268.249956A138.731369 138.731369 0 0 1 129.518587 684.507424v-589.850854a138.731369 138.731369 0 0 1 138.731369-138.731368h314.81349a36.380604 36.380604 0 0 0 0-72.761207zM697.056004 523.9476930000001H239.145473a36.380604 36.380604 0 0 0 0 72.761208h457.910531a36.380604 36.380604 0 0 0 0-72.761208zM468.100738 353.20139400000005H239.145473a36.380604 36.380604 0 0 0 0 72.761207h228.955265a36.380604 36.380604 0 0 0 0-72.761207zM775.638108-127.99272399999995a48.507472 48.507472 0 0 0-28.619408 8.731345c-42.686575 27.649259-145.522415 101.86569-160.559731 185.783616a145.522415 145.522415 0 0 0 72.276132 155.223909 110.597035 110.597035 0 0 0 116.903007-11.641793 109.626886 109.626886 0 0 0 116.903006 11.641793 145.522415 145.522415 0 0 0 71.791058-155.223909c-16.49254-83.917926-117.873156-158.134357-160.559731-185.783616a48.507472 48.507472 0 0 0-28.134333-8.731345z m8.24627 38.805977z m-76.641805 249.813479a38.805977 38.805977 0 0 1-16.007466-3.880598 72.276133 72.276133 0 0 1-33.470155-76.15673c8.731345-43.17165 66.455236-97.014943 117.873156-131.455248 51.41792 35.410454 109.141811 88.283598 117.388081 131.455248a72.761207 72.761207 0 0 1-32.985081 76.15673c-18.432839 9.21642-37.835828 2.425374-57.238816-19.888063a36.380604 36.380604 0 0 0-27.164184-12.126868 35.410454 35.410454 0 0 0-27.164184 12.126868 57.238816 57.238816 0 0 1-41.231351 23.768661z"  horiz-adv-x="1024" />

    
    <glyph glyph-name="ziyuan42" unicode="&#59331;" d="M909.99218655-66H222.47110706A139.12310302 139.12310302 0 0 0 83.34800491 75.14671171999998V554.2360880900001a139.12310302 139.12310302 0 0 0 139.12310215 139.12310214h687.52107949a139.12310302 139.12310302 0 0 0 139.12310303-139.12310214V75.14671171999998a139.12310302 139.12310302 0 0 0-139.12310303-141.14671172zM222.47110706 617.47386211A63.23777403 63.23777403 0 0 1 159.23333304 554.2360880900001V75.14671171999998a63.23777403 63.23777403 0 0 1 63.23777402-63.23777403h687.5210795A63.23777403 63.23777403 0 0 1 973.22996057 75.14671171999998V554.2360880900001a63.23777403 63.23777403 0 0 1-63.23777401 63.23777402zM1054.6802137 114.10118057a37.94266406 37.94266406 0 0 0 0 75.885329 59.19055664 59.19055664 0 0 1 59.19055664 59.19055576V698.92411435A59.19055664 59.19055664 0 0 1 1054.6802137 758.11467099H409.65491849a59.19055664 59.19055664 0 0 1-59.19055664-59.19055664 37.94266406 37.94266406 0 0 0-75.88532901 0A135.5817876 135.5817876 0 0 0 409.65491849 834H1054.6802137a135.5817876 135.5817876 0 0 0 135.07588565-135.07588565v-449.74704902a135.07588565 135.07588565 0 0 0-135.07588565-135.07588476z"  horiz-adv-x="1258" />

    
    <glyph glyph-name="ziyuan60" unicode="&#59332;" d="M142.98939326-37.39942081000004a47.55787811 47.55787811 0 0 0-39.94861845 18.07199368 50.88693 50.88693 0 0 0-9.98715399 50.88692918l67.53218692 175.48857147a37.09514493 37.09514493 0 0 0 8.08483969 12.36504831L715.110669 767.27987932A138.86900491 138.86900491 0 0 0 860.63777603 796.76576377a131.25974441 131.25974441 0 0 0 88.45765412-112.71217155 133.63763791 133.63763791 0 0 0-37.57072412-103.67617428L347.96384833 22.999083980000023a37.09514493 37.09514493 0 0 0-15.218521-8.56041806l-177.39088578-50.88692917z m81.79955034 213.05929395L173.90201361 44.87570791999997l130.30858686 37.57072412L861.11335523 630.7887687499999a61.82524155 61.82524155 0 0 1 16.64525692 47.5578781 59.92292642 59.92292642 0 0 1-41.37535354 51.36250836 66.58102936 66.58102936 0 0 1-70.38566044-12.84062668zM833.52978592 517.6010188299999a36.61956655 36.61956655 0 0 0-29.96146362 20.92546637 227.80223739 227.80223739 0 0 1-113.66332911 117.46795935 36.61956655 36.61956655 0 0 0-20.44988799 47.55787811 35.668409 35.668409 0 0 0 47.55787893 20.92546637A305.7971575 305.7971575 0 0 0 866.3447214 568.01236963 36.14398737 36.14398737 0 0 0 851.12620041 520.45449151a43.75324786 43.75324786 0 0 0-17.59641449-2.85347268zM880.13650647-37.875H447.83539236a35.668409 35.668409 0 0 0 0 71.33681717h432.30111411a35.668409 35.668409 0 0 0 0-71.33681717zM880.13650647 133.80894039999998h-226.37550064a35.668409 35.668409 0 0 0 0 71.336818h226.37550064a35.668409 35.668409 0 0 0 0-71.336818z"  horiz-adv-x="1043" />

    
    <glyph glyph-name="ziyuan45" unicode="&#59333;" d="M512.269227 113.53461000000004a255.308478 255.308478 0 0 0-254.816554 255.308478V633.498119a255.308478 255.308478 0 1 0 510.125032 0v-264.655031a255.800402 255.800402 0 0 0-255.308478-255.308478z m0 701.48341a181.519901 181.519901 0 0 1-181.027977-181.519901v-264.655031a181.519901 181.519901 0 1 1 362.547878 0V633.498119A181.519901 181.519901 0 0 1 512.269227 815.01802zM512.269227-6.986732999999958A340.903228 340.903228 0 0 0 193.994496 229.13671499999998a36.894289 36.894289 0 1 0 69.853187 24.104269 266.622727 266.622727 0 0 1 245.961925-186.439139 267.606574 267.606574 0 0 1 245.961925 186.439139 36.402365 36.402365 0 0 0 46.732766 22.628497 36.894289 36.894289 0 0 0 23.120421-46.732766 340.903228 340.903228 0 0 0-313.355493-236.123448zM512.269227-128a37.386213 37.386213 0 0 0-36.894289 36.894289v121.013267a36.894289 36.894289 0 0 0 73.788578 0v-121.013267a36.894289 36.894289 0 0 0-36.894289-36.894289z"  horiz-adv-x="1024" />

    
    <glyph glyph-name="ziyuan41" unicode="&#59334;" d="M614.34063787 644.2411174599999a35.64855697 35.64855697 0 0 0-30.42010191 16.63599298 34.69792841 34.69792841 0 0 0 0 34.6979284l29.46947415 60.36488911A95.0628175 95.0628175 0 0 0 696.09466115 805.84790689h142.59422626a92.21093261 92.21093261 0 0 0 86.03184979-53.71049157l24.71633212-57.98831892a35.64855697 35.64855697 0 0 0-32.32135739-47.53140875z m81.75402328 90.30967629a21.86444805 21.86444805 0 0 1-19.96319174-10.45690932l-4.27782651-8.55565384h190.12563501l-3.32719876 7.60502527a21.38913418 21.38913418 0 0 1-20.43850562 10.93222402zM974.62871614-37.834598049999954H254.05255959a139.26702749 139.26702749 0 0 0-142.59422626 136.41514261V579.1230871600001A139.26702749 139.26702749 0 0 0 254.05255959 715.53823059h720.57615655a139.74234138 139.74234138 0 0 0 142.59422625-136.41514343v-480.5425426a139.74234138 139.74234138 0 0 0-142.59422625-136.41514261zM254.05255959 644.2411174599999a68.44522824 68.44522824 0 0 1-71.29711313-65.1180303v-480.5425426A68.44522824 68.44522824 0 0 1 254.05255959 33.462515069999995h720.57615655a69.39585682 69.39585682 0 0 1 71.29711314 65.11802949V579.1230871600001a69.39585682 69.39585682 0 0 1-71.29711314 65.1180303zM614.34063787 137.08098559999996a204.3850578 204.3850578 0 1 0 204.38505779 204.38505779 204.86037168 204.86037168 0 0 0-204.38505779-204.38505779z m0 337.47300246a133.08794468 133.08794468 0 1 1 133.08794467-133.08794467A133.08794468 133.08794468 0 0 1 614.34063787 473.12804562z"  horiz-adv-x="1220" />

    
    <glyph glyph-name="ziyuan97" unicode="&#59335;" d="M512-128A512 512 0 1 0 1024 384 512.910222 512.910222 0 0 0 512-128z m0 955.733333A443.733333 443.733333 0 1 1 955.733333 384a444.188444 444.188444 0 0 1-443.733333 443.733333zM529.294222 216.97422200000005a66.446222 66.446222 0 0 0-35.498666 10.012445 67.811556 67.811556 0 0 0-28.672 33.223111l-63.715556-34.588445a69.176889 69.176889 0 0 0-102.855111 62.805334l5.006222 195.242666a67.356444 67.356444 0 0 0 35.953778 58.709334A69.176889 69.176889 0 0 0 409.6 541.013333l59.619556-36.408889a68.266667 68.266667 0 0 0 31.402666 38.229334 69.632 69.632 0 0 0 69.176889 0L736.824889 440.888889a69.176889 69.176889 0 0 0 33.678222-61.44 67.811556 67.811556 0 0 0-36.408889-58.709333l-171.576889-93.297778a66.901333 66.901333 0 0 0-33.223111-10.467556zM494.705778 349.866667a32.768 32.768 0 0 0 18.204444-5.461334 34.133333 34.133333 0 0 0 15.928889-30.037333v-27.761778l173.397333 91.022222-167.480888 105.130667-2.730667-36.864a33.223111 33.223111 0 0 0-17.749333-29.127111 34.133333 34.133333 0 0 0-34.133334 0L373.646222 482.759111l-6.826666-196.152889 111.502222 58.709334a36.408889 36.408889 0 0 0 16.384 4.551111z"  horiz-adv-x="1024" />

    
    <glyph glyph-name="ziyuan87" unicode="&#59336;" d="M287.624633 216.97452399999997a34.133318 34.133318 0 0 0-34.133318 34.133318V516.892613a34.133318 34.133318 0 0 0 68.266636 0v-265.784771a34.133318 34.133318 0 0 0-34.133318-34.133318zM512.449422-127.99954500000001a511.544662 511.544662 0 1 0 424.618478 227.555455 34.133318 34.133318 0 0 0-45.511091-9.102219 33.678207 33.678207 0 0 0-9.102218 45.511091 443.733136 443.733136 0 1 1-370.005169-195.697691 437.361583 437.361583 0 0 1 182.044364 39.59465 34.133318 34.133318 0 0 0 28.216876-62.350195 511.089551 511.089551 0 0 0-210.26124-45.511091zM580.260948 216.97452399999997a69.176858 69.176858 0 0 0-33.678208 10.01244 70.08708 70.08708 0 0 0-28.671987 33.223096l-63.260416-34.588429a69.176858 69.176858 0 0 0-102.855066 62.805306l5.00622 195.24258a67.811525 67.811525 0 0 0 35.498651 58.709307 70.08708 70.08708 0 0 0 70.08708 0l59.164418-36.408873a70.997302 70.997302 0 0 0 32.767986 38.229316 69.631969 69.631969 0 0 0 69.176858 0L787.791522 440.889091a70.08708 70.08708 0 0 0 31.857764-63.260416 68.266636 68.266636 0 0 0-36.863984-58.709307l-171.121702-93.297737a66.901304 66.901304 0 0 0-31.402652-8.647107zM546.58274 349.86690899999996a31.402653 31.402653 0 0 0 17.749326-5.461331 33.678207 33.678207 0 0 0 16.383993-30.037319v-27.761766l173.397256 91.022182-168.391036 105.13062-2.730666-36.863984a35.04354 35.04354 0 0 0-17.749325-29.127098 34.133318 34.133318 0 0 0-34.133319 0L424.613017 482.759295l-6.826664-196.152802 111.502173 58.709307A35.04354 35.04354 0 0 0 546.58274 349.86690899999996z"  horiz-adv-x="1024" />

    
    <glyph glyph-name="ziyuan89" unicode="&#59337;" d="M678.089742 218.180139a67.236823 67.236823 0 0 0-33.618412 8.631754l-63.602399 33.164109a69.508337 69.508337 0 0 0-97.675114-34.527017l-170.817874 94.494994a67.691126 67.691126 0 0 0-36.344229 58.605068A69.054034 69.054034 0 0 0 309.650126 441.697144l166.274845 99.946628a69.054034 69.054034 0 0 0 101.309537-36.344228l59.059371 36.344228a70.416943 70.416943 0 0 0 69.508337 0 68.145428 68.145428 0 0 0 35.889926-59.059371l4.997331-194.441622a67.236823 67.236823 0 0 0-33.164108-60.876583 64.511006 64.511006 0 0 0-35.435623-9.086057zM513.177805 482.584401l-168.092057-100.855234 171.272177-93.586388v28.62108a33.164108 33.164108 0 0 0 15.9006 29.983988 34.527017 34.527017 0 0 0 34.527017 0l109.486988-59.513674-2.271514 195.350228-108.12408-64.056703a34.072714 34.072714 0 0 0-34.072714 0 33.164108 33.164108 0 0 0-17.717811 29.075383zM511.360594-126.181426a510.182107 510.182107 0 0 0-211.250828 45.430286 34.072714 34.072714 0 0 0 28.166777 62.239491 436.585044 436.585044 0 0 1 181.721142-39.524348 443.399587 443.399587 0 1 1-367.076707 195.350228 34.072714 34.072714 0 0 0-56.787857-38.16144 511.090713 511.090713 0 1 0 423.864564-227.151428z"  horiz-adv-x="1024" />

    
    <glyph glyph-name="ziyuan79" unicode="&#59338;" d="M512.254209 270.860642a136.115344 136.115344 0 0 0-136.115344 136.115343v47.42695a136.115344 136.115344 0 1 0 272.230688 0v-47.42695a136.589613 136.589613 0 0 0-136.115344-136.115343z m0 248.991482A64.97492 64.97492 0 0 1 447.279289 454.877204v-47.426949a64.97492 64.97492 0 1 1 129.949841 0v47.426949a65.44919 65.44919 0 0 1-64.974921 64.97492zM512.254209-128h-4.268425A60.232225 60.232225 0 0 0 473.838381-109.50349000000006l-69.717616 66.397729-142.280847 142.280847a658.286053 658.286053 0 0 0-147.972081 241.403171 455.772981 455.772981 0 0 0 22.764936 323.451792A406.923223 406.923223 0 0 0 505.140167 895.94783a35.570212 35.570212 0 1 0 2.845617-71.140423 337.679877 337.679877 0 0 1-306.852361-189.707797 386.529635 386.529635 0 0 1-18.970779-271.756418 588.568438 588.568438 0 0 1 133.269727-213.89554c43.632793-47.426949 91.534012-94.853898 138.012421-142.280847l58.809417-56.912339c38.890098 36.99302 75.408849 73.037502 110.504792 108.607713a35.570212 35.570212 0 1 0 50.746835-47.426949c-38.890098-40.312907-79.677274-80.151544-120.93872-119.041642a59.283686 59.283686 0 0 0-40.312907-20.393588zM758.400075 120.04294400000003a35.570212 35.570212 0 0 0-27.033361 58.809416 536.398794 536.398794 0 0 1 101.493671 159.354549 383.684018 383.684018 0 0 1-21.816397 315.389212A341.948303 341.948303 0 0 1 515.574096 824.807407a35.570212 35.570212 0 0 0-34.147404 36.99302 35.095942 35.095942 0 0 0 36.993021 34.147403 412.614457 412.614457 0 0 0 357.124926-207.730037A459.567136 459.567136 0 0 0 900.680922 312.596357a611.807643 611.807643 0 0 0-113.824678-180.222407 36.044481 36.044481 0 0 0-28.456169-12.331006z"  horiz-adv-x="1024" />

    
    <glyph glyph-name="ziyuan106" unicode="&#59339;" d="M511.360594-126.18142599999999a510.182107 510.182107 0 0 0-211.250828 45.430286 34.072714 34.072714 0 0 0 28.166777 62.239491 436.585044 436.585044 0 0 1 181.721142-39.524348 443.399587 443.399587 0 1 1-367.076707 195.350228 34.072714 34.072714 0 0 0-56.787857-38.16144 511.090713 511.090713 0 1 0 423.864564-227.151428zM400.510697 282.236842a33.618411 33.618411 0 0 0-23.623749 9.994663l-139.016674 136.290856a34.072714 34.072714 0 0 0 0 48.156103 34.072714 34.072714 0 0 0 48.156103 0l139.016674-136.290857a34.072714 34.072714 0 0 0 0-48.156102 34.527017 34.527017 0 0 0-24.532354-9.994663zM262.856932 281.32823599999995a33.618411 33.618411 0 0 0-24.078052 9.994663 34.072714 34.072714 0 0 0 0 48.156103l136.290857 139.016673a34.072714 34.072714 0 0 0 48.610406-48.156102l-136.290857-139.016674a36.798531 36.798531 0 0 0-24.532354-9.994663zM666.277868 135.49701900000002A155.82588 155.82588 0 0 0 500.003022 277.23951a34.072714 34.072714 0 1 0 68.145429 0c0-40.432954 45.430286-73.597063 98.129417-73.597062s97.675114 33.164108 97.675114 73.597062S720.339907 350.83657300000004 666.277868 350.83657300000004a34.072714 34.072714 0 0 0 0 68.145428c54.06204 0 97.675114 33.164108 97.675114 73.597063s-45.430286 73.597063-97.675114 73.597063S568.148451 532.5577149999999 568.148451 492.579064a34.072714 34.072714 0 1 0-68.145429 0 155.82588 155.82588 0 0 0 166.274846 141.742491 155.371577 155.371577 0 0 0 165.820542-141.742491A133.110737 133.110737 0 0 0 772.584736 384.909287a133.110737 133.110737 0 0 0 58.150765-107.669777 155.371577 155.371577 0 0 0-164.457633-141.742491z"  horiz-adv-x="1024" />

    
    <glyph glyph-name="ziyuan95" unicode="&#59340;" d="M511.98976-127.998635a511.079556 511.079556 0 0 0-211.622434 45.510201 34.132651 34.132651 0 0 0 28.216325 62.348975 438.718337 438.718337 0 0 1 182.040803-39.593874 443.269357 443.269357 0 1 1-368.177525 195.693864 33.677549 33.677549 0 0 0-9.10204-45.510201 34.132651 34.132651 0 0 0-45.510201 9.10204 511.98976 511.98976 0 1 0 424.610174-227.551005zM529.283637 216.968688a66.444893 66.444893 0 0 0-35.497957 10.012244 68.720403 68.720403 0 0 0-29.126529 33.222447l-63.259179-34.587753a69.175505 69.175505 0 0 0-102.853054 62.804078l5.006122 195.238761a67.810199 67.810199 0 0 0 35.497957 58.70816A70.085709 70.085709 0 0 0 409.591808 541.001319l59.163261-36.408161a70.995913 70.995913 0 0 0 31.857141 38.228569 69.630607 69.630607 0 0 0 69.175505 0L736.810153 440.878877a70.085709 70.085709 0 0 0 33.677548-61.438772 68.265301 68.265301 0 0 0-36.863262-58.708159l-171.118356-93.295912a66.899995 66.899995 0 0 0-33.222446-10.467346zM494.695884 349.858475a31.402039 31.402039 0 0 0 17.748978-5.461224 33.677549 33.677549 0 0 0 16.383673-30.036733v-27.761222l173.393865 91.020401-167.477539 105.128564-2.730612-36.863262a35.042855 35.042855 0 0 0-17.748979-29.126529 34.132651 34.132651 0 0 0-34.13265 0L373.638749 482.748261l-6.82653-196.148965 111.499993 58.708159a35.042855 35.042855 0 0 0 16.383672 4.55102z"  horiz-adv-x="1025" />

    
    <glyph glyph-name="ziyuan96" unicode="&#59341;" d="M512.449422-127.99954500000001a511.544662 511.544662 0 1 0 424.618478 227.555455 34.133318 34.133318 0 0 0-45.511091-9.102219 33.678207 33.678207 0 0 0-9.102218 45.511091 443.733136 443.733136 0 1 1-370.005169-195.697691 437.361583 437.361583 0 0 1 182.044364 39.59465 34.133318 34.133318 0 0 0 28.216876-62.350195 511.089551 511.089551 0 0 0-210.26124-45.511091zM529.743637 216.97452399999997a69.176858 69.176858 0 0 0-35.953762 10.01244 70.08708 70.08708 0 0 0-28.671987 33.223096l-63.260417-34.588429a69.176858 69.176858 0 0 0-70.08708 0 67.811525 67.811525 0 0 0-32.767985 60.984862l5.00622 195.24258a67.811525 67.811525 0 0 0 35.498651 58.709307A70.08708 70.08708 0 0 0 410.049468 541.0134909999999l59.164418-36.408873a70.997302 70.997302 0 0 0 31.857764 38.229317 69.631969 69.631969 0 0 0 69.176858 0L737.274211 440.889091a70.08708 70.08708 0 0 0 33.678207-61.439973 68.266636 68.266636 0 0 0-36.863983-58.709307l-171.121702-93.297736a66.901304 66.901304 0 0 0-33.223096-10.467551zM495.155208 349.86690899999996a31.402653 31.402653 0 0 0 17.749325-5.461331 33.678207 33.678207 0 0 0 16.383993-30.037319v-27.761766l173.397256 91.022182-167.480814 105.13062-2.730666-36.863984a35.04354 35.04354 0 0 0-17.749325-29.127098 34.133318 34.133318 0 0 0-34.133318 0L374.095706 482.759295l-6.826664-196.152802 111.502173 58.709307a35.04354 35.04354 0 0 0 16.383993 4.551109z"  horiz-adv-x="1024" />

    
    <glyph glyph-name="ziyuan83" unicode="&#59342;" d="M515.833776-127.13816899999995a226.296026 226.296026 0 0 0-127.6786 54.311046l-39.06584 27.631936C240.467243 31.030843000000004 105.16604 126.31338000000005 105.16604 276.383376V670.853081a187.706599 187.706599 0 0 0 62.886475 142.923806A264.885454 264.885454 0 0 0 248.089846 861.894569 882.792709 882.792709 0 0 0 512.022475 895.719869a880.410645 880.410645 0 0 0 264.885454-33.8253 264.885454 264.885454 0 0 0 78.13168-47.641269 187.706599 187.706599 0 0 0 62.886475-142.923806V276.383376c0-155.786949-140.06533-252.498724-252.498724-330.153992-17.150857-11.910317-33.825301-23.344222-47.641269-34.778126l-15.245206-10.957492a168.173678 168.173678 0 0 0-62.410062-28.108348 123.390886 123.390886 0 0 0-24.297047 0.476413zM500.58857 824.257966a757.019759 757.019759 0 0 1-227.248851-28.584761 202.951805 202.951805 0 0 1-58.122348-36.683777 118.626759 118.626759 0 0 1-38.589428-88.136347V276.383376c0-115.29187 113.386219-195.329202 213.909297-265.361866l39.542253-28.584761a142.923806 142.923806 0 0 1 95.282537-39.542253 99.570252 99.570252 0 0 1 35.254539 16.674444l13.815968 9.528253c15.721619 11.910317 32.872475 23.344222 50.499744 35.730952 103.857966 71.938316 221.531899 153.404885 221.5319 271.555231V670.853081a118.626759 118.626759 0 0 1-38.589428 88.136347 202.951805 202.951805 0 0 1-58.122348 36.683777 778.45833 778.45833 0 0 1-238.206343 28.584761zM465.810444 228.74210800000003a35.730952 35.730952 0 0 0-27.155523 10.957491L309.547083 371.66591400000004a35.730952 35.730952 0 0 0 0 50.499745 35.254539 35.254539 0 0 0 50.499745 0l105.287203-105.287204 248.687423 254.880787a35.730952 35.730952 0 1 0 51.45257-47.641268l-273.937295-283.941962a38.113015 38.113015 0 0 0-25.249872-10.957492z"  horiz-adv-x="1024" />

    
    <glyph glyph-name="ziyuan91" unicode="&#59343;" d="M512-128A512 512 0 1 0 1024 384 512.910222 512.910222 0 0 0 512-128z m0 955.733333A443.733333 443.733333 0 1 1 955.733333 384a444.188444 444.188444 0 0 1-443.733333 443.733333zM678.570667 216.97422200000005a70.087111 70.087111 0 0 0-33.678223 8.647111L581.632 258.84444399999995a69.632 69.632 0 0 0-97.848889-34.588444l-171.121778 94.663111A69.176889 69.176889 0 0 0 309.930667 440.888889l166.115555 100.124444a69.632 69.632 0 0 0 101.944889-36.408889l59.164445 36.408889a71.452444 71.452444 0 0 0 70.087111 0 68.266667 68.266667 0 0 0 35.498666-59.164444l5.006223-194.787556a67.356444 67.356444 0 0 0-32.768-60.984889 66.446222 66.446222 0 0 0-36.408889-9.102222zM513.365333 481.848889l-167.936-101.034667 171.576889-93.297778v28.672a33.223111 33.223111 0 0 0 15.928889 30.037334 34.133333 34.133333 0 0 0 34.133333 0l109.681778-60.074667-2.275555 195.697778-107.861334-64.170667a34.133333 34.133333 0 0 0-34.133333 0 34.588444 34.588444 0 0 0-18.204444 29.127111z"  horiz-adv-x="1024" />

    
    <glyph glyph-name="ziyuan104" unicode="&#59344;" d="M512-128A512 512 0 1 0 1024 384 512.910222 512.910222 0 0 0 512-128z m0 955.733333A443.733333 443.733333 0 1 1 955.733333 384a444.188444 444.188444 0 0 1-443.733333 443.733333zM401.408 281.144889a35.953778 35.953778 0 0 0-24.120889 10.012444l-139.264 136.533334a34.133333 34.133333 0 1 0 48.241778 49.152l138.808889-136.533334a34.133333 34.133333 0 0 0 0-48.241777 33.678222 33.678222 0 0 0-23.665778-10.922667zM263.054222 280.234667a31.857778 31.857778 0 0 0-23.665778 10.012444 34.133333 34.133333 0 0 0 0 48.241778l136.533334 139.264a34.133333 34.133333 0 0 0 48.696889-48.241778l-136.533334-139.264a35.953778 35.953778 0 0 0-25.031111-10.012444zM667.192889 134.144A156.103111 156.103111 0 0 0 500.622222 276.138667a34.133333 34.133333 0 1 0 68.266667 0c0-40.504889 45.511111-73.728 98.304-73.728s98.304 33.223111 98.304 73.728S721.351111 349.866667 667.192889 349.866667a34.133333 34.133333 0 0 0 0 68.266666c54.158222 0 98.304 33.223111 98.304 73.728s-45.511111 73.728-98.304 73.728S568.888889 531.911111 568.888889 491.861333a34.133333 34.133333 0 1 0-68.266667 0 156.103111 156.103111 0 0 0 166.570667 141.994667 156.103111 156.103111 0 0 0 166.570667-141.994667A136.533333 136.533333 0 0 0 773.688889 384a136.533333 136.533333 0 0 0 58.254222-107.861333 156.103111 156.103111 0 0 0-164.750222-141.994667z"  horiz-adv-x="1024" />

    
    <glyph glyph-name="ziyuan100" unicode="&#59345;" d="M512-128A512 512 0 1 0 1024 384 512.910222 512.910222 0 0 0 512-128z m0 955.733333A443.733333 443.733333 0 1 1 955.733333 384a444.188444 444.188444 0 0 1-443.733333 443.733333zM420.977778 216.97422200000005a34.133333 34.133333 0 0 0-34.133334 34.133334V516.8924440000001a34.133333 34.133333 0 1 0 68.266667 0v-265.784888a34.133333 34.133333 0 0 0-34.133333-34.133334zM603.022222 216.97422200000005a34.133333 34.133333 0 0 0-34.133333 34.133334V516.8924440000001a34.133333 34.133333 0 1 0 68.266667 0v-265.784888a34.133333 34.133333 0 0 0-34.133334-34.133334z"  horiz-adv-x="1024" />

    
    <glyph glyph-name="ziyuan86" unicode="&#59346;" d="M287.624633 216.97452399999997a34.133318 34.133318 0 0 0-34.133318 34.133318V516.892613a34.133318 34.133318 0 0 0 68.266636 0v-265.784771a34.133318 34.133318 0 0 0-34.133318-34.133318zM580.260948 216.97452399999997a66.446193 66.446193 0 0 0-33.678208 10.01244 68.721747 68.721747 0 0 0-29.127098 33.223096l-63.260416-34.588429a69.176858 69.176858 0 0 0-102.855066 62.805306l5.00622 195.24258a67.811525 67.811525 0 0 0 35.498651 58.709307 70.08708 70.08708 0 0 0 70.08708 0l59.164418-36.408873a72.817745 72.817745 0 0 0 32.767986 38.229316 69.631969 69.631969 0 0 0 69.176858 0L787.791522 440.889091a70.08708 70.08708 0 0 0 31.857764-63.260416 68.266636 68.266636 0 0 0-36.863984-58.709307l-171.121702-93.297737a66.901304 66.901304 0 0 0-31.402652-8.647107zM546.58274 349.86690899999996a31.402653 31.402653 0 0 0 17.749326-5.461331 33.678207 33.678207 0 0 0 16.383993-30.037319v-27.761766l173.397256 91.022182-168.391036 105.13062-2.730666-36.863984a35.04354 35.04354 0 0 0-17.749325-29.127098 34.133318 34.133318 0 0 0-34.133319 0L424.613017 482.759295l-6.826664-196.152802 111.502173 58.709307A35.04354 35.04354 0 0 0 546.58274 349.86690899999996zM512.449422-127.99954500000001a511.544662 511.544662 0 1 0 424.618478 227.555455 34.133318 34.133318 0 0 0-45.511091-9.102219 33.678207 33.678207 0 0 0-9.102218 45.511091 443.733136 443.733136 0 1 1-370.005169-195.697691 437.361583 437.361583 0 0 1 182.044364 39.59465 34.133318 34.133318 0 0 0 28.216876-62.350195 511.089551 511.089551 0 0 0-210.26124-45.511091z"  horiz-adv-x="1024" />

    
    <glyph glyph-name="ziyuan88" unicode="&#59347;" d="M287.175111 216.97422200000005a34.133333 34.133333 0 0 0-34.133333 34.133334V516.8924440000001a34.133333 34.133333 0 0 0 68.266666 0v-265.784888a33.678222 33.678222 0 0 0-34.133333-34.133334zM512-128A512 512 0 1 0 1024 384 512.910222 512.910222 0 0 0 512-128z m0 955.733333A443.733333 443.733333 0 1 1 955.733333 384a444.188444 444.188444 0 0 1-443.733333 443.733333zM579.811556 216.97422200000005a66.446222 66.446222 0 0 0-33.678223 10.012445 67.811556 67.811556 0 0 0-28.672 33.223111l-63.715555-34.588445a69.176889 69.176889 0 0 0-102.855111 62.805334l5.006222 195.242666a68.266667 68.266667 0 0 0 35.498667 58.709334 70.087111 70.087111 0 0 0 70.087111 0l59.619555-36.408889a68.266667 68.266667 0 0 0 32.312889 38.229333 69.632 69.632 0 0 0 69.176889 0L787.342222 440.888889a69.176889 69.176889 0 0 0 31.857778-63.260445 67.811556 67.811556 0 0 0-36.408889-58.709333l-171.576889-93.297778a66.901333 66.901333 0 0 0-31.402666-8.647111zM546.133333 349.866667a31.402667 31.402667 0 0 0 17.749334-5.461334 33.678222 33.678222 0 0 0 16.384-30.037333v-27.761778l173.397333 91.022222-168.391111 105.130667-2.730667-36.864a34.133333 34.133333 0 0 0-51.882666-28.216889L424.163556 482.759111l-6.826667-196.152889 111.502222 58.709334A35.043556 35.043556 0 0 0 546.133333 349.866667z"  horiz-adv-x="1024" />

    
    <glyph glyph-name="ziyuan99" unicode="&#59348;" d="M512.449422-127.99954500000001a511.544662 511.544662 0 1 0 424.618478 227.555455 34.133318 34.133318 0 0 0-45.511091-9.102219 33.678207 33.678207 0 0 0-9.102218 45.511091 443.733136 443.733136 0 1 1-370.005169-195.697691 437.361583 437.361583 0 0 1 182.044364 39.59465 34.133318 34.133318 0 0 0 28.216876-62.350195 511.089551 511.089551 0 0 0-210.26124-45.511091zM421.42724 216.97452399999997a34.133318 34.133318 0 0 0-34.133318 34.133318V516.892613a34.133318 34.133318 0 1 0 68.266637 0v-265.784771a34.133318 34.133318 0 0 0-34.133319-34.133318zM603.471604 216.97452399999997a34.133318 34.133318 0 0 0-34.133318 34.133318V516.892613a34.133318 34.133318 0 1 0 68.266636 0v-265.784771a34.133318 34.133318 0 0 0-34.133318-34.133318z"  horiz-adv-x="1024" />

    
    <glyph glyph-name="ziyuan105" unicode="&#59349;" d="M512.449422-127.99954500000001a511.544662 511.544662 0 1 0 424.618478 227.555455 34.133318 34.133318 0 0 0-45.511091-9.102219 33.678207 33.678207 0 0 0-9.102218 45.511091 443.733136 443.733136 0 1 1-370.005169-195.697691 437.361583 437.361583 0 0 1 182.044364 39.59465 34.133318 34.133318 0 0 0 28.216876-62.350195 511.089551 511.089551 0 0 0-210.26124-45.511091zM401.40236 281.600273a33.223096 33.223096 0 0 0-23.665767 9.557329l-139.263938 136.533273a34.133318 34.133318 0 0 0 0 48.241756 34.133318 34.133318 0 0 0 48.241756 0l139.263939-136.533273a34.133318 34.133318 0 0 0-24.120879-58.254196zM263.503755 280.23494000000005a33.678207 33.678207 0 0 0-24.120878 10.01244 34.133318 34.133318 0 0 0 0 48.241757l136.533273 139.263938a34.133318 34.133318 0 0 0 48.696867-48.241757l-136.533273-139.263938a36.863984 36.863984 0 0 0-24.575989-10.01244zM667.642242 134.14433899999995A156.103042 156.103042 0 0 0 501.07165 276.13894200000004a34.133318 34.133318 0 1 0 68.266636 0c0-40.504871 45.511091-73.727967 98.303956-73.727967s97.848845 33.223096 97.848846 73.727967S721.80044 349.86690899999996 667.642242 349.86690899999996a34.133318 34.133318 0 0 0 0 68.266637c54.158198 0 97.848845 33.223096 97.848846 73.727967s-45.511091 73.727967-97.848846 73.727967S569.338286 531.9112729999999 569.338286 491.861513a34.133318 34.133318 0 1 0-68.266636 0 156.103042 156.103042 0 0 0 166.570592 141.994604 155.647931 155.647931 0 0 0 166.115482-141.994604A133.347496 133.347496 0 0 0 774.138195 384.000228a133.347496 133.347496 0 0 0 58.254196-107.861286 155.647931 155.647931 0 0 0-164.750149-141.994603z"  horiz-adv-x="1024" />

    
    <glyph glyph-name="ziyuan101" unicode="&#59350;" d="M512-128A512 512 0 1 0 1024 384 512.910222 512.910222 0 0 0 512-128z m0 955.733333A443.733333 443.733333 0 1 1 955.733333 384a444.188444 444.188444 0 0 1-443.733333 443.733333zM401.408 281.14488900000003a35.953778 35.953778 0 0 0-24.120889 10.012444l-139.264 136.533334a34.133333 34.133333 0 0 0 48.241778 49.152l138.808889-136.533334a34.133333 34.133333 0 0 0 0-48.241777 33.678222 33.678222 0 0 0-23.665778-10.922667zM263.054222 280.23466699999994a31.857778 31.857778 0 0 0-23.665778 10.012444 34.133333 34.133333 0 0 0 0 48.241778l136.533334 139.264a34.133333 34.133333 0 0 0 48.241778 0 34.133333 34.133333 0 0 0 0-48.241778l-136.533334-139.264a35.953778 35.953778 0 0 0-24.576-10.012444zM630.328889 147.342222a33.678222 33.678222 0 0 0-34.133333 34.133334v364.088888a65.080889 65.080889 0 0 1-24.120889-18.204444l-37.319111-45.511111-53.703112 42.325333 40.049778 50.062222a126.976 126.976 0 0 0 116.053334 45.511112 34.588444 34.588444 0 0 0 27.306666-33.223112v-405.048888a34.133333 34.133333 0 0 0-34.133333-34.133334z"  horiz-adv-x="1024" />

    
    <glyph glyph-name="ziyuan92" unicode="&#59351;" d="M512-128A512 512 0 1 0 1024 384 512.910222 512.910222 0 0 0 512-128z m0 955.733333A443.733333 443.733333 0 1 1 955.733333 384a444.188444 444.188444 0 0 1-443.733333 443.733333zM761.856 216.97422200000005a33.678222 33.678222 0 0 0-34.133333 34.133334V516.8924440000001a34.133333 34.133333 0 1 0 68.266666 0v-265.784888a34.133333 34.133333 0 0 0-34.133333-34.133334zM630.784 216.97422200000005a68.721778 68.721778 0 0 0-33.678222 8.647111l-63.715556 33.223111a69.632 69.632 0 0 0-97.848889-34.588444l-171.121777 94.663111A67.811556 67.811556 0 0 0 227.555556 377.62844399999994 69.632 69.632 0 0 0 262.144 440.888889l166.115556 100.124444a69.632 69.632 0 0 0 69.176888 0 72.817778 72.817778 0 0 0 32.768-38.229333L591.644444 541.013333a71.452444 71.452444 0 0 0 70.087112 0 68.266667 68.266667 0 0 0 35.498666-59.164444l5.006222-194.787556a67.811556 67.811556 0 0 0-32.768-60.984889 67.356444 67.356444 0 0 0-38.684444-9.102222zM465.578667 481.848889l-168.391111-101.034667 171.576888-93.297778v28.672a34.588444 34.588444 0 0 0 50.517334 31.402667l109.681778-60.074667-2.275556 194.332445-108.316444-64.170667a34.133333 34.133333 0 0 0-34.133334 0 35.043556 35.043556 0 0 0-17.749333 29.127111z"  horiz-adv-x="1024" />

    
    <glyph glyph-name="ziyuan77" unicode="&#59352;" d="M988.0672017 13.211425780000013H368.67693836A180.95497093 180.95497093 0 0 0 188.14475911 194.16639670999996v36.78290298a32.13219097 32.13219097 0 0 0 31.70939927 31.70939926 121.76409271 121.76409271 0 0 1 0 243.10539376 32.13219097 32.13219097 0 0 0-31.70939927 31.70939928v36.3601113A180.95497093 180.95497093 0 0 0 368.67693836 754.78857422h619.39026334a180.95497093 180.95497093 0 0 0 180.95497166-180.95497093v-36.3601113a32.13219097 32.13219097 0 0 0-31.70939929-31.70939928 121.76409271 121.76409271 0 1 1 0-243.10539376 32.13219097 32.13219097 0 0 0 31.70939929-31.70939926v-36.78290298a180.95497093 180.95497093 0 0 0-180.95497166-180.95497093zM251.56355767 201.77665259000003v-7.61025588A117.5361731 117.5361731 0 0 1 368.67693836 78.32139174999998h619.39026334a117.95896477 117.95896477 0 0 1 117.5361731 117.53617311v7.61025589a185.18289127 185.18289127 0 0 0 0 364.86948646v5.49629608a117.95896477 117.95896477 0 0 1-117.5361731 117.53617237H368.67693836A117.5361731 117.5361731 0 0 1 251.56355767 573.8336032899999v-7.18746421a185.18289127 185.18289127 0 0 0 1e-8-364.86948649zM838.82163004 449.10996597H518.34530242a31.70939927 31.70939927 0 1 0 0 63.41879856h320.47632762a31.70939927 31.70939927 0 0 0 0-63.41879856zM838.82163004 255.47123547H518.34530242a31.70939927 31.70939927 0 0 0 0 63.41879856h320.47632762a31.70939927 31.70939927 0 0 0 0-63.41879856z"  horiz-adv-x="1354" />

    
    <glyph glyph-name="ziyuan90" unicode="&#59353;" d="M512.449422-127.99954500000001a511.544662 511.544662 0 1 0 424.618478 227.555455 34.133318 34.133318 0 0 0-45.511091-9.102219 33.678207 33.678207 0 0 0-9.102218 45.511091 443.733136 443.733136 0 1 1-370.005169-195.697691 437.361583 437.361583 0 0 1 182.044364 39.59465 34.133318 34.133318 0 0 0 28.216876-62.350195 511.089551 511.089551 0 0 0-210.26124-45.511091zM679.020015 216.97452399999997a70.08708 70.08708 0 0 0-33.678207 8.647107L582.081391 258.84472800000003a69.631969 69.631969 0 0 0-97.848845-34.588429l-171.121702 94.663069a67.811525 67.811525 0 0 0-36.408873 58.709307A69.176858 69.176858 0 0 0 310.380179 440.889091l166.115481 100.1244a69.631969 69.631969 0 0 0 101.944844-36.408873l59.164418 36.408873a70.08708 70.08708 0 0 0 70.08708 0 67.811525 67.811525 0 0 0 35.498651-59.164418l5.00622-194.787469a67.811525 67.811525 0 0 0-32.767985-60.984862 66.446193 66.446193 0 0 0-36.408873-9.102218zM513.814755 481.849073l-167.935925-101.034622 171.576812-93.752847v28.671987a33.223096 33.223096 0 0 0 15.928882 30.03732 34.133318 34.133318 0 0 0 34.133318 0l109.681729-60.07464-2.275554 196.152802-107.861286-64.170638a34.133318 34.133318 0 0 0-34.133318 0 34.588429 34.588429 0 0 0-18.204436 29.127098z"  horiz-adv-x="1024" />

    
    <glyph glyph-name="ziyuan84" unicode="&#59354;" d="M777.650067-128A778.650903 778.650903 0 0 0 0 649.650067a246.205813 246.205813 0 1 0 340.784875-227.189917A711.594849 711.594849 0 0 1 550.46015 206.779855a245.705394 245.705394 0 0 0 475.397403-88.574042 257.215016 257.215016 0 0 0-4.003347-44.036812 37.531374 37.531374 0 0 0-74.061911 13.511294 154.128842 154.128842 0 0 1 3.00251 30.525518 171.143065 171.143065 0 0 1-340.284457 25.020916 36.030119 36.030119 0 0 0-20.517151-28.523845 37.531374 37.531374 0 0 0-35.029282 0A778.650903 778.650903 0 0 0 250.209159 427.464333a38.532211 38.532211 0 0 0 0 34.028446 38.031792 38.031792 0 0 0 27.022589 20.517151 170.642647 170.642647 0 0 1 140.11713 167.640137 172.64432 172.64432 0 0 1-207.673603 167.640137A172.143902 172.143902 0 0 1 75.062748 649.650067a703.588156 703.588156 0 0 1 700.585646-700.585646 167.139718 167.139718 0 0 1 86.07195 23.519661 38.031792 38.031792 0 0 0 50.041832-14.011713 37.531374 37.531374 0 0 0-13.511294-50.041832 245.705394 245.705394 0 0 0-120.600815-36.530537z"  horiz-adv-x="1026" />

    
    <glyph glyph-name="ziyuan103" unicode="&#59355;" d="M511.360594-126.18142599999999a510.182107 510.182107 0 0 0-211.250828 45.430286 34.072714 34.072714 0 0 0 28.166777 62.239491 436.585044 436.585044 0 0 1 181.721142-39.524348 443.399587 443.399587 0 1 1-367.076707 195.350228 34.072714 34.072714 0 0 0-56.787857-38.16144 511.090713 511.090713 0 1 0 423.864564-227.151428zM400.510697 282.236842a35.435623 35.435623 0 0 0-23.623749 9.994663l-139.016674 136.290856a34.072714 34.072714 0 0 0 0 48.156103 34.072714 34.072714 0 0 0 48.156103 0l139.016674-136.290857a34.072714 34.072714 0 0 0 0-48.156102 34.527017 34.527017 0 0 0-24.532354-9.994663zM262.856932 281.32823599999995a33.618411 33.618411 0 0 0-24.078052 9.994663 34.072714 34.072714 0 0 0 0 48.156103l136.290857 139.016673a34.072714 34.072714 0 0 0 48.610406-48.156102l-136.290857-139.016674a36.798531 36.798531 0 0 0-24.532354-9.994663zM629.025033 148.67180199999996a34.072714 34.072714 0 0 0-34.072714 34.072714v363.442285a73.14276 73.14276 0 0 1-24.078051-18.172114l-37.252834-45.430286a34.072714 34.072714 0 0 0-47.7018-5.451634 33.618411 33.618411 0 0 0-5.451634 47.7018l37.252834 45.430285A127.659102 127.659102 0 0 0 636.293879 619.329561a34.072714 34.072714 0 0 0 27.258171-33.164109v-403.420936a33.618411 33.618411 0 0 0-34.527017-34.072714z"  horiz-adv-x="1024" />

    
    <glyph glyph-name="ziyuan102" unicode="&#59356;" d="M512.449422-127.99954500000001a511.544662 511.544662 0 1 0 424.618478 227.555455 34.133318 34.133318 0 0 0-45.511091-9.102219 33.678207 33.678207 0 0 0-9.102218 45.511091 443.733136 443.733136 0 1 1-370.005169-195.697691 437.361583 437.361583 0 0 1 182.044364 39.59465 34.133318 34.133318 0 0 0 28.216876-62.350195 511.089551 511.089551 0 0 0-210.26124-45.511091zM401.40236 281.600273a35.04354 35.04354 0 0 0-23.665767 9.557329l-139.263938 136.533273a34.133318 34.133318 0 0 0 0 48.241756 34.133318 34.133318 0 0 0 48.241756 0l139.263939-136.533273a34.133318 34.133318 0 0 0-24.120879-58.254196zM263.503755 280.23494000000005a33.678207 33.678207 0 0 0-24.120878 10.01244 34.133318 34.133318 0 0 0 0 48.241757l136.533273 139.263938a34.133318 34.133318 0 0 0 48.696867-48.241757l-136.533273-139.263938a36.863984 36.863984 0 0 0-24.575989-10.01244zM630.323148 147.34255499999995a34.133318 34.133318 0 0 0-34.133319 34.133318v364.088727a73.272856 73.272856 0 0 1-24.120878-18.204436l-37.319094-45.511091-53.247977 42.325314 40.04976 50.0622a125.610611 125.610611 0 0 0 115.598171 45.511091 34.133318 34.133318 0 0 0 27.306655-33.223096v-405.048709a33.678207 33.678207 0 0 0-34.133318-34.133318z"  horiz-adv-x="1024" />

    
    <glyph glyph-name="ziyuan82" unicode="&#59357;" d="M516.179698-128a226.486645 226.486645 0 0 0-127.786149 54.356795l-39.098747 27.655211C240.581213 30.779057999999964 105.16604 125.66504199999997 105.16604 278.72233200000005V671.140245a187.864711 187.864711 0 0 0 62.939447 143.044196A265.108578 265.108578 0 0 0 248.210237 861.86584 883.536321 883.536321 0 0 0 512.365186 895.719633a881.152251 881.152251 0 0 0 265.108578-33.853793 265.108578 265.108578 0 0 0 78.197494-47.681399 187.864711 187.864711 0 0 0 62.939446-143.044196v-392.417913a304.207325 304.207325 0 0 0-113.481729-224.579388 35.761049 35.761049 0 0 0-50.542283 0 35.761049 35.761049 0 0 0 0 50.542282 233.638854 233.638854 0 0 1 90.594658 172.12985V671.140245a118.249869 118.249869 0 0 1-38.621933 87.733774 203.122759 203.122759 0 0 1-58.171306 36.714677 780.544499 780.544499 0 0 1-238.406995 28.608839 798.663431 798.663431 0 0 1-238.406994-28.608839 203.122759 203.122759 0 0 1-58.171307-36.714677 118.249869 118.249869 0 0 1-36.714677-87.733774v-392.417913c0-115.865799 113.481729-193.586479 214.566295-266.062205l39.575561-28.132026a143.044197 143.044197 0 0 1 95.362798-40.052375 95.362798 95.362798 0 0 1 35.284235 16.68849l13.827606 9.53628c14.781234 10.966722 30.516095 21.933443 47.681399 33.376979a37.191491 37.191491 0 0 0 51.019096-8.105838 34.330607 34.330607 0 0 0-7.629023-47.681399l-47.681399-34.330607-15.258048-10.966722a176.421176 176.421176 0 0 0-62.462632-28.132025 123.494823 123.494823 0 0 0-24.794328-2.860884zM466.114229 228.18004900000005a35.761049 35.761049 0 0 0-27.178397 10.966722L309.719241 371.224246a35.761049 35.761049 0 0 0 0 50.542283 35.284235 35.284235 0 0 0 50.542283 0l105.375891-105.375892 248.896902 255.095484a35.761049 35.761049 0 1 0 51.495911-47.681399l-274.168043-284.181137a38.145119 38.145119 0 0 0-25.271142-10.966722z"  horiz-adv-x="1024" />

    
    <glyph glyph-name="ziyuan80" unicode="&#59358;" d="M512.254456 271.24951599999997a136.248051 136.248051 0 0 0-136.248051 136.248051v47.473188a136.248051 136.248051 0 0 0 272.496102 0v-47.473188a136.722783 136.722783 0 0 0-136.248051-136.248051z m0 249.23424a65.038268 65.038268 0 0 1-65.038268-65.038269v-47.473188a65.038268 65.038268 0 0 1 130.076537 0v47.473188a65.513 65.513 0 0 1-65.038269 65.038269zM512.254456-128h-4.272587a60.290949 60.290949 0 0 0-34.180695 18.514544l-68.361392 66.462463-142.419566 142.419566a655.130002 655.130002 0 0 0-149.540543 241.63853 456.217342 456.217342 0 0 0 22.78713 323.767146A407.319958 407.319958 0 0 0 505.133478 895.996677h13.292493a413.01674 413.01674 0 0 0 357.47311-207.932566A460.015197 460.015197 0 0 0 901.059871 312.076458a733.460763 733.460763 0 0 0-162.833037-234.04282 3842.717247 3842.717247 0 0 0-186.094899-187.044363 57.442558 57.442558 0 0 0-39.877479-18.989275z m0 953.261626h-4.272587a338.009102 338.009102 0 0 1-307.151529-189.892754 387.85595 387.85595 0 0 1-18.989276-272.496102 591.041197 591.041197 0 0 1 133.39966-213.629349c43.675333-47.473189 91.623254-94.946377 137.672247-140.045906l59.341485-57.442558c60.765681 57.91729 118.682971 116.309312 174.701334 175.650797a676.492937 676.492937 0 0 1 148.116348 211.255689 384.058095 384.058095 0 0 1-21.837666 315.696704A342.281689 342.281689 0 0 1 515.57758 824.786894z"  horiz-adv-x="1024" />

    
    <glyph glyph-name="ziyuan98" unicode="&#59359;" d="M511.360594-126.18142599999999a510.182107 510.182107 0 0 0-211.250828 45.430286 34.072714 34.072714 0 0 0 28.166777 62.239491 436.585044 436.585044 0 0 1 181.721142-39.524348 443.399587 443.399587 0 1 1-367.076707 195.350228 34.072714 34.072714 0 0 0-56.787857-38.16144 511.090713 511.090713 0 1 0 423.864564-227.151428zM420.500023 218.18013900000005a34.072714 34.072714 0 0 0-34.072715 34.072714V517.5657209999999a34.072714 34.072714 0 1 0 68.145429 0v-265.312868a34.072714 34.072714 0 0 0-34.072714-34.072714zM602.221165 218.18013900000005a34.072714 34.072714 0 0 0-34.072714 34.072714V517.5657209999999a34.072714 34.072714 0 1 0 68.145428 0v-265.312868a34.072714 34.072714 0 0 0-34.072714-34.072714z"  horiz-adv-x="1024" />

    
    <glyph glyph-name="ziyuan81" unicode="&#59360;" d="M507.388218-127.46862799999997a123.430739 123.430739 0 0 0-22.875195 0 168.227996 168.227996 0 0 0-62.43022 28.117427l-15.25013 10.961031-47.656656 34.312792a35.742492 35.742492 0 0 0-9.054764 47.656656 36.219059 36.219059 0 0 0 47.656656 9.054765l47.656656-35.265926 13.82043-9.531331a99.602411 99.602411 0 0 1 35.265926-16.679829 142.969968 142.969968 0 0 1 95.313312 39.555024l39.555025 28.593994c100.555544 70.055285 213.978386 150.118467 213.978386 265.447574V670.780362a118.665074 118.665074 0 0 1-38.601892 88.164814 203.017355 203.017355 0 0 1-58.14112 36.695625 778.709761 778.709761 0 0 1-238.283281 28.593994 781.092594 781.092594 0 0 1-238.283281-28.593994 203.017355 203.017355 0 0 1-58.14112-36.695625 118.665074 118.665074 0 0 1-35.265926-88.164814V276.18324900000005a233.517615 233.517615 0 0 1 90.547647-171.563962 35.742492 35.742492 0 0 0 0-50.516055 36.219059 36.219059 0 0 0-50.516056 0A304.049466 304.049466 0 0 0 105.16604 276.18324900000005V670.780362a187.767225 187.767225 0 0 0 62.906786 142.969968A274.978906 274.978906 0 0 0 248.136008 861.883553 883.077838 883.077838 0 0 0 512.153883 895.719779a880.695005 880.695005 0 0 0 264.971009-33.836226 274.978906 274.978906 0 0 0 78.156916-47.656656 187.767225 187.767225 0 0 0 62.906786-142.969969V276.18324900000005c0-152.5013-135.344903-247.814612-244.00208-324.065262l-39.078458-27.64086a226.369117 226.369117 0 0 0-127.719838-51.945755zM465.926927 228.52659300000005a35.742492 35.742492 0 0 0-27.164294 10.961031L309.613095 371.49656100000004a35.742492 35.742492 0 0 0 0 50.516056 35.265926 35.265926 0 0 0 50.516055 0l105.32121-105.32121 248.767745 254.96311a35.742492 35.742492 0 1 0 51.469189-47.656656l-274.025773-284.033671a38.125325 38.125325 0 0 0-25.258027-10.96103z"  horiz-adv-x="1024" />

    
    <glyph glyph-name="ziyuan75" unicode="&#59361;" d="M636.93251826-65.71464287000003a102.39289805 102.39289805 0 0 0-75.53574404 34.13096631l-138.76196045 147.71434395A19.0238168 19.0238168 0 0 1 407.52766513 123.40447969000002H178.68233604a111.90480645 111.90480645 0 0 0-106.86908936 111.90480644V395.89268349a41.96430263 41.96430263 0 0 0 83.92860439 0v-161.14292138a25.17858105 25.17858105 0 0 1 22.94048497-27.41667715H407.52766513a106.30956621 106.30956621 0 0 0 76.65479209-33.57144228l138.20243643-148.27386797a19.0238168 19.0238168 0 0 1 22.38096094-5.59524024 25.73810508 25.73810508 0 0 1 16.22619668 26.2976291v335.71441934a41.96430263 41.96430263 0 1 0 83.92860527 0v-335.71441934A111.90480645 111.90480645 0 0 0 675.53967676-61.23845068000003a102.95242207 102.95242207 0 0 0-38.6071585-4.47619219zM113.77754844 330.42837187A41.96430263 41.96430263 0 0 0 71.81324668 372.39267364V533.5355950200001a111.90480645 111.90480645 0 0 0 106.86908936 111.90480644H407.52766513a19.0238168 19.0238168 0 0 1 15.10714864 7.27381231L561.39677422 799.86903369a102.39289805 102.39289805 0 0 0 111.90480557 26.857154A111.90480645 111.90480645 0 0 0 743.24208448 722.09519355v-335.71441845a41.96430263 41.96430263 0 0 0-83.92860528 0V722.09519355a25.73810508 25.73810508 0 0 1-16.22619668 26.29762999 19.0238168 19.0238168 0 0 1-22.38096094-5.59524112L484.18245722 594.5237144499999a106.30956621 106.30956621 0 0 0-76.65479209-33.57144228H178.68233604a25.17858105 25.17858105 0 0 1-22.94048497-27.41667715v-161.14292138A41.96430263 41.96430263 0 0 0 113.77754844 330.42837187zM855.14689004 209.01165703000004a44.20239873 44.20239873 0 0 0-29.65477324 12.30952852 41.96430263 41.96430263 0 0 0 0 59.30954736 146.59529589 146.59529589 0 0 1 0 207.02389131 41.96430263 41.96430263 0 0 0 59.30954736 59.30954736 231.08342519 231.08342519 0 0 0 0-325.64298603 43.08335068 43.08335068 0 0 0-29.65477413-12.30952852z"  horiz-adv-x="1024" />

    
    <glyph glyph-name="ziyuan94" unicode="&#59362;" d="M511.98976-127.99863500000004a511.079556 511.079556 0 0 0-211.622434 45.510201 34.132651 34.132651 0 0 0 28.216325 62.348975 437.353031 437.353031 0 0 1 182.040803-39.593874 443.269357 443.269357 0 1 1-368.177525 195.693864 33.677549 33.677549 0 0 0-9.10204-45.510201 34.132651 34.132651 0 0 0-45.510201 9.10204 511.98976 511.98976 0 1 0 424.610174-227.551005zM761.840763 216.96868800000004a34.132651 34.132651 0 0 0-34.13265 34.132651V516.8809120000001a34.132651 34.132651 0 1 0 68.265301 0v-265.779573a33.677549 33.677549 0 0 0-34.132651-34.132651zM630.771385 216.96868800000004a70.085709 70.085709 0 0 0-33.677549 8.646938L533.834657 258.838073a70.085709 70.085709 0 0 0-28.671427-33.222447 67.355097 67.355097 0 0 0-69.175505 0l-171.118356 93.295912A68.720403 68.720403 0 0 0 262.138757 440.878877l166.112234 100.122442a69.630607 69.630607 0 0 0 69.175505 0 72.816321 72.816321 0 0 0 32.767345-38.228569L591.632612 541.001319a70.085709 70.085709 0 0 0 70.085709 0 68.265301 68.265301 0 0 0 35.497957-59.163262l5.006122-194.783659a67.355097 67.355097 0 0 0-32.767345-60.98367 66.444893 66.444893 0 0 0-38.68367-9.10204zM465.569355 481.838057l-168.387743-101.032646 171.573457-93.751013v28.671426a34.587753 34.587753 0 0 0 50.516323 31.402039l109.679585-60.073465-2.275511 194.783659-108.314278-64.169383a34.132651 34.132651 0 0 0-34.13265 0 35.042855 35.042855 0 0 0-17.748979 29.126529z"  horiz-adv-x="1025" />

    
    </font>
</defs>
</svg>
