<svg version="1.1" id="Layer_1" xmlns="http://www.w3.org/2000/svg" x="0" y="0" viewBox="0 0 512 512" xml:space="preserve"><path fill="#ffd15c" d="M147.2 0h218.667v116.267H147.2z"/><path d="M256 176c-1.067 0-1.067 0 0 0-1.067 0-1.067 0 0 0z" fill="#acb3ba"/><path d="M449.067 512c-4.267-24.533-10.667-49.067-18.133-70.4-9.6-28.8-22.4-55.467-36.267-82.133C356.267 282.667 387.2 160 387.2 160H123.733s30.933 121.6-7.467 199.467C102.4 386.133 89.6 413.867 80 441.6c-7.467 21.333-13.867 45.867-18.133 70.4h387.2z" fill="#ffd15c"/><path d="M369.067 178.133c-10.667 3.2-21.333 2.133-32 1.067C318.933 176 256 176 256 176s-61.867 0-81.067 3.2c-10.667 2.133-21.333 2.133-32-1.067C53.333 153.6 147.2 0 147.2 0c2.133 77.867 97.067 78.933 108.8 77.867h1.067c11.733 0 105.6 0 108.8-77.867-1.067 0 92.8 153.6 3.2 178.133zM448 512c-2.133-16-6.4-30.933-10.667-45.867h-364.8C68.267 481.067 65.067 496 61.867 512H448z" fill="#cdd6e0"/><ellipse cx="256" cy="413.867" rx="6.4" ry="10.667" fill="#f8b64c"/><path d="M501.333 295.467h-60.8l21.333-21.333c4.267-4.267 4.267-10.667 0-14.933s-10.667-4.267-14.933 0L406.4 298.667c-2.133 2.133-3.2 4.267-3.2 7.467s1.067 5.333 3.2 7.467l39.467 39.467c2.133 2.133 5.333 3.2 7.467 3.2s5.333-1.067 7.467-3.2c4.267-4.267 4.267-10.667 0-14.933L439.467 316.8h61.867c6.4 0 10.667-4.267 10.667-10.667-.001-6.4-4.268-10.666-10.668-10.666zM10.667 316.8h60.8l-21.333 21.333c-4.267 4.267-4.267 10.667 0 14.933 4.267 4.267 10.667 4.267 14.933 0l39.467-39.467c2.133-2.133 3.2-4.267 3.2-7.467s-1.067-5.333-2.133-7.467L66.133 259.2C64 257.067 60.8 256 58.667 256s-5.333 1.067-7.467 3.2c-4.267 4.267-4.267 10.667 0 14.933l21.333 21.333H10.667c-6.4 0-10.667 4.267-10.667 10.667S4.267 316.8 10.667 316.8z" fill="#ff7058"/></svg>