<svg version="1.1" id="Layer_1" xmlns="http://www.w3.org/2000/svg" x="0" y="0" viewBox="0 0 518.146 518.146" xml:space="preserve"><path d="M403.35 310.633c-6.4-5.333-16-17.067-16-17.067-21.333-29.867-59.733-48-59.733-48V228.5c0-2.133 1.067-3.2 3.2-3.2s3.2-2.133 3.2-3.2v-16c7.467-23.467 34.133-35.2 34.133-35.2s6.4-3.2 18.133-3.2c11.733 0 18.133-6.4 18.133-6.4 5.333-4.267 3.2-10.667 3.2-10.667-2.133-1.067-2.133-3.2-2.133-3.2 3.2-2.133 2.133-5.333 2.133-5.333-2.133 0-2.133-3.2-2.133-3.2 3.2-3.2 1.067-5.333 1.067-5.333-2.133-5.333-9.6-4.267-9.6-4.267 1.067-7.467-5.333-6.4-5.333-6.4-3.2 0-7.467 8.533-7.467 8.533-4.267 2.133-9.6 12.8-9.6 12.8 1.067 3.2-1.067 7.467-1.067 7.467l-5.333 2.133c-5.333 2.133-10.667 1.067-10.667 1.067 5.333-21.333 3.2-28.8 3.2-28.8-4.267-19.2-10.667-34.133-10.667-34.133 0-6.4-4.267-10.667-4.267-10.667 1.067-4.267 4.267-7.467 4.267-7.467 2.133 1.067 13.867 0 13.867 0 6.4 0 6.4-3.2 6.4-3.2-4.267-4.267-2.133-8.533-2.133-8.533 2.133-2.133 2.133-5.333 2.133-5.333-1.067-1.067 0-3.2 0-3.2 2.133-2.133 1.067-4.267 1.067-4.267v-2.133c6.4 0 5.333-3.2 5.333-3.2l-8.533-11.733C367.084 9.833 347.884 1.3 347.884 1.3c-21.333-5.333-38.4 7.467-38.4 7.467-10.667 10.667-5.333 22.4-5.333 22.4 7.467 17.067 9.6 24.533 9.6 24.533v5.333c-13.867 4.267-17.067 11.733-17.067 11.733-22.4 0-29.867 11.733-29.867 11.733-32 5.333-42.667 10.667-59.733 16-17.067 6.4-5.333 18.133-5.333 18.133s16 22.4 23.467 26.667c6.4 4.267 40.533 34.133 40.533 34.133v5.333c-1.067 4.267 4.267 13.867 4.267 13.867 0 5.333-7.467 9.6-7.467 9.6-16 16-17.067 33.067-17.067 33.067v18.133c-8.533 6.4-7.467 10.667-7.467 10.667l5.333 9.6c-6.4 11.733-19.2 45.867-19.2 45.867s-11.733 19.2-25.6 25.6c-13.867 6.4-25.6 39.467-25.6 39.467-3.2 11.733-18.133 28.8-18.133 28.8L133.484 442.9c-11.733-1.067-16 1.067-16 1.067-13.867-2.133-5.333 16-5.333 16 9.6 17.067 8.533 25.6 8.533 25.6 6.4 21.333 21.333 27.733 21.333 27.733 19.2 8.533 24.533 3.2 24.533 3.2 4.267-6.4-4.267-10.667-4.267-10.667-11.733-8.533-6.4-36.267-6.4-36.267 9.6-7.467 1.067-12.8 1.067-12.8-4.267-5.333 2.133-9.6 2.133-9.6 1.067-3.2 43.733-46.933 43.733-46.933 3.2-5.333 26.667-28.8 26.667-28.8 16-13.867 36.267-41.6 36.267-41.6 17.067-18.133 23.467-33.067 23.467-33.067 0-3.2 9.6-2.133 9.6-2.133 3.2 2.133 12.8 1.067 12.8 1.067l46.933 23.467c8.533 3.2 3.2 7.467 3.2 7.467-14.933 14.933-19.2 24.533-19.2 24.533-11.733 17.067-48 46.933-48 46.933-5.333 1.067-32 16-32 16-14.933 3.2-2.133 19.2-2.133 19.2s12.8 13.867 16 19.2c3.2 5.333 13.867 17.067 13.867 17.067 18.133 16 27.733 16 37.333 13.867 10.667-3.2-2.133-9.6-2.133-9.6-7.467-7.467-8.533-18.133-12.8-23.467-4.267-7.467 1.067-17.067 1.067-17.067 4.267-3.2 1.067-5.333-1.067-6.4-11.733-4.267-3.2-11.733-3.2-11.733 9.6-9.6 45.867-35.2 45.867-35.2 21.333-12.8 38.4-33.067 38.4-33.067 9.6-5.333 12.8-11.733 12.8-11.733 8.533-12.8-3.201-24.534-3.201-24.534zM272.15 135.7c-5.333 6.4-2.133 24.533-2.133 24.533s-26.667-19.2-36.267-38.4v-6.4s24.533 0 38.4-2.133l2.133 13.867c.001-1.067 3.201 3.2-2.133 8.533z" fill="#ffd15c"/><path d="M326.55 245.567V228.5c0-2.133 1.067-3.2 3.2-3.2s3.2-2.133 3.2-3.2v-16c1.067-4.267-64-7.467-64-7.467 0 5.333-7.467 9.6-7.467 9.6-16 16-17.067 33.067-17.067 33.067v18.133c-8.533 6.4-7.467 10.667-7.467 10.667l5.333 9.6c-4.267 8.533-12.8 28.8-16 39.467h48c10.667-12.8 14.933-22.4 14.933-22.4 0-3.2 9.6-2.133 9.6-2.133 3.2 2.133 12.8 1.067 12.8 1.067l46.933 23.467c7.467 2.133 29.867-24.533 29.867-24.533-22.398-32.002-61.865-49.068-61.865-49.068z" fill="#40596b"/><path d="M158.017 447.167l-21.333-9.6-4.267 5.333c-11.733-1.067-16 1.067-16 1.067-13.867-2.133-5.333 16-5.333 16 9.6 17.067 8.533 25.6 8.533 25.6 6.4 21.333 21.333 27.733 21.333 27.733 19.2 8.533 24.533 3.2 24.533 3.2 4.267-6.4-4.267-10.667-4.267-10.667-11.733-8.533-6.4-36.267-6.4-36.267 9.6-7.467 1.067-12.8 1.067-12.8-4.266-5.333 2.134-9.599 2.134-9.599zm166.4 26.666c-7.467-7.467-8.533-18.133-12.8-23.467-4.267-7.467 1.067-17.067 1.067-17.067 4.267-3.2 1.067-5.333-1.067-6.4-11.733-4.267-3.2-11.733-3.2-11.733l-16-18.133c-5.333 1.067-32 16-32 16-14.933 3.2-2.133 19.2-2.133 19.2s12.8 13.867 16 19.2c3.2 5.333 13.867 17.067 13.867 17.067 18.133 16 27.733 16 37.333 13.867 11.733-2.134-1.067-8.534-1.067-8.534z" fill="#ff7058"/></svg>