<svg version="1.1" id="Layer_1" xmlns="http://www.w3.org/2000/svg" x="0" y="0" viewBox="0 0 514.133 514.133" xml:space="preserve"><path d="M413.867 109.867l-44.8 43.733c9.6 7.467 11.733 8.533 20.267 18.133L433.067 128l-19.2-18.133z" fill="#f8b64c"/><path d="M448 76.8l17.067 17.067c9.6 9.6 9.6 24.533 0 33.067-9.6 9.6-24.533 9.6-33.067 0l-17.067-17.067c-9.6-9.6-9.6-24.533 0-33.067 8.534-8.533 23.467-8.533 33.067 0z" fill="#ffd15c"/><g fill="#40596b"><circle cx="257.067" cy="294.4" r="219.733"/><path d="M257.067 487.467C150.4 487.467 64 401.067 64 294.4s86.4-192 193.067-192 193.067 86.4 193.067 193.067-86.401 192-193.067 192z"/></g><path d="M257.067 460.8c-91.733 0-166.4-74.667-166.4-166.4s74.667-165.333 166.4-165.333 166.4 74.667 166.4 166.4S348.8 460.8 257.067 460.8z" fill="#f2f2f2"/><path d="M257.067 129.067v166.4h166.4c0-91.734-74.667-166.4-166.4-166.4z" fill="#84dbff"/><path d="M257.067 75.733c11.733 0 24.533 1.067 36.267 3.2v-48h-71.467v46.933c10.666-1.066 23.466-2.133 35.2-2.133z" fill="#f8b64c"/><path d="M315.733 55.467H198.4c-6.4 0-10.667-4.267-10.667-10.667V10.667C187.733 4.267 192 0 198.4 0h116.267c6.4 0 10.667 4.267 10.667 10.667V44.8c1.066 5.333-4.267 10.667-9.601 10.667z" fill="#ffd15c"/><path d="M257.067 150.4c89.6 0 162.133 69.333 167.467 157.867 0-3.2 1.067-7.467 1.067-10.667 0-92.8-75.733-168.533-168.533-168.533S88.533 204.8 88.533 297.6c0 3.2 0 7.467 1.067 10.667C94.933 219.733 167.467 150.4 257.067 150.4z" opacity=".1" fill="#231f20"/><g fill="#40596b"><circle cx="257.067" cy="149.333" r="10.667"/><circle cx="257.067" cy="440.533" r="10.667"/><circle cx="402.133" cy="294.4" r="10.667"/><circle cx="112" cy="294.4" r="10.667"/></g><path d="M323.2 209.067c4.267 3.2 5.333 10.667 2.133 14.933L272 293.333c-3.2 4.267-10.667 5.333-14.933 2.133-4.267-3.2-5.333-10.667-2.133-14.933l53.333-69.333c4.266-4.267 10.666-5.333 14.933-2.133z" fill="#ff7058"/><path d="M270.933 259.2l-16 20.267c-3.2 4.267-3.2 10.667 2.133 14.933 4.267 3.2 10.667 3.2 14.933-2.133L288 272c-4.267-5.333-10.667-9.6-17.067-12.8z" opacity=".1" fill="#231f20"/><circle cx="257.067" cy="294.4" r="27.733" fill="#ff7058"/><circle cx="257.067" cy="294.4" r="11.733" fill="#fff"/></svg>