<svg version="1.1" id="Layer_1" xmlns="http://www.w3.org/2000/svg" x="0" y="0" viewBox="0 0 512 512" xml:space="preserve"><path d="M298.667 87.467h-99.2c-4.267 0-7.467-3.2-7.467-8.533V73.6c0-4.267 3.2-8.533 8.533-8.533h98.133c4.267 0 8.533 3.2 8.533 8.533V80c.001 4.267-4.266 7.467-8.532 7.467z" fill="#f8b64c"/><path d="M330.667 106.667h-12.8a9.56 9.56 0 01-9.6-9.6 9.56 9.56 0 019.6-9.6h12.8c13.867 0 25.6-11.733 25.6-25.6s-11.733-25.6-25.6-25.6h-70.4c-5.333 0-9.6-4.267-9.6-9.6s4.267-9.6 9.6-9.6h70.4c24.533 0 44.8 20.267 44.8 44.8s-20.267 44.8-44.8 44.8z" fill="#cdd6e0"/><path fill="#ffd15c" d="M231.467 27.733h35.2v37.333h-35.2z"/><g fill="#40596b"><circle cx="249.6" cy="25.6" r="25.6"/><path d="M328.533 115.2H170.667V87.467c0-6.4 4.267-10.667 10.667-10.667h136.533c6.4 0 10.667 4.267 10.667 10.667V115.2z"/></g><path d="M362.667 200.533c0-4.267-1.067-7.467-3.2-10.667-2.133-4.267-4.267-9.6-4.267-14.933v-39.467c0-11.733-9.6-21.333-21.333-21.333H165.333c-11.733 0-21.333 9.6-21.333 21.333v39.467c0 5.333-2.133 9.6-4.267 14.933-2.133 3.2-3.2 6.4-3.2 10.667 0 4.267 1.067 7.467 3.2 10.667 2.133 4.267 4.267 9.6 4.267 14.933v9.6c0 5.333-2.133 9.6-4.267 14.933-2.133 3.2-3.2 6.4-3.2 10.667s1.067 7.467 3.2 10.667c2.133 4.267 4.267 9.6 4.267 14.933v9.6c0 5.333-2.133 9.6-4.267 14.933-2.133 3.2-3.2 6.4-3.2 10.667s1.067 7.467 3.2 10.667c2.133 4.267 4.267 9.6 4.267 14.933v142.933C144 502.4 153.6 512 165.333 512h168.533c11.733 0 21.333-9.6 21.333-21.333V345.6c0-5.333 2.133-9.6 4.267-14.933 2.133-3.2 3.2-6.4 3.2-10.667s-1.067-7.467-3.2-10.667c-2.133-4.267-4.267-9.6-4.267-14.933v-9.6c0-5.333 2.133-9.6 4.267-14.933 2.133-3.2 3.2-6.4 3.2-10.667 0-4.267-1.067-7.467-3.2-10.667-2.133-4.267-4.267-9.6-4.267-14.933V224c0-5.333 2.133-9.6 4.267-14.933 2.134-1.067 3.201-4.267 3.201-8.534z" fill="#84dbff"/><path d="M182.4 81.067h5.333v29.867H182.4zm25.6 0h5.333v29.867H208zm25.6 0h5.333v29.867H233.6zm25.6 0h5.333v29.867H259.2zm25.6 0h5.333v29.867H284.8zm25.6 0h5.333v29.867H310.4z" fill="#334a5e"/><path d="M304 401.067H195.2c-11.733 0-21.333-9.6-21.333-21.333v-134.4c0-11.733 9.6-21.333 21.333-21.333H304c11.733 0 21.333 9.6 21.333 21.333v133.333c0 12.8-9.6 22.4-21.333 22.4z" fill="#54c0eb"/><path d="M295.467 334.933c0 25.6-20.267 45.867-45.867 45.867s-46.933-20.267-46.933-45.867c0-25.6 45.867-91.733 45.867-91.733s46.933 66.133 46.933 91.733z" fill="#fff"/><path d="M260.267 370.133c-25.6 0-45.867-20.267-45.867-45.867 0-18.133 23.467-57.6 37.333-77.867-1.067-2.133-2.133-2.133-2.133-2.133s-46.933 65.067-46.933 90.667 20.267 45.867 45.867 45.867c14.933 0 28.8-7.467 37.333-19.2-6.4 5.333-16 8.533-25.6 8.533z" opacity=".1" fill="#231f20"/></svg>