<svg width="331" height="331" viewBox="0 0 331 331" xmlns="http://www.w3.org/2000/svg"><g id="Page-1" stroke="none" stroke-width="1" fill="none" fill-rule="evenodd"><g id="Imported-Layers" transform="translate(1 1)"><path d="M329.175 164.503c0 90.922-73.706 164.628-164.628 164.628-90.921 0-164.628-73.706-164.628-164.628C-.081 73.582 73.626-.124 164.547-.124c90.922 0 164.628 73.706 164.628 164.627" id="Fill-1" fill="#F8921A"/><path d="M294.223 164.505c0 71.613-58.058 129.674-129.674 129.674-71.617 0-129.677-58.061-129.677-129.674 0-71.62 58.06-129.677 129.677-129.677 71.616 0 129.674 58.057 129.674 129.677" id="Fill-2" fill="#F8921A"/><path d="M213.735 171.829c12.18-2.545 21.483-10.317 24.255-26.726 3.824-22.411-13.066-34.86-36.331-43.418l8.219-30.293-18.458-5.01-8.01 29.498c-4.856-1.318-9.836-2.568-14.793-3.806l8.053-29.693-18.447-5.006-8.225 30.282c-4.019-1.002-7.966-1.985-11.801-3.026l.026-.094-25.461-6.92-5.342 19.696s13.7 3.441 13.409 3.63c7.476 2.036 8.741 7.035 8.422 10.964l-9.36 34.521c.514.139 1.179.339 1.92.654l-1.954-.531-13.124 48.355c-.961 2.263-3.37 5.64-8.599 4.227.182.271-13.428-3.644-13.428-3.644l-9.64 21.025 24.02 6.519c4.476 1.221 8.856 2.486 13.154 3.687l-8.3 30.651 18.443 5.009 8.224-30.325a670.914 670.914 0 0014.713 4.152l-8.194 30.178 18.456 5.005 8.31-30.584c31.523 6.644 55.363 4.726 65.972-23.657 8.545-22.855.346-36.314-16.129-45.32zm-50.567-57.959c10.421 2.828 44.065 8.401 38.169 30.133-5.658 20.834-37.734 9.513-48.162 6.683l9.993-36.816zm-26.064 96.002l11.025-40.596c12.517 3.397 52.727 10.45 46.247 34.338-6.211 22.905-44.746 9.645-57.272 6.258z" id="Fill-3" fill="#FFF"/></g></g></svg>