<svg width="331" height="330" viewBox="0 0 331 330" xmlns="http://www.w3.org/2000/svg"><g id="Page-1" stroke="none" stroke-width="1" fill="none" fill-rule="evenodd"><g id="Imported-Layers" transform="translate(1 1)"><path d="M329.083 164.228c0 90.921-73.706 164.627-164.627 164.627-90.922 0-164.628-73.706-164.628-164.627C-.172 73.306 73.534-.4 164.456-.4c90.921 0 164.627 73.706 164.627 164.628" id="Fill-1" fill="#F9BF1A"/><path d="M294.131 164.229c0 71.613-58.057 129.674-129.674 129.674-71.616 0-129.677-58.061-129.677-129.674 0-71.619 58.061-129.677 129.677-129.677 71.617 0 129.674 58.058 129.674 129.677" id="Fill-2" fill="#F9BF1A"/><path d="M83.169 74.294h114.68s40.233 7.791 56.513 49.811c0 0 23.315 55.24-11.229 104.257 0-.001-21.524 27.023-48.412 27.023H83.169v-42.74h23.275v-95.546H83.61l-.441-42.805z" id="Fill-3" fill="#FFF"/><path d="M83.169 74.294h114.68s40.233 7.791 56.513 49.811c0 0 23.315 55.24-11.229 104.257 0-.001-21.524 27.023-48.412 27.023H83.169v-42.74h23.275v-95.546H83.61l-.441-42.805h0z" id="Stroke-4" stroke="#F9BF1A"/><path d="M157.566 117.221h24.465c0-.001 11.35 2.412 19.229 24.74 0 0 10.508 32.102-5.952 57.598 0 0-8.724 12.619-18.284 12.619h-19.039l-.419-94.957" id="Fill-5" fill="#F9BF1A"/></g></g></svg>