<svg width="331" height="331" viewBox="0 0 331 331" xmlns="http://www.w3.org/2000/svg"><g id="Page-1" stroke="none" stroke-width="1" fill="none" fill-rule="evenodd"><g id="Imported-Layers" transform="translate(1 1)"><path d="M329.102 164.503c0 90.922-73.706 164.628-164.627 164.628-90.922 0-164.628-73.706-164.628-164.628C-.153 73.582 73.553-.124 164.475-.124c90.921 0 164.627 73.706 164.627 164.627" id="Fill-1" fill="#BEBEBE"/><path d="M294.15 164.505c0 71.613-58.057 129.674-129.674 129.674-71.616 0-129.677-58.061-129.677-129.674 0-71.62 58.061-129.677 129.677-129.677 71.617 0 129.674 58.057 129.674 129.677" id="Fill-2" fill="#BEBEBE"/><path d="M154.854 208.482l10.693-40.264 25.316-9.249 6.297-23.663-.214-.587-24.921 9.105 17.955-67.608h-50.921l-23.481 88.23-19.605 7.162-6.478 24.395 19.59-7.157-13.839 51.998h135.522l8.687-32.362h-84.601" id="Fill-3" fill="#FFF"/></g></g></svg>