<svg width="330" height="330" viewBox="0 0 330 330" xmlns="http://www.w3.org/2000/svg"><g id="Page-1" stroke="none" stroke-width="1" fill="none" fill-rule="evenodd"><g id="Imported-Layers" transform="translate(1 1)"><path d="M328.768 164.228c0 90.921-73.707 164.627-164.628 164.627-90.921 0-164.628-73.706-164.628-164.627C-.488 73.306 73.219-.4 164.14-.4c90.921 0 164.628 73.706 164.628 164.628" id="Fill-1" fill="#73C7EF"/><path d="M293.816 164.229c0 71.613-58.058 129.674-129.674 129.674-71.617 0-129.678-58.061-129.678-129.674 0-71.619 58.061-129.677 129.678-129.677 71.616 0 129.674 58.058 129.674 129.677" id="Fill-2" fill="#73C7EF"/><path d="M122.564 149.029c-.398 1.409-.794 2.791-1.178 4.177-6.14 22.143-12.143 44.325-18.486 66.41-2.499 8.701-8.809 13.807-17.56 15.89-3.5.834-7.014.207-10.518-.069-1.789-.14-3.571-.408-5.362-.481-.949-.039-1.001-.351-.782-1.134a9890.35 9890.35 0 007.442-26.738c7.27-26.261 14.535-52.523 21.799-78.785 2.79-10.089 5.334-20.253 8.432-30.247 2.712-8.746 9.061-13.873 17.967-15.809 2.849-.619 5.73-.22 8.591.028 2.291.198 4.574.483 6.866.67.754.062 1.193.386 1.608.999 7.937 11.723 15.896 23.432 23.853 35.143 13.457 19.806 26.916 39.613 40.379 59.416.222.327.376.718.825.988.805-2.89 1.6-5.738 2.391-8.588 5.627-20.269 11.269-40.534 16.874-60.81 2.43-8.793 10.151-15.644 19.153-16.85 2.773-.371 5.539 0 8.3.232 2.054.173 4.097.47 6.151.634.879.07 1.005.325.769 1.167-2.549 9.091-5.055 18.194-7.568 27.295-9.919 35.915-19.84 71.83-29.753 107.746-2.573 9.323-12.513 16.6-22.187 16.214-3.963-.158-7.89-.717-11.838-1.035-.506-.04-.682-.346-.909-.681-8.144-11.992-16.291-23.983-24.437-35.974-13.362-19.667-26.724-39.334-40.091-58.998-.184-.271-.303-.609-.731-.81zm72.145 72.564c.277-.257.283-.614.369-.924 1.5-5.377 2.968-10.763 4.5-16.132.267-.933.148-1.623-.402-2.432-21.395-31.439-42.764-62.895-64.142-94.344-.199-.294-.322-.668-.706-.827-.3.245-.291.612-.377.921-1.516 5.443-3 10.895-4.538 16.332-.225.796-.119 1.377.345 2.06 21.422 31.501 42.826 63.016 64.236 94.525.199.292.319.67.715.821z" id="Fill-3" fill="#FFF"/><path d="M194.709 221.593c-.396-.151-.516-.529-.715-.821-21.41-31.509-42.814-63.024-64.236-94.525-.464-.683-.57-1.264-.345-2.06 1.538-5.437 3.022-10.889 4.538-16.332.086-.309.077-.676.377-.921.384.159.507.533.706.827 21.378 31.449 42.747 62.905 64.142 94.344.55.809.669 1.499.402 2.432-1.532 5.369-3 10.755-4.5 16.132-.086.31-.092.667-.369.924" id="Fill-4" fill="#73C7EF"/></g></g></svg>