<svg width="331" height="330" viewBox="0 0 331 330" xmlns="http://www.w3.org/2000/svg"><g id="Page-1" stroke="none" stroke-width="1" fill="none" fill-rule="evenodd"><g id="Imported-Layers" transform="translate(1 1)"><path d="M329.169 164.228c0 90.921-73.707 164.627-164.628 164.627-90.921 0-164.628-73.706-164.628-164.627C-.087 73.306 73.62-.4 164.541-.4c90.921 0 164.628 73.706 164.628 164.628" id="Fill-1" fill="#EED96D"/><path d="M294.217 164.229c0 71.613-58.058 129.674-129.674 129.674-71.617 0-129.678-58.061-129.678-129.674 0-71.619 58.061-129.677 129.678-129.677 71.616 0 129.674 58.058 129.674 129.677" id="Fill-2" fill="#EED96D"/><path d="M160.813 138.989c17.303 11.632 34.65 23.202 51.869 34.958 2.849 1.945 5.636 2.773 9.029 2.678 6.627-.186 13.263-.101 19.894-.04 6.204.058 10.239 3.89 10.201 9.546-.039 5.694-3.986 9.251-10.368 9.268-8.884.025-17.769-.037-26.652.033-2.616.021-4.827-.715-6.996-2.181-16.571-11.202-33.213-22.3-49.772-33.52-2.072-1.404-4.099-2.096-6.598-1.983-3.622.164-7.256.057-10.885.038-5.43-.027-8.919-2.468-10.167-7.078-1.187-4.386.875-8.454 5.576-11.035.309-.17.557-.453.833-.684h24.036" id="Fill-3" fill="#FFF"/><path d="M86.453 138.989c17.602 11.846 35.225 23.661 52.779 35.579 2.067 1.404 4.061 2.152 6.573 2.047 3.996-.167 8.007-.127 12.008-.015 5.608.156 9.65 4.147 9.691 9.392.042 5.374-4.134 9.351-9.97 9.402-5.379.047-10.764-.128-16.137.062-3.438.122-6.253-.933-9.06-2.84-16.027-10.886-32.17-21.604-48.181-32.513-2.517-1.715-4.984-2.519-7.989-2.355-3.368.184-6.754.057-10.132.038-5.331-.03-9-2.616-10.144-7.121-1.124-4.423.984-8.511 5.662-11.013.316-.169.577-.44.864-.663h24.036" id="Fill-4" fill="#FFF"/><path d="M279.488 169.785c-1.455 2.634-2.998 5.129-6.068 6.258-5.781 2.125-11.896-1.692-12.608-7.98-.097-.865-.042-1.749-.046-2.624-.028-7.65-.027-7.65-7.851-7.65h-36.018c-7.201-.001-10.417-1.806-11.914-6.687-1.492-4.861.291-8.369 6.154-12.113h60.84c3.789 1.218 6.289 3.726 7.511 7.511v23.285" id="Fill-5" fill="#FFF"/><path d="M74.291 195.402c-3.126 0-6.253.067-9.376-.015-5.158-.135-9.046-3.931-9.252-8.92-.207-4.989 3.367-9.523 8.403-9.757 6.86-.319 13.759-.329 20.617.016 4.995.252 8.702 5.013 8.377 9.826-.338 5.019-4.213 8.708-9.393 8.836-3.124.077-6.251.014-9.376.014" id="Fill-6" fill="#FFF"/></g></g></svg>