<svg width="331" height="331" viewBox="0 0 331 331" xmlns="http://www.w3.org/2000/svg"><g id="Page-1" stroke="none" stroke-width="1" fill="none" fill-rule="evenodd"><g id="Imported-Layers" transform="translate(1 1)"><path d="M329.083 164.503c0 90.922-73.706 164.628-164.627 164.628-90.922 0-164.628-73.706-164.628-164.628C-.172 73.582 73.534-.124 164.456-.124c90.921 0 164.627 73.706 164.627 164.627" id="Fill-1" fill="#1ABC9C"/><path d="M294.131 164.505c0 71.613-58.057 129.674-129.674 129.674-71.616 0-129.677-58.061-129.677-129.674 0-71.62 58.061-129.677 129.677-129.677 71.617 0 129.674 58.057 129.674 129.677" id="Fill-2" fill="#1ABC9C"/><path d="M241.602 216.014c-6.593 17.354-13.597 26.851-28.329 36.747.593-2.5 1.225-5.014 1.684-7.575 8.716-48.654-7.797-107.196-88.566-139.535 64.262 37.05 90.194 102.968 60.228 145.52-51.007 7.768-88.284-34.431-88.284-83.047 0 0-4.538-51.373 0-88.659 120.186 4.306 166.533 74.185 143.267 136.549" id="Fill-3" fill="#FFF"/></g></g></svg>