<svg width="330" height="331" viewBox="0 0 330 331" xmlns="http://www.w3.org/2000/svg"><g id="Page-1" stroke="none" stroke-width="1" fill="none" fill-rule="evenodd"><g id="Imported-Layers" transform="translate(0 1)"><path d="M329.256 164.503c0 90.922-73.706 164.628-164.627 164.628C73.707 329.131.001 255.425.001 164.503.001 73.582 73.707-.124 164.629-.124c90.921 0 164.627 73.706 164.627 164.627" id="Fill-1" fill="#F7D441"/><path d="M294.304 164.505c0 71.613-58.057 129.674-129.674 129.674-71.616 0-129.677-58.061-129.677-129.674 0-71.62 58.061-129.677 129.677-129.677 71.617 0 129.674 58.057 129.674 129.677" id="Fill-2" fill="#F7D441"/><path d="M87.233 89.658v70.34c.441 42.555 23.882 56.411 60.464 60.237v11.578h-21.038v15.211h21.038v17.14h33.334v-17.14h21.567v-15.211h-21.567v-11.54c36.89-3.747 60.55-17.512 60.994-60.275v-70.34h-33.373v70.34c.246 24.521-12.599 32.367-27.318 32.616h-.303V89.658h-33.334v102.956c-14.619-.33-27.336-8.228-27.092-32.616v-70.34H87.233" id="Fill-3" fill="#FFF"/></g></g></svg>