<?xml version="1.0" encoding="utf-8"?>
<!-- Generator: Adobe Illustrator 23.0.0, SVG Export Plug-In . SVG Version: 6.00 Build 0)  -->
<svg version="1.1" id="图层_1" xmlns="http://www.w3.org/2000/svg" xmlns:xlink="http://www.w3.org/1999/xlink" x="0px" y="0px"
	 viewBox="0 0 1024 1024" style="enable-background:new 0 0 1024 1024;" xml:space="preserve">
<style type="text/css">
	.st0{display:none;}
	.st1{display:inline;fill:#EDCECE;}
	.st2{display:inline;}
	.st3{fill:#7F367F;}
	.st4{fill:#D375CA;}
	.st5{display:inline;fill:#A04B9C;}
	.st6{display:inline;fill:#FF8AEE;}
	.st7{display:inline;fill:#FFBDF9;}
	.st8{display:inline;fill:#EA78DF;}
	.st9{display:inline;fill:#7F3C00;}
	.st10{display:inline;fill:#703404;}
	.st11{display:inline;fill:#D85BCC;}
	.st12{display:inline;fill:#AD4DA8;}
	.st13{fill:#7F3C00;}
	.st14{fill:#8E4B13;}
	.st15{fill:#FFFFFF;}
	.st16{display:inline;fill:#FFEBEB;}
	.st17{display:inline;fill:#FFE9E9;}
	.st18{display:inline;fill:#CB1140;}
	.st19{display:inline;fill:#F06E86;}
	
		.st20{display:inline;fill:none;stroke:#7E4D21;stroke-width:1.1952;stroke-linecap:round;stroke-linejoin:round;stroke-miterlimit:10;}
	
		.st21{display:inline;fill:none;stroke:#FFFFC6;stroke-width:1.1952;stroke-linecap:round;stroke-linejoin:round;stroke-miterlimit:10;}
	
		.st22{display:inline;fill:none;stroke:#7F3C00;stroke-width:2.3904;stroke-linecap:round;stroke-linejoin:round;stroke-miterlimit:10;}
	
		.st23{display:inline;fill:none;stroke:#703404;stroke-width:3.5856;stroke-linecap:round;stroke-linejoin:round;stroke-miterlimit:10;}
	
		.st24{display:inline;fill:none;stroke:#7F3C00;stroke-width:1.7988;stroke-linecap:round;stroke-linejoin:round;stroke-miterlimit:10;}
	.st25{display:inline;fill:#9E3E90;}
	.st26{display:inline;fill:#E961CF;}
	.st27{display:inline;fill:#EF8FE2;}
	.st28{display:inline;fill:#895CEA;}
	.st29{display:inline;fill:#C953C3;}
	.st30{display:inline;fill:#FFBED2;}
	
		.st31{display:inline;fill:none;stroke:#7F3C00;stroke-width:1.1952;stroke-linecap:round;stroke-linejoin:round;stroke-miterlimit:10;}
	.st32{display:inline;opacity:0.73;fill:#FFBED2;}
	.st33{display:inline;fill:#F688D2;}
	.st34{display:inline;fill:#FFFFFF;}
	.st35{display:inline;fill:#C659B6;}
	.st36{display:inline;fill:#5DCEE8;}
	.st37{display:inline;fill:#85E8F9;}
	.st38{display:inline;fill:#ED8EE8;}
	.st39{display:inline;fill:#C64FA5;}
	.st40{display:inline;fill:#84471E;}
	.st41{fill:#C45445;}
	.st42{fill:#FFA792;}
	.st43{fill:#FF876A;}
	.st44{fill:#D48277;}
	.st45{fill:#F1D05C;}
	.st46{fill:#E0634B;}
	.st47{fill:#F1D86A;}
	.st48{font-family:'FZPWJW--GB1-0';}
	.st49{font-size:36.4679px;}
	.st50{fill:none;stroke:#FFFFFF;stroke-width:2.3528;stroke-linecap:round;stroke-linejoin:round;stroke-miterlimit:10;}
	.st51{fill:#A05F3C;}
	.st52{fill:#F2B48B;}
	.st53{fill:#D69069;}
	.st54{fill:#87492D;}
	.st55{fill:#FFE6E3;}
	.st56{fill:#E2BDBA;}
	.st57{fill:#EAEAEA;}
	.st58{fill:#CCCCCC;}
	.st59{fill:#8E433F;}
	.st60{fill:#6D312B;}
	.st61{fill:#C9C9C9;}
	.st62{fill:#A0A0A0;}
	.st63{fill:#F2F2F2;}
	.st64{fill:#DDDDDD;}
	.st65{fill:#A05755;}
	.st66{fill:#8C7372;}
	.st67{fill:#EFEFEF;}
	.st68{fill:#F7E0DF;}
	.st69{fill:none;stroke:#FFFFFF;stroke-width:1.973;stroke-linecap:round;stroke-miterlimit:10;}
	.st70{fill:#EAD0D0;}
	.st71{fill:#441D1B;}
	.st72{fill:#562422;}
	.st73{fill:#4C3322;}
	.st74{fill:none;stroke:#4C3322;stroke-width:1.973;stroke-linecap:round;stroke-miterlimit:10;}
	.st75{fill:#F48B76;}
	.st76{fill:#F7B5AA;}
	.st77{fill:none;stroke:#4C3322;stroke-width:1.973;stroke-linecap:round;stroke-linejoin:round;stroke-miterlimit:10;}
</style>
<g class="st0">
	<polygon class="st1" points="459.71,307.74 459.3,418.81 515.45,364.29 517.89,278.85 	"/>
	<g class="st2">
		<path class="st3" d="M465.5,358.49c0,0,21.06,19.53,47.3,0s15.56,51.88,15.56,51.88l21.06,54.62l26.85,103.14V956.9H259.52h-65.91
			l53.1-115.35l-47.6-104.36l45.77-69.58l80.56-95.21C325.44,572.41,371.21,327.67,465.5,358.49z"/>
		<path class="st3" d="M785.55,956.91H402.89V568.13l7.49-28.83l19.37-74.3l21.05-54.62c0,0-6.95-46.58,4.19-54.23
			c2.64-1.81,6.32-1.4,11.37,2.35c8.48,6.29,16.38,8.51,23.24,8.64c14.42,0.32,24.07-8.64,24.07-8.64
			c3.59-1.17,7.08-1.97,10.51-2.35c87.16-10.26,129.55,216.27,129.55,216.27l80.56,95.2l45.76,69.57l-47.6,104.37L785.55,956.91z"/>
	</g>
	<g class="st2">
		<path class="st4" d="M555.09,663.16v293.75H265.97l40.1-87.16l-35.98-78.84l34.61-52.58l60.84-71.92c0,0,32.04-171.18,97.93-163.4
			c2.57,0.32,5.21,0.92,7.91,1.78c0,0,7.3,6.8,18.19,6.54c5.18-0.1,11.18-1.78,17.56-6.54c3.81-2.83,6.57-3.14,8.57-1.78
			c8.45,5.75,3.18,40.96,3.18,40.96l15.91,41.28L555.09,663.16z"/>
		<path class="st4" d="M713.22,956.91H424.11V663.16l20.29-77.92l15.91-41.28c0,0-1.62-10.86-1.62-21.5
			c0-8.51,1.05-16.89,4.79-19.46c1.97-1.37,4.76-1.05,8.57,1.78c4.06,3.05,7.97,4.83,11.62,5.72c2.06,0.54,4.03,0.79,5.91,0.83
			c1.94,0.03,3.75-0.13,5.43-0.48c7.81-1.46,12.76-6.07,12.76-6.07c2.7-0.89,5.37-1.46,7.94-1.78c21.18-2.48,38.83,13.5,53.06,36.33
			c30.1,48.23,44.84,127.08,44.84,127.08l60.87,71.92l34.58,52.58l-19.75,43.28l-16.23,35.56L713.22,956.91z"/>
	</g>
	<path class="st5" d="M742.53,956.91H656.1c-43.06-20.51-63.54-66.97-79.83-93.01c-2.51-4.03-4.92-7.56-7.3-10.45
		c-4.7-5.68-9.21-14.8-13.88-25.24c-17.08-38.42-35.82-94.43-70.37-59.89c-12.26,12.26-34.67,32.33-60.62,54.9
		c-6.86,5.94-13.97,12.1-21.21,18.32c-62.84,54.01-135.14,113.9-136.89,115.33c-0.03,0.03-0.03,0.03-0.03,0.03l-40.33-49.44
		l60.59-81.26l54.77-73.48l61.89-130.13l45.22-95.07l10.57-5.08l24.64-11.78l0.35-0.19l8.38-4l2.79,4.16l0.16,0.19l25.91,38.36
		l16.89,25.02l38.45,61.86l66.84,107.52l46.2,90.59l45.34,88.85C734.65,923.03,752.72,943.83,742.53,956.91z"/>
	<path class="st6" d="M301.6,893.71c0.02,0.01,0.04,0.02,0.04,0.02c-51.27,33.87-103.46,25.64-103.46,25.64
		c-69.57-11.44-103.81-41.66-105.93-102.45c-0.45-13.25,0.62-27.97,3.18-44.25c7.33-46.59,26.89-106.1,57.9-181.35
		c79.84-193.73,181.01-206.46,205.6-206.54c3.61-0.01,5.57,0.25,5.57,0.25l27.78,46.39c0,0-51.27,209.65-92.46,235.27
		c-2.01,1.26-3.99,2.53-5.94,3.85c-39.84,21.13-20.64,88.06-22.13,131.95c-0.66,19.15,11.57,24.79,18.31,42.73l2.33,4.54
		l15.21,29.63C318.66,875.12,319.57,882.07,301.6,893.71z"/>
	<path class="st7" d="M354.73,404.88c0,0-28.37-5.5-56.76,31.12c-28.37,36.62-33.87,23.81-58.59,64.09s-44.86,53.1-62.25,114.43
		c-17.4,61.34-64.09,97.96-75.07,143.73c-2,8.33-4.27,12.78-6.63,14.43c7.33-46.59,26.89-106.1,57.9-181.35
		c79.84-193.73,181.01-206.46,205.6-206.54C359.47,390.68,358.33,397.36,354.73,404.88z"/>
	<path class="st8" d="M228.42,731.68c0,0,9.13-8.22,29.27-78.71s-11.9-98.87,16.48-119.01s58.59-44.86,58.59-44.86l-21.97,130
		l-18.31,64.08L228.42,731.68z"/>
	<path class="st9" d="M409.25,198.29c-10.95,7.51-19.16,18.37-23.33,30.98c-2.45,7.39-5.86,16.49-10.44,26.39
		c-11.6,25.02-23.8,32.96-18.92,70.19s3.05,43.33-17.09,72.63s-26.24,32.96-23.8,72.02s1.83,41.5-9.76,61.64
		c-11.6,20.14-45.47,36.62-29.91,97.04c9.81,38.08,4.58,55.84-10.07,75.98c-14.65,20.14,101.62-11.9,101.62-11.9l73.24-90.63
		c0,0,0.92-33.87-8.24-50.35c-9.15-16.48,9.15-56.76,10.07-63.17s7.32-52.18-4.58-74.15c-11.9-21.97,6.41-45.77,7.32-57.67
		c0.92-11.9,4.17-25.53-10.07-46.28c-14.24-20.75,14.65-39.87,14.65-39.87l-23.19-37.43L409.25,198.29L409.25,198.29z"/>
	<path class="st10" d="M439.6,216.6c-10.95,7.51-19.16,18.37-23.33,30.98c-2.45,7.39-5.86,16.49-10.44,26.39
		c-11.6,25.02-23.8,32.96-18.92,70.19s3.05,43.33-17.09,72.63s-26.24,32.96-23.8,72.02s1.83,41.5-9.76,61.64
		c-11.6,20.14-38.14,58.59-29.91,97.04s4.58,55.84-10.07,75.98c-14.65,20.14,101.62-11.9,101.62-11.9l62.85-62.25
		c11.89-11.77,16.91-28.87,13.1-45.17c-2.88-12.34-6.71-25.92-10.96-33.57c-9.15-16.48,9.15-56.76,10.07-63.17
		c0.92-6.41,7.32-52.18-4.58-74.15c-11.9-21.97,6.41-45.77,7.32-57.67c0.92-11.9,4.17-25.53-10.07-46.28
		c-14.24-20.75,14.65-39.87,14.65-39.87l-23.19-37.43L439.6,216.6L439.6,216.6z"/>
	<path class="st11" d="M885.43,866.81c-2.89,5.25-6.3,10.09-10.23,14.52c-17.4,19.72-45.03,31.73-83.4,38.04
		c0,0-52.18,8.24-103.46-25.64c0,0,0.01-0.01,0.04-0.02c-17.96-11.64-17.06-18.6-5.99-14.32l5.33-10.39l12.21-23.78
		c6.74-17.94,18.97-23.58,18.31-42.73c-1.49-43.89,17.7-110.82-22.13-131.95c-1.95-1.31-3.93-2.59-5.94-3.85
		c-41.19-25.62-92.46-235.27-92.46-235.27l27.78-46.39c0,0,119.61-15.86,211.17,206.29c28.27,68.62,47.03,124.13,55.67,168.71v0.04
		C901.4,806.87,899.33,841.6,885.43,866.81z"/>
	<path class="st12" d="M625.49,385.04c0,0,35.93,6.11,46.91,43.64c10.99,37.53-6.41,55.84,20.14,82.39
		c26.55,26.55,64.08,60.42,47.6,103.45c-16.48,43.03-29.29,58.59-17.39,89.72c11.9,31.13-53.1-53.1-53.1-53.1L625.49,385.04z"/>
	<path class="st9" d="M569.65,198.29c8.03,0.18,15.03,5.5,17.39,13.18c3.57,11.63,9.42,29.18,16.38,44.19
		c11.6,25.02,23.8,32.96,18.92,70.19c-4.88,37.23-3.05,43.33,17.09,72.63c20.14,29.29,26.24,32.96,23.8,72.02s-1.83,41.5,9.76,61.64
		s47.32,50.66,29.91,97.04c-13.82,36.81-4.58,55.84,10.07,75.98c14.65,20.14-101.62-11.9-101.62-11.9l-78.41-79.75
		c0,0,4.26-44.76,13.41-61.23c9.15-16.48-9.15-56.76-10.07-63.17s-7.32-52.18,4.58-74.15c11.9-21.97-6.41-45.77-7.32-57.67
		c-0.92-11.9-4.17-25.53,10.07-46.28c14.24-20.75-14.65-39.87-14.65-39.87l23.19-37.43L569.65,198.29L569.65,198.29z"/>
	<path class="st10" d="M539.46,222.7c10.95,7.51,19.16,18.37,23.33,30.98c2.45,7.39,5.86,16.49,10.44,26.39
		c11.6,25.02,23.8,32.96,18.92,70.19c-4.88,37.23-3.05,43.33,17.09,72.63c20.14,29.29,26.24,32.96,23.8,72.02s-1.83,41.5,9.76,61.64
		c11.6,20.14,38.14,58.59,29.91,97.04s-4.58,55.84,10.07,75.98c14.65,20.14-101.62-11.9-101.62-11.9l-55.89-69.17
		c-14.13-17.48-19.21-40.79-12.9-62.37c1.02-3.48,2.26-6.7,3.79-9.45c9.15-16.48-9.15-56.76-10.07-63.17
		c-0.92-6.41-7.32-52.18,4.58-74.15c11.9-21.97-6.41-45.77-7.32-57.67c-0.92-11.9-4.17-25.53,10.07-46.28
		c14.24-20.75-14.65-39.87-14.65-39.87l23.19-37.43L539.46,222.7L539.46,222.7z"/>
	<g class="st2">
		<g>
			<path class="st13" d="M522.1,95.45c0,17.19-13.94,31.12-31.12,31.12c-13.35,0-24.74-8.4-29.15-20.22
				c-1.28-3.38-1.97-7.06-1.97-10.9c0-17.2,13.94-31.13,31.12-31.13c6.29,0,12.13,1.86,17.02,5.08
				C516.5,74.94,522.1,84.54,522.1,95.45z"/>
			<path class="st14" d="M508,69.4c-44.66-8.5-45.61,37.13-45.61,37.13c-0.19-0.05-0.38-0.11-0.56-0.18
				c-1.28-3.38-1.97-7.06-1.97-10.9c0-17.2,13.94-31.13,31.12-31.13C497.27,64.32,503.11,66.18,508,69.4z"/>
		</g>
		
			<ellipse transform="matrix(0.9425 -0.3341 0.3341 0.9425 3.6547 165.1526)" class="st15" cx="481.91" cy="71.95" rx="4.96" ry="3.05"/>
		
			<ellipse transform="matrix(0.9425 -0.3341 0.3341 0.9425 1.5898 163.0889)" class="st15" cx="474.87" cy="76.92" rx="1.92" ry="1.61"/>
	</g>
	<path class="st10" d="M581.77,189.75c0,55.61-34.7,97.24-92.57,97.24c-57.86,0-89.01-38.88-89.01-94.5
		c0-18.78,5.04-35.39,13.45-49.13c16.43-26.96,45.74-42.93,75.06-42.72c22.54,0.17,48.29,10.18,66.98,28.34
		C571.14,143.98,581.77,164.56,581.77,189.75z"/>
	<path class="st16" d="M421.33,225.45c0,0-21.72,2.34-15.61,23.9c6.1,21.56,21.87,18.82,21.87,18.82L421.33,225.45z"/>
	<path class="st16" d="M547.36,225.45c0,0,23.27,1.02,18.58,22.94s-19.95,19.94-19.95,19.94L547.36,225.45z"/>
	<path class="st17" d="M552.37,233.18c0,49.74-30.92,97.04-65.42,97.04c-27.6,0-68.64-47.91-68.64-97.65s24.22-72.12,66.93-72.12
		S552.37,183.43,552.37,233.18z"/>
	<path class="st9" d="M502.21,225.84c-1.12-0.17-1.53-1.58-0.68-2.33c1.88-1.67,5.11-3.3,13.33-4.03c12.9-1.15,29.09,0.71,35.6,5.8
		c0,0-16.87-3.53-40.27-0.19C510.19,225.08,505.61,226.35,502.21,225.84z"/>
	<path class="st9" d="M471.6,225.84c1.12-0.17,1.53-1.58,0.68-2.33c-1.88-1.67-5.11-3.3-13.33-4.03c-12.9-1.15-29.09,0.71-35.6,5.8
		c0,0,16.87-3.53,40.27-0.19C463.62,225.08,468.2,226.35,471.6,225.84z"/>
	<circle class="st18" cx="486.18" cy="220.54" r="3.13"/>
	<path class="st19" d="M467.58,288.82c0,0,8.2-3.92,13.64-3.48c4.92,0.4,4.07,2.59,9.36,0.44c5.4-2.19,11.44,1.01,17.99,3.6
		C508.57,289.37,487.07,313.3,467.58,288.82z"/>
	<path class="st20" d="M467.98,288.86c0,0,8.2,0.08,13.39,2.52c3.61,1.7,10.22,0.91,11.9-0.61c2.44-2.21,6.79-3.62,14.88-1.49"/>
	<line class="st21" x1="421.03" y1="263.26" x2="421.03" y2="321.72"/>
	<path class="st9" d="M468.86,158.92c0,0-43.8-12.87-54.11,33.36c0,0-3.05,19.63,4.75,40.13c4.7,12.36-4.04,36.99-10.36,43.18
		c0,0,22.96-16.51,22.52-46.71C431.21,198.68,441.6,166.81,468.86,158.92z"/>
	<line class="st21" x1="551.97" y1="263.26" x2="551.97" y2="321.72"/>
	<path class="st9" d="M500.29,157.09c0,0,45.9-11.04,56.22,35.19c0,0,3.05,19.63-4.75,40.13c-4.7,12.36,4.04,36.99,10.36,43.18
		c0,0-22.96-16.51-22.52-46.71C540.04,198.68,527.55,164.98,500.29,157.09z"/>
	<path class="st22" d="M502.89,242.44c0,0,13.38,6.17,27.44-1.12"/>
	<path class="st22" d="M469.33,242.44c0,0-13.38,6.17-27.44-1.12"/>
	<path class="st23" d="M477.86,158.77c0,0-36.96-3.92-36.1,45.89c0.55,32.39-13.18,43.37-13.18,43.37"/>
	<path class="st23" d="M493.73,156.33c0,0,40.89,11.6,36.09,60.88c-4.45,45.68,17.16,44.76,17.16,44.76"/>
	<path class="st24" d="M486.25,244.54c0,0-5.18,16.48-4.31,23.16s5.18,6.14,5.18,6.14"/>
	<path class="st1" d="M459.61,546.51c1.41,2.61,20.34,62.52,20.34,62.52s21.91-22.79,13.08-68.75"/>
	<path class="st10" d="M521.8,316.31c0,0-15.27,1.32-14.36,28.18c0.92,26.85,12.21,18.61,10.68,36.01
		c-1.53,17.39-30.52,28.99-10.07,60.12c20.45,31.13,26.85-18,26.85-18L521.8,316.31z"/>
	<path class="st10" d="M454.47,316.08c0,0,15.61,1.4,14.7,28.25c-0.92,26.85-12.21,18.61-10.68,36.01
		c1.53,17.39,30.52,28.99,10.07,60.12c-20.45,31.13-26.85-18-26.85-18L454.47,316.08z"/>
	<path class="st25" d="M394.61,606.79c0,0,59.2,28.89,82.6,56.96l-14.24,16.89l-71.81-68.15
		C391.15,612.48,390.54,609.23,394.61,606.79z"/>
	<path class="st25" d="M595.7,606.79c0,0-59.2,28.89-82.6,56.96l14.24,16.89l71.81-68.15C599.15,612.48,599.76,609.23,595.7,606.79z
		"/>
	<path class="st17" d="M384.79,627.28l44.49-49.08c0,0,3.91-8.96,4.53-18.12c0.62-9.16,1.44-17.32,1.44-17.32s-8.65-2.39-4.74-14.14
		l3.91-3.38c0,0-5.15-4.58,0.21-19.71c0,0-6.39,1.39-3.91-5.77c2.47-7.17,10.76-22.85,16.48-26.73c0,0,8.96-17.92,14.06-21.65
		c0,0,2.01-83.93,13.75-88.71c11.74-4.78,10.81,13.14,10.81,13.14s11.43-7.17,15.14,16.43s5.56,36.34,5.56,36.34
		s1.44,8.36,4.12,11.35c2.68,2.99,19.36,15.18,29.25,49.98c0,0,8.19,17.77,1.85,32.85c0,0-1.62,6.42,0.7,11.13
		s11.35,28.3,20.31,38.16c8.96,9.86,38.31,46.89,38.31,46.89s0,21.6-37.08,44.7l-5.15,3.38c0,0-16.48-29.27-25.54-40.22
		c-9.06-10.95-16.48-4.38-23.48-19.51c-7-15.13-12.56-31.66-12.56-46.89c0,0-8.65-9.26-9.27-12.84c0,0-6.18-0.2-10.3-0.2
		c0,0,9.68,19.02,6.9,49.63c0,0,0.1,10.9-15.96,24.84l-31.72,44.2L384.79,627.28z"/>
	<path class="st26" d="M479.23,670.66c0,0-7.14,46.36-36.49,82.38c-1.6,1.97-3.26,3.91-5.01,5.81l-90.63-11.59l-10.98-53.4
		l-5.8-30.82l11.8-9.05l2.84-10.18l49.64-37.01c0,0,21.27,34.84,62.77,51.12c5.98,2.34,12.37,4.3,19.18,5.71
		c0.22,0.05,0.43,0.08,0.65,0.13L479.23,670.66z"/>
	<path class="st27" d="M369.68,662.43c0,0,22.28-24.72,29.6-24.41c7.32,0.31-26.85,22.28-20.75,31.74
		c6.1,9.46,12.51-6.71,19.84-9.15c7.32-2.44,3.97,2.75-2.14,15.26c-6.1,12.51,17.09-9.15,24.72-13.43
		c7.63-4.27,1.93,7.63-7.63,18.31s-15.77,25.33-4.68,17.09c11.09-8.24,12.51-27.57,13.94-19.63c1.42,7.93-3.87,16.17-5.19,18.31
		c-1.32,2.14-6.61,17.29,8.04,6c14.65-11.29,25.84-43.23,25.33-29.6c-0.51,13.63-9.97,44.15-14.55,48.42
		c-4.58,4.27-19.53,23.19-19.53,23.19l-61.03-1.83l14.04-34.79l-29.29-15.26l10.99-27.46c0,0,11.14-14.04,16.33-17.39L369.68,662.43
		z"/>
	<path class="st27" d="M357.58,640.76c-9.76,7.94-15.47,13.23-15.47,13.23l2.84-10.18"/>
	<path class="st8" d="M301.6,893.71c0.02,0.01,0.04,0.02,0.04,0.02c-51.27,33.87-103.46,25.64-103.46,25.64
		c-69.57-11.44-103.81-41.66-105.93-102.45c6.85,29.78,39.14,73.91,178.25,38.05c7.85-2.02,15.13-3.75,21.87-5.21l15.21,29.63
		C318.66,875.12,319.57,882.07,301.6,893.71z"/>
	<path class="st28" d="M453.61,736.28c0,0-67.82,106.78-152,157.43c-1.65-0.81-55.77-28.17-53.07-75.05
		c2.75-47.58-7.31-95.15-20.12-86.99c0.87-1.15,27.94-36.02,65.45-61.13c14.31-7.6,30.86-14.02,49.88-18.19
		c0,0,10.98,16.48,21.97,20.76l-9.16,15.86l9.47-10.67l3.36-0.31c0,0,10.06,16.78,28.98,27.47c0,0,2.14,9.76-17.68,31.11
		c0.66-0.41,21.67-13.61,22.86-26.23c0,0,16.18,11.9,35.1,18.92c0,0,0.61,3.06-0.92,4.58c0,0,2.14,0.31,2.75-1.52
		c0,0,0.27,5.7-3.84,10.49c1.53-1.71,6.51-7.41,7.8-10.49C444.45,732.31,448.11,735.97,453.61,736.28z"/>
	<path class="st26" d="M647.86,653.99l-2.85-10.17l-49.64-37.03c0,0-28.07,45.98-82.6,56.96l-2.03,6.92c0,0,7.93,51.57,41.5,88.19
		l90.63-11.6l10.99-53.4l5.8-30.82L647.86,653.99z"/>
	<path class="st27" d="M619.76,662.43c0,0-22.28-24.72-29.6-24.41c-7.32,0.31,26.85,22.28,20.75,31.74
		c-6.1,9.46-12.51-6.71-19.84-9.15c-7.32-2.44-3.97,2.75,2.14,15.26c6.1,12.51-17.09-9.15-24.72-13.43
		c-7.63-4.27-1.93,7.63,7.63,18.31s15.77,25.33,4.68,17.09c-11.09-8.24-12.51-27.57-13.94-19.63c-1.42,7.93,3.87,16.17,5.19,18.31
		c1.32,2.14,6.61,17.29-8.04,6c-14.65-11.29-25.84-43.23-25.33-29.6c0.51,13.63,9.97,44.15,14.55,48.42s19.53,23.19,19.53,23.19
		l61.03-1.83l-14.04-34.79l29.29-15.26l-10.99-27.46c0,0-11.14-14.04-16.33-17.39L619.76,662.43z"/>
	<path class="st29" d="M885.43,866.81c-2.89,5.25-6.3,10.09-10.23,14.52c-17.4,19.72-45.03,31.73-83.4,38.04
		c0,0-52.18,8.24-103.46-25.64c0,0,0.01-0.01,0.04-0.02c-17.96-11.64-17.06-18.6-5.99-14.32l5.33-10.39l34.11-24.7
		c0,0,170.49,73.83,170.49-84.23C901.4,806.87,899.33,841.6,885.43,866.81z"/>
	<path class="st28" d="M761.56,731.68c-12.8-8.16-22.86,39.41-20.12,86.99c1.15,19.91-7.95,36.3-18.93,48.62
		c-4.18,4.7-8.63,8.81-12.9,12.29c-10.9,8.93-20.56,13.8-21.24,14.14c-84.19-50.65-152-157.43-152-157.43
		c5.5-0.31,9.16-3.97,9.16-3.97c1.29,3.08,6.27,8.78,7.8,10.49c-4.11-4.79-3.84-10.49-3.84-10.49c0.61,1.83,2.75,1.52,2.75,1.52
		c-1.53-1.52-0.92-4.58-0.92-4.58c1.96-0.73,3.88-1.51,5.76-2.32c5.15-2.21,9.97-4.69,14.15-7.03c9.1-5.08,15.19-9.57,15.19-9.57
		c1.2,12.62,22.21,25.83,22.86,26.23c-19.82-21.35-17.68-31.11-17.68-31.11c18.92-10.68,28.98-27.47,28.98-27.47l3.36,0.31
		l9.47,10.67l-9.16-15.86c10.98-4.28,21.97-20.76,21.97-20.76c19.02,4.17,35.57,10.59,49.88,18.19
		C733.62,695.65,760.69,730.53,761.56,731.68z"/>
	<ellipse class="st30" cx="449.18" cy="264.88" rx="14.19" ry="6.41"/>
	<ellipse class="st30" cx="520.89" cy="265.47" rx="14.19" ry="6.41"/>
	<path class="st31" d="M554.61,240.6c0,0-2.24-0.31-4.78,4.68c0,0,5.19-0.41,5.9,3.56"/>
	<path class="st31" d="M417,240.6c0,0,2.24-0.31,4.78,4.68c0,0-5.19-0.41-5.9,3.56"/>
	<circle class="st32" cx="551.88" cy="276.69" r="3.61"/>
	<circle class="st33" cx="552.08" cy="321.11" r="7.78"/>
	<circle class="st32" cx="551.68" cy="297.06" r="10.74"/>
	<g class="st2">
		
			<ellipse transform="matrix(0.4493 -0.8934 0.8934 0.4493 37.1746 649.4656)" class="st15" cx="545.42" cy="294.58" rx="2.29" ry="2.05"/>
		<ellipse transform="matrix(0.866 -0.5 0.5 0.866 -71.9128 313.1708)" class="st15" cx="548.43" cy="290.78" rx="1.02" ry="0.85"/>
		
			<ellipse transform="matrix(0.8308 -0.5566 0.5566 0.8308 -59.9737 352.4703)" class="st15" cx="549.74" cy="274.88" rx="0.63" ry="0.53"/>
		
			<ellipse transform="matrix(0.5291 -0.8486 0.8486 0.5291 24.2797 595.8619)" class="st15" cx="549" cy="276.06" rx="0.26" ry="0.22"/>
		<g>
			<path class="st15" d="M560.13,298.3c0.11,0.99-0.11,2.01-0.52,2.94c-0.41,0.93-1.04,1.79-1.83,2.46c-0.8,0.64-1.7,1.19-2.69,1.44
				c-0.47,0.18-0.99,0.2-1.48,0.28c-0.5,0.03-1,0.01-1.49-0.04c0.46-0.22,0.92-0.35,1.36-0.54c0.43-0.21,0.88-0.34,1.27-0.58
				c0.2-0.11,0.4-0.22,0.61-0.31l0.57-0.37c0.39-0.23,0.73-0.51,1.07-0.8c0.69-0.56,1.27-1.26,1.79-2
				C559.3,300.04,559.74,299.21,560.13,298.3z"/>
		</g>
		<g>
			<path class="st15" d="M554.33,277.47c0.04,0.54-0.23,1.08-0.64,1.44c-0.22,0.17-0.46,0.32-0.72,0.39
				c-0.26,0.08-0.53,0.09-0.79,0.08c0.5-0.18,0.96-0.36,1.32-0.69c0.19-0.15,0.34-0.34,0.48-0.54
				C554.11,277.95,554.24,277.72,554.33,277.47z"/>
		</g>
	</g>
	<circle class="st32" cx="421.13" cy="276.69" r="3.61"/>
	<path class="st33" d="M422.68,328.69c-4.18,0.97-8.37-1.64-9.33-5.83c-0.12-0.51-0.18-1.02-0.19-1.53
		c-0.11-3.63,2.35-6.96,6.02-7.8c3.17-0.73,6.33,0.59,8.09,3.07c0.59,0.8,1,1.73,1.24,2.76
		C429.48,323.55,426.87,327.72,422.68,328.69z"/>
	<circle class="st32" cx="421.33" cy="297.06" r="10.74"/>
	
		<ellipse transform="matrix(0.4493 -0.8934 0.8934 0.4493 -34.6491 532.9414)" class="st34" cx="414.99" cy="294.58" rx="2.29" ry="2.05"/>
	<ellipse transform="matrix(0.866 -0.5 0.5 0.866 -89.3877 247.9538)" class="st34" cx="417.99" cy="290.78" rx="1.02" ry="0.85"/>
	
		<ellipse transform="matrix(0.8308 -0.5566 0.5566 0.8308 -82.0424 279.8755)" class="st34" cx="419.3" cy="274.88" rx="0.63" ry="0.53"/>
	
		<ellipse transform="matrix(0.5291 -0.8486 0.8486 0.5291 -37.1431 485.1799)" class="st34" cx="418.57" cy="276.06" rx="0.26" ry="0.22"/>
	<g class="st2">
		<path class="st15" d="M429.69,298.3c0.11,0.99-0.11,2.01-0.52,2.94c-0.41,0.93-1.04,1.79-1.83,2.46c-0.8,0.64-1.7,1.19-2.69,1.44
			c-0.47,0.18-0.99,0.2-1.48,0.28c-0.5,0.03-1,0.01-1.49-0.04c0.46-0.22,0.92-0.35,1.36-0.54c0.43-0.21,0.88-0.34,1.27-0.58
			c0.2-0.11,0.4-0.22,0.61-0.31l0.57-0.37c0.39-0.23,0.73-0.51,1.07-0.8c0.69-0.56,1.27-1.26,1.79-2
			C428.87,300.04,429.31,299.21,429.69,298.3z"/>
	</g>
	<g class="st2">
		<path class="st15" d="M423.89,277.47c0.04,0.54-0.23,1.08-0.64,1.44c-0.22,0.17-0.46,0.32-0.72,0.39
			c-0.26,0.08-0.53,0.09-0.79,0.08c0.5-0.18,0.96-0.36,1.32-0.69c0.19-0.15,0.34-0.34,0.48-0.54
			C423.68,277.95,423.8,277.72,423.89,277.47z"/>
	</g>
	<path class="st35" d="M442.74,753.05c11-19.06,24.96-67.36,23.88-78.31c-1.22-12.42-14.86-14.25-14.86-14.25s2.26-1.28,5.61-2.58
		c5.98,2.34,12.37,4.3,19.18,5.71c0.22,0.05,0.43,0.08,0.65,0.13l2.03,6.91C479.23,670.66,472.1,717.02,442.74,753.05z"/>
	<path class="st27" d="M344.96,643.81l49.64-37.01c0,0,27.85,45.6,81.95,56.83c-41.37,3.23-81.23-42.26-85.61-45.44
		c-4.47-3.26-23.59,14.64-33.36,22.58"/>
	<path class="st35" d="M546.7,753.05c-11-19.06-24.96-67.36-23.88-78.31c1.22-12.42,14.86-14.25,14.86-14.25s-2.26-1.28-5.61-2.58
		c-5.98,2.34-12.37,4.3-19.18,5.71c-0.22,0.05-0.43,0.08-0.65,0.13l-2.03,6.91C510.21,670.66,517.35,717.02,546.7,753.05z"/>
	<path class="st27" d="M644.48,643.81l-49.64-37.01c0,0-27.85,45.6-81.95,56.83c41.37,3.23,81.23-42.26,85.61-45.44
		c4.47-3.26,23.59,14.64,33.36,22.58"/>
	<path class="st36" d="M722.51,867.28c-4.18,4.7-8.63,8.81-12.9,12.29c-62.87-20.76-130.51-118.59-152.53-152.64
		c5.15-2.21,9.97-4.69,14.15-7.03C611.8,796.66,694.63,850.66,722.51,867.28z"/>
	<path class="st36" d="M885.43,866.81c-2.89,5.25-6.3,10.09-10.23,14.52c-29.03,9.75-94.06,25-165.58-1.76l12.9-12.29
		C722.51,867.28,788.3,899.71,885.43,866.81z"/>
	<path class="st37" d="M267.94,867.28c4.18,4.7,8.63,8.81,12.9,12.29c62.87-20.76,130.51-118.59,152.53-152.64
		c-5.15-2.21-9.97-4.69-14.15-7.03C378.65,796.66,295.82,850.66,267.94,867.28z"/>
	<path class="st37" d="M105.02,866.81c2.89,5.25,6.3,10.09,10.23,14.52c29.03,9.75,94.06,25,165.58-1.76l-12.9-12.29
		C267.94,867.28,202.15,899.71,105.02,866.81z"/>
	<path class="st38" d="M530.51,898.93c-3.05,26.7-8.51,46.74-12.13,57.98H360.5c0.54-7.37,3.62-16.48,11.3-27.47
		c0,0,28.45-38.07,52.3-60.93c17.78-17.05,32.99-25.66,31.94-3.78c-2.45,51.28,30.51,51.28,40.26,32.96
		C506.09,879.41,535.37,856.19,530.51,898.93z"/>
	<path class="st39" d="M422.68,328.69c-4.18,0.97-8.37-1.64-9.33-5.83c-0.12-0.51-0.18-1.02-0.19-1.53
		c0.75,1.43,2.16,2.83,4.74,2.83c5.34,0,3.06-2.89,5.8-2.89c2,0,3.75-2.41,3.57-4.67c0.59,0.8,1,1.73,1.24,2.76
		C429.48,323.55,426.87,327.72,422.68,328.69z"/>
	<path class="st39" d="M553.84,328.73c-4.18,0.97-8.37-1.64-9.33-5.83c-0.12-0.51-0.18-1.02-0.19-1.53
		c0.75,1.43,2.16,2.83,4.74,2.83c5.34,0,3.06-2.89,5.8-2.89c2,0,3.75-2.41,3.57-4.67c0.59,0.8,1,1.73,1.24,2.76
		C560.64,323.59,558.03,327.76,553.84,328.73z"/>
	<path class="st40" d="M555.68,128.97c-24.42-11.52-47.26-13.92-58.13-9.42c-12.51,5.19-28.98,14.65-41.5,9.47
		c-12.51-5.19-26.86,7.63-30.82,18.31c-3.97,10.67-11.59,14.03-13.42,6.41c-0.63-2.65,0.32-6.5,1.84-10.39
		c16.43-26.96,45.74-42.93,75.06-42.72C511.24,100.8,536.98,110.82,555.68,128.97z"/>
</g>
<g class="st0">
	<g class="st2">
		<g>
			<path class="st41" d="M214.44,680.02c0,0,4.02,11.4-6.48,21.23c0,0-5.14,5.36-6.26,13.85s-16.09,15.64-33.97,14.08
				c-17.88-1.56-0.22-59.44-0.22-59.44L214.44,680.02z"/>
		</g>
		<polygon class="st42" points="131.29,648.71 131.29,931.65 170.34,931.65 170.34,646.31 		"/>
		<g>
			<polygon class="st43" points="119.73,666.39 119.73,682 299.69,682 299.69,656.17 			"/>
		</g>
		<polygon class="st44" points="95.2,651.72 119.68,666.94 280.67,666.94 282.67,642.51 97.65,648.11 		"/>
		<polygon class="st42" points="95.2,636.1 95.2,651.72 275.16,651.72 275.16,625.89 		"/>
		<g>
			<polygon class="st41" points="88.59,630.5 95.2,636.1 283.22,636.1 282.62,623.78 90.09,623.78 			"/>
		</g>
		<g>
			<polygon class="st43" points="140.9,565.22 282.07,565.22 279.06,631.29 89.24,631.29 			"/>
		</g>
		<g>
			<path class="st45" d="M280.87,551.6H163.13c0,0-12.01-0.9-7.51-11.41c4.51-10.51,15.32-20.42-4.2-22.53
				c-19.52-2.1-19.22,27.03-12.01,29.43l-42.65,52.86c0,0-7.21,10.21-17.42,10.81s-22.23,11.41-11.41,18.32s19.52,4.51,19.52,4.51
				l52.86-65.35c1.14-1.41,2.85-2.23,4.67-2.23h138.3V550.1L280.87,551.6z"/>
		</g>
		<g>
			<path class="st41" d="M410.02,656.52c0,0,7.21,20.42-11.61,38.04c0,0-9.21,9.61-11.21,24.83s-28.83,28.03-60.87,25.23
				c-32.04-2.8-0.4-106.53-0.4-106.53L410.02,656.52z"/>
		</g>
		<polygon class="st42" points="329.22,665.23 521.75,665.23 518.75,615.68 327.72,615.68 		"/>
		<g>
			<polygon class="st46" points="328.72,634.9 518.95,634.9 518.95,507.15 319.91,512.35 			"/>
		</g>
		<polygon class="st42" points="275.28,474.81 275.28,960.78 332.77,960.78 332.77,470.68 		"/>
		<g>
			<polygon class="st43" points="258.25,500.24 258.25,523.24 526.4,523.24 526.4,485.21 			"/>
		</g>
		<polygon class="st44" points="222.13,478.64 258.18,501.05 526.96,501.05 529.9,465.08 225.74,473.34 		"/>
		<polygon class="st42" points="222.13,455.65 222.13,478.64 528.96,478.64 528.96,440.61 		"/>
		<g>
			<polygon class="st41" points="212.4,447.4 222.13,455.65 526.24,455.65 525.35,437.51 214.61,437.51 			"/>
		</g>
		<g>
			<polygon class="st43" points="289.43,351.27 528.17,351.27 523.75,448.57 213.36,448.57 			"/>
		</g>
		<g>
			<path class="st47" d="M526.02,331.22H322.16c0,0-17.69-1.33-11.06-16.81c6.63-15.48,22.56-30.07-6.19-33.17
				c-28.75-3.1-28.31,39.81-17.69,43.34l-62.8,77.84c0,0-10.61,15.04-25.65,15.92s-32.73,16.81-16.81,26.98
				c15.92,10.17,28.75,6.63,28.75,6.63l77.84-96.23c1.68-2.07,4.2-3.28,6.87-3.28h234.14l2.1-18.5L526.02,331.22z"/>
		</g>
		<g>
			<path class="st41" d="M809.53,680.02c0,0-4.02,11.4,6.48,21.23c0,0,5.14,5.36,6.26,13.85s16.09,15.64,33.97,14.08
				c17.88-1.56,0.22-59.44,0.22-59.44L809.53,680.02z"/>
		</g>
		<polygon class="st42" points="892.69,648.71 892.69,931.65 853.64,931.65 853.64,646.31 		"/>
		<g>
			<polygon class="st43" points="904.25,666.39 904.25,682 724.29,682 724.29,656.17 			"/>
		</g>
		<polygon class="st44" points="928.78,651.72 904.3,666.94 743.31,666.94 741.31,642.51 926.33,648.11 		"/>
		<polygon class="st42" points="928.78,636.1 928.78,651.72 748.82,651.72 748.82,625.89 		"/>
		<g>
			<polygon class="st41" points="935.39,630.5 928.78,636.1 740.76,636.1 741.36,623.78 933.89,623.78 			"/>
		</g>
		<g>
			<polygon class="st43" points="883.08,565.22 741.91,565.22 744.92,631.29 934.74,631.29 			"/>
		</g>
		<g>
			<path class="st45" d="M743.11,551.6h117.74c0,0,12.01-0.9,7.51-11.41s-15.32-20.42,4.2-22.53c19.52-2.1,19.22,27.03,12.01,29.43
				l42.65,52.86c0,0,7.21,10.21,17.42,10.81s22.23,11.41,11.41,18.32c-10.81,6.91-19.52,4.51-19.52,4.51l-52.86-65.35
				c-1.14-1.41-2.85-2.23-4.67-2.23h-138.3V550.1L743.11,551.6z"/>
		</g>
		<g>
			<path class="st41" d="M613.96,656.52c0,0-7.21,20.42,11.61,38.04c0,0,9.21,9.61,11.21,24.83c2,15.22,28.83,28.03,60.87,25.23
				c32.04-2.8,0.4-106.53,0.4-106.53L613.96,656.52z"/>
		</g>
		<polygon class="st42" points="694.76,665.23 502.23,665.23 507.43,616.88 696.26,615.68 		"/>
		<g>
			<polygon class="st46" points="695.26,634.9 505.03,634.9 505.03,507.15 704.07,512.35 			"/>
		</g>
		<polygon class="st42" points="748.7,474.81 748.7,960.78 691.2,960.78 691.2,470.68 		"/>
		<g>
			<polygon class="st43" points="765.73,500.24 765.73,523.24 504.48,523.24 504.48,485.21 			"/>
		</g>
		<polygon class="st44" points="801.85,478.64 766.62,501.05 503.91,501.05 504.33,465.65 798.32,473.34 		"/>
		<polygon class="st42" points="801.85,455.65 801.85,478.64 503.13,478.64 503.13,440.61 		"/>
		<g>
			<polygon class="st41" points="811.58,447.4 801.98,455.65 501.93,455.65 502.8,437.51 809.39,437.51 			"/>
		</g>
		<g>
			<polygon class="st43" points="734.55,351.27 495.81,351.27 500.23,448.57 810.62,448.57 			"/>
		</g>
		<g>
			<path class="st47" d="M497.96,331.22h203.86c0,0,17.69-1.33,11.06-16.81c-6.63-15.48-22.56-30.07,6.19-33.17
				s28.31,39.81,17.69,43.34l62.8,77.84c0,0,10.61,15.04,25.65,15.92s32.73,16.81,16.81,26.98c-15.92,10.17-28.75,6.63-28.75,6.63
				l-77.84-96.23c-1.68-2.07-4.2-3.28-6.87-3.28H494.42l-1.71-18.6L497.96,331.22z"/>
		</g>
		
			<rect x="466.58" y="466.33" transform="matrix(-1.836970e-16 1 -1 -1.836970e-16 1088.4464 74.0839)" class="st42" width="81.2" height="229.87"/>
		<g>
			<rect x="404.01" y="552.43" class="st41" width="206.34" height="57.67"/>
		</g>
	</g>
	<text transform="matrix(1 0 0 1 435.7456 595.751)" class="st34 st48 st49">逢考必过</text>
	<g class="st2">
		<line class="st50" x1="322.61" y1="360.8" x2="275.06" y2="443.15"/>
		<line class="st50" x1="512.74" y1="361.85" x2="512.74" y2="439.74"/>
		<line class="st50" x1="464.76" y1="362" x2="451.95" y2="443.1"/>
		<line class="st50" x1="417.33" y1="361.03" x2="394.28" y2="443.89"/>
		<line class="st50" x1="368.95" y1="360.35" x2="338.46" y2="443.35"/>
		<line class="st50" x1="699.71" y1="360.8" x2="747.27" y2="443.15"/>
		<line class="st50" x1="557.57" y1="362" x2="570.38" y2="443.1"/>
		<line class="st50" x1="605" y1="361.03" x2="628.05" y2="443.89"/>
		<line class="st50" x1="653.93" y1="360.35" x2="686.34" y2="443.35"/>
		<g>
			<line class="st50" x1="163.88" y1="575.98" x2="134.44" y2="625.99"/>
			<line class="st50" x1="196.17" y1="576.28" x2="176.54" y2="625.94"/>
			<line class="st50" x1="228.2" y1="576.28" x2="216.89" y2="625.54"/>
			<line class="st50" x1="258.34" y1="576.73" x2="254.28" y2="625.84"/>
		</g>
		<line class="st50" x1="859.84" y1="575.98" x2="889.28" y2="625.99"/>
		<line class="st50" x1="827.56" y1="576.28" x2="847.18" y2="625.94"/>
		<line class="st50" x1="795.52" y1="576.28" x2="806.83" y2="625.54"/>
		<line class="st50" x1="765.38" y1="576.73" x2="769.44" y2="625.84"/>
	</g>
</g>
<g>
	<g>
		<path class="st51" d="M558.52,859.54c-3.31,5.27-8.52,10.38-15.29,15.19c-67.4,47.94-288.99,67.32-322.57-60.87
			c-0.28-1.05-0.53-2.09-0.79-3.12c-34.98-138.74,43.11-192.33,43.11-192.33l72.55,71.19l171.93,43.66
			C507.46,733.27,594.78,801.78,558.52,859.54z"/>
		<path class="st52" d="M294.55,590.21c0,0-98.73,66.49-74.55,141.05s169.26,108.81,282.1,54.4S330.82,564.01,294.55,590.21z"/>
		<path class="st53" d="M308.65,637.84c0,0-34.25,18.13-32.24,52.39c2.01,34.25,6.04,19.14,15.11,46.34
			c9.07,27.2-5.04,42.31,32.24,43.32c37.28,1.01,32.24,35.26,77.58,26.19s112.84-1.01,96.72-47.35S308.65,637.84,308.65,637.84z"/>
		<path class="st54" d="M498.74,789.31l44.49,85.43c-67.4,47.94-288.99,67.32-322.57-60.87c-0.28-1.05-0.53-2.09-0.79-3.12
			c16.77,35.83,52.26,49.6,72.67,47.06c21.49-2.68,39.62-5.37,57.08,0.67c17.48,6.06,59.78,12.09,79.26-20.14
			C448.36,806.1,498.74,789.31,498.74,789.31z"/>
	</g>
	<g>
		<g>
			<path class="st55" d="M629.71,504.9c0,0,28.88,23.51,94.7,41.64c0,0,38.28,12.09,52.39,16.12c14.1,4.03,42.99,4.03,38.96,25.52
				c-4.03,21.49-7.39,38.96-47.02,28.88c-39.63-10.07-163.89-55.75-173.29-69.85C586.05,533.11,629.71,504.9,629.71,504.9z"/>
			<path class="st56" d="M612.41,478.16c0,0,3.02,9.57-6.04,27.71c-9.07,18.13-1.51,27.71,13.6,35.26
				c15.11,7.56,50.88,8.06,70.02,24.18c19.14,16.12,52.89,8.56,55.41,14.1c2.52,5.54-27.71,12.59-27.71,12.59l-51.89-13.1
				l-88.66-26.7l-15.62-21.16C561.53,531.05,548.44,505.86,612.41,478.16z"/>
			<path class="st57" d="M633.73,504.9l-21.72,31.47l-15.05,21.8l-2.17,3.16l-8.48-6.35L570.36,543l-18.57-13.91
				c0,0,14.78-42.32,57.77-51.04l0.89,0.99l2.43,2.7L633.73,504.9z"/>
			<path class="st58" d="M612.01,536.37l-15.05,21.8l-10.65-3.2l-9.15-2.76l-6.79-9.21l-8.82-11.94c0,0-12.82-24.66,48.91-52.03
				c0.65-0.3,1.3-0.57,1.97-0.87c0,0,0.37,1.2,0.45,3.57c0.16,4.3-0.65,12.43-6.51,24.13C599.08,520.42,602.54,529.46,612.01,536.37
				z"/>
			<path class="st59" d="M304.62,673.49c0,0-4.03,55.75,21.49,72.54s69.85,31.57,173.96,29.55c0,0,18.13,2.02,38.96-7.39
				c20.82-9.4-54.4-86.64-54.4-86.64l-18.13-22.16L304.62,673.49z"/>
			<path class="st60" d="M453.66,703.22c-3.56-15.83,1.07-32.68,13.04-43.63c3.34-3.05,7.01-5.4,10.87-6.24
				c15.45-3.36,54.74,0,54.74,0L689.49,697l108.81,197.47l-88.66,52.39c0,0-175.3-8.06-191.42-78.58
				c-16.12-70.52-3.69-72.54-26.53-76.57C475.08,788.77,460.42,733.28,453.66,703.22z"/>
			<path class="st59" d="M827.75,867.75c-20.91,17.86-70.22,74.42-82.87,89.06c-1.8,2.07-4.74,2.74-7.26,1.66l-64.26-27.74
				c-77.89-35.4-101.81-64.24-107.67-87.92c-8.07-32.48,17.76-55.22-15.25-71.94c-57.08-28.88-37.61-112.84-37.61-112.84
				c24.84-38.28,208.37-46.68,208.37-46.68s-40.8,32.75,4.54,58.44c29.54,16.73,46.05,40.72,47.27,75.29
				c0.47,13.44-1.34,28.45-5.62,45.28c-13.55,53.27,41.29,68.84,58.99,72.21C828.84,863.04,829.65,866.13,827.75,867.75z"/>
			<path class="st59" d="M558.51,510.95c0,0-3.36,21.49,20.82,33.58c24.18,12.09,113.68,14.61,119.72,42.15
				c6.04,27.54-82.11,27.71-82.11,27.71l-63.14-35.6l-6.72-31.57L558.51,510.95z"/>
			<path class="st15" d="M715.68,585.67c0,0,51.38-21.66,56.92-22.16c5.54-0.5,39.8,16.12,48.36,41.31
				c8.56,25.19-118.38,0.5-118.38,0.5L715.68,585.67z"/>
			<path class="st55" d="M817.44,637.56c-26.2,4.02-52.38-7.06-86.63-11.09c-28.63-3.35-124.06,15.07-154.68,21.23
				c-6.04,1.22-9.55,1.95-9.55,1.95l-13.1-38.3c0,0,12.98-4.95,28.67-10.16c4.68-1.58,9.61-3.18,14.52-4.66
				c12.57-3.81,24.9-6.96,32.38-7.34c20.14-1.01,50.37-11.09,71.54-9.08c21.15,2.01,111.83,1.01,117.87,11.09
				c1.4,2.33,3.49,5.84,5.56,9.92l0.02,0.02C830.93,614.71,837.58,634.46,817.44,637.56z"/>
			<path class="st61" d="M487.98,667.79c-100.74,75.57-172.62,18.47-180,12.77c-7.4-5.72-8.07-31.23-8.07-31.23
				c-8.56-8.19-8.6-15.61-7.02-20.52c1.18-3.75,3.33-6.02,3.33-6.02c-2.98-3.99-3.02-14.7-2.57-22.75c0.34-5.54,0.89-9.83,0.89-9.83
				l123.92,2.01l-6.16,24.58l-5.94,23.77c0,0,16.12-4.28,36.15-8.29C489.8,622.78,558.77,614.69,487.98,667.79z"/>
			<path class="st62" d="M470.36,666.56c-40.82,11.58-94.21-23.68-119.9-33.26c-25.69-9.57-36.78,9.59-47.87,6.06
				c-3.51-1.12-6.83-5.33-9.71-10.56c1.18-3.75,3.33-6.02,3.33-6.02c-2.98-3.99-3.02-14.7-2.57-22.75l61.83-8.54
				c0,0,27.8,11.34,56.82,25.31c10.32,4.95,20.78,10.24,30.21,15.49C469.36,647.17,487.81,661.61,470.36,666.56z"/>
			<path class="st56" d="M817.44,637.56c-26.2,4.02-52.38-7.06-86.63-11.09c-28.63-3.35-124.06,15.07-154.68,21.23l-8.03-29.5
				l14.05-17.01l5.09-6.18l9.43,1.52l6.18,1.01c0,0-12.07,9.06-6.04,20.66c6.04,11.58,10.58,11.58,18.13,8.05
				c7.56-3.53,11.09-7.04,30.23-5.03s30.74-9.57,67-11.6c36.09-2.01,114.08,31.92,111.87-8.46
				C830.93,614.71,837.58,634.46,817.44,637.56z"/>
			<path class="st63" d="M581.46,649.4c-31.17,10.58-57.43,16.12-79.61,18.27c-58.89,5.76-88.96-12.25-105.02-22.71
				c-14.25-9.25-25.75-23.12-32.12-31.8c-3.51-4.77-5.47-7.99-5.47-7.99c23.54,5.82,48.42-13.67,69.65-2.21
				c8.82,4.77,18.63,7.95,28.87,9.94c22.67,4.4,47.51,2.98,68.7-0.18c29.32-4.34,51.69-11.98,51.69-11.98L581.46,649.4z"/>
			<path class="st64" d="M571.11,625.76c-5.03,15.09-18.64,6.53-35.77,26.69c-6.98,8.21-20.22,12.75-33.48,15.21
				c-58.89,5.76-88.96-12.25-105.02-22.71c-14.25-9.25-25.75-23.12-32.12-31.8l93.05-0.26l68.7-0.18l25-0.06
				C551.45,612.66,576.14,610.65,571.11,625.76z"/>
			<path class="st65" d="M827.75,867.75c-20.91,17.86-70.22,74.42-82.87,89.06c-1.8,2.07-4.74,2.74-7.26,1.66l-64.26-27.74
				c-77.89-35.4-101.81-64.24-107.67-87.92c9.61,16.06,26.36,31.69,55.28,33.8c61.95,4.54,43.82-18.13,77.07-12.07
				c33.25,6.04-13.59-45.34-6.04-77.09c7.56-31.73,28.71,33.25,37.78,40.8c9.06,7.56,28.71-24.17,19.63-39.28
				c-6.27-10.46,14.94-23.08,23.6-43.88c0.47,13.44-1.34,28.45-5.62,45.28c-13.55,53.27,41.29,68.84,58.99,72.21
				C828.84,863.04,829.65,866.13,827.75,867.75z"/>
		</g>
		<g>
			<g>
				<path class="st66" d="M333.5,362.01c-20.51,23.69,131.48,100.75,131.48,100.75S447.35,230.53,333.5,362.01z"/>
				<g>
					<path class="st67" d="M459.78,339.68c0,0,14.1-2.69,15.45,61.79s-3.36,94.03-3.36,94.03l33.58,20.82
						c0,0,16.12-15.45,15.45-44.33c-0.67-28.88-16.12-98.06-55.08-151.8S459.78,339.68,459.78,339.68z"/>
					<path class="st68" d="M477.59,499.19c0,0-186.39-80.93-141.39-117.2c21.29-17.18,33.56-41.06,40.57-61.44
						c3.39-9.83,5.54-18.84,6.91-25.91c1.78-9.23,2.19-15.13,2.19-15.13c3.71-3.63,8.01-5.64,12.65-6.45
						c14.9-2.55,33.26,7.62,47.15,17.64c12.13,8.74,20.83,17.4,20.83,17.4l3.69,32.57l4.02,34.25c0.32,2.03,1.66,23.2,1.62,25.23
						l0.1,5.9L477.59,499.19z"/>
					<path class="st69" d="M362.39,349.7c0,0-5.71,17.46,92.02,59.11c0,0,18.81-50.37,13.77-90.34"/>
					<path class="st70" d="M475.93,406.07c-13.89-53.35-39.52-70.57-55.78-72.82c-19.47-2.68-19.47-28.88-26.87-38.28
						c-2.47-3.16-6-2.55-9.61-0.32c1.78-9.23,2.19-15.13,2.19-15.13c3.71-3.63,8.01-5.64,12.65-6.45l47.15,17.64
						c12.13,8.74,20.83,17.4,20.83,17.4l3.69,32.57l4.02,34.25c0.32,2.03,1.66,23.2,1.62,25.23L475.93,406.07z"/>
					<path class="st59" d="M613.58,476.03c0,0,0,11.4-8.72,18.8c-8.74,7.38-36.28-0.67-39.64,36.93c-0.18,1.91-0.37,3.53-0.59,4.85
						c-1.26,7.28-3.35,6.16-5.7,0.91c-0.67-1.52-1.36-3.39-2.05-5.5c-5.09-15.29-10.46-43.25-10.46-43.25l-37.61-93.36l-57.1-94.7
						l22.83,8.74c0,0,37.94-12.65,71.15,28.39c3.08,3.83,6.14,8.11,9.12,12.92C554.81,350.77,618.95,437.74,613.58,476.03z"/>
					<path class="st71" d="M339.13,345.64c0,0-18.64,7.3-31.11,30.22c-9.93,18.26-29.97,12.22-31.86,27.58
						c-3.34,27.17,14.36,60.07,52.64,82.24C367.09,507.84,284.73,446.39,339.13,345.64z"/>
					<path class="st15" d="M520.22,553.26c-3.35,14.11-10.73-0.67-10.73-0.67s-2.9-0.89-7.99-2.56
						c-29.71-9.71-134.07-45.58-171.36-81.72c-15.88-15.37-24.66-34.74-25.63-54.4c-1.72-34.45,20.5-69.88,70.59-86.75
						c-1.32,0.85-46.23,29.54-41.61,44.1c4.42,13.85,75.43,63.63,120.83,88.65c6.31,3.49,12.27,7.62,17.82,12.25l33.68,31.84
						l12.86,12.17l0.87,0.83C519.55,516.99,523.58,539.17,520.22,553.26z"/>
					<path class="st64" d="M518.68,516.16c-0.73,15.47-3.83,34.03-3.83,34.03l-13.36-0.18c-29.71-9.71-134.07-45.58-171.36-81.72
						c-15.88-15.37-24.66-34.74-25.63-54.4c5.37,11.76,15.96,30.76,29.65,34.86c20.16,6.06,32.24,3.37,46.35,15.45
						c14.11,12.09,26.2,26.2,56.43,30.23c29.42,3.93,41.15,26.09,60.74,1.72L518.68,516.16z"/>
					<path class="st60" d="M613.58,476.03c0,0,0,11.4-8.72,18.8c-8.74,7.38-36.28-0.67-39.64,36.93c-0.18,1.91-0.37,3.53-0.59,4.85
						c-2.43,0.65-4.4,0.99-5.7,0.91c-0.95-0.04-1.54-0.3-1.76-0.77c-0.51-1.16-0.59-2.78-0.3-4.74c1.2-8.15,8.82-21.78,16.42-28.85
						c9.39-8.74-3.37-30.9-13.44-51.04c-10.08-20.16-2.68-26.87,0-25.53c2.68,1.34,20.82,24.84,14.11-15.45
						c-5.07-30.4-20.83-60.41-28.27-73.32c3.08,3.83,6.14,8.11,9.12,12.92C554.81,350.77,618.95,437.74,613.58,476.03z"/>
					<path class="st71" d="M463.14,319.64c0,0,78.46,144.45,44.33,186.19c-0.24,0.3-0.3,0.7-0.11,1.03
						c0.95,1.73,3.63,7.63,1.33,16.05c-2.76,10.1-4.14,22.88,2.76,32.98c6.9,10.1,36.58,28.94,36.58,28.94
						S617.38,509.79,463.14,319.64z"/>
					<path class="st60" d="M598.37,601.4c-4.7,4.85-11.01,8.9-18.64,12.23c-65.11,28.43-224.86,4.87-267.05-7.3
						c-52.38-15.11-34.25-49.36-43.33-71.54c-9.06-22.16-3.02-50.37,1.01-71.52c4.04-21.17,5.8-59.82,5.8-59.82
						c6.81,79.22,60.71,47.73,112.09,81.98c51.38,34.25,75.57,42.32,106.8,54.42c23.12,8.96,72.69,26.42,98.73,36.01
						C639,592.52,608.04,591.37,598.37,601.4z"/>
					<circle class="st15" cx="454.61" cy="411.54" r="6.67"/>
					<path class="st72" d="M579.73,613.63c-65.11,28.43-224.86,4.87-267.05-7.3c-52.38-15.11-34.25-49.36-43.33-71.54
						c-9.06-22.16-3.02-50.37,1.01-71.52c4.04-21.17,5.8-59.82,5.8-59.82s0.26,39.95,3.61,51.38c3.35,11.4,14.78,46.35,12.77,76.57
						c-2.01,30.21,32.91,32.91,55.74,51.71c22.85,18.8,105.46,8.72,142.39,12.09c36.95,3.35,58.44,21.49,83.3,18.8
						C576.31,613.75,578.21,613.63,579.73,613.63z"/>
				</g>
			</g>
			<g>
				
					<ellipse transform="matrix(0.9033 -0.429 0.429 0.9033 -12.7534 154.9583)" class="st73" cx="337.37" cy="105.77" rx="38.79" ry="40.8"/>
				<path class="st73" d="M488.49,160.01c0,0,6.04-33.75-15.11-49.87s-43.57-30.22-102.51-4.03s-66.75,97.22-66.75,97.22
					s-15.62,122.41,105.79,78.08s60.95-118.88,60.95-118.88L488.49,160.01z"/>
				<path class="st55" d="M509.7,260.01c0.34,0.71,0.99,1.03,1.54,1.42c0.85,0.57,1.5,1.3,0.51,3.87c0,0-3,5.03-2.49,6.29
					c0.51,1.26,3.33,2.51,2.01,7.44c-0.16,0.55-0.3,1.07-0.43,1.54c-2.51,8.4-3.59,4.54-1.4,16.42c0.22,1.24,4.3,10.46-10.71,17.01
					c-16.87,7.36-54.57,18.31-95.12-22c0,0-25.95-8.56-26.95-31.23s20.89-23.68,28.71-13.1c0,0-7.71-34.59,13.77-41.97
					c0,0-0.34-17.15,18.8-36.28c19.14-19.14,48.36-20.82,54.08-9.39c5.7,11.4,9.06,32.24,7.71,46.01
					c-1.34,13.75,15.25,31.04,16.45,32.81c3.89,5.68-1.44,9.83-7.22,14.44C505.38,256.16,509.7,260.01,509.7,260.01z"/>
				<path class="st73" d="M483.41,206.8c-0.73-0.77-1.69-1.25-2.74-1.38c-3.71-0.44-13.59-0.8-26.94,4.96
					c-17.13,7.39-18.05,13.77-18.05,13.77s16.37-10.41,22.08-11.08c5.71-0.67,16.12-5.71,23.84-3.36
					C487.22,211.42,485.03,208.52,483.41,206.8z"/>
				<path class="st74" d="M484.54,228.1c0,0-15.2-7.02-31.65,10.11"/>
				<path class="st75" d="M511.76,265.29c0,0-3,5.03-2.49,6.29c0.51,1.26,3.33,2.51,2.01,7.44c-0.16,0.55-0.3,1.07-0.43,1.54h-0.02
					c0,0-5.72,1.52-12.77-5.21l-1.68-2.84c0,0,6.37-4.36,10.75-7.89c2.11-1.72,3.31-2.76,4.1-3.2
					C512.09,262,512.74,262.73,511.76,265.29z"/>
				<path class="st74" d="M496.77,273.29c7.79,0.78,12.54-1.82,12.54-1.82"/>
				
					<ellipse transform="matrix(0.9833 -0.1822 0.1822 0.9833 -40.0202 87.4191)" class="st76" cx="455.77" cy="261.52" rx="19.89" ry="14.92"/>
				<path class="st77" d="M429.93,160.95c0,0-21.28,30.33-11.26,45.6c10.02,15.26-9.83,28.55-6.93,43.9
					c2.9,15.35,13.87,26.9,4.33,44.19"/>
				<path class="st77" d="M399.33,228.8c0,0,10.58,23.93,10.07,39.04c-0.61,18.44-12.43,19.73-10.07,30.14
					c2.35,10.41,6.38,10.41,3.02,18.81"/>
				<path class="st77" d="M380.1,287.74c0,0-15.72,2.38-13.4,16.92c2.32,14.54-0.67,15.86-3.97,17.1"/>
				<path class="st77" d="M371.62,286.1c0,0,10.41-1.34,11.08,11.08s-10.75,16.46-10.41,20.49"/>
				<path class="st77" d="M371.66,287.36c0,0,4.03,9.4,11.75,16.79c7.72,7.39-8.4,16.46-8.4,16.46"/>
			</g>
		</g>
	</g>
</g>
</svg>
